<svg width="27" height="25" xmlns="http://www.w3.org/2000/svg" xmlns:xlink="http://www.w3.org/1999/xlink" xml:space="preserve" overflow="hidden"><g transform="translate(-628 -410)"><path d="M10.1823 6.69271C9.97396 6.90104 9.97396 7.21354 10.1823 7.42187 10.2865 7.52604 10.4167 7.57812 10.5469 7.57812 10.6771 7.57812 10.8073 7.52604 10.9115 7.42187 11.6146 6.71875 11.6146 5.54687 10.9115 4.84375 10.599 4.53125 10.599 4.03646 10.9115 3.75 11.1198 3.54167 11.1198 3.22917 10.9115 3.02083 10.7031 2.8125 10.3906 2.8125 10.1823 3.02083 9.47917 3.72396 9.47917 4.89583 10.1823 5.59896 10.4688 5.91146 10.4688 6.40625 10.1823 6.69271Z" stroke="#04D0A0" stroke-width="0.781279" fill="none" transform="matrix(1.08 0 0 1 628 410)"/><path d="M13.0208 8.22917C12.8125 8.4375 12.8125 8.75 13.0208 8.95833 13.125 9.0625 13.2552 9.11458 13.3854 9.11458 13.5156 9.11458 13.6458 9.0625 13.75 8.95833 14.4531 8.25521 14.4531 7.08333 13.75 6.38021 13.4375 6.06771 13.4375 5.57292 13.75 5.28646 13.9583 5.07812 13.9583 4.76562 13.75 4.55729 13.5417 4.34896 13.2292 4.34896 13.0208 4.55729 12.3177 5.26042 12.3177 6.43229 13.0208 7.13542 13.3333 7.42187 13.3333 7.91667 13.0208 8.22917Z" stroke="#04D0A0" stroke-width="0.781279" fill="none" transform="matrix(1.08 0 0 1 628 410)"/><path d="M7.57812 8.22917C7.36979 8.4375 7.36979 8.75 7.57812 8.95833 7.68229 9.0625 7.8125 9.11458 7.94271 9.11458 8.07292 9.11458 8.20312 9.0625 8.30729 8.95833 9.01042 8.25521 9.01042 7.08333 8.30729 6.38021 7.99479 6.06771 7.99479 5.57292 8.30729 5.28646 8.51562 5.07812 8.51562 4.76562 8.30729 4.55729 8.09896 4.34896 7.78646 4.34896 7.57812 4.55729 6.875 5.26042 6.875 6.43229 7.57812 7.13542 7.86458 7.42187 7.86458 7.91667 7.57812 8.22917Z" stroke="#04D0A0" stroke-width="0.781279" fill="none" transform="matrix(1.08 0 0 1 628 410)"/><path d="M13.9062 22.1354C14.4792 21.5365 14.974 20.8073 15.3906 19.9479 15.8073 20.1042 16.25 20.1823 16.7448 20.1823 18.9323 20.1823 20.7031 18.4115 20.7031 16.224 20.6771 14.0885 19.0104 12.3438 16.9271 12.2396L16.9271 10.6771 4.42708 10.6771 4.42708 12.7604C4.42708 16.7448 5.625 20.2344 7.44792 22.1354L13.9062 22.1354ZM16.901 13.8281C18.151 13.9062 19.1406 14.9479 19.1406 16.224 19.1146 17.5521 18.0469 18.6198 16.7187 18.6198 16.4583 18.6198 16.224 18.5677 15.9896 18.5156 16.4844 17.1354 16.7969 15.5208 16.901 13.8281ZM7.03125 13.0208 8.33333 11.7188 9.63542 11.7188 10.9375 13.0208 10.9375 16.9271 7.03125 16.9271 7.03125 13.0208Z" stroke="#04D0A0" stroke-width="0.781279" fill="none" transform="matrix(1.08 0 0 1 628 410)"/></g></svg>