<svg width="349" height="344" xmlns="http://www.w3.org/2000/svg" xmlns:xlink="http://www.w3.org/1999/xlink" xml:space="preserve" overflow="hidden"><defs><clipPath id="clip0"><rect x="3365" y="1669" width="349" height="344"/></clipPath></defs><g clip-path="url(#clip0)" transform="translate(-3365 -1669)"><path d="M3365 1841C3365 1746.01 3443.13 1669 3539.5 1669 3635.87 1669 3714 1746.01 3714 1841 3714 1935.99 3635.87 2013 3539.5 2013 3443.13 2013 3365 1935.99 3365 1841Z" fill="#999999" fill-rule="evenodd"/><g><g><g><path d="M92.4552 60.7698C90.5635 62.6614 90.5635 65.4989 92.4552 67.3906 93.401 68.3364 94.5833 68.8093 95.7656 68.8093 96.9479 68.8093 98.1302 68.3364 99.076 67.3906 105.46 61.0062 105.46 50.3656 99.076 43.9812 96.2385 41.1437 96.2385 36.651 99.076 34.05 100.968 32.1583 100.968 29.3208 99.076 27.4292 97.1843 25.5375 94.3468 25.5375 92.4552 27.4292 86.0708 33.8135 86.0708 44.4541 92.4552 50.8385 95.0562 53.676 95.0562 58.1687 92.4552 60.7698Z" stroke="#00FFC2" stroke-width="7.09375" fill="none" transform="matrix(1.01322 0 0 1 3426 1719)"/><path d="M118.229 74.7208C116.337 76.6125 116.337 79.45 118.229 81.3416 119.175 82.2875 120.357 82.7604 121.54 82.7604 122.722 82.7604 123.904 82.2875 124.85 81.3416 131.234 74.9573 131.234 64.3166 124.85 57.9323 122.012 55.0948 122.012 50.6021 124.85 48.001 126.742 46.1094 126.742 43.2719 124.85 41.3802 122.958 39.4885 120.121 39.4885 118.229 41.3802 111.845 47.7646 111.845 58.4052 118.229 64.7896 121.067 67.3906 121.067 71.8833 118.229 74.7208Z" stroke="#00FFC2" stroke-width="7.09375" fill="none" transform="matrix(1.01322 0 0 1 3426 1719)"/><path d="M68.8093 74.7208C66.9177 76.6125 66.9177 79.45 68.8093 81.3416 69.7552 82.2875 70.9375 82.7604 72.1198 82.7604 73.302 82.7604 74.4843 82.2875 75.4302 81.3416 81.8145 74.9573 81.8145 64.3166 75.4302 57.9323 72.5927 55.0948 72.5927 50.6021 75.4302 48.001 77.3218 46.1094 77.3218 43.2719 75.4302 41.3802 73.5385 39.4885 70.701 39.4885 68.8093 41.3802 62.425 47.7646 62.425 58.4052 68.8093 64.7896 71.4104 67.3906 71.4104 71.8833 68.8093 74.7208Z" stroke="#00FFC2" stroke-width="7.09375" fill="none" transform="matrix(1.01322 0 0 1 3426 1719)"/><path d="M126.269 200.989C131.471 195.551 135.963 188.93 139.747 181.127 143.53 182.546 147.55 183.255 152.043 183.255 171.905 183.255 187.984 167.176 187.984 147.313 187.748 127.924 172.614 112.081 153.698 111.135L153.698 96.9479 40.1979 96.9479 40.1979 115.865C40.1979 152.043 51.075 183.728 67.627 200.989L126.269 200.989ZM153.461 125.559C164.811 126.269 173.797 135.727 173.797 147.313 173.56 159.373 163.866 169.068 151.806 169.068 149.442 169.068 147.313 168.595 145.185 168.122 149.678 155.59 152.516 140.929 153.461 125.559ZM63.8437 118.229 75.6666 106.406 87.4895 106.406 99.3124 118.229 99.3124 153.698 63.8437 153.698 63.8437 118.229Z" stroke="#00FFC2" stroke-width="7.09375" fill="none" transform="matrix(1.01322 0 0 1 3426 1719)"/></g></g></g></g></svg>