<svg width="97" height="98" xmlns="http://www.w3.org/2000/svg" xmlns:xlink="http://www.w3.org/1999/xlink" xml:space="preserve" overflow="hidden"><g transform="translate(-351 -1)"><path d="M23.8778 85.8696 73.1626 85.8696C81.6473 85.8696 85.8698 81.6475 85.8698 73.2845L85.8698 23.7155C85.8698 15.3525 81.6473 11.1304 73.1626 11.1304L23.8778 11.1304C15.4336 11.1304 11.1302 15.3118 11.1302 23.7155L11.1302 73.2845C11.1302 81.6882 15.4336 85.8696 23.8778 85.8696ZM23.9995 79.3335C19.9399 79.3335 17.6665 77.1819 17.6665 72.9598L17.6665 24.0402C17.6665 19.8181 19.9399 17.6665 23.9995 17.6665L73.0408 17.6665C77.0599 17.6665 79.3334 19.8181 79.3334 24.0402L79.3334 72.9598C79.3334 77.1819 77.0599 79.3335 73.0408 79.3335ZM31.5099 62.2421C31.5099 64.0285 32.931 65.4899 34.7172 65.4899 35.6103 65.4899 36.4223 65.1651 36.9906 64.5563L48.4796 53.0266 60.0091 64.5563C60.5775 65.1246 61.3489 65.4899 62.242 65.4899 64.0283 65.4899 65.4897 64.0285 65.4897 62.2421 65.4897 61.3083 65.1244 60.5777 64.5154 59.9687L53.067 48.4797 64.5561 36.9501C65.2055 36.3007 65.5304 35.5699 65.5304 34.7173 65.5304 32.9312 64.1096 31.4696 62.2827 31.4696 61.4706 31.4696 60.7805 31.7943 60.131 32.4439L48.4796 44.0141 36.9094 32.4844C36.3005 31.9161 35.6103 31.5508 34.7172 31.5508 32.9715 31.5508 31.5099 32.9717 31.5099 34.7579 31.5099 35.6104 31.8754 36.3818 32.4437 36.9908L43.9327 48.4797 32.4437 60.0092C31.8754 60.6182 31.5099 61.349 31.5099 62.2421Z" fill="#A6A6A6" transform="matrix(1 0 0 1.01031 351 1)"/></g></svg>