<svg width="27" height="27" xmlns="http://www.w3.org/2000/svg" xmlns:xlink="http://www.w3.org/1999/xlink" xml:space="preserve" overflow="hidden"><g transform="translate(-621 -451)"><path d="M643.851 459.469 643.604 459.563C642.924 459.818 642.167 459.772 641.524 459.434L641.491 459.418C641.368 459.353 641.231 459.319 641.092 459.319 641.069 459.319 641.047 459.319 641.024 459.321L640.862 459.334C640.796 459.339 640.729 459.342 640.663 459.342 640.174 459.342 639.695 459.201 639.285 458.936L639 458.754C638.234 458.998 637.74 459.74 637.81 460.54 637.806 462.382 636.892 466.26 634.417 468.264 631.541 470.593 628.649 470.35 627.06 470.795 625.438 471.25 624.356 471.965 623.841 473.345 623.482 474.228 623.728 475.242 624.452 475.862 624.567 475.972 624.75 475.966 624.859 475.851 624.909 475.798 624.937 475.728 624.938 475.655 624.943 475.21 625.033 474.624 625.41 474.28 626.117 473.636 627.35 473.577 629.106 473.61 632.053 473.663 634.091 473.813 636.991 472.729 640.731 471.331 643.357 467.971 644.215 464.047 644.482 462.831 644.555 461.581 644.432 460.343 644.393 459.974 644.176 459.648 643.851 459.469Z" stroke="#04D0A0" stroke-width="0.843781" fill="none"/><path d="M639.413 458.015 639.742 458.227C640.055 458.428 640.425 458.522 640.796 458.492L640.958 458.48C641.278 458.455 641.598 458.52 641.882 458.669L641.916 458.687C642.346 458.913 642.852 458.943 643.306 458.772L643.576 458.67C643.633 458.649 643.663 458.587 643.645 458.529L643.472 457.947C643.397 457.695 643.269 457.462 643.096 457.264 642.967 457.141 642.855 457.001 642.764 456.847 642.734 456.78 642.713 456.709 642.701 456.637 642.657 455.991 643.017 454.79 643.41 454.354 643.581 454.162 643.823 454.049 644.08 454.041 644.162 454.048 644.239 454.082 644.299 454.138 644.392 454.218 644.526 454.227 644.629 454.161L645.119 453.853C645.25 453.773 645.291 453.601 645.21 453.47 645.203 453.458 645.195 453.447 645.187 453.437 644.931 453.138 644.567 452.952 644.175 452.92 643.566 452.896 642.978 453.146 642.572 453.601 642.087 454.229 641.77 454.971 641.654 455.756 641.614 455.953 641.522 456.136 641.387 456.284 641.172 456.514 640.892 456.674 640.585 456.741 640.276 456.815 640.004 456.996 639.816 457.252L639.381 457.852C639.344 457.903 639.356 457.974 639.407 458.011 639.409 458.013 639.411 458.014 639.413 458.015Z" stroke="#04D0A0" stroke-width="0.843781" fill="none"/></g></svg>