<svg width="401" height="392" xmlns="http://www.w3.org/2000/svg" xmlns:xlink="http://www.w3.org/1999/xlink" xml:space="preserve" overflow="hidden"><defs><clipPath id="clip0"><rect x="3249" y="956" width="401" height="392"/></clipPath></defs><g clip-path="url(#clip0)" transform="translate(-3249 -956)"><path d="M3249 1152C3249 1043.75 3338.77 956 3449.5 956 3560.23 956 3650 1043.75 3650 1152 3650 1260.25 3560.23 1348 3449.5 1348 3338.77 1348 3249 1260.25 3249 1152Z" fill="#999999" fill-rule="evenodd"/><g><g><g><path d="M3523.28 1101.12 3520.85 1102.04C3514.18 1104.55 3506.75 1104.09 3500.44 1100.78L3500.12 1100.62C3498.91 1099.98 3497.56 1099.65 3496.2 1099.64 3495.98 1099.64 3495.76 1099.64 3495.54 1099.67L3493.94 1099.79C3493.29 1099.84 3492.64 1099.87 3491.99 1099.87 3487.19 1099.87 3482.49 1098.49 3478.46 1095.89L3475.67 1094.1C3468.15 1096.49 3463.3 1103.78 3463.99 1111.63 3463.94 1129.71 3454.97 1167.77 3430.69 1187.44 3402.46 1210.3 3374.07 1207.92 3358.47 1212.28 3342.56 1216.75 3331.93 1223.76 3326.88 1237.31 3323.36 1245.98 3325.77 1255.93 3332.88 1262.02 3334.01 1263.09 3335.8 1263.04 3336.87 1261.91 3337.37 1261.39 3337.64 1260.7 3337.65 1259.98 3337.7 1255.62 3338.58 1249.87 3342.28 1246.49 3349.23 1240.17 3361.33 1239.59 3378.56 1239.91 3407.48 1240.43 3427.49 1241.91 3455.95 1231.27 3492.66 1217.54 3518.43 1184.57 3526.85 1146.05 3529.47 1134.12 3530.18 1121.85 3528.98 1109.7 3528.6 1106.08 3526.47 1102.88 3523.28 1101.12Z" stroke="#00FFC2" stroke-width="8.28125" fill="none"/><path d="M3479.72 1086.85 3482.95 1088.93C3486.02 1090.91 3489.65 1091.82 3493.29 1091.54L3494.89 1091.41C3498.02 1091.17 3501.17 1091.81 3503.95 1093.27L3504.28 1093.45C3508.51 1095.66 3513.47 1095.96 3517.93 1094.28L3520.58 1093.28C3521.14 1093.07 3521.44 1092.46 3521.26 1091.9L3519.56 1086.18C3518.82 1083.71 3517.56 1081.42 3515.86 1079.48 3514.6 1078.27 3513.51 1076.89 3512.61 1075.39 3512.32 1074.73 3512.11 1074.04 3511.99 1073.32 3511.56 1066.99 3515.1 1055.2 3518.95 1050.92 3520.63 1049.04 3523.01 1047.93 3525.52 1047.85 3526.33 1047.91 3527.09 1048.25 3527.68 1048.8 3528.59 1049.59 3529.9 1049.68 3530.91 1049.03L3535.72 1046C3537.01 1045.21 3537.41 1043.53 3536.62 1042.24 3536.55 1042.13 3536.47 1042.02 3536.39 1041.92 3533.87 1038.99 3530.31 1037.16 3526.46 1036.84 3520.48 1036.61 3514.71 1039.06 3510.72 1043.53 3505.96 1049.69 3502.86 1056.97 3501.71 1064.68 3501.33 1066.61 3500.42 1068.4 3499.09 1069.86 3496.99 1072.12 3494.24 1073.69 3491.22 1074.35 3488.19 1075.08 3485.52 1076.85 3483.67 1079.36L3479.41 1085.25C3479.05 1085.75 3479.16 1086.45 3479.67 1086.81 3479.68 1086.83 3479.7 1086.84 3479.72 1086.85Z" stroke="#00FFC2" stroke-width="8.28125" fill="none"/></g></g></g></g></svg>