<svg width="321" height="321" xmlns="http://www.w3.org/2000/svg" xmlns:xlink="http://www.w3.org/1999/xlink" xml:space="preserve" overflow="hidden"><defs><clipPath id="clip0"><rect x="2625" y="382" width="321" height="321"/></clipPath></defs><g clip-path="url(#clip0)" transform="translate(-2625 -382)"><path d="M2625 542.5C2625 453.858 2696.86 382 2785.5 382 2874.14 382 2946 453.858 2946 542.5 2946 631.142 2874.14 703 2785.5 703 2696.86 703 2625 631.142 2625 542.5Z" fill="#999999" fill-rule="evenodd"/><g><g><g><path d="M58.1591 47.6245C58.2932 47.908 58.4514 48.1827 58.6141 48.4575L52.783 51.6928C49.5938 53.1463 47.3818 56.1445 46.9343 59.6207 50.7873 59.6207 59.4427 59.2097 65.5133 55.9612L67.4035 54.9479C67.8431 55.1018 68.2827 55.2381 68.7355 55.3721L68.7355 57.8866C68.7553 61.6846 74.1028 65.1617 77.0392 66.6409 79.9119 65.1529 85.1429 61.6604 85.2462 57.8074L85.3144 55.3194C85.7539 55.1875 86.1935 55.049 86.6023 54.8996L88.5013 55.9414C94.4533 59.2097 103.172 59.5943 107.039 59.5328 106.488 56.0722 104.268 53.1045 101.104 51.5983L95.3457 48.3256C95.5017 48.0531 95.649 47.7805 95.7852 47.4992L102.194 47.4992C107.619 47.4583 112.969 46.2374 117.874 43.921 112.931 41.6455 107.565 40.4327 102.124 40.3604L95.66 40.3054C95.5237 40.0329 95.361 39.7669 95.1984 39.501L101.073 36.2393C104.258 34.7812 106.467 31.785 106.918 28.3114 103.063 28.3114 94.4159 28.7202 88.3497 31.9665L86.2858 33.0655C85.91 32.9358 85.5166 32.8259 85.1275 32.7116L85.1275 30.0345C85.1078 26.2365 79.758 22.7594 76.8194 21.278 73.9467 22.766 68.7135 26.2607 68.6102 30.1137L68.5377 32.7863C68.1706 32.8962 67.8036 33.0061 67.4387 33.1314L65.3441 31.9797C59.3921 28.7136 50.7939 28.3531 46.8156 28.3883 47.3664 31.8485 49.5861 34.8155 52.75 36.3206L58.6097 39.6526C58.4602 39.9054 58.3086 40.1581 58.1833 40.4197L51.6686 40.4197C46.2435 40.4593 40.892 41.6804 35.9865 43.9979 40.9303 46.2743 46.2967 47.4882 51.739 47.5607ZM76.9271 39.0416C83.0505 39.0416 87.6244 41.6373 87.6244 43.9584 87.6244 46.2794 83.0505 48.8751 76.9271 48.8751 70.8037 48.8751 66.2298 46.2794 66.2298 43.9584 66.2298 41.6373 70.8037 39.0416 76.9271 39.0416Z" stroke="#00FFC2" stroke-width="6.59375" fill="none" transform="matrix(1.00474 0 0 1 2679 437)"/><path d="M27.5905 55.2095 27.5905 55.2095C18.8186 65.3727 38.0284 75.9886 56.4623 71.162 63.2758 81.7713 90.4707 81.7823 97.3216 71.1774L97.3216 71.1774C115.742 76.0128 134.981 65.4188 126.235 55.2491L126.235 55.2491C145.463 51.4862 145.482 36.4854 126.264 32.7072 135.036 22.5418 115.826 11.9281 97.3919 16.7547 90.5784 6.14538 63.3835 6.13439 56.5326 16.7393 38.1119 11.9039 18.8735 22.4979 27.619 32.6676 8.39165 36.4305 8.37187 51.4313 27.5905 55.2095ZM30.14 42.2308C34.9207 39.1985 40.2975 37.2294 45.9057 36.4569 43.2436 33.6018 41.9881 29.7112 42.4791 25.8387L42.7978 24.1771 44.4968 24.0672C51.3961 23.6799 58.3048 24.6376 64.8386 26.8871 67.131 20.9198 74.8918 17.2844 75.9007 16.8338L76.7798 16.4382 77.659 16.8251C78.6964 17.2756 86.6375 20.9044 88.897 26.8629 95.4046 24.6165 102.281 23.6305 109.157 23.9573L110.832 24.054 111.182 25.6959C111.776 29.575 110.575 33.5143 107.918 36.4019 113.516 37.1696 118.892 39.1005 123.699 42.0703L126.336 43.8638 123.723 45.6903C118.942 48.7215 113.565 50.6906 107.957 51.4642 110.619 54.3182 111.875 58.2083 111.384 62.0802L111.065 63.7528 109.366 63.8649C102.463 64.2473 95.5516 63.2853 89.0157 61.0318 86.7254 66.9991 78.9646 70.6323 77.9557 71.0828L77.0766 71.4807 76.1974 71.0916C75.16 70.6521 67.2211 67.0145 64.9638 61.0559 58.4587 63.3038 51.5851 64.2928 44.71 63.9704L43.0352 63.8737 42.6858 62.234C42.0862 58.3547 43.2823 54.4134 45.9365 51.5214 40.3375 50.7512 34.9614 48.819 30.1532 45.8486L27.5157 44.0551Z" stroke="#00FFC2" stroke-width="6.59375" fill="none" transform="matrix(1.00474 0 0 1 2679 437)"/><path d="M131.603 127.233C137.728 127.233 142.302 129.829 142.302 132.148 142.302 133.967 139.462 135.926 135.299 136.699L153.654 146.889C156.421 147.282 159.213 147.465 162.006 147.436 161.451 143.972 159.224 141.003 156.052 139.502L150.294 136.227C150.45 135.957 150.597 135.684 150.733 135.403L157.142 135.403C162.567 135.362 167.918 134.14 172.822 131.822 167.878 129.549 162.513 128.337 157.072 128.264L150.608 128.209C150.472 127.934 150.309 127.67 150.146 127.404L156.021 124.143C159.206 122.685 161.415 119.688 161.866 116.215 158.01 116.215 149.364 116.622 143.298 119.87L141.234 120.969C140.858 120.839 140.465 120.729 140.075 120.615L140.075 117.936C140.056 114.138 134.706 110.661 131.767 109.182 128.895 110.67 123.661 114.164 123.558 118.017L123.486 120.69C123.119 120.8 122.751 120.91 122.398 121.035L120.303 119.883C114.34 116.615 105.742 116.27 101.764 116.29 101.862 117.005 102.044 117.707 102.306 118.38L122.617 129.653C125.301 127.961 128.432 127.118 131.603 127.233Z" stroke="#00FFC2" stroke-width="6.59375" fill="none" transform="matrix(1.00474 0 0 1 2679 437)"/><path d="M126.323 155.951C122.216 153.283 117.033 152.893 112.573 154.916 108.228 157.465 105.23 161.802 104.381 166.767L144.739 189.129C144.456 176.009 136.827 161.835 126.323 155.951Z" stroke="#00FFC2" stroke-width="6.59375" fill="none" transform="matrix(1.00474 0 0 1 2679 437)"/><path d="M97.315 115.61C97.295 114.984 97.3326 114.357 97.4271 113.738L97.7458 112.065 99.4448 111.955C106.345 111.573 113.254 112.536 119.786 114.791 122.079 108.823 129.84 105.188 130.849 104.737L131.728 104.34 132.607 104.729C133.644 105.168 141.585 108.808 143.845 114.766 150.348 112.52 157.219 111.533 164.092 111.856L165.767 111.953 166.116 113.593C166.716 117.471 165.52 121.412 162.866 124.303 168.464 125.072 173.839 127.004 178.647 129.974L181.284 131.767 178.671 133.592C173.891 136.625 168.514 138.594 162.905 139.366 165.567 142.221 166.823 146.111 166.332 149.984L166.004 151.656 164.305 151.768C164.193 151.768 163.547 151.81 162.547 151.828L173.932 158.149C182.152 155.646 185.495 148.188 181.185 143.166L181.185 143.166C190.797 141.284 195.615 136.594 195.615 131.899 195.615 127.204 190.821 122.512 181.212 120.624 185.597 115.54 182.988 110.346 176.979 107.025 169.329 103.256 160.564 102.419 152.34 104.671 148.929 99.3656 140.427 96.7084 131.921 96.7084 123.415 96.7084 114.905 99.3459 111.481 104.654 102.282 102.236 90.1608 103.621 85.4199 109.01Z" stroke="#00FFC2" stroke-width="6.59375" fill="none" transform="matrix(1.00474 0 0 1 2679 437)"/><path d="M84.6396 116.12 84.6396 155.832 100.423 164.578C101.743 158.822 105.431 153.89 110.579 150.997 116.341 148.281 123.092 148.702 128.47 152.113 140.895 159.072 149.753 176.306 149.116 191.551L170.339 203.307 170.339 163.694Z" stroke="#00FFC2" stroke-width="6.59375" fill="none" transform="matrix(1.00474 0 0 1 2679 437)"/><path d="M184.625 159.38C182.428 161.48 179.804 163.083 176.932 164.079L176.932 202.905C180.098 201.541 182.779 199.254 184.625 196.342 185.848 193.664 186.551 190.777 186.698 187.836 187.493 187.817 188.279 187.66 189.021 187.372 193.052 186.086 195.742 182.285 195.615 178.055L195.615 144.146C193.791 145.533 191.789 146.668 189.663 147.522 189.747 149.13 189.54 150.739 189.054 152.274 188.175 154.966 186.655 157.405 184.625 159.38Z" stroke="#00FFC2" stroke-width="6.59375" fill="none" transform="matrix(1.00474 0 0 1 2679 437)"/><path d="M134.974 59.7042C135.131 61.9404 134.715 64.1796 133.765 66.2101 130.202 73.9709 119.347 79.1778 106.748 79.1778 104.393 79.1784 102.041 78.9903 99.7151 78.6151 94.5896 83.2505 86.4287 85.9166 76.8919 85.9166 67.3552 85.9166 59.1745 83.2439 54.0512 78.5975 51.7385 78.9699 49.3997 79.1565 47.0574 79.1558L47.0574 79.1558C34.4546 79.1558 23.5946 73.9335 20.0384 66.1661 19.0891 64.1308 18.6753 61.887 18.8362 59.6471 16.8227 58.8136 14.9244 57.7254 13.1875 56.4096L13.1875 87.4771C13.1875 92.1697 16.7657 99.425 26.375 101.324 26.3596 108.232 30.4587 112.329 35.5096 115.195 41.8732 118.828 49.4534 119.676 56.4623 117.538 59.8735 122.844 68.375 125.499 76.881 125.501 77.27 125.501 77.6568 125.479 78.0458 125.468L78.0458 107.399 80.4636 104.66C84.7847 99.7371 92.7192 96.915 102.223 96.915 104.511 96.9154 106.795 97.0888 109.056 97.4337 114.186 92.7873 122.356 90.1146 131.906 90.1146 134.836 90.1137 137.76 90.3948 140.636 90.9542 140.651 90.752 140.667 90.5498 140.667 90.3454L140.667 56.4425C138.918 57.7707 137.004 58.867 134.974 59.7042Z" stroke="#00FFC2" stroke-width="6.59375" fill="none" transform="matrix(1.00474 0 0 1 2679 437)"/></g></g></g></g></svg>