<svg width="27" height="24" xmlns="http://www.w3.org/2000/svg" xmlns:xlink="http://www.w3.org/1999/xlink" xml:space="preserve" overflow="hidden"><g transform="translate(-621 -492)"><path d="M15.2512 21.5 8.75123 21.5C7.50917 21.4986 6.50262 20.4921 6.50122 19.25L6.50122 9.62267C6.50163 8.69445 6.89855 7.81058 7.59205 7.1936L8.75123 6.1632 8.75123 6.05993C7.88923 5.37008 7.74965 4.11202 8.43952 3.25 8.8191 2.7757 9.39375 2.49973 10.0012 2.5L14.0012 2.5C15.1053 2.49956 16.0008 3.39427 16.0012 4.4984 16.0015 5.10585 15.7255 5.68048 15.2512 6.06005L15.2512 6.18932 16.5493 7.48755C17.1608 8.09568 17.5035 8.92315 17.5012 9.78553L17.5012 19.25C17.4998 20.4921 16.4933 21.4986 15.2512 21.5ZM10.0012 4C9.7255 3.9996 9.50165 4.2228 9.50123 4.49853 9.50095 4.6977 9.61905 4.878 9.80177 4.95727L10.2512 5.15392 10.2512 6.8368 8.58862 8.3147C8.21517 8.6469 8.00142 9.12285 8.00123 9.62267L8.00123 19.25C8.00167 19.664 8.3372 19.9995 8.75123 20L15.2512 20C15.6652 19.9995 16.0008 19.664 16.0012 19.25L16.0012 9.78553C15.9999 9.32168 15.8158 8.87705 15.4888 8.5481L13.7512 6.81068 13.7512 5.15417 14.2004 4.95752C14.4535 4.84785 14.5697 4.5538 14.46 4.30078 14.3808 4.11795 14.2005 3.99975 14.0012 4Z" stroke="#04D0A0" stroke-width="0.750027" fill="none" transform="matrix(1.125 0 0 1 621 492)"/><path d="M9.50123 13.5333C9.2251 13.5333 9.00125 13.3095 9.00123 13.0333L9.00123 9.9242C9.0013 9.5433 9.16425 9.1806 9.44897 8.92762L10.2607 8.23217C10.4705 8.05258 10.7861 8.077 10.9657 8.28675 11.1453 8.49648 11.1209 8.8121 10.9111 8.9917L10.1062 9.68115C10.0388 9.74393 10.0007 9.83208 10.0012 9.9242L10.0012 13.0333C10.0012 13.3095 9.77738 13.5333 9.50123 13.5333Z" stroke="#04D0A0" stroke-width="0.750027" fill="none" transform="matrix(1.125 0 0 1 621 492)"/></g></svg>