<svg width="372" height="349" xmlns="http://www.w3.org/2000/svg" xmlns:xlink="http://www.w3.org/1999/xlink" xml:space="preserve" overflow="hidden"><defs><clipPath id="clip0"><rect x="3077" y="394" width="372" height="349"/></clipPath></defs><g clip-path="url(#clip0)" transform="translate(-3077 -394)"><path d="M3077 568.5C3077 472.126 3160.27 394 3263 394 3365.72 394 3449 472.126 3449 568.5 3449 664.874 3365.72 743 3263 743 3160.27 743 3077 664.874 3077 568.5Z" fill="#999999" fill-rule="evenodd"/><g><g><g><path d="M145.522 205.146 83.5013 205.146C71.65 205.132 62.0459 195.528 62.0325 183.677L62.0325 91.8163C62.0363 82.9595 65.8236 74.5259 72.4408 68.6389L83.5013 58.8072 83.5013 57.8218C75.2763 51.2395 73.9446 39.2356 80.5271 31.0104 84.1489 26.4848 89.632 23.8516 95.4283 23.8542L133.595 23.8542C144.13 23.8499 152.674 32.387 152.678 42.9222 152.681 48.7183 150.047 54.2012 145.522 57.823L145.522 59.0565 157.908 71.4437C163.743 77.2462 167.013 85.1417 166.991 93.3702L166.991 183.677C166.977 195.528 157.374 205.132 145.522 205.146ZM95.4283 38.1667C92.7975 38.1628 90.6616 40.2925 90.6575 42.9234 90.6549 44.8239 91.7817 46.5442 93.5252 47.3007L97.8138 49.177 97.8138 65.2345 81.9498 79.3361C78.3864 82.5058 76.3469 87.0472 76.345 91.8163L76.345 183.677C76.3493 187.628 79.5508 190.829 83.5013 190.833L145.522 190.833C149.473 190.829 152.674 187.628 152.678 183.677L152.678 93.3702C152.666 88.9443 150.909 84.7018 147.789 81.5631L131.21 64.9852 131.21 49.1794 135.496 47.303C137.91 46.2566 139.019 43.4508 137.973 41.0366 137.217 39.2921 135.496 38.1643 133.595 38.1667Z" stroke="#00FFC2" stroke-width="7.15625" fill="none" transform="matrix(1.07424 0 0 1 3142 459)"/><path d="M90.6575 129.13C88.0228 129.13 85.8869 126.994 85.8867 124.36L85.8867 94.6934C85.8874 91.059 87.4422 87.5982 90.1589 85.1844L97.9046 78.5486C99.9058 76.835 102.917 77.068 104.631 79.0694 106.345 81.0705 106.112 84.0821 104.111 85.7958L96.43 92.3743C95.7866 92.9733 95.4236 93.8144 95.4283 94.6934L95.4283 124.36C95.4283 126.994 93.2924 129.13 90.6575 129.13Z" stroke="#00FFC2" stroke-width="7.15625" fill="none" transform="matrix(1.07424 0 0 1 3142 459)"/></g></g></g></g></svg>