<svg width="136" height="136" xmlns="http://www.w3.org/2000/svg" xmlns:xlink="http://www.w3.org/1999/xlink" xml:space="preserve" overflow="hidden"><g transform="translate(-57 -301)"><path d="M122.055 311.454C122.349 311.411 122.964 311.421 123.287 311.414 126.385 311.349 129.211 311.455 132.301 311.808 146.703 313.462 160.14 319.878 170.48 330.037 183.355 342.711 190.732 359.94 191.016 378.005 191.099 391.373 188.12 402.788 181.517 414.455 179.603 417.911 177.438 421.042 174.709 423.905 171.705 427.056 168.442 426.642 164.466 426.631L157.47 426.63 127.839 426.6 97.4306 426.602C93.8996 426.63 90.3683 426.637 86.8371 426.624 83.5196 426.623 78.5373 427.097 75.9901 424.682 73.979 422.776 72.0129 420.165 70.4753 417.852 63.6935 407.579 59.7269 395.705 58.9721 383.419 57.8471 365.13 64.0311 347.144 76.1643 333.415 84.8699 323.423 96.4555 316.371 109.33 313.228 113.844 312.162 117.468 311.776 122.055 311.454ZM126.576 424.53 156.032 424.584C158.914 424.604 161.796 424.604 164.678 424.584 167.751 424.583 170.728 425.051 173.048 422.598 175.501 420.005 177.524 417.203 179.36 414.147 185.795 403.402 189.137 391.087 189.016 378.562 188.855 360.746 181.584 343.732 168.818 331.303 156.799 319.665 140.687 313.218 123.957 313.352 123.685 313.355 123.269 313.351 123.012 313.379 118.559 313.794 115.055 314.031 110.598 315.057 97.135 318.156 85.1403 325.819 76.3461 336.407 65.0348 350.049 59.5509 367.596 61.0814 385.252 62.1568 396.859 66.2756 408.503 73.0472 418.031 74.0008 419.373 76.1411 422.157 77.3449 423.156 78.2277 423.895 79.3016 424.37 80.4425 424.524 81.6398 424.675 84.0781 424.583 85.3255 424.589L97.7418 424.535 126.576 424.53Z" stroke="#A6A6A6" stroke-width="2" fill="#999999"/><path d="M123.149 320.088C123.449 320.063 123.855 320.093 124.168 320.084 127.849 319.979 131.531 320.317 135.152 320.996 146.155 323.031 156.297 328.316 164.27 336.168 175.793 347.304 182.362 362.6 182.503 378.624 182.624 390.803 179.1 402.74 172.384 412.901 171.362 414.426 170.127 416.184 168.931 417.602 168.655 417.93 168.388 418.006 167.967 418.03 166.415 418.118 164.786 418.092 163.231 418.093L154.702 418.1 127.092 418.115 97.0098 418.116 87.0915 418.11C85.4779 418.104 83.7981 418.123 82.1888 418.046 81.8217 418.029 81.6035 417.912 81.3398 417.635 79.8677 416.085 78.4284 414.147 77.2619 412.379 71.39 403.407 68.0296 393.026 67.5301 382.315 66.7086 366.359 72.295 350.736 83.0473 338.918 93.8195 327.088 107.2 320.839 123.149 320.088ZM69.4905 376.633C69.475 378.39 69.4356 380.358 69.5251 382.098 69.9583 391.76 72.8024 401.159 77.7983 409.44 78.8952 411.24 81.0141 414.412 82.4851 415.91 82.5258 415.951 82.5668 415.992 82.608 416.033 87.1516 416.211 92.1215 416.082 96.6873 416.083L123.512 416.09 151.774 416.084 162.389 416.092C164.074 416.086 165.917 416.106 167.593 416.038 170.803 411.992 173.354 407.534 175.497 402.841 176.255 401.003 177.058 399.079 177.673 397.18 179.39 391.887 180.299 386.209 180.497 380.65 180.544 379.327 180.47 378.035 180.441 376.721L135.064 376.727C134.126 382.467 129.06 386.281 123.274 385.351 120.601 384.899 118.212 383.419 116.617 381.228 115.717 379.972 115.03 378.185 114.877 376.648 112.933 376.554 111.295 376.627 109.356 376.637L100.477 376.654 70.1642 376.604 69.4905 376.633ZM98.7199 346.523C101.355 349.322 101.547 353.618 98.6493 356.291 97.3564 357.467 95.65 358.083 93.9038 358.004 92.5218 357.945 91.5824 357.492 90.3721 356.911 87.4281 361.775 84.8526 368.899 84.7638 374.632L114.774 374.625C114.951 371.907 116.21 369.372 118.269 367.589 121.188 365.06 125.549 364.232 129.074 365.936 129.719 364.85 130.541 363.665 131.239 362.596 132.559 360.581 133.867 358.558 135.164 356.528 136.289 354.751 137.428 352.983 138.581 351.223 139.305 350.099 140.003 348.965 140.783 347.88 141.46 346.936 142.47 346.854 142.793 348.06 142.893 348.433 141.808 349.962 141.592 350.321 140.329 352.158 139.078 354.238 137.861 356.13L133.291 363.123C132.484 364.385 131.731 365.67 130.894 366.912 133.719 369.37 134.68 370.936 135.145 374.687 138.292 374.556 141.954 374.646 145.146 374.643L165.205 374.624C164.186 366.841 163.456 363.573 159.504 356.702 157.72 357.707 155.756 358.155 153.746 357.585 152.135 357.118 150.773 356.036 149.955 354.572 149.124 353.057 148.931 351.273 149.42 349.616 149.722 348.579 150.432 347.346 151.209 346.591 150.473 345.896 149.441 345.123 148.616 344.525 143.573 340.873 137.389 338.222 131.192 337.464 130.276 339.43 129.463 340.634 127.345 341.438 124.069 342.683 120.52 341.108 119.075 337.957 118.89 337.554 118.788 337.22 118.329 337.346 111.228 338.533 104.057 341.626 98.7199 346.523ZM160.945 355.245C161.659 356.408 162.484 357.672 163.1 358.881 164.944 362.506 166.137 366.588 166.731 370.605 166.892 371.696 167.166 373.612 167.171 374.678 168.764 374.622 170.386 374.608 171.98 374.657 174.738 374.74 177.497 374.656 180.257 374.64 179.495 360.213 171.798 345.621 161.139 336.028 152.341 328.118 141.196 323.303 129.405 322.318 127.205 322.132 125.166 322.04 122.954 322.144 108.265 322.768 94.4509 329.301 84.65 340.26 76.4347 349.277 71.5553 359.888 69.9109 371.942 69.779 372.909 69.739 373.713 69.6385 374.647 70.8041 374.593 72.0803 374.616 73.2559 374.639 76.4079 374.702 79.6161 374.562 82.76 374.647 82.7295 373.22 82.9761 371.539 83.2285 370.13 84.2339 364.516 85.9855 360.22 88.9218 355.4 87.8546 353.626 87.413 351.695 87.9312 349.654 88.3517 348.027 89.4035 346.635 90.8536 345.786 92.5344 344.801 94.4483 344.65 96.3122 345.159 96.5088 345.214 96.704 345.274 96.8975 345.339 101.848 340.331 111.494 336.012 118.44 335.214 118.496 333.372 119.272 331.625 120.6 330.347 121.77 329.235 123.314 328.641 124.939 328.621 125.416 328.615 126.412 328.825 126.893 328.931 129.288 329.758 130.825 331.437 131.364 333.939 131.473 334.447 131.508 334.933 131.588 335.439 133.068 335.573 134.743 335.979 136.172 336.35 141.46 337.726 146.241 340.185 150.614 343.445 151.339 343.986 152.383 344.729 153.057 345.33 156.448 344.007 159.813 345.277 161.461 348.506 162.752 351.036 162.052 352.898 160.945 355.245ZM125.365 383.405C129.865 383.188 133.336 379.36 133.114 374.86 132.891 370.36 129.06 366.894 124.56 367.121 120.068 367.348 116.608 371.172 116.83 375.665 117.052 380.158 120.872 383.622 125.365 383.405ZM94.7502 355.9C97.2338 355.601 98.9977 353.335 98.678 350.854 98.3582 348.373 96.0777 346.629 93.5994 346.969 91.1506 347.306 89.4308 349.554 89.7468 352.005 90.0626 354.457 92.296 356.195 94.7502 355.9ZM125.431 339.697C127.872 339.469 129.675 337.319 129.473 334.876 129.272 332.433 127.141 330.608 124.696 330.784 123.091 330.899 121.672 331.868 120.979 333.32 120.287 334.772 120.429 336.485 121.35 337.804 122.271 339.123 123.829 339.846 125.431 339.697ZM155.979 355.786C158.419 355.598 160.247 353.473 160.069 351.032 159.891 348.592 157.773 346.755 155.331 346.924 152.876 347.093 151.027 349.226 151.206 351.68 151.385 354.134 153.525 355.975 155.979 355.786Z" stroke="#A6A6A6" stroke-width="2" fill="#999999"/><path d="M164.065 380.642C166.192 380.55 168.387 382.016 168.613 384.226 168.73 385.368 168.706 386.424 168.706 387.571L168.706 392.728 168.701 411.024 164.518 411.033C162.953 410.99 161.389 410.972 159.824 410.979 159.724 409.353 159.784 407.032 159.784 405.363L159.799 395.101 159.797 388.454C159.79 384.834 159.324 381.142 164.065 380.642ZM161.831 408.912C162.798 408.906 163.764 408.905 164.73 408.91L166.724 408.908C166.66 407.038 166.722 404.918 166.721 403.019L166.709 391.696 166.71 387.472C166.709 385.427 167.04 382.528 164.001 382.739 163.941 382.743 163.88 382.748 163.819 382.755 162.336 383.26 161.859 383.95 161.817 385.491 161.78 386.842 161.798 388.189 161.799 389.54L161.794 396.612 161.797 404.267C161.797 405.765 161.768 407.425 161.831 408.912Z" stroke="#A6A6A6" stroke-width="2" fill="#999999"/><path d="M96.6323 393.509C97.7242 393.466 99.4248 393.443 100.494 393.543 102.159 395.059 103.808 396.451 105.482 397.937L112.722 404.377C114.581 406 116.562 407.612 118.284 409.366 118.84 409.933 118.146 410.672 117.641 410.965 117.095 411.023 115.66 410.981 115.05 410.979L109.889 410.973 101.829 410.981C100.342 410.987 98.8448 411.002 97.3569 410.987 97.1131 411.01 96.2271 410.894 96.1262 410.613 95.7654 409.609 95.902 407.367 95.9034 406.345L95.9173 399.72C95.9166 398.576 95.8817 397.444 95.8633 396.301 95.8463 395.245 95.5989 394.12 96.6323 393.509ZM97.8914 408.983C102.634 409.188 107.525 408.933 112.282 409.036 113.059 409.053 113.957 409.054 114.726 408.993 114.698 408.658 104.983 400.284 103.972 399.308 103.297 398.657 100.419 396.108 99.6124 395.567 99.0082 395.56 98.404 395.558 97.7999 395.561 98.0035 399.873 97.7653 404.596 97.8914 408.983Z" stroke="#A6A6A6" stroke-width="2" fill="#999999"/><path d="M149.301 386.553C150.748 386.401 152.272 386.987 153.239 388.083 154.618 389.646 154.281 391.997 154.253 393.95 154.237 395.568 154.23 397.187 154.232 398.805L154.231 405.559C154.241 406.996 154.26 408.47 154.22 409.908 154.213 410.16 154.15 410.636 153.933 410.777 153.29 411.193 151.371 411.051 150.647 410.986 148.903 410.968 147.159 410.97 145.415 410.99 145.287 407.133 145.402 402.721 145.393 398.815L145.375 394.073C145.354 390.597 144.972 387.278 149.301 386.553ZM147.388 409.031 150.151 409.022 152.208 409.034C152.307 407.933 152.272 406.237 152.272 405.102L152.251 398.41 152.239 393.934C152.243 392.924 152.255 391.955 152.205 390.944 152.127 389.401 151.013 388.552 149.491 388.592 147.888 389.117 147.412 389.926 147.343 391.599 147.296 392.763 147.32 393.93 147.322 395.094L147.321 401.041 147.321 405.875C147.322 406.828 147.29 408.104 147.388 409.031Z" stroke="#A6A6A6" stroke-width="2" fill="#999999"/><path d="M84.1288 400.641C84.9686 400.535 89.3057 400.615 89.8184 400.956 90.0534 401.339 90.0979 401.784 90.1176 402.225 90.1718 403.444 90.4189 410.114 89.8429 410.683 89.4563 411.065 88.79 410.988 88.2939 410.975 86.2454 410.98 83.9146 411.106 81.9175 410.806 81.4089 410.73 81.4627 407.357 81.4961 406.846 81.6155 405.014 81.1731 402.656 81.8451 400.979 81.992 400.612 83.7564 400.652 84.1288 400.641ZM88.0716 408.947C88.1412 408.588 88.1205 407.421 88.1201 406.981L88.086 402.737C86.5893 402.703 85.0897 402.744 83.6025 402.705 83.5159 404.063 83.5164 407.601 83.6013 408.979 84.534 408.953 85.4877 408.962 86.4229 408.959 86.8957 408.958 87.6255 408.912 88.0716 408.947Z" stroke="#A6A6A6" stroke-width="2" fill="#999999"/><path d="M99.844 380.756C100.602 380.705 100.722 380.917 101.278 381.36 103.773 383.347 106.137 385.489 108.567 387.55L121.883 398.813C124.508 401.038 127.171 403.21 129.738 405.504 130.561 406.239 131.927 407.181 130.389 408.079 130.226 408.107 130.029 408.135 129.865 408.108 129.264 408.01 125.228 404.315 124.511 403.706L106.87 388.704 102.443 384.959C101.695 384.333 100.938 383.727 100.194 383.089 99.7286 382.689 99.0969 382.112 99.2207 381.42 99.281 381.083 99.5701 380.917 99.844 380.756Z" stroke="#A6A6A6" stroke-width="2" fill="#999999"/><path d="M85.719 386.43C88.2311 386.344 90.3393 388.307 90.4314 390.819 90.5236 393.331 88.565 395.443 86.0533 395.541 83.5338 395.639 81.4133 393.673 81.3209 391.153 81.2285 388.633 83.1991 386.517 85.719 386.43ZM86.0525 393.485C87.4327 393.387 88.4701 392.185 88.3667 390.806 88.2633 389.426 87.0584 388.393 85.679 388.502 84.307 388.61 83.2808 389.807 83.3836 391.179 83.4865 392.552 84.6799 393.582 86.0525 393.485Z" stroke="#A6A6A6" stroke-width="2" fill="#999999"/></g></svg>