<svg width="136" height="136" xmlns="http://www.w3.org/2000/svg" xmlns:xlink="http://www.w3.org/1999/xlink" xml:space="preserve" overflow="hidden"><g transform="translate(-1020 -543)"><path d="M1085.06 553.454C1085.35 553.411 1085.96 553.421 1086.29 553.414 1089.39 553.349 1092.21 553.455 1095.3 553.808 1109.7 555.462 1123.14 561.878 1133.48 572.037 1146.36 584.711 1153.73 601.94 1154.02 620.005 1154.1 633.373 1151.12 644.788 1144.52 656.455 1142.6 659.911 1140.44 663.042 1137.71 665.905 1134.7 669.056 1131.44 668.642 1127.47 668.631L1120.47 668.63 1090.84 668.6 1060.43 668.602C1056.9 668.63 1053.37 668.637 1049.84 668.624 1046.52 668.623 1041.54 669.097 1038.99 666.682 1036.98 664.776 1035.01 662.165 1033.48 659.852 1026.69 649.579 1022.73 637.705 1021.97 625.419 1020.85 607.13 1027.03 589.144 1039.16 575.415 1047.87 565.423 1059.46 558.371 1072.33 555.228 1076.84 554.162 1080.47 553.776 1085.06 553.454ZM1089.58 666.53 1119.03 666.584C1121.91 666.604 1124.8 666.604 1127.68 666.584 1130.75 666.583 1133.73 667.051 1136.05 664.598 1138.5 662.005 1140.52 659.203 1142.36 656.147 1148.8 645.402 1152.14 633.087 1152.02 620.562 1151.86 602.746 1144.58 585.732 1131.82 573.303 1119.8 561.665 1103.69 555.218 1086.96 555.352 1086.68 555.355 1086.27 555.351 1086.01 555.379 1081.56 555.794 1078.06 556.031 1073.6 557.057 1060.14 560.156 1048.14 567.819 1039.35 578.407 1028.03 592.049 1022.55 609.596 1024.08 627.252 1025.16 638.859 1029.28 650.503 1036.05 660.031 1037 661.373 1039.14 664.157 1040.34 665.156 1041.23 665.895 1042.3 666.37 1043.44 666.524 1044.64 666.675 1047.08 666.583 1048.33 666.589L1060.74 666.535 1089.58 666.53Z" stroke="#00FFC2" stroke-width="2" fill="#00FFC2"/><path d="M1086.15 562.088C1086.45 562.063 1086.86 562.093 1087.17 562.084 1090.85 561.979 1094.53 562.317 1098.15 562.996 1109.16 565.031 1119.3 570.316 1127.27 578.168 1138.79 589.304 1145.36 604.6 1145.5 620.624 1145.62 632.803 1142.1 644.74 1135.38 654.901 1134.36 656.426 1133.13 658.184 1131.93 659.602 1131.65 659.93 1131.39 660.006 1130.97 660.03 1129.42 660.117 1127.79 660.092 1126.23 660.094L1117.7 660.1 1090.09 660.115 1060.01 660.116 1050.09 660.11C1048.48 660.104 1046.8 660.123 1045.19 660.046 1044.82 660.029 1044.6 659.912 1044.34 659.635 1042.87 658.086 1041.43 656.147 1040.26 654.379 1034.39 645.407 1031.03 635.026 1030.53 624.315 1029.71 608.359 1035.29 592.736 1046.05 580.918 1056.82 569.088 1070.2 562.839 1086.15 562.088ZM1032.49 618.633C1032.47 620.39 1032.44 622.358 1032.53 624.098 1032.96 633.76 1035.8 643.159 1040.8 651.44 1041.9 653.24 1044.01 656.412 1045.49 657.91 1045.53 657.951 1045.57 657.992 1045.61 658.033 1050.15 658.211 1055.12 658.082 1059.69 658.083L1086.51 658.09 1114.77 658.084 1125.39 658.092C1127.07 658.086 1128.92 658.106 1130.59 658.038 1133.8 653.992 1136.35 649.534 1138.5 644.841 1139.25 643.003 1140.06 641.079 1140.67 639.18 1142.39 633.887 1143.3 628.209 1143.5 622.65 1143.54 621.327 1143.47 620.035 1143.44 618.721L1098.06 618.727C1097.13 624.467 1092.06 628.281 1086.27 627.351 1083.6 626.899 1081.21 625.419 1079.62 623.228 1078.72 621.972 1078.03 620.185 1077.88 618.648 1075.93 618.554 1074.29 618.627 1072.36 618.637L1063.48 618.654 1033.16 618.604 1032.49 618.633ZM1061.72 588.523C1064.36 591.322 1064.55 595.618 1061.65 598.291 1060.36 599.467 1058.65 600.083 1056.9 600.004 1055.52 599.945 1054.58 599.492 1053.37 598.911 1050.43 603.775 1047.85 610.899 1047.76 616.632L1077.77 616.625C1077.95 613.907 1079.21 611.372 1081.27 609.589 1084.19 607.06 1088.55 606.232 1092.07 607.936 1092.72 606.85 1093.54 605.665 1094.24 604.596 1095.56 602.581 1096.87 600.558 1098.16 598.528 1099.29 596.751 1100.43 594.983 1101.58 593.223 1102.3 592.099 1103 590.965 1103.78 589.88 1104.46 588.936 1105.47 588.854 1105.79 590.06 1105.89 590.433 1104.81 591.962 1104.59 592.321 1103.33 594.158 1102.08 596.238 1100.86 598.13L1096.29 605.123C1095.48 606.385 1094.73 607.67 1093.89 608.912 1096.72 611.37 1097.68 612.936 1098.15 616.687 1101.29 616.556 1104.95 616.646 1108.15 616.643L1128.21 616.624C1127.19 608.841 1126.46 605.573 1122.5 598.702 1120.72 599.707 1118.76 600.155 1116.75 599.585 1115.13 599.118 1113.77 598.036 1112.96 596.572 1112.12 595.057 1111.93 593.273 1112.42 591.616 1112.72 590.579 1113.43 589.346 1114.21 588.591 1113.47 587.896 1112.44 587.123 1111.62 586.525 1106.57 582.873 1100.39 580.222 1094.19 579.464 1093.28 581.43 1092.46 582.634 1090.34 583.438 1087.07 584.683 1083.52 583.108 1082.07 579.957 1081.89 579.554 1081.79 579.22 1081.33 579.346 1074.23 580.533 1067.06 583.626 1061.72 588.523ZM1123.94 597.245C1124.66 598.408 1125.48 599.672 1126.1 600.881 1127.94 604.506 1129.14 608.588 1129.73 612.605 1129.89 613.696 1130.17 615.612 1130.17 616.678 1131.76 616.622 1133.39 616.608 1134.98 616.657 1137.74 616.74 1140.5 616.656 1143.26 616.64 1142.5 602.213 1134.8 587.621 1124.14 578.028 1115.34 570.118 1104.2 565.303 1092.41 564.318 1090.2 564.132 1088.17 564.04 1085.95 564.144 1071.26 564.768 1057.45 571.301 1047.65 582.26 1039.43 591.277 1034.56 601.888 1032.91 613.942 1032.78 614.909 1032.74 615.713 1032.64 616.647 1033.8 616.593 1035.08 616.616 1036.26 616.639 1039.41 616.702 1042.62 616.562 1045.76 616.647 1045.73 615.22 1045.98 613.539 1046.23 612.13 1047.23 606.516 1048.99 602.22 1051.92 597.4 1050.85 595.626 1050.41 593.695 1050.93 591.654 1051.35 590.027 1052.4 588.635 1053.85 587.786 1055.53 586.801 1057.45 586.65 1059.31 587.159 1059.51 587.214 1059.7 587.274 1059.9 587.339 1064.85 582.331 1074.49 578.012 1081.44 577.214 1081.5 575.372 1082.27 573.625 1083.6 572.347 1084.77 571.235 1086.31 570.641 1087.94 570.621 1088.42 570.615 1089.41 570.825 1089.89 570.931 1092.29 571.758 1093.82 573.437 1094.36 575.939 1094.47 576.447 1094.51 576.933 1094.59 577.439 1096.07 577.573 1097.74 577.979 1099.17 578.35 1104.46 579.726 1109.24 582.185 1113.61 585.445 1114.34 585.986 1115.38 586.729 1116.06 587.33 1119.45 586.007 1122.81 587.277 1124.46 590.506 1125.75 593.036 1125.05 594.898 1123.94 597.245ZM1088.36 625.405C1092.87 625.188 1096.34 621.36 1096.11 616.86 1095.89 612.36 1092.06 608.894 1087.56 609.121 1083.07 609.348 1079.61 613.172 1079.83 617.665 1080.05 622.158 1083.87 625.622 1088.36 625.405ZM1057.75 597.9C1060.23 597.601 1062 595.335 1061.68 592.854 1061.36 590.373 1059.08 588.629 1056.6 588.969 1054.15 589.306 1052.43 591.554 1052.75 594.005 1053.06 596.457 1055.3 598.195 1057.75 597.9ZM1088.43 581.697C1090.87 581.469 1092.67 579.319 1092.47 576.876 1092.27 574.433 1090.14 572.608 1087.7 572.784 1086.09 572.899 1084.67 573.868 1083.98 575.32 1083.29 576.772 1083.43 578.485 1084.35 579.804 1085.27 581.123 1086.83 581.846 1088.43 581.697ZM1118.98 597.786C1121.42 597.598 1123.25 595.473 1123.07 593.032 1122.89 590.592 1120.77 588.755 1118.33 588.924 1115.88 589.093 1114.03 591.226 1114.21 593.68 1114.39 596.134 1116.53 597.975 1118.98 597.786Z" stroke="#00FFC2" stroke-width="2" fill="#00FFC2"/><path d="M1127.06 622.642C1129.19 622.55 1131.39 624.016 1131.61 626.226 1131.73 627.368 1131.71 628.424 1131.71 629.571L1131.71 634.728 1131.7 653.024 1127.52 653.032C1125.95 652.99 1124.39 652.972 1122.82 652.979 1122.72 651.353 1122.78 649.032 1122.78 647.363L1122.8 637.101 1122.8 630.454C1122.79 626.834 1122.32 623.142 1127.06 622.642ZM1124.83 650.912C1125.8 650.906 1126.76 650.905 1127.73 650.91L1129.72 650.908C1129.66 649.038 1129.72 646.918 1129.72 645.019L1129.71 633.696 1129.71 629.472C1129.71 627.427 1130.04 624.528 1127 624.739 1126.94 624.743 1126.88 624.748 1126.82 624.755 1125.34 625.26 1124.86 625.95 1124.82 627.491 1124.78 628.842 1124.8 630.189 1124.8 631.54L1124.79 638.612 1124.8 646.267C1124.8 647.765 1124.77 649.424 1124.83 650.912Z" stroke="#00FFC2" stroke-width="2" fill="#00FFC2"/><path d="M1059.63 635.509C1060.72 635.466 1062.42 635.443 1063.49 635.543 1065.16 637.059 1066.81 638.451 1068.48 639.937L1075.72 646.377C1077.58 648 1079.56 649.612 1081.28 651.366 1081.84 651.933 1081.15 652.672 1080.64 652.965 1080.1 653.023 1078.66 652.981 1078.05 652.979L1072.89 652.973 1064.83 652.981C1063.34 652.987 1061.84 653.002 1060.36 652.987 1060.11 653.01 1059.23 652.894 1059.13 652.613 1058.77 651.609 1058.9 649.367 1058.9 648.345L1058.92 641.72C1058.92 640.576 1058.88 639.444 1058.86 638.301 1058.85 637.245 1058.6 636.12 1059.63 635.509ZM1060.89 650.983C1065.63 651.188 1070.52 650.933 1075.28 651.036 1076.06 651.053 1076.96 651.054 1077.73 650.993 1077.7 650.658 1067.98 642.284 1066.97 641.308 1066.3 640.657 1063.42 638.108 1062.61 637.567 1062.01 637.56 1061.4 637.558 1060.8 637.561 1061 641.873 1060.77 646.596 1060.89 650.983Z" stroke="#00FFC2" stroke-width="2" fill="#00FFC2"/><path d="M1112.3 628.553C1113.75 628.401 1115.27 628.987 1116.24 630.083 1117.62 631.646 1117.28 633.997 1117.25 635.95 1117.24 637.568 1117.23 639.187 1117.23 640.805L1117.23 647.559C1117.24 648.996 1117.26 650.47 1117.22 651.908 1117.21 652.16 1117.15 652.636 1116.93 652.777 1116.29 653.193 1114.37 653.051 1113.65 652.986 1111.9 652.969 1110.16 652.97 1108.42 652.99 1108.29 649.133 1108.4 644.721 1108.39 640.815L1108.37 636.073C1108.35 632.597 1107.97 629.278 1112.3 628.553ZM1110.39 651.031 1113.15 651.022 1115.21 651.034C1115.31 649.932 1115.27 648.237 1115.27 647.102L1115.25 640.41 1115.24 635.934C1115.24 634.924 1115.26 633.955 1115.2 632.944 1115.13 631.401 1114.01 630.552 1112.49 630.592 1110.89 631.117 1110.41 631.926 1110.34 633.599 1110.3 634.763 1110.32 635.93 1110.32 637.094L1110.32 643.041 1110.32 647.875C1110.32 648.828 1110.29 650.104 1110.39 651.031Z" stroke="#00FFC2" stroke-width="2" fill="#00FFC2"/><path d="M1047.13 642.641C1047.97 642.535 1052.31 642.615 1052.82 642.956 1053.05 643.339 1053.1 643.784 1053.12 644.225 1053.17 645.444 1053.42 652.114 1052.84 652.683 1052.46 653.065 1051.79 652.988 1051.29 652.975 1049.25 652.98 1046.91 653.106 1044.92 652.806 1044.41 652.73 1044.46 649.357 1044.5 648.846 1044.62 647.014 1044.17 644.656 1044.85 642.979 1044.99 642.612 1046.76 642.652 1047.13 642.641ZM1051.07 650.947C1051.14 650.588 1051.12 649.421 1051.12 648.981L1051.09 644.737C1049.59 644.703 1048.09 644.744 1046.6 644.705 1046.52 646.063 1046.52 649.601 1046.6 650.979 1047.53 650.953 1048.49 650.962 1049.42 650.959 1049.9 650.958 1050.63 650.912 1051.07 650.947Z" stroke="#00FFC2" stroke-width="2" fill="#00FFC2"/><path d="M1062.84 622.756C1063.6 622.705 1063.72 622.917 1064.28 623.36 1066.77 625.347 1069.14 627.49 1071.57 629.55L1084.88 640.813C1087.51 643.038 1090.17 645.21 1092.74 647.504 1093.56 648.239 1094.93 649.181 1093.39 650.079 1093.23 650.107 1093.03 650.135 1092.87 650.109 1092.26 650.01 1088.23 646.315 1087.51 645.706L1069.87 630.704 1065.44 626.959C1064.7 626.333 1063.94 625.727 1063.19 625.089 1062.73 624.689 1062.1 624.112 1062.22 623.42 1062.28 623.083 1062.57 622.917 1062.84 622.756Z" stroke="#00FFC2" stroke-width="2" fill="#00FFC2"/><path d="M1048.72 628.43C1051.23 628.344 1053.34 630.307 1053.43 632.819 1053.52 635.331 1051.57 637.443 1049.05 637.541 1046.53 637.639 1044.41 635.673 1044.32 633.153 1044.23 630.633 1046.2 628.517 1048.72 628.43ZM1049.05 635.485C1050.43 635.386 1051.47 634.185 1051.37 632.806 1051.26 631.426 1050.06 630.393 1048.68 630.502 1047.31 630.61 1046.28 631.807 1046.38 633.179 1046.49 634.552 1047.68 635.582 1049.05 635.485Z" stroke="#00FFC2" stroke-width="2" fill="#00FFC2"/></g></svg>