<?xml version="1.0" encoding="utf-8" ?><svg xmlns="http://www.w3.org/2000/svg" xmlns:xlink="http://www.w3.org/1999/xlink" width="1024" height="1024" viewBox="0 0 1024 1024"><path d="M489.828 78.7104C492.037 78.3876 496.672 78.4656 499.103 78.4141C522.432 77.9195 543.707 78.7216 566.973 81.3794C675.408 93.8334 776.58 142.137 854.441 218.628C951.382 314.063 1006.92 443.786 1009.06 579.803C1009.69 680.454 987.257 766.406 937.541 854.249C923.126 880.27 906.824 903.847 886.277 925.402C863.658 949.131 839.095 946.014 809.153 945.929L756.483 945.918L533.375 945.692L304.419 945.708C277.832 945.919 251.244 945.975 224.656 945.876C199.677 945.866 162.163 949.434 142.984 931.253C127.842 916.899 113.038 897.245 101.461 879.829C50.3978 802.476 20.532 713.075 14.8484 620.563C6.37843 482.865 52.9401 347.44 144.296 244.064C209.844 168.83 297.077 115.735 394.013 92.0725C428.001 84.0402 455.291 81.1342 489.828 78.7104ZM523.868 930.109L745.65 930.512C767.35 930.662 789.051 930.664 810.752 930.518C833.887 930.511 856.306 934.03 873.776 915.561C892.243 896.039 907.478 874.941 921.296 851.931C969.753 771.025 994.916 678.303 994.006 584C992.794 449.853 938.042 321.749 841.922 228.166C751.428 140.537 630.114 91.9934 504.15 93.0054C502.098 93.027 498.963 92.9921 497.033 93.2094C463.506 96.3315 437.123 98.1168 403.565 105.842C302.193 129.176 211.88 186.875 145.665 266.591C60.4975 369.308 19.2068 501.432 30.7308 634.366C38.8279 721.762 69.8399 809.431 120.826 881.178C128.006 891.281 144.121 912.239 153.185 919.765C159.832 925.329 167.918 928.9 176.508 930.065C185.523 931.2 203.882 930.51 213.274 930.552L306.762 930.143L523.868 930.109Z"/><path d="M498.063 143.72C500.321 143.533 503.382 143.759 505.733 143.692C533.45 142.901 561.174 145.443 588.438 150.561C671.288 165.884 747.65 205.672 807.678 264.796C894.443 348.639 943.904 463.812 944.96 584.462C945.873 676.163 919.342 766.041 868.777 842.546C861.081 854.032 851.777 867.271 842.774 877.948C840.694 880.415 838.683 880.985 835.516 881.164C823.831 881.826 811.568 881.634 799.858 881.645L735.638 881.696L527.75 881.805L301.25 881.818L226.571 881.771C214.422 881.724 201.774 881.868 189.657 881.288C186.893 881.156 185.25 880.281 183.264 878.191C172.18 866.526 161.343 851.929 152.56 838.616C108.348 771.065 83.0461 692.9 79.2855 612.254C73.1002 492.115 115.162 374.482 196.121 285.502C277.229 196.43 377.977 149.375 498.063 143.72ZM94.0458 569.474C93.9291 582.704 93.6326 597.52 94.3065 610.619C97.5685 683.366 118.983 754.14 156.599 816.492C164.858 830.039 180.812 853.924 191.888 865.202C192.194 865.514 192.503 865.824 192.813 866.133C227.024 867.469 264.444 866.502 298.822 866.504L500.798 866.561L713.596 866.513L793.518 866.577C806.203 866.528 820.081 866.681 832.702 866.168C856.872 835.701 876.075 802.139 892.21 766.803C897.917 752.96 903.963 738.478 908.6 724.182C921.528 684.325 928.367 641.577 929.857 599.716C930.212 589.757 929.658 580.03 929.437 570.131L587.773 570.176C580.717 613.395 542.568 642.112 499.002 635.111C478.879 631.712 460.887 620.569 448.878 604.068C442.108 594.611 436.934 581.154 435.782 569.583C421.143 568.878 408.807 569.428 394.212 569.502L327.359 569.633L99.1188 569.256L94.0458 569.474ZM314.126 342.764C333.968 363.838 335.416 396.182 313.595 416.306C303.86 425.164 291.012 429.802 277.864 429.204C267.458 428.762 260.385 425.354 251.272 420.978C229.106 457.603 209.714 511.236 209.045 554.405L435.001 554.355C436.334 533.885 445.815 514.803 461.323 501.377C483.296 482.336 516.132 476.102 542.677 488.928C547.534 480.751 553.721 471.833 558.976 463.785C568.913 448.61 578.763 433.379 588.527 418.093C597.003 404.715 605.579 391.401 614.255 378.153C619.706 369.686 624.966 361.146 630.834 352.977C635.937 345.871 643.539 345.252 645.97 354.335C646.721 357.142 638.554 368.655 636.929 371.355C627.422 385.191 618 400.854 608.834 415.093L574.425 467.747C568.35 477.25 562.68 486.93 556.375 496.276C577.651 514.783 584.882 526.576 588.389 554.823C612.082 553.832 639.65 554.51 663.686 554.485L814.723 554.345C807.05 495.746 801.554 471.14 771.797 419.402C758.363 426.97 743.574 430.342 728.437 426.053C716.31 422.538 706.057 414.387 699.897 403.365C693.636 391.961 692.186 378.53 695.868 366.052C698.142 358.242 703.487 348.955 709.342 343.27C703.794 338.042 696.029 332.218 689.815 327.718C651.847 300.222 605.283 280.259 558.62 274.552C551.725 289.358 545.604 298.419 529.656 304.477C504.99 313.846 478.269 301.991 467.386 278.265C465.992 275.227 465.228 272.719 461.772 273.665C408.308 282.604 354.308 305.893 314.126 342.764ZM782.643 408.436C788.023 417.191 794.231 426.703 798.867 435.813C812.757 463.101 821.736 493.839 826.21 524.082C827.425 532.297 829.482 546.726 829.522 554.753C841.517 554.33 853.727 554.227 865.73 554.591C886.498 555.221 907.272 554.586 928.056 554.463C922.316 445.842 864.358 335.97 784.106 263.742C717.858 204.18 633.944 167.926 545.167 160.51C528.601 159.111 513.248 158.419 496.594 159.203C385.993 163.897 281.983 213.09 208.188 295.606C146.332 363.496 109.593 443.395 97.2116 534.152C96.2187 541.429 95.9175 547.484 95.1603 554.515C103.937 554.111 113.546 554.282 122.397 554.459C146.13 554.931 170.286 553.875 193.958 554.515C193.728 543.775 195.585 531.118 197.485 520.507C205.055 478.24 218.244 445.894 240.352 409.601C232.317 396.243 228.992 381.703 232.894 366.334C236.06 354.086 243.979 343.605 254.898 337.215C267.553 329.798 281.964 328.658 295.998 332.488C297.478 332.903 298.948 333.356 300.405 333.845C337.681 296.141 410.305 263.623 462.61 257.614C463.031 243.742 468.869 230.588 478.871 220.967C487.678 212.592 499.307 208.119 511.54 207.969C515.13 207.925 522.628 209.505 526.255 210.302C544.285 216.532 555.857 229.169 559.915 248.014C560.739 251.839 561.004 255.496 561.606 259.305C572.746 260.314 585.359 263.37 596.119 266.168C635.933 276.523 671.934 295.042 704.855 319.586C710.319 323.66 718.178 329.252 723.253 333.782C748.786 323.817 774.124 333.377 786.53 357.692C796.25 376.741 790.979 390.762 782.643 408.436ZM514.746 620.459C548.632 618.824 574.765 590.008 573.091 556.124C571.417 522.24 542.571 496.14 508.689 497.853C474.862 499.563 448.814 528.352 450.485 562.181C452.156 596.011 480.915 622.092 514.746 620.459ZM284.237 413.365C302.937 411.115 316.218 394.054 313.811 375.374C311.403 356.694 294.232 343.557 275.572 346.121C257.134 348.654 244.185 365.58 246.564 384.039C248.942 402.499 265.758 415.589 284.237 413.365ZM515.247 291.365C533.625 289.652 547.199 273.464 545.681 255.069C544.163 236.674 528.119 222.93 509.709 224.254C497.626 225.123 486.941 232.415 481.728 243.351C476.516 254.287 477.58 267.18 484.515 277.113C491.449 287.046 503.185 292.488 515.247 291.365ZM745.253 412.509C763.623 411.093 777.39 395.09 776.048 376.715C774.705 358.339 758.758 344.508 740.377 345.777C721.893 347.054 707.966 363.111 709.316 381.59C710.666 400.07 726.779 413.933 745.253 412.509Z"/><path d="M806.134 599.659C822.15 598.968 838.682 610.001 840.382 626.64C841.261 635.244 841.083 643.192 841.083 651.827L841.077 690.656L841.039 828.416L809.544 828.48C797.767 828.16 785.986 828.025 774.205 828.075C773.449 815.832 773.902 798.356 773.905 785.791L774.018 708.523L774.001 658.474C773.952 631.218 770.442 603.423 806.134 599.659ZM789.319 812.511C796.594 812.467 803.87 812.463 811.146 812.499L826.155 812.484C825.676 798.405 826.141 782.442 826.134 768.146L826.043 682.891L826.049 651.087C826.044 635.688 828.536 613.859 805.658 615.444C805.2 615.477 804.742 615.518 804.284 615.566C793.118 619.371 789.529 624.564 789.209 636.167C788.929 646.337 789.067 656.485 789.074 666.656L789.04 719.901L789.061 777.541C789.061 788.818 788.839 801.314 789.319 812.511Z"/><path d="M298.408 696.535C306.629 696.212 319.434 696.04 327.484 696.794C340.017 708.208 352.437 718.693 365.041 729.878L419.551 778.37C433.552 790.588 448.469 802.723 461.429 815.931C465.621 820.204 460.397 825.767 456.589 827.97C452.483 828.405 441.675 828.091 437.079 828.078L398.221 828.033L337.539 828.095C326.339 828.135 315.067 828.248 303.864 828.139C302.028 828.313 295.357 827.438 294.597 825.32C291.881 817.764 292.909 800.883 292.92 793.187L293.024 743.304C293.019 734.687 292.756 726.164 292.618 717.561C292.49 709.613 290.627 701.142 298.408 696.535ZM307.888 813.045C343.597 814.592 380.423 812.671 416.244 813.451C422.09 813.578 428.853 813.582 434.645 813.125C434.432 810.601 361.287 747.553 353.671 740.201C348.591 735.297 326.923 716.108 320.846 712.035C316.297 711.979 311.748 711.964 307.199 711.992C308.732 744.455 306.939 780.016 307.888 813.045Z"/><path d="M694.976 644.164C705.871 643.018 717.34 647.432 724.624 655.686C735.007 667.452 732.47 685.155 732.255 699.858C732.138 712.043 732.087 724.228 732.103 736.414L732.089 787.269C732.164 798.09 732.312 809.188 732.009 820.01C731.956 821.911 731.485 825.493 729.848 826.553C725.008 829.688 710.56 828.621 705.109 828.13C691.978 827.998 678.845 828.009 665.714 828.162C664.751 799.118 665.616 765.898 665.548 736.486L665.411 700.785C665.255 674.614 662.38 649.626 694.976 644.164ZM680.569 813.411L701.375 813.343L716.862 813.429C717.605 805.139 717.342 792.37 717.341 783.825L717.183 733.442L717.096 699.737C717.125 692.134 717.217 684.841 716.834 677.229C716.248 665.606 707.862 659.213 696.403 659.516C684.333 663.468 680.748 669.559 680.231 682.16C679.872 690.919 680.059 699.709 680.071 708.475L680.063 753.251L680.062 789.644C680.068 796.826 679.834 806.431 680.569 813.411Z"/><path d="M204.264 750.238C210.587 749.44 243.243 750.042 247.103 752.606C248.873 755.492 249.208 758.843 249.356 762.168C249.764 771.34 251.625 821.566 247.288 825.852C244.377 828.728 239.36 828.146 235.625 828.046C220.201 828.083 202.651 829.03 187.614 826.773C183.785 826.199 184.19 800.802 184.441 796.961C185.34 783.164 182.009 765.407 187.069 752.782C188.175 750.02 201.46 750.322 204.264 750.238ZM233.951 812.779C234.475 810.077 234.319 801.286 234.316 797.974L234.059 766.016C222.79 765.767 211.499 766.076 200.301 765.78C199.649 776.002 199.653 802.64 200.292 813.016C207.315 812.825 214.496 812.894 221.537 812.869C225.097 812.857 230.592 812.517 233.951 812.779Z"/><path d="M322.59 600.518C328.299 600.132 329.2 601.729 333.39 605.066C352.173 620.024 369.975 636.156 388.271 651.671L488.531 736.476C508.296 753.227 528.344 769.579 547.673 786.85C553.87 792.388 564.156 799.477 552.577 806.24C551.352 806.454 549.862 806.666 548.632 806.464C544.109 805.721 513.719 777.904 508.318 773.316L375.493 660.356L342.159 632.159C336.53 627.449 330.829 622.882 325.229 618.079C321.721 615.072 316.965 610.722 317.897 605.515C318.351 602.981 320.528 601.731 322.59 600.518Z"/><path d="M216.237 643.239C235.152 642.587 251.025 657.369 251.719 676.282C252.413 695.195 237.666 711.1 218.754 711.836C199.784 712.574 183.818 697.771 183.122 678.799C182.426 659.827 197.264 643.894 216.237 643.239ZM218.748 696.355C229.14 695.616 236.951 686.573 236.173 676.185C235.394 665.796 226.322 658.019 215.936 658.836C205.606 659.65 197.879 668.664 198.653 678.997C199.428 689.33 208.413 697.091 218.748 696.355Z"/></svg>