<svg width="136" height="136" xmlns="http://www.w3.org/2000/svg" xmlns:xlink="http://www.w3.org/1999/xlink" xml:space="preserve" overflow="hidden"><g transform="translate(-573 -244)"><path d="M638.055 254.454C638.349 254.411 638.964 254.421 639.287 254.414 642.385 254.349 645.211 254.455 648.301 254.808 662.703 256.462 676.14 262.878 686.48 273.037 699.355 285.711 706.732 302.94 707.016 321.005 707.099 334.373 704.12 345.788 697.517 357.455 695.603 360.911 693.438 364.042 690.709 366.905 687.705 370.056 684.442 369.642 680.466 369.631L673.47 369.63 643.839 369.6 613.431 369.602C609.9 369.63 606.368 369.637 602.837 369.624 599.52 369.623 594.537 370.097 591.99 367.682 589.979 365.776 588.013 363.165 586.475 360.852 579.693 350.579 575.727 338.705 574.972 326.419 573.847 308.13 580.031 290.144 592.164 276.415 600.87 266.423 612.456 259.371 625.33 256.228 629.844 255.162 633.468 254.776 638.055 254.454ZM642.576 367.53 672.032 367.584C674.914 367.604 677.796 367.604 680.678 367.584 683.751 367.583 686.728 368.051 689.048 365.598 691.501 363.005 693.524 360.203 695.36 357.147 701.795 346.402 705.137 334.087 705.016 321.562 704.855 303.746 697.584 286.732 684.818 274.303 672.799 262.665 656.687 256.218 639.957 256.352 639.685 256.355 639.269 256.351 639.012 256.379 634.559 256.794 631.055 257.031 626.598 258.057 613.135 261.156 601.14 268.819 592.346 279.407 581.035 293.049 575.551 310.596 577.081 328.252 578.157 339.859 582.276 351.503 589.047 361.031 590.001 362.373 592.141 365.157 593.345 366.156 594.228 366.895 595.302 367.37 596.442 367.524 597.64 367.675 600.078 367.583 601.325 367.589L613.742 367.535 642.576 367.53Z" stroke="#00D2A0" stroke-width="2" fill="#00D2A0"/><path d="M639.149 263.088C639.449 263.063 639.855 263.093 640.168 263.084 643.849 262.979 647.531 263.317 651.152 263.996 662.155 266.031 672.297 271.316 680.27 279.168 691.793 290.304 698.362 305.6 698.503 321.624 698.624 333.803 695.1 345.74 688.384 355.901 687.362 357.426 686.127 359.184 684.931 360.602 684.655 360.93 684.388 361.006 683.967 361.03 682.415 361.118 680.786 361.092 679.231 361.093L670.702 361.1 643.092 361.115 613.01 361.116 603.091 361.11C601.478 361.104 599.798 361.123 598.189 361.046 597.822 361.029 597.604 360.912 597.34 360.635 595.868 359.085 594.428 357.147 593.262 355.379 587.39 346.407 584.03 336.026 583.53 325.315 582.709 309.359 588.295 293.736 599.047 281.918 609.819 270.088 623.2 263.839 639.149 263.088ZM585.49 319.633C585.475 321.39 585.436 323.358 585.525 325.098 585.958 334.76 588.802 344.159 593.798 352.44 594.895 354.24 597.014 357.412 598.485 358.91 598.526 358.951 598.567 358.992 598.608 359.033 603.152 359.211 608.121 359.082 612.687 359.083L639.512 359.09 667.774 359.084 678.389 359.092C680.074 359.086 681.917 359.106 683.593 359.038 686.803 354.992 689.354 350.534 691.497 345.841 692.255 344.003 693.058 342.079 693.673 340.18 695.39 334.887 696.299 329.209 696.497 323.65 696.544 322.327 696.47 321.035 696.441 319.721L651.064 319.727C650.126 325.467 645.06 329.281 639.274 328.351 636.601 327.899 634.212 326.419 632.617 324.228 631.717 322.972 631.03 321.185 630.877 319.648 628.933 319.554 627.295 319.627 625.356 319.637L616.477 319.654 586.164 319.604 585.49 319.633ZM614.72 289.523C617.355 292.322 617.547 296.618 614.649 299.291 613.356 300.467 611.65 301.083 609.904 301.004 608.522 300.945 607.582 300.492 606.372 299.911 603.428 304.775 600.853 311.899 600.764 317.632L630.774 317.625C630.951 314.907 632.21 312.372 634.269 310.589 637.188 308.06 641.549 307.232 645.074 308.936 645.719 307.85 646.541 306.665 647.239 305.596 648.559 303.581 649.867 301.558 651.164 299.528 652.289 297.751 653.428 295.983 654.581 294.223 655.305 293.099 656.003 291.965 656.783 290.88 657.46 289.936 658.47 289.854 658.793 291.06 658.893 291.433 657.808 292.962 657.592 293.321 656.329 295.158 655.078 297.238 653.861 299.13L649.291 306.123C648.484 307.385 647.731 308.67 646.894 309.912 649.719 312.37 650.68 313.936 651.145 317.687 654.292 317.556 657.953 317.646 661.146 317.643L681.205 317.624C680.186 309.841 679.456 306.573 675.504 299.702 673.72 300.707 671.756 301.155 669.746 300.585 668.135 300.118 666.773 299.036 665.955 297.572 665.124 296.057 664.931 294.273 665.42 292.616 665.722 291.579 666.432 290.346 667.209 289.591 666.473 288.896 665.441 288.123 664.616 287.525 659.573 283.873 653.389 281.222 647.192 280.464 646.276 282.43 645.463 283.634 643.345 284.438 640.069 285.683 636.52 284.108 635.075 280.957 634.89 280.554 634.788 280.22 634.329 280.346 627.228 281.533 620.057 284.626 614.72 289.523ZM676.945 298.245C677.659 299.408 678.484 300.672 679.1 301.881 680.944 305.506 682.137 309.588 682.731 313.605 682.892 314.696 683.166 316.612 683.171 317.678 684.764 317.622 686.386 317.608 687.98 317.657 690.738 317.74 693.497 317.656 696.257 317.64 695.495 303.213 687.798 288.621 677.139 279.028 668.341 271.118 657.196 266.303 645.405 265.318 643.205 265.132 641.166 265.04 638.954 265.144 624.265 265.768 610.451 272.301 600.65 283.26 592.435 292.277 587.555 302.888 585.911 314.942 585.779 315.909 585.739 316.713 585.638 317.647 586.804 317.593 588.08 317.616 589.256 317.639 592.408 317.702 595.616 317.562 598.76 317.647 598.729 316.22 598.976 314.539 599.228 313.13 600.234 307.516 601.986 303.22 604.922 298.4 603.855 296.626 603.413 294.695 603.931 292.654 604.352 291.027 605.403 289.635 606.854 288.786 608.534 287.801 610.448 287.65 612.312 288.159 612.509 288.214 612.704 288.274 612.898 288.339 617.848 283.331 627.494 279.012 634.44 278.214 634.496 276.372 635.272 274.625 636.6 273.347 637.77 272.235 639.314 271.641 640.939 271.621 641.416 271.615 642.411 271.825 642.893 271.931 645.288 272.758 646.825 274.437 647.364 276.939 647.473 277.447 647.508 277.933 647.588 278.439 649.068 278.573 650.743 278.979 652.172 279.35 657.46 280.726 662.241 283.185 666.614 286.445 667.339 286.986 668.383 287.729 669.057 288.33 672.448 287.007 675.813 288.277 677.461 291.506 678.752 294.036 678.052 295.898 676.945 298.245ZM641.365 326.405C645.865 326.188 649.336 322.36 649.114 317.86 648.891 313.36 645.06 309.894 640.56 310.121 636.068 310.348 632.608 314.172 632.83 318.665 633.052 323.158 636.872 326.622 641.365 326.405ZM610.75 298.9C613.234 298.601 614.998 296.335 614.678 293.854 614.358 291.373 612.078 289.629 609.599 289.969 607.151 290.306 605.431 292.554 605.747 295.005 606.063 297.457 608.296 299.195 610.75 298.9ZM641.431 282.697C643.872 282.469 645.675 280.319 645.473 277.876 645.272 275.433 643.141 273.608 640.696 273.784 639.091 273.899 637.672 274.868 636.979 276.32 636.287 277.772 636.429 279.485 637.35 280.804 638.271 282.123 639.829 282.846 641.431 282.697ZM671.979 298.786C674.419 298.598 676.247 296.473 676.069 294.032 675.891 291.592 673.773 289.755 671.331 289.924 668.876 290.093 667.027 292.226 667.206 294.68 667.385 297.134 669.525 298.975 671.979 298.786Z" stroke="#00D2A0" stroke-width="2" fill="#00D2A0"/><path d="M680.065 323.642C682.192 323.55 684.387 325.016 684.613 327.226 684.73 328.368 684.706 329.424 684.706 330.571L684.706 335.728 684.701 354.024 680.518 354.033C678.953 353.99 677.389 353.972 675.824 353.979 675.724 352.353 675.784 350.032 675.784 348.363L675.799 338.101 675.797 331.454C675.791 327.834 675.324 324.142 680.065 323.642ZM677.831 351.912C678.798 351.906 679.764 351.905 680.73 351.91L682.724 351.908C682.66 350.038 682.722 347.918 682.721 346.019L682.709 334.696 682.71 330.472C682.709 328.427 683.04 325.528 680.001 325.739 679.941 325.743 679.88 325.748 679.819 325.755 678.336 326.26 677.859 326.95 677.817 328.491 677.78 329.842 677.798 331.189 677.799 332.54L677.794 339.612 677.797 347.267C677.797 348.765 677.768 350.425 677.831 351.912Z" stroke="#00D2A0" stroke-width="2" fill="#00D2A0"/><path d="M612.632 336.509C613.724 336.466 615.425 336.443 616.494 336.543 618.159 338.059 619.808 339.451 621.482 340.937L628.722 347.377C630.581 349 632.562 350.612 634.284 352.366 634.84 352.933 634.146 353.672 633.641 353.965 633.095 354.023 631.66 353.981 631.05 353.979L625.889 353.973 617.829 353.981C616.342 353.987 614.845 354.002 613.357 353.987 613.113 354.01 612.227 353.894 612.126 353.613 611.765 352.609 611.902 350.367 611.903 349.345L611.917 342.72C611.917 341.576 611.882 340.444 611.863 339.301 611.846 338.245 611.599 337.12 612.632 336.509ZM613.891 351.983C618.634 352.188 623.525 351.933 628.282 352.036 629.059 352.053 629.957 352.054 630.726 351.993 630.698 351.658 620.983 343.284 619.972 342.308 619.297 341.657 616.419 339.108 615.612 338.567 615.008 338.56 614.404 338.558 613.8 338.561 614.003 342.873 613.765 347.596 613.891 351.983Z" stroke="#00D2A0" stroke-width="2" fill="#00D2A0"/><path d="M665.302 329.553C666.748 329.401 668.272 329.987 669.239 331.083 670.618 332.646 670.281 334.997 670.253 336.95 670.237 338.568 670.23 340.187 670.232 341.805L670.231 348.559C670.241 349.996 670.26 351.47 670.22 352.908 670.213 353.16 670.15 353.636 669.933 353.777 669.29 354.193 667.371 354.051 666.647 353.986 664.903 353.968 663.159 353.97 661.415 353.99 661.287 350.133 661.402 345.721 661.393 341.815L661.375 337.073C661.354 333.597 660.972 330.278 665.302 329.553ZM663.388 352.031 666.151 352.022 668.208 352.034C668.307 350.933 668.272 349.237 668.272 348.102L668.251 341.41 668.239 336.934C668.243 335.924 668.255 334.955 668.205 333.944 668.127 332.401 667.013 331.552 665.491 331.592 663.888 332.117 663.412 332.926 663.343 334.599 663.296 335.763 663.32 336.93 663.322 338.094L663.321 344.041 663.321 348.875C663.322 349.828 663.29 351.104 663.388 352.031Z" stroke="#00D2A0" stroke-width="2" fill="#00D2A0"/><path d="M600.129 343.641C600.969 343.535 605.306 343.615 605.818 343.956 606.053 344.339 606.098 344.784 606.118 345.225 606.172 346.444 606.419 353.114 605.843 353.683 605.456 354.065 604.79 353.988 604.294 353.975 602.245 353.98 599.915 354.106 597.917 353.806 597.409 353.73 597.463 350.357 597.496 349.846 597.615 348.014 597.173 345.656 597.845 343.979 597.992 343.612 599.756 343.652 600.129 343.641ZM604.072 351.947C604.141 351.588 604.12 350.421 604.12 349.981L604.086 345.737C602.589 345.703 601.09 345.744 599.602 345.705 599.516 347.063 599.516 350.601 599.601 351.979 600.534 351.953 601.488 351.962 602.423 351.959 602.896 351.958 603.625 351.912 604.072 351.947Z" stroke="#00D2A0" stroke-width="2" fill="#00D2A0"/><path d="M615.844 323.756C616.602 323.705 616.722 323.917 617.278 324.36 619.773 326.347 622.137 328.489 624.567 330.55L637.883 341.813C640.508 344.038 643.171 346.21 645.738 348.504 646.561 349.239 647.927 350.181 646.389 351.079 646.226 351.107 646.029 351.135 645.865 351.108 645.264 351.01 641.228 347.315 640.511 346.706L622.87 331.704 618.443 327.959C617.695 327.333 616.938 326.727 616.194 326.089 615.729 325.689 615.097 325.112 615.221 324.42 615.281 324.083 615.57 323.917 615.844 323.756Z" stroke="#00D2A0" stroke-width="2" fill="#00D2A0"/><path d="M601.719 329.43C604.231 329.344 606.339 331.307 606.431 333.819 606.524 336.331 604.565 338.443 602.053 338.541 599.534 338.639 597.413 336.673 597.321 334.153 597.228 331.633 599.199 329.517 601.719 329.43ZM602.052 336.485C603.433 336.387 604.47 335.185 604.367 333.806 604.263 332.426 603.058 331.393 601.679 331.502 600.307 331.61 599.281 332.807 599.384 334.179 599.487 335.552 600.68 336.582 602.052 336.485Z" stroke="#00D2A0" stroke-width="2" fill="#00D2A0"/></g></svg>