<svg width="167" height="167" xmlns="http://www.w3.org/2000/svg" xmlns:xlink="http://www.w3.org/1999/xlink" xml:space="preserve" overflow="hidden"><g transform="translate(-746 -99)"><path d="M828.519 107.439C869.967 106.903 904.007 140.061 904.56 181.509 905.112 222.958 871.967 257.011 830.519 257.579 789.048 258.148 754.972 224.981 754.419 183.51 753.867 142.038 787.047 107.975 828.519 107.439ZM831.855 255.675C872.302 254.37 904.021 220.501 902.674 180.056 901.327 139.609 867.424 107.926 826.98 109.316 786.596 110.704 754.971 144.545 756.316 184.93 757.661 225.316 791.468 256.977 831.855 255.675Z" stroke="#00D2A0" stroke-width="2" fill="#00D2A0"/><path d="M827.912 120.154C827.972 120.15 828.032 120.148 828.091 120.145 839.798 119.779 853.642 121.983 864.156 127.242 869.259 129.795 874.214 133.813 874.053 139.957 873.996 142.153 874.052 144.484 874.053 146.71L874.057 160.457 874.031 201.153C874.083 207.907 874.093 214.661 874.061 221.415L874.034 226.554C874.029 227.538 874.051 228.882 873.936 229.824 873.72 231.585 872.328 233.76 871.088 234.987 861.849 244.13 843.599 246.677 831.396 246.879 830.691 246.911 829.964 246.92 829.258 246.911 818.296 246.774 806.99 245.403 796.938 240.783 792.2 238.606 786.028 234.954 785.448 229.218 785.368 228.432 785.469 227.498 785.434 226.698 785.421 225.387 785.439 224.069 785.43 222.757L785.325 209.547 785.143 169.269 784.984 146.822C784.985 145.328 784.972 143.834 784.946 142.34 784.858 138.342 784.694 135.382 787.755 132.271 795.506 124.392 807.729 122.143 818.251 120.791 821.488 120.375 824.7 120.33 827.912 120.154ZM869.819 232.604C870.202 232.108 871.035 230.903 871.121 230.315 871.384 228.516 871.278 226.088 871.271 224.269L871.247 214.333C857.544 224.665 832.222 226.115 815.721 223.822 805.837 222.448 795.737 219.504 787.584 213.601 787.473 216.484 787.528 219.554 787.507 222.445 787.492 224.364 787.335 228.095 787.754 229.811 788.762 233.937 793.743 236.853 797.322 238.486 806.438 242.684 816.739 244.257 826.722 244.567 837.722 244.908 849.373 243.394 859.635 239.337 863.178 237.936 867.513 235.66 869.819 232.604ZM787.36 173.053C788.361 173.656 789.444 174.59 790.402 175.302 791.977 176.487 793.668 177.51 795.448 178.355 811.136 185.901 833.385 186.458 850.284 182.774 856.358 181.449 866.389 178.092 870.206 172.886 870.56 172.391 871.035 171.731 871.108 171.125 871.326 169.298 871.213 167.209 871.211 165.361L871.226 154.521C861.221 162.611 845.516 165.045 832.99 165.428 817.936 165.887 799.634 163.427 787.335 154.083 787.27 160.34 787.321 166.784 787.36 173.053ZM826.85 122.521C815.166 123.067 798.59 124.912 789.477 133.53 786.034 136.785 786.356 142.122 790.17 145.123 801.286 153.87 818.334 155.476 832.04 155.346 842.366 154.993 852.969 153.45 862.386 148.973 866.27 147.127 871.841 143.735 871.676 138.753 871.601 136.492 869.968 134.209 868.344 132.772 858.134 124.203 839.53 122.296 826.85 122.521ZM870.1 202.891C870.458 202.336 871.038 201.483 871.124 200.826 871.297 199.522 871.297 198.071 871.261 196.75 871.152 192.771 871.376 188.662 871.187 184.697 865.42 189.24 856.136 192.274 848.957 193.5 829.44 196.831 806.157 196.002 789.086 184.945 788.563 184.607 788.033 184.22 787.5 183.911 787.334 189.296 787.475 194.739 787.425 200.13 787.417 200.954 787.421 201.825 787.447 202.649 788.642 203.348 789.786 204.425 790.93 205.231 796.894 209.436 803.991 211.586 811.108 212.904 824.625 215.408 838.752 215.127 852.147 212.019 857.768 210.701 866.541 207.616 870.1 202.891ZM871.081 175.738C869.265 177.491 867.216 178.983 864.991 180.172 854.961 185.624 838.93 187.61 827.574 187.38 816.194 187.149 803.272 185.166 793.159 179.707 791.339 178.724 789.077 177.076 787.417 175.826 787.414 176.479 787.311 181.116 787.553 181.356 790.259 183.165 792.241 184.713 795.225 186.08 799.778 188.165 804.595 189.658 809.481 190.705 822.486 193.487 835.923 193.582 848.966 190.985 854.598 189.87 860.436 188.198 865.522 185.488 867.524 184.421 870.373 182.491 871.044 180.19 871.204 179.641 871.265 176.19 871.081 175.738ZM787.533 205.359C787.504 207.225 787.495 209.091 787.503 210.956 802.945 222.505 825.797 223.629 844.319 221.362 850.975 220.547 867.454 216.865 870.949 210.485 871.345 209.401 871.266 206.641 871.246 205.419 861.526 214.767 841.109 217.206 828.08 216.953 817.523 216.748 804.972 215.166 795.487 210.362 793.774 209.494 792.065 208.524 790.477 207.444 789.523 206.794 788.554 205.865 787.533 205.359ZM787.263 145.443C787.113 146.989 787.243 149.732 787.204 151.384 789.627 153.112 792.197 154.978 794.903 156.263 806.915 161.962 822.223 163.592 835.33 163.004 844.706 162.583 865.012 159.241 870.707 151.239L870.768 151.152C871.374 150.1 871.268 147.074 871.24 145.737 862.303 155.062 842.59 157.574 830.336 157.674 818.738 157.769 802.763 155.759 792.635 149.671 790.765 148.528 789.031 147.177 787.464 145.644 787.393 145.576 787.33 145.514 787.263 145.443Z" stroke="#00D2A0" stroke-width="2" fill="#00D2A0"/><path d="M798.698 224.788C801.219 224.434 803.551 226.185 803.915 228.704 804.279 231.223 802.537 233.563 800.02 233.936 797.488 234.312 795.133 232.559 794.767 230.026 794.401 227.492 796.164 225.144 798.698 224.788ZM799.531 231.327C800.638 231.214 801.445 230.225 801.334 229.118 801.223 228.011 800.236 227.202 799.129 227.311 798.017 227.419 797.205 228.41 797.317 229.521 797.428 230.632 798.421 231.442 799.531 231.327Z" stroke="#00D2A0" stroke-width="2" fill="#00D2A0"/><path d="M798.513 165.499C800.998 165.087 803.351 166.753 803.787 169.235 804.222 171.716 802.577 174.084 800.1 174.543 797.59 175.007 795.184 173.335 794.743 170.822 794.302 168.308 795.995 165.917 798.513 165.499ZM799.695 172.009C800.767 171.777 801.448 170.721 801.218 169.649 800.988 168.577 799.934 167.894 798.862 168.121 797.786 168.349 797.1 169.407 797.33 170.482 797.56 171.558 798.62 172.242 799.695 172.009Z" stroke="#00D2A0" stroke-width="2" fill="#00D2A0"/><path d="M798.373 195.246C800.865 194.763 803.276 196.394 803.755 198.887 804.234 201.38 802.598 203.788 800.104 204.262 797.617 204.734 795.217 203.104 794.74 200.618 794.262 198.132 795.888 195.729 798.373 195.246ZM799.535 201.712C800.242 201.613 800.841 201.142 801.103 200.478 801.365 199.815 801.25 199.061 800.801 198.507 800.352 197.952 799.639 197.682 798.936 197.799 797.868 197.978 797.141 198.981 797.306 200.051 797.469 201.121 798.463 201.861 799.535 201.712Z" stroke="#00D2A0" stroke-width="2" fill="#00D2A0"/></g></svg>