<?xml version="1.0" encoding="utf-8" ?><svg xmlns="http://www.w3.org/2000/svg" xmlns:xlink="http://www.w3.org/1999/xlink" width="1024" height="1024" viewBox="0 0 1024 1024"><path fill="#3F2524" d="M505.982 51.7454C760.135 48.4592 968.858 251.773 972.245 505.925C975.631 760.077 772.399 968.88 518.249 972.366C263.957 975.854 55.0119 772.484 51.6238 518.191C48.2356 263.898 251.688 55.0334 505.982 51.7454ZM526.439 960.687C774.452 952.69 968.945 745.015 960.684 497.011C952.424 249.006 744.543 54.7338 496.547 63.2574C248.924 71.7682 55.0058 279.27 63.254 526.902C71.5021 774.535 278.798 968.672 526.439 960.687Z"/><path fill="#3F2524" d="M502.265 129.709C502.631 129.688 502.997 129.672 503.363 129.658C575.147 127.409 660.031 140.925 724.501 173.174C755.793 188.826 786.175 213.466 785.19 251.135C784.838 264.601 785.182 278.896 785.188 292.544L785.213 376.84L785.052 626.373C785.369 667.788 785.43 709.204 785.237 750.619L785.073 782.129C785.043 788.161 785.177 796.401 784.47 802.181C783.148 812.979 774.612 826.313 767.007 833.838C710.353 889.897 598.449 905.517 523.625 906.754C519.304 906.95 514.844 907.006 510.517 906.952C443.3 906.114 373.975 897.706 312.339 869.378C283.289 856.026 245.442 833.634 241.882 798.461C241.395 793.645 242.015 787.913 241.796 783.013C241.719 774.974 241.83 766.892 241.776 758.844L241.128 677.848L240.013 430.868L239.039 293.229C239.046 284.069 238.968 274.909 238.804 265.75C238.266 241.237 237.263 223.084 256.031 204.006C303.558 155.698 378.508 141.909 443.026 133.616C462.871 131.065 482.565 130.791 502.265 129.709ZM759.227 819.223C761.571 816.182 766.682 808.796 767.208 805.192C768.82 794.155 768.171 779.268 768.13 768.117L767.981 707.194C683.96 770.542 528.688 779.438 427.509 765.374C366.905 756.95 304.977 738.901 254.984 702.701C254.3 720.383 254.641 739.208 254.509 756.933C254.421 768.697 253.453 791.575 256.024 802.097C262.205 827.399 292.748 845.279 314.691 855.29C370.59 881.035 433.751 890.677 494.966 892.576C562.418 894.667 633.854 885.386 696.783 860.509C718.507 851.92 745.085 837.962 759.227 819.223ZM253.61 454.073C259.748 457.772 266.389 463.496 272.264 467.862C281.918 475.132 292.285 481.405 303.204 486.584C399.396 532.854 535.822 536.272 639.442 513.678C676.688 505.557 738.191 484.97 761.6 453.052C763.77 450.012 766.684 445.97 767.127 442.254C768.465 431.051 767.772 418.239 767.761 406.91L767.855 340.439C706.505 390.043 610.204 404.972 533.398 407.317C441.092 410.135 328.87 395.048 253.455 337.754C253.059 376.123 253.367 415.635 253.61 454.073ZM495.751 144.222C424.105 147.571 322.466 158.886 266.587 211.728C245.477 231.69 247.454 264.411 270.838 282.812C338.997 336.448 443.533 346.297 527.573 345.499C590.889 343.336 655.908 333.873 713.649 306.421C737.462 295.1 771.623 274.302 770.611 243.754C770.151 229.892 760.138 215.894 750.182 207.078C687.574 154.537 573.503 142.842 495.751 144.222ZM760.948 637.031C763.145 633.63 766.698 628.396 767.229 624.373C768.285 616.372 768.288 607.48 768.066 599.378C767.398 574.977 768.772 549.786 767.612 525.47C732.251 553.326 675.325 571.933 631.307 579.447C511.631 599.875 368.868 594.793 264.192 526.992C260.984 524.919 257.738 522.545 254.468 520.65C253.451 553.672 254.313 587.048 254.005 620.101C253.958 625.154 253.98 630.496 254.141 635.547C261.469 639.837 268.486 646.437 275.497 651.38C312.07 677.165 355.584 690.345 399.228 698.43C482.106 713.783 568.733 712.058 650.867 693C685.33 684.918 739.127 666.004 760.948 637.031ZM766.962 470.54C755.831 481.284 743.265 490.433 729.622 497.726C668.118 531.155 569.824 543.334 500.192 541.92C430.409 540.504 351.174 528.35 289.165 494.874C278.004 488.849 264.136 478.742 253.955 471.075C253.942 475.079 253.307 503.514 254.792 504.983C271.385 516.077 283.538 525.571 301.834 533.951C329.751 546.738 359.287 555.891 389.248 562.311C468.993 579.369 551.383 579.954 631.361 564.027C665.893 557.192 701.692 546.941 732.879 530.321C745.156 523.779 762.621 511.942 766.737 497.833C767.718 494.468 768.092 473.306 766.962 470.54ZM254.667 652.168C254.494 663.606 254.435 675.046 254.488 686.485C349.169 757.298 489.293 764.193 602.867 750.292C643.679 745.296 744.725 722.718 766.155 683.599C768.58 676.952 768.097 660.026 767.975 652.535C708.376 709.855 583.185 724.806 503.293 723.255C438.56 721.998 361.6 712.297 303.442 682.84C292.94 677.521 282.456 671.573 272.723 664.947C266.869 660.962 260.927 655.266 254.667 652.168ZM253.014 284.778C252.092 294.258 252.894 311.073 252.652 321.203C267.508 331.8 283.266 343.245 299.862 351.12C373.517 386.068 467.379 396.061 547.748 392.453C605.236 389.872 729.752 369.381 764.668 320.318L765.044 319.783C768.759 313.334 768.113 294.775 767.939 286.576C713.142 343.758 592.262 359.16 517.123 359.775C446.012 360.356 348.056 348.029 285.956 310.704C274.489 303.694 263.852 295.41 254.247 286.011C253.813 285.593 253.427 285.213 253.014 284.778Z"/><path fill="#3F2524" d="M323.133 771.301C338.589 769.131 352.89 779.866 355.121 795.313C357.352 810.759 346.673 825.102 331.235 827.394C315.711 829.698 301.271 818.947 299.028 803.414C296.784 787.882 307.592 773.484 323.133 771.301ZM328.24 811.397C335.028 810.7 339.971 804.64 339.291 797.851C338.61 791.061 332.563 786.103 325.772 786.767C318.957 787.433 313.978 793.506 314.661 800.32C315.343 807.133 321.429 812.097 328.24 811.397Z"/><path fill="#3F2524" d="M321.993 407.756C337.231 405.225 351.662 415.446 354.332 430.66C357.002 445.874 346.914 460.398 331.725 463.207C316.339 466.052 301.584 455.804 298.879 440.392C296.174 424.98 306.557 410.32 321.993 407.756ZM329.244 447.671C335.814 446.247 339.991 439.775 338.582 433.202C337.174 426.63 330.711 422.437 324.135 423.831C317.538 425.229 313.329 431.717 314.742 438.311C316.155 444.905 322.654 449.099 329.244 447.671Z"/><path fill="#3F2524" d="M321.136 590.158C336.417 587.192 351.203 597.194 354.138 612.48C357.073 627.766 347.042 642.532 331.75 645.437C316.501 648.333 301.785 638.337 298.858 623.094C295.932 607.85 305.899 593.115 321.136 590.158ZM328.264 629.802C332.597 629.198 336.27 626.308 337.877 622.239C339.484 618.169 338.776 613.55 336.024 610.149C333.273 606.747 328.903 605.09 324.588 605.811C318.04 606.905 313.586 613.058 314.592 619.62C315.597 626.182 321.689 630.719 328.264 629.802Z"/></svg>