<svg width="167" height="168" xmlns="http://www.w3.org/2000/svg" xmlns:xlink="http://www.w3.org/1999/xlink" xml:space="preserve" overflow="hidden"><g transform="translate(-1091 -115)"><path d="M82.5185 8.43895C123.967 7.90301 158.007 41.0606 158.559 82.5093 159.112 123.958 125.967 158.011 84.5191 158.579 43.0477 159.148 8.97167 125.981 8.41912 84.5097 7.86655 43.0381 41.0468 8.97517 82.5185 8.43895ZM85.8548 156.675C126.302 155.37 158.021 121.501 156.674 81.0555 155.327 40.6094 121.424 8.92631 80.9798 10.3164 40.596 11.7044 8.97067 45.545 10.3158 85.9303 11.661 126.316 45.468 157.977 85.8548 156.675Z" stroke="#00FFC2" stroke-width="1.71283" fill="#00FFC2" transform="matrix(1 0 0 1.00599 1091 115)"/><path d="M81.9124 21.1537C81.9721 21.1503 82.0317 21.1477 82.0914 21.1454 93.7984 20.7786 107.642 22.9829 118.156 28.2422 123.259 30.7949 128.214 34.8133 128.053 40.9566 127.996 43.1527 128.052 45.484 128.053 47.7098L128.057 61.4573 128.031 102.153C128.083 108.907 128.093 115.661 128.061 122.415L128.034 127.554C128.029 128.538 128.051 129.882 127.936 130.824 127.72 132.585 126.328 134.76 125.088 135.987 115.849 145.13 97.5986 147.677 85.3959 147.879 84.6912 147.911 83.9638 147.92 83.2581 147.911 72.296 147.774 60.9901 146.403 50.9381 141.783 46.2005 139.606 40.0281 135.954 39.4476 130.218 39.3681 129.432 39.4692 128.498 39.4335 127.698 39.421 126.387 39.4391 125.069 39.4303 123.757L39.3246 110.547 39.1427 70.2685 38.9839 47.8215C38.985 46.3277 38.9723 44.8338 38.9456 43.3401 38.8578 39.3424 38.6943 36.3819 41.7551 33.2705 49.506 25.3922 61.7293 23.1434 72.2513 21.7909 75.4878 21.3749 78.6996 21.3302 81.9124 21.1537ZM123.819 133.604C124.202 133.108 125.035 131.903 125.121 131.315 125.384 129.516 125.278 127.088 125.271 125.269L125.247 115.333C111.544 125.665 86.2216 127.115 69.7207 124.822 59.837 123.448 49.7375 120.504 41.5843 114.601 41.4728 117.484 41.5284 120.554 41.5068 123.445 41.4925 125.364 41.3346 129.095 41.7539 130.811 42.7619 134.937 47.7431 137.853 51.3217 139.486 60.438 143.684 70.7387 145.257 80.722 145.567 91.7225 145.908 103.373 144.394 113.636 140.337 117.178 138.936 121.513 136.66 123.819 133.604ZM41.3602 74.0529C42.3612 74.6562 43.4443 75.5897 44.4024 76.3017 45.9769 77.4873 47.6676 78.5104 49.4483 79.355 65.1359 86.901 87.385 87.4584 104.284 83.7737 110.358 82.4492 120.389 79.0918 124.206 73.8864 124.56 73.3906 125.035 72.7314 125.108 72.1254 125.326 70.2984 125.213 68.2089 125.211 66.3613L125.226 55.5208C115.221 63.6105 99.5157 66.0452 86.9897 66.4277 71.9359 66.8873 53.6341 64.4268 41.3349 55.0829 41.2704 61.3404 41.3206 67.7842 41.3602 74.0529ZM80.85 23.5206C69.1656 24.0668 52.5897 25.9121 43.4766 34.5299 40.0338 37.7854 40.3563 43.1217 44.1699 46.1227 55.2856 54.8699 72.334 56.4762 86.0397 56.346 96.3657 55.9933 106.969 54.45 116.386 49.973 120.27 48.1267 125.841 44.7348 125.676 39.7528 125.601 37.4922 123.968 35.2093 122.344 33.7715 112.134 25.2028 93.5303 23.2955 80.85 23.5206ZM124.1 103.891C124.458 103.336 125.038 102.483 125.124 101.826 125.296 100.522 125.297 99.0714 125.261 97.7501 125.152 93.7707 125.376 89.6624 125.187 85.6968 119.42 90.2397 110.136 93.2742 102.957 94.4997 83.4398 97.8312 60.1572 97.0024 43.086 85.945 42.5628 85.6069 42.0334 85.2197 41.5002 84.9107 41.3343 90.2961 41.4749 95.7393 41.4246 101.13 41.417 101.954 41.4206 102.825 41.4468 103.649 42.6419 104.348 43.7863 105.425 44.9297 106.231 50.8942 110.436 57.9908 112.586 65.1085 113.904 78.6247 116.408 92.7523 116.127 106.147 113.019 111.768 111.701 120.541 108.616 124.1 103.891ZM125.081 76.7385C123.265 78.4907 121.216 79.9827 118.991 81.1721 108.961 86.6239 92.9303 88.6101 81.5743 88.3795 70.1937 88.1486 57.2715 86.1665 47.1587 80.707 45.3385 79.7244 43.0769 78.0761 41.4165 76.8257 41.4144 77.4787 41.3108 82.1161 41.553 82.3556 44.2591 84.1649 46.2411 85.7132 49.2249 87.0799 53.7778 89.1653 58.5947 90.658 63.4809 91.705 76.4862 94.4869 89.9228 94.5823 102.966 91.9849 108.598 90.8702 114.436 89.1984 119.522 86.4879 121.524 85.421 124.373 83.4905 125.044 81.1896 125.204 80.6408 125.265 77.1896 125.081 76.7385ZM41.5326 106.359C41.5044 108.225 41.4948 110.091 41.5034 111.956 56.9446 123.505 79.7968 124.629 98.3191 122.362 104.975 121.547 121.454 117.865 124.949 111.485 125.345 110.401 125.266 107.641 125.246 106.419 115.526 115.767 95.1093 118.206 82.08 117.953 71.523 117.748 58.9719 116.166 49.4871 111.362 47.7744 110.494 46.0646 109.524 44.4773 108.444 43.5226 107.794 42.5535 106.865 41.5326 106.359ZM41.263 46.4433C41.1127 47.9893 41.2435 50.7316 41.204 52.3837 43.6268 54.1119 46.1967 55.9784 48.9033 57.2627 60.9154 62.9623 76.2229 64.592 89.33 64.0036 98.7055 63.5826 119.012 60.2408 124.707 52.2394L124.768 52.1521C125.374 51.1004 125.268 48.0737 125.24 46.7365 116.303 56.0621 96.5896 58.5739 84.3355 58.6742 72.7383 58.769 56.763 56.7586 46.6354 50.6715 44.7653 49.5282 43.0305 48.1772 41.4641 46.6444 41.3933 46.5762 41.3304 46.5142 41.263 46.4433Z" stroke="#00FFC2" stroke-width="1.71283" fill="#00FFC2" transform="matrix(1 0 0 1.00599 1091 115)"/><path d="M52.6984 125.788C55.2191 125.434 57.5514 127.185 57.9152 129.704 58.2791 132.223 56.5375 134.563 54.0198 134.936 51.488 135.312 49.1331 133.559 48.7673 131.026 48.4013 128.492 50.1639 126.144 52.6984 125.788ZM53.5313 132.327C54.6384 132.214 55.4445 131.225 55.3336 130.118 55.2225 129.011 54.2363 128.202 53.1288 128.311 52.0174 128.419 51.2054 129.41 51.3168 130.521 51.428 131.632 52.4205 132.442 53.5313 132.327Z" stroke="#00FFC2" stroke-width="1.71283" fill="#00FFC2" transform="matrix(1 0 0 1.00599 1091 115)"/><path d="M52.5125 66.4993C54.9976 66.0865 57.3511 67.7534 57.7866 70.2346 58.222 72.7158 56.5768 75.0844 54.0997 75.5425 51.5904 76.0065 49.1841 74.3352 48.743 71.8217 48.3018 69.3083 49.9951 66.9174 52.5125 66.4993ZM53.6951 73.0088C54.7665 72.7766 55.4478 71.7211 55.218 70.6492 54.9883 69.5774 53.9343 68.8935 52.8619 69.1209 51.786 69.3489 51.0996 70.407 51.33 71.4824 51.5604 72.5577 52.6203 73.2417 53.6951 73.0088Z" stroke="#00FFC2" stroke-width="1.71283" fill="#00FFC2" transform="matrix(1 0 0 1.00599 1091 115)"/><path d="M52.3728 96.2465C54.8649 95.7628 57.2763 97.3939 57.7549 99.8869 58.2336 102.38 56.5977 104.788 54.1038 105.262 51.6169 105.734 49.2169 104.104 48.7395 101.618 48.2623 99.1318 49.8878 96.7287 52.3728 96.2465ZM53.5352 102.712C54.2419 102.613 54.8409 102.142 55.103 101.478 55.3651 100.815 55.2496 100.061 54.8008 99.5067 54.3521 98.9519 53.6395 98.6817 52.9357 98.7992 51.8679 98.9777 51.1415 99.9811 51.3055 101.051 51.4694 102.121 52.463 102.861 53.5352 102.712Z" stroke="#00FFC2" stroke-width="1.71283" fill="#00FFC2" transform="matrix(1 0 0 1.00599 1091 115)"/></g></svg>