<svg width="129" height="129" xmlns="http://www.w3.org/2000/svg" xmlns:xlink="http://www.w3.org/1999/xlink" xml:space="preserve" overflow="hidden"><g transform="translate(-57 -170)"><path d="M120.742 176.519C152.759 176.105 179.053 201.717 179.48 233.735 179.907 265.752 154.304 292.056 122.287 292.495 90.2524 292.935 63.9302 267.315 63.5034 235.28 63.0766 203.245 88.7068 176.933 120.742 176.519ZM123.319 291.024C154.563 290.017 179.064 263.854 178.024 232.612 176.983 201.369 150.795 176.895 119.553 177.969 88.3586 179.041 63.9294 205.181 64.9685 236.377 66.0076 267.573 92.122 292.03 123.319 291.024Z" stroke="#999999" stroke-width="1.64331" fill="#999999"/><path d="M120.274 186.34C120.32 186.338 120.366 186.336 120.412 186.334 129.455 186.051 140.148 187.753 148.27 191.816 152.212 193.788 156.04 196.892 155.916 201.637 155.871 203.334 155.915 205.134 155.915 206.854L155.918 217.473 155.898 248.908C155.938 254.126 155.946 259.343 155.921 264.56L155.901 268.53C155.897 269.29 155.914 270.328 155.825 271.056 155.658 272.416 154.583 274.096 153.625 275.044 146.488 282.106 132.391 284.074 122.964 284.23 122.42 284.254 121.858 284.262 121.313 284.255 112.845 284.149 104.112 283.09 96.3474 279.521 92.6878 277.839 87.9199 275.018 87.4715 270.587 87.4101 269.981 87.4882 269.259 87.4606 268.641 87.4509 267.629 87.4649 266.61 87.4581 265.597L87.3765 255.393 87.236 224.279 87.1133 206.94C87.1142 205.786 87.1044 204.632 87.0837 203.478 87.0159 200.39 86.8896 198.103 89.2539 195.7 95.2412 189.614 104.683 187.877 112.811 186.832 115.311 186.511 117.792 186.477 120.274 186.34ZM152.645 273.203C152.94 272.82 153.584 271.889 153.65 271.435 153.853 270.045 153.772 268.169 153.766 266.765L153.748 259.09C143.163 267.07 123.602 268.191 110.856 266.419 103.221 265.358 95.42 263.084 89.122 258.524 89.0358 260.751 89.0788 263.123 89.0622 265.356 89.0511 266.838 88.9291 269.72 89.253 271.045 90.0317 274.233 93.8794 276.485 96.6437 277.746 103.686 280.99 111.642 282.204 119.354 282.444 127.851 282.707 136.851 281.538 144.778 278.404 147.515 277.322 150.863 275.564 152.645 273.203ZM88.9489 227.203C89.7222 227.669 90.5588 228.39 91.2989 228.94 92.5151 229.855 93.8211 230.646 95.1966 231.298 107.315 237.127 124.501 237.558 137.555 234.711 142.247 233.688 149.995 231.095 152.944 227.074 153.217 226.691 153.584 226.182 153.64 225.714 153.809 224.302 153.721 222.688 153.72 221.261L153.732 212.887C146.003 219.136 133.871 221.017 124.196 221.312 112.567 221.667 98.4299 219.767 88.9294 212.549 88.8795 217.383 88.9183 222.36 88.9489 227.203ZM119.453 188.169C110.427 188.59 97.6232 190.016 90.5837 196.673 87.9243 199.188 88.1734 203.31 91.1192 205.628 99.7057 212.385 112.875 213.625 123.462 213.525 131.438 213.252 139.629 212.06 146.903 208.602 149.903 207.176 154.206 204.556 154.079 200.707 154.021 198.961 152.76 197.198 151.505 196.087 143.618 189.468 129.248 187.995 119.453 188.169ZM152.862 250.251C153.138 249.823 153.586 249.163 153.653 248.656 153.786 247.648 153.786 246.528 153.758 245.508 153.674 242.434 153.847 239.26 153.701 236.197 149.246 239.706 142.075 242.05 136.53 242.997 121.454 245.57 103.469 244.93 90.282 236.389 89.8779 236.128 89.4689 235.828 89.057 235.59 88.9289 239.75 89.0375 243.954 88.9987 248.118 88.9928 248.755 88.9955 249.428 89.0158 250.064 89.939 250.604 90.8229 251.436 91.7062 252.059 96.3135 255.307 101.795 256.967 107.293 257.986 117.734 259.92 128.647 259.703 138.994 257.302 143.336 256.284 150.113 253.901 152.862 250.251ZM153.619 229.277C152.217 230.631 150.634 231.783 148.915 232.702 141.167 236.913 128.784 238.447 120.012 238.269 111.221 238.091 101.24 236.56 93.428 232.343 92.022 231.584 90.2749 230.31 88.9924 229.344 88.9907 229.849 88.9107 233.431 89.0978 233.616 91.1882 235.014 92.7191 236.21 95.024 237.265 98.5409 238.876 102.262 240.029 106.036 240.838 116.082 242.987 126.461 243.061 136.537 241.054 140.887 240.193 145.397 238.902 149.326 236.808 150.872 235.984 153.072 234.493 153.591 232.715 153.714 232.291 153.762 229.625 153.619 229.277ZM89.0821 252.158C89.0603 253.599 89.0528 255.04 89.0595 256.481 100.987 265.402 118.639 266.27 132.947 264.519 138.088 263.89 150.818 261.046 153.518 256.117 153.823 255.28 153.762 253.148 153.747 252.204 146.239 259.425 130.468 261.309 120.403 261.113 112.248 260.955 102.553 259.733 95.2266 256.022 93.9036 255.352 92.5828 254.602 91.3567 253.768 90.6192 253.266 89.8707 252.548 89.0821 252.158ZM88.8738 205.875C88.7577 207.07 88.8587 209.188 88.8282 210.464 90.6997 211.799 92.6849 213.241 94.7756 214.233 104.054 218.636 115.879 219.894 126.003 219.44 133.246 219.115 148.932 216.533 153.33 210.353L153.378 210.285C153.846 209.473 153.764 207.135 153.742 206.102 146.839 213.305 131.611 215.246 122.145 215.323 113.187 215.396 100.847 213.843 93.0238 209.141 91.5792 208.258 90.2392 207.215 89.0292 206.031 88.9745 205.978 88.9259 205.93 88.8738 205.875Z" stroke="#999999" stroke-width="1.64331" fill="#999999"/><path d="M97.7072 267.166C99.6543 266.892 101.456 268.245 101.737 270.191 102.018 272.137 100.673 273.944 98.7278 274.232 96.7722 274.522 94.9531 273.168 94.6705 271.211 94.3878 269.255 95.7494 267.441 97.7072 267.166ZM98.3505 272.217C99.2057 272.129 99.8284 271.366 99.7427 270.511 99.6569 269.655 98.8951 269.031 98.0396 269.114 97.1811 269.198 96.5539 269.963 96.6399 270.822 96.7258 271.68 97.4925 272.305 98.3505 272.217Z" stroke="#999999" stroke-width="1.64331" fill="#999999"/><path d="M97.5636 221.368C99.4832 221.049 101.301 222.336 101.638 224.253 101.974 226.17 100.703 227.999 98.7896 228.353 96.8513 228.712 94.9925 227.421 94.6517 225.479 94.311 223.538 95.619 221.691 97.5636 221.368ZM98.477 226.396C99.3047 226.217 99.8309 225.401 99.6534 224.573 99.476 223.745 98.6618 223.217 97.8334 223.393 97.0023 223.569 96.4721 224.386 96.6501 225.217 96.8281 226.048 97.6468 226.576 98.477 226.396Z" stroke="#999999" stroke-width="1.64331" fill="#999999"/><path d="M97.4556 244.346C99.3807 243.972 101.243 245.232 101.613 247.158 101.983 249.084 100.719 250.944 98.7927 251.31 96.8717 251.675 95.0178 250.415 94.6491 248.495 94.2805 246.575 95.5361 244.719 97.4556 244.346ZM98.3536 249.34C98.8994 249.264 99.3621 248.9 99.5646 248.388 99.767 247.875 99.6778 247.293 99.3311 246.864 98.9846 246.436 98.4341 246.227 97.8905 246.318 97.0656 246.456 96.5045 247.231 96.6312 248.058 96.7578 248.884 97.5253 249.456 98.3536 249.34Z" stroke="#999999" stroke-width="1.64331" fill="#999999"/></g></svg>