<svg width="500" height="500" xmlns="http://www.w3.org/2000/svg" xmlns:xlink="http://www.w3.org/1999/xlink" xml:space="preserve" overflow="hidden"><defs><clipPath id="clip0"><rect x="2067" y="1826" width="500" height="500"/></clipPath></defs><g clip-path="url(#clip0)" transform="translate(-2067 -1826)"><path d="M2067 2076C2067 1937.93 2178.93 1826 2317 1826 2455.07 1826 2567 1937.93 2567 2076 2567 2214.07 2455.07 2326 2317 2326 2178.93 2326 2067 2214.07 2067 2076Z" fill="#999999" fill-rule="evenodd"/><g><g><g><path d="M2469.87 1989.18C2469.48 1988.34 2468.63 1987.81 2467.7 1987.84L2467.12 1987.84C2464.72 1987.83 2462.39 1988.62 2460.48 1990.07 2460.05 1990.48 2459.53 1990.77 2458.97 1990.93 2458.04 1991.14 2457.11 1991.58 2456.15 1991.82 2453.3 1992.99 2450.17 1993.31 2447.14 1992.75 2446.01 1992.2 2444.64 1992.6 2443.98 1993.68 2443.75 1994.15 2443.2 1994.37 2442.71 1994.2 2442.24 1994.09 2441.74 1994.2 2441.37 1994.51 2440.79 1994.89 2440.13 1995.12 2439.44 1995.19 2437.06 1995.5 2434.86 1996.63 2433.22 1998.39 2432.95 1998.63 2432.57 1999.08 2432.36 1999.04 2430.88 1998.73 2430.3 2000.04 2429.3 2000.59L2429.3 2000.59 2428.55 2003.17 2426.9 2003.62C2426.11 2004.13 2426.9 2004.82 2426.28 2005.33 2425.66 2005.85 2426.28 2006.61 2426.28 2007.22 2423.94 2006.95 2422.84 2007.43 2420.81 2009.73 2421.21 2009.93 2421.64 2010.03 2422.08 2010.04 2422.32 2010.04 2422.08 2010.42 2421.74 2010.35 2422.02 2011.18 2421.58 2012.08 2420.75 2012.36 2420.68 2012.38 2420.61 2012.4 2420.54 2012.42 2419.47 2012.65 2418.54 2013.32 2417.99 2014.27 2417.72 2014.75 2417.03 2014.96 2416.58 2015.3 2416.14 2015.65 2416.38 2015.65 2416.27 2015.78L2417.1 2017.4 2415.55 2019.91C2415.03 2019.87 2414.5 2019.87 2413.97 2019.91 2413.12 2019.96 2412.47 2020.7 2412.53 2021.55 2412.53 2021.64 2412.54 2021.72 2412.56 2021.8 2412.62 2022.73 2413.41 2023.44 2414.34 2023.38 2414.35 2023.38 2414.35 2023.38 2414.35 2023.38 2414.93 2023.38 2415.55 2022.97 2416.1 2023.07 2417.92 2023.31 2418.99 2025 2420.64 2025.62 2420.64 2025.62 2420.64 2025.62 2420.64 2025.62L2420.12 2027.44 2423.56 2028.61C2423.84 2028.67 2424.14 2028.67 2424.42 2028.61 2426.55 2028.21 2428.73 2028.21 2430.85 2028.61 2431.23 2028.61 2431.67 2028.61 2431.71 2028.06 2430.92 2027.54 2430.06 2027.03 2429.27 2026.47 2427.53 2025.27 2426.24 2023.53 2425.59 2021.53 2424.7 2019.31 2425.26 2016.77 2427 2015.13 2427.51 2014.47 2427.95 2013.77 2428.34 2013.03L2427 2012.24C2427.89 2012.3 2428.79 2012.3 2429.68 2012.24 2430.23 2012.24 2430.88 2011.87 2430.68 2011.07 2430.47 2010.28 2430.68 2010.35 2431.26 2010.35 2432.29 2010.35 2432.5 2009.53 2433.02 2008.94 2433.53 2008.36 2433.32 2007.33 2434.46 2007.12 2435.17 2007.01 2435.76 2006.53 2436.01 2005.85 2436.5 2004.56 2437.66 2003.65 2439.03 2003.48 2440.15 2003.51 2441.18 2002.9 2441.68 2001.9 2442.02 2001.04 2442.61 2000.8 2443.26 2000.38 2446.1 1998.54 2449.24 1997.23 2452.54 1996.5 2457.04 1995.61 2461.34 1994.06 2465.77 1993.06 2466.93 1992.76 2468 1992.16 2468.87 1991.34 2469.59 1990.86 2470.21 1990.18 2469.87 1989.18Z" stroke="#00FFC2" stroke-width="3.42559" fill="#00FFC2"/><path d="M2222.78 2106.91C2224.63 2106.23 2224.63 2106.23 2225.84 2108.18L2224.7 2110.87C2226.56 2111.9 2228.31 2110.87 2230 2110.87 2229.65 2113.34 2229.65 2113.34 2231.78 2114.82 2231.7 2115.4 2231.58 2115.97 2231.44 2116.54 2231.26 2117.11 2231.04 2117.67 2230.79 2118.22L2226.77 2118.57C2227.04 2119.22 2227.35 2119.8 2227.59 2120.42 2228.17 2121.42 2227.84 2122.71 2226.84 2123.29 2226.76 2123.34 2226.68 2123.38 2226.59 2123.41 2226.15 2123.69 2225.67 2123.82 2225.25 2124.1 2224.96 2124.35 2224.69 2124.64 2224.46 2124.96 2225.73 2125.23 2226.8 2125.37 2227.9 2125.68 2229.2 2126.29 2230.65 2126.49 2232.06 2126.23 2231.78 2127.43 2230.89 2127.68 2229.82 2127.64 2229.03 2127.45 2228.2 2127.63 2227.56 2128.12 2226.41 2129.09 2225.45 2130.26 2224.7 2131.56L2224.7 2131.56C2226.13 2131.16 2227.64 2131.16 2229.07 2131.56 2229.61 2130.2 2231.1 2129.47 2232.51 2129.88 2233.19 2130.01 2233.89 2130.01 2234.57 2129.88 2236.81 2129.42 2239.09 2129.21 2241.37 2129.26 2242.93 2129.36 2244.43 2128.69 2245.4 2127.47L2243.2 2126.57C2243.51 2126.05 2243.88 2125.55 2244.3 2125.1 2244.78 2124.62 2245.43 2124.31 2245.88 2123.79 2246.62 2123.22 2246.9 2122.23 2246.57 2121.35 2246.18 2120.52 2245.35 2119.97 2244.43 2119.94 2244.05 2119.87 2243.65 2119.87 2243.27 2119.94 2242.82 2119.94 2242.41 2120.46 2241.79 2119.94 2242.09 2119.04 2241.95 2118.04 2241.41 2117.26 2241.18 2116.82 2241 2116.36 2240.86 2115.88 2240.36 2114.39 2239.28 2113.15 2237.87 2112.45 2237.31 2112.07 2236.85 2111.55 2236.56 2110.93 2236.23 2110.32 2235.96 2109.68 2235.77 2109.01 2235.29 2107.34 2233.82 2106.15 2232.09 2106.02 2231.65 2106.02 2231.06 2106.29 2230.75 2105.64 2232.5 2103.5 2233.89 2101.08 2234.84 2098.49 2233.01 2098 2231.09 2097.89 2229.21 2098.15 2228.76 2098.15 2228.28 2098.15 2227.9 2098.15 2227.68 2097.29 2228.04 2096.38 2228.79 2095.91 2229.45 2095.4 2230.34 2095.02 2230.55 2093.85 2228.48 2093.33 2226.59 2094.37 2224.7 2093.85 2224.32 2094.64 2224.08 2095.26 2223.77 2095.88 2223.47 2096.5 2223.36 2096.84 2222.98 2097.05 2222.26 2097.33 2221.9 2098.15 2222.18 2098.87 2222.21 2098.93 2222.23 2098.99 2222.26 2099.04 2222.54 2099.69 2222.54 2100.42 2222.26 2101.07 2222.26 2101.55 2222.02 2102.03 2221.88 2102.51 2221.75 2102.99 2221.54 2103.3 2221.3 2103.85L2223.09 2103.44C2223.05 2104.71 2222.92 2105.78 2222.78 2106.91Z" stroke="#00FFC2" stroke-width="3.42559" fill="#00FFC2"/><path d="M2279.19 1971.92 2280.84 1970.99 2281.52 1973.54C2281.25 1974.09 2280.36 1974.84 2280.6 1975.26 2280.84 1975.67 2282.04 1975.98 2282.59 1976.39 2283.11 1976.85 2283.6 1977.33 2284.07 1977.83 2285.49 1979.09 2287.66 1978.96 2288.92 1977.54 2289.16 1977.27 2289.36 1976.96 2289.5 1976.63 2289.5 1976.18 2289.81 1975.74 2289.95 1975.32 2290.91 1975.32 2291.7 1975.81 2292.25 1974.88 2292.25 1974.88 2292.56 1974.88 2292.73 1974.88L2292.73 1976.49C2294.42 1977.18 2295.31 1975.67 2296.62 1975.19L2296.86 1977.8C2295.69 1977.88 2294.53 1978.1 2293.42 1978.45 2291.5 1979.52 2289.33 1980.06 2287.13 1980 2287.13 1980.89 2287.13 1981.55 2287.99 1981.89 2290.39 1981.5 2292.81 1981.28 2295.24 1981.24L2296.86 1981.24 2296.86 1981.55 2295.31 1981.13C2294.97 1981.44 2294.66 1981.96 2294.24 1982.03 2293.39 1982.21 2292.68 1982.78 2292.32 1983.57L2290.29 1983.57C2289.67 1983.57 2288.98 1982.85 2288.37 1983.99 2288.64 1984.37 2288.85 1985.02 2289.29 1985.26 2290.96 1986.44 2293.01 1986.94 2295.03 1986.67 2294.76 1987.36 2294.21 1987.7 2294.38 1988.28 2295.17 1989.04 2296.1 1990.04 2297.51 1989.56 2298.1 1988.53 2298.6 1987.45 2298.99 1986.32 2299.36 1984.8 2300.53 1983.59 2302.05 1983.16 2302.67 1982.78 2302.32 1981.65 2302.49 1981 2302.67 1980.34 2302.73 1980.03 2302.97 1979.97 2304.59 1979.48 2304.42 1977.97 2304.76 1976.87 2305.62 1976.39 2306.38 1975.91 2307.17 1975.57 2307.96 1975.22 2308.75 1975.29 2309.51 1975.02 2310.26 1974.74 2311.26 1975.22 2312.12 1974.26L2303.87 1971.17C2303.87 1969.89 2303.87 1968.72 2302.29 1968.52 2301.57 1968.52 2301.46 1969.69 2300.4 1969.24L2300.57 1966.97C2299.98 1966.66 2299.3 1965.91 2298.82 1966.04 2297.47 1966.39 2296.62 1965.22 2295.38 1965.22L2293.8 1967.18C2294.09 1968.06 2294.33 1968.95 2294.52 1969.86 2294.52 1970.79 2295.62 1971.47 2295.45 1972.57 2293.62 1972.09 2293.07 1970.65 2292.35 1969.34 2291.63 1968.04 2291.18 1967.28 2289.88 1967.18 2288.37 1968.62 2288.37 1968.62 2287.92 1970.27L2283.83 1968.38C2284.52 1966.9 2286.2 1968.11 2287.02 1966.9 2284.65 1966.32 2282.15 1966.38 2279.81 1967.07 2279.22 1967.28 2279.19 1967.56 2279.02 1967.8 2277.54 1969.41 2277.54 1969.45 2278.81 1971.23 2278.67 1971.82 2278.95 1971.82 2279.19 1971.92ZM2292.63 1983.78 2294.62 1983.47C2293.8 1984.37 2293.18 1983.82 2292.56 1983.78Z" stroke="#00FFC2" stroke-width="3.42559" fill="#00FFC2"/><path d="M2219.86 2122.83C2220.28 2122.02 2220.58 2121.15 2220.75 2120.25 2220.75 2118.6 2220.58 2116.81 2220.47 2115.3L2222.47 2113.27C2222.25 2111.83 2221.52 2110.51 2220.41 2109.56L2218 2109.94C2217.07 2108.73 2216.04 2109.94 2215.11 2109.94 2214.18 2109.94 2213.53 2110.73 2213.39 2112 2213.26 2113.27 2213.05 2113.93 2211.67 2114.06 2211.09 2114.1 2210.51 2114.1 2209.92 2114.06 2208.82 2114.06 2208.51 2114.37 2208.86 2115.47 2208.86 2115.88 2209.13 2116.12 2208.86 2116.54 2208.61 2116.96 2208.43 2117.41 2208.31 2117.88L2210.99 2118.94C2210.44 2120.04 2210.02 2121.04 2209.47 2121.97 2208.72 2122.84 2208.13 2123.84 2207.72 2124.93L2210.85 2126.33C2212.29 2125.88 2213.69 2125.28 2215.01 2124.55 2216.55 2123.79 2218.18 2123.21 2219.86 2122.83Z" stroke="#00FFC2" stroke-width="3.42559" fill="#00FFC2"/><path d="M2302.87 1965.56C2302.87 1965.91 2302.87 1966.42 2302.87 1966.8 2304.03 1967.65 2305.5 1967.93 2306.89 1967.59L2311.64 1967.11C2312.02 1967.11 2312.46 1967.11 2312.5 1967.76 2311.81 1968.04 2311.09 1968.42 2310.37 1968.66 2309.64 1968.9 2308.72 1968.38 2307.75 1968.86 2309.22 1969.88 2310.99 1970.36 2312.77 1970.2 2314.64 1969.93 2316.56 1970.17 2318.31 1970.89 2319.59 1971.52 2321.1 1971.42 2322.29 1970.65 2322.63 1970.42 2323.02 1970.3 2323.43 1970.31 2325 1970.54 2326.55 1969.78 2327.31 1968.38 2327.55 1967.93 2328.31 1967.76 2328.82 1967.49 2329.34 1967.21 2330.1 1966.87 2330.68 1966.49 2331.27 1966.11 2331.02 1965.22 2330.51 1964.98 2330.16 1964.8 2329.79 1964.69 2329.41 1964.63 2327.72 1964.54 2326.04 1964.28 2324.39 1963.88 2322.96 1963.38 2321.37 1963.6 2320.13 1964.46 2319.72 1964.81 2318.86 1964.46 2318.13 1964.63 2318.17 1964.29 2318.17 1963.95 2318.13 1963.6 2318.13 1963.36 2318.13 1962.98 2317.82 1962.88 2317.57 1962.76 2317.28 1962.76 2317.03 1962.88 2316.52 1963.57 2316.07 1964.32 2315.42 1965.39 2314.81 1965.05 2314.17 1964.74 2313.53 1964.46 2313.13 1964.21 2312.66 1964.08 2312.19 1964.08 2311.29 1964.14 2310.4 1963.87 2309.68 1963.33 2308.92 1962.85 2308.13 1962.47 2307.31 1961.99 2307.31 1963.5 2305.72 1963.78 2305.21 1964.77 2304.13 1964.28 2302.9 1964.22 2301.77 1964.6 2302.18 1965.08 2302.7 1965.29 2302.87 1965.56Z" stroke="#00FFC2" stroke-width="3.42559" fill="#00FFC2"/><path d="M2316.31 1983.37 2317.14 1985.33C2319.01 1984.71 2320.64 1983.51 2321.78 1981.89 2319.9 1981.76 2318.26 1980.57 2317.55 1978.83L2316.24 1978.83 2314.87 1978.83C2314.25 1976.56 2313.73 1976.15 2311.81 1976.43 2311.16 1976.6 2310.54 1976.85 2309.95 1977.18 2310.54 1978.45 2310.54 1978.45 2312.57 1979.11L2311.53 1979.97C2311.62 1980.16 2311.74 1980.35 2311.88 1980.52L2312.6 1981C2312.36 1982.37 2311.33 1982.99 2311.6 1984.23Z" stroke="#00FFC2" stroke-width="3.42559" fill="#00FFC2"/><path d="M2403.38 2039.68C2405.21 2039.75 2406.92 2038.76 2407.75 2037.13L2406.03 2036.13C2405.67 2035.96 2405.29 2035.84 2404.9 2035.76 2403.7 2035.49 2402.47 2036.09 2401.94 2037.2 2401.44 2037.92 2401.62 2038.9 2402.34 2039.4 2402.65 2039.61 2403.01 2039.71 2403.38 2039.68Z" stroke="#00FFC2" stroke-width="3.42559" fill="#00FFC2"/><path d="M2439.92 2034.04C2440.15 2034.24 2440.45 2034.33 2440.75 2034.31 2441.09 2034.31 2441.61 2034.11 2441.71 2033.87 2441.79 2033.5 2441.67 2033.12 2441.4 2032.87 2440.23 2032.01 2438.96 2031.25 2437.72 2030.46 2437.53 2030.42 2437.33 2030.42 2437.14 2030.46 2436.97 2030.52 2436.81 2030.6 2436.66 2030.7 2436.13 2031.16 2436.07 2031.96 2436.52 2032.5 2436.67 2032.67 2436.86 2032.8 2437.07 2032.87 2438.1 2033.04 2439.07 2033.44 2439.92 2034.04Z" stroke="#00FFC2" stroke-width="3.42559" fill="#00FFC2"/><path d="M2351.82 1964.26C2350.41 1962.98 2349.17 1963.67 2348.01 1963.95 2347.63 1963.95 2347.01 1964.12 2347.32 1964.94 2348.85 1965.02 2350.38 1964.79 2351.82 1964.26Z" stroke="#00FFC2" stroke-width="3.42559" fill="#00FFC2"/><path d="M2455.12 2036.31C2454.53 2036.31 2453.98 2035.93 2453.4 2035.79 2451.92 2035.52 2450.48 2035.28 2449 2035.07L2444.63 2034.31 2442.47 2035.96 2444.6 2039.12C2444.6 2039.4 2444.6 2039.5 2444.39 2039.57 2443.9 2040.33 2443.09 2040.84 2442.19 2040.95 2440.96 2040.95 2441.2 2042.39 2440.34 2042.63 2439.88 2042.77 2439.39 2042.77 2438.93 2042.63 2438.41 2042.39 2438.38 2041.84 2438.55 2041.32 2438.72 2040.81 2438.86 2040.71 2438.96 2040.43 2438.24 2039.68 2437.59 2039.33 2436.69 2039.68 2436.22 2039.82 2435.74 2039.99 2435.28 2040.19 2434.3 2040.81 2433.23 2041.31 2432.12 2041.67 2430.84 2041.77 2429.55 2041.77 2428.27 2041.67 2426.56 2041.49 2424.91 2042.37 2424.11 2043.9L2422.08 2043.9C2421.19 2043.9 2420.33 2043.73 2419.44 2043.59 2419.44 2043.59 2419.44 2043.28 2419.44 2043.11L2420.92 2042.39C2420.88 2041.95 2420.83 2041.52 2420.74 2041.08 2420.54 2040.16 2420.12 2039.85 2419.3 2040.19 2418.64 2040.37 2418.02 2040.69 2417.48 2041.12 2417.13 2041.67 2416.86 2042.27 2416.69 2042.91 2414.52 2042.02 2412.04 2042.26 2410.09 2043.56 2408.82 2044.32 2407.41 2044.87 2406.1 2045.52L2401.63 2047.68 2400.57 2050.95C2399.65 2051.29 2398.71 2051.53 2397.75 2051.67 2396.57 2051.96 2395.33 2051.76 2394.31 2051.12 2393.31 2050.33 2392.45 2049.44 2391.49 2048.51 2392.38 2046.17 2394.65 2046.1 2396.61 2045.55 2396.61 2045.18 2396.61 2044.83 2396.61 2044.62 2395.6 2043.12 2393.92 2042.2 2392.11 2042.15L2387.71 2042.15C2390.53 2044.45 2388.22 2046.65 2387.92 2048.78 2390.46 2051.6 2390.46 2052.53 2387.92 2055.38 2386.19 2054.45 2384.28 2053.88 2382.31 2053.73 2381.12 2054.89 2379.69 2055.76 2378.12 2056.28 2376.96 2056.82 2375.87 2057.51 2374.89 2058.34 2374.38 2058.72 2374.27 2059.44 2374.65 2059.96 2375.13 2060.57 2375.75 2061.12 2376.16 2061.78 2376.39 2062.21 2376.48 2062.7 2376.4 2063.19 2376.4 2063.7 2375.78 2063.88 2375.2 2063.84 2374.61 2063.81 2373.82 2063.84 2373.13 2063.84 2372.12 2063.49 2371.07 2063.25 2370.01 2063.12 2368.49 2063.12 2368.01 2061.92 2366.91 2061.54L2365.19 2060.99 2363.89 2062.53C2364.67 2064.23 2366.47 2065.22 2368.32 2064.98L2368.56 2067.07C2367.69 2067.81 2366.5 2068.07 2365.4 2067.76 2364.04 2067.54 2362.76 2066.94 2361.72 2066.04 2361.1 2065.61 2360.38 2065.34 2359.62 2065.25 2358.59 2064.94 2357.73 2064.43 2357.73 2063.26 2357.73 2062.09 2356.81 2060.88 2356.5 2059.82 2357.73 2057 2357.56 2056.38 2354.98 2055.14 2354.98 2055.14 2354.78 2055.14 2354.71 2055.14 2353.27 2054.11 2351.82 2053.08 2350.45 2051.98 2349.83 2051.6 2349.64 2050.8 2350.02 2050.18 2350.05 2050.13 2350.09 2050.07 2350.14 2050.02 2350.51 2050.11 2350.85 2050.26 2351.17 2050.47 2351.94 2051.38 2353.04 2051.95 2354.23 2052.05 2354.91 2052.19 2355.57 2052.39 2356.22 2052.63 2358.11 2053.22 2360 2053.8 2361.93 2054.28 2363.85 2054.77 2364.85 2054.8 2366.26 2055.25 2369.34 2056.16 2372.67 2055.75 2375.44 2054.11 2376.53 2053.43 2377.51 2052.6 2378.36 2051.64 2378.92 2051.03 2379.05 2050.14 2378.67 2049.4 2378.29 2048.61 2378.02 2047.75 2377.74 2047 2376.66 2046.23 2375.51 2045.56 2374.3 2045 2371.7 2043.94 2369.2 2042.67 2366.81 2041.19 2365.28 2040.25 2363.67 2039.46 2362 2038.82 2359.74 2038.23 2357.44 2037.83 2355.12 2037.65 2354.78 2037.65 2354.37 2037.85 2353.99 2037.96 2353.61 2038.06 2353.27 2037.96 2353.23 2037.96 2352.54 2036.48 2350.79 2037.3 2349.79 2036.38 2349.79 2036.38 2349.45 2036.17 2349.35 2036 2349.31 2035.84 2349.31 2035.67 2349.35 2035.52 2350 2035.52 2350.72 2035.89 2351.44 2035.07 2350.64 2034.64 2349.78 2034.32 2348.9 2034.11L2347.22 2035.07 2340.96 2034.52C2340.59 2034.13 2340.19 2033.77 2339.76 2033.45 2338.99 2033.07 2338.2 2032.73 2337.38 2032.46 2342.44 2032.77 2342.44 2032.77 2344.26 2030.88 2342.8 2029.89 2341.17 2029.17 2339.45 2028.78 2337.93 2028.23 2337.97 2028.19 2337.04 2029.43 2336.83 2029.67 2336.73 2029.95 2336.52 2030.15 2336.32 2030.36 2335.67 2030.15 2335.46 2029.67 2335.42 2029.44 2335.42 2029.21 2335.46 2028.98 2335.87 2028.47 2336.25 2028.16 2336.28 2027.85 2336.32 2027.54 2335.77 2027.06 2335.29 2027.03L2334.02 2027.03C2333.43 2028.03 2332.78 2029.01 2332.09 2029.95 2331.85 2030.26 2331.33 2030.32 2330.82 2030.57 2330.61 2029.71 2330.44 2029.09 2330.23 2028.3 2328.82 2029.31 2327.6 2030.57 2326.62 2032.01 2326.32 2032.42 2325.9 2032.73 2325.39 2032.01 2325.5 2031.34 2325.68 2030.68 2325.94 2030.05 2326.38 2029.38 2326.89 2028.74 2327.45 2028.16L2324.46 2027.71C2323.77 2028.43 2323.46 2029.71 2322.43 2029.33 2321.4 2028.95 2321.23 2029.98 2320.75 2030.39L2319.51 2033.25C2317.79 2032.04 2316.07 2031.01 2314.01 2032.04L2315.25 2033.45C2313.28 2033.37 2311.38 2034.09 2309.95 2035.45 2309.75 2035.05 2309.52 2034.67 2309.27 2034.31 2308.81 2034.51 2308.32 2034.64 2307.82 2034.69 2307.31 2034.69 2307.27 2034.04 2307.03 2033.59 2306.79 2033.14 2306.03 2032.73 2305 2033.59 2305.89 2034.56 2305.89 2036.06 2305 2037.03 2304.59 2037.3 2304.18 2037.54 2303.77 2037.03 2303.35 2036.51 2302.25 2036.65 2301.5 2036.55 2300.47 2036.33 2299.45 2036.9 2299.09 2037.89L2300.05 2038.2 2301.08 2038.4C2300.77 2040.71 2299.26 2041.15 2297.65 2041.26L2296.37 2040.05 2294.97 2040.6 2293.87 2038.82C2293.85 2039.44 2293.79 2040.06 2293.69 2040.67 2293.69 2041.19 2293.32 2041.7 2293.01 2042.49 2294.14 2042.31 2295.29 2042.21 2296.44 2042.18 2297.54 2042.18 2298.71 2041.5 2299.88 2042.18 2298.99 2043.11 2297.89 2042.43 2296.92 2042.87L2296.2 2045.07C2294.48 2044.35 2293.66 2045.69 2292.77 2046.38 2292.77 2046.55 2292.77 2046.82 2292.77 2046.93 2291.53 2047.99 2290.32 2049.09 2288.98 2050.06 2287.74 2050.93 2286.76 2052.11 2286.13 2053.49L2286.82 2054.28C2284.57 2055.68 2283.17 2058.1 2283.07 2060.75 2281.97 2060.75 2281.25 2060.99 2280.91 2062.05 2280.66 2062.74 2280.36 2063.41 2280.01 2064.05 2278.94 2063.73 2277.79 2064.11 2277.12 2065.01 2276.38 2065.81 2275.68 2066.64 2275.03 2067.52 2274.85 2067.94 2274.77 2068.4 2274.79 2068.86 2274.37 2068.86 2273.82 2068.86 2273.55 2069.31 2273.13 2069.85 2272.36 2069.95 2271.81 2069.53 2271.73 2069.47 2271.66 2069.39 2271.59 2069.31L2269.53 2072.4C2268.53 2072.4 2267.57 2072.12 2266.61 2072.06 2266.19 2072.06 2265.85 2072.23 2266.02 2072.85L2267.91 2073.4C2266.95 2074.43 2265.75 2073.81 2264.78 2074.05 2263.62 2074.84 2262.86 2076.32 2261.14 2076.15 2260.85 2076.18 2260.6 2076.34 2260.45 2076.59 2259.69 2077.39 2259.34 2078.49 2259.49 2079.58 2259.66 2080.13 2259.49 2081.06 2259.73 2081.23 2261.07 2081.96 2259.11 2082.09 2259.52 2082.78 2259.88 2083.73 2260.1 2084.73 2260.18 2085.74L2262.27 2086.49C2261.96 2087.83 2261.24 2089.03 2260.21 2089.93 2260.49 2090.01 2260.78 2090.07 2261.07 2090.1 2261.59 2090.1 2262.17 2090.1 2262.27 2090.65 2262.33 2091.12 2262.22 2091.6 2261.97 2091.99 2261.61 2092.39 2261.21 2092.74 2260.76 2093.02 2260.76 2093.4 2260.76 2093.64 2261.04 2093.78 2262.5 2095.1 2264.28 2096.03 2266.19 2096.5 2266.87 2096.63 2267.57 2096.57 2268.22 2096.32 2269.78 2095.85 2271.19 2094.99 2272.31 2093.82 2273.14 2092.99 2273.86 2092.06 2275.27 2092.06 2275.68 2092.06 2276.16 2091.41 2276.54 2090.96 2276.92 2090.52 2276.54 2089.93 2277.5 2089.9 2278.11 2090.47 2278.64 2091.11 2279.08 2091.82 2279.67 2093.23 2279.46 2094.95 2280.97 2095.98 2281.22 2096.15 2281.15 2096.74 2281.28 2097.12 2281.56 2098.16 2281.93 2099.19 2282.38 2100.18 2283.14 2101.55 2284.07 2102.82 2284.96 2104.2 2284.87 2104.55 2284.72 2104.89 2284.52 2105.19 2284.28 2105.49 2284 2105.76 2283.69 2105.98 2284.71 2106.88 2285.4 2108.09 2285.65 2109.42 2286.37 2109.42 2286.96 2109.42 2287.51 2109.22 2287.97 2109.13 2288.43 2109.01 2288.88 2108.87 2289.17 2108.06 2289.58 2107.3 2290.08 2106.6 2290.76 2105.85 2291.76 2105.47 2292.77 2105.61 2293.44 2105.64 2294.12 2105.64 2294.79 2105.61 2296.24 2103.77 2297.04 2101.51 2297.06 2099.18 2297.26 2097.72 2297.54 2096.28 2297.89 2094.85 2298.05 2094.38 2298.35 2093.98 2298.75 2093.68 2299.22 2093.32 2299.72 2093.01 2300.26 2092.75 2300.98 2092.45 2301.66 2092.07 2302.29 2091.62 2302.8 2091.13 2302.97 2090.27 2303.46 2089.69 2303.94 2089.11 2304.62 2088.62 2304.62 2087.52 2303.68 2086.19 2302.36 2085.17 2300.84 2084.57 2299.64 2084.26 2299.3 2083.23 2299.06 2082.09 2298.54 2079.69 2300.05 2077.69 2300.16 2075.43 2300.16 2075.18 2300.5 2074.98 2300.67 2074.77 2301.17 2074.29 2301.63 2073.77 2302.05 2073.23 2303.17 2071.57 2304.8 2070.32 2306.69 2069.65 2309.2 2068.73 2311.38 2067.08 2312.94 2064.91 2312.97 2064.81 2312.97 2064.7 2312.94 2064.6 2312.94 2063.63 2312.32 2062.71 2312.63 2062.16 2313.36 2060.75 2313.67 2058.96 2315.45 2058.2 2315.93 2058.03 2316.31 2057.48 2316.76 2057.03L2321.26 2057.03C2322.66 2057 2324.04 2057.4 2325.22 2058.17 2325.7 2058.49 2326.04 2058.98 2326.18 2059.54 2326.27 2060.34 2326.27 2061.15 2326.18 2061.95 2324.95 2062.12 2323.84 2062.76 2323.08 2063.74 2321.67 2065.41 2320.04 2066.89 2318.24 2068.14 2317.55 2068.68 2316.9 2069.28 2316.31 2069.93 2315.97 2070.27 2315.59 2070.85 2315.25 2070.85 2313.87 2070.85 2313.87 2072.16 2313.15 2072.74 2312.43 2073.33 2312.7 2074.7 2312.94 2075.73 2313.84 2077.86 2313.96 2080.23 2313.29 2082.44 2312.87 2083.37 2313.29 2084.02 2314.46 2084.53L2317 2085.88C2317 2087.35 2318.27 2086.6 2318.86 2087.15 2319.44 2087.7 2320.64 2087.63 2321.64 2087.35 2323.63 2086.8 2325.7 2086.43 2327.69 2085.84 2330.83 2085.17 2334.01 2084.7 2337.21 2084.43 2337.52 2085.83 2338.85 2086.77 2340.27 2086.6 2340.66 2086.57 2341.06 2086.66 2341.41 2086.84 2341.82 2087.08 2342.23 2087.42 2341.92 2088.01 2339.42 2087.75 2336.93 2088.55 2335.05 2090.21 2334.53 2090.47 2333.95 2090.6 2333.36 2090.58 2332.56 2090.55 2331.76 2090.42 2330.99 2090.21 2327.46 2089.43 2323.78 2090.04 2320.68 2091.89 2320.51 2092.92 2320.66 2093.97 2321.09 2094.92 2321.64 2096.02 2322.91 2095.4 2323.46 2095.88L2323.46 2099.97C2323.45 2101.01 2322.73 2101.91 2321.71 2102.13 2320.83 2102.45 2319.86 2102.1 2319.37 2101.31 2318.68 2100.52 2317.89 2099.76 2317.27 2099.11 2315.57 2099.05 2314 2100.05 2313.32 2101.62 2312.38 2103.36 2312.09 2105.39 2312.5 2107.32 2312.5 2108.12 2312.84 2108.91 2312.94 2109.7 2313.15 2110.52 2312.87 2111.38 2312.22 2111.93L2308.75 2111.93C2308.75 2112.52 2308.96 2113.13 2308.75 2113.41 2308.13 2114.32 2307.07 2114.83 2305.97 2114.75 2304.59 2114.63 2303.38 2113.79 2302.77 2112.55 2300.62 2112.52 2298.51 2113.08 2296.65 2114.17 2295.78 2114.62 2294.88 2115.02 2293.97 2115.37 2293.21 2115.64 2292.42 2115.75 2291.7 2116.09 2290.99 2116.51 2290.3 2116.97 2289.64 2117.47L2286.44 2114.99 2286.44 2114.99C2285.41 2114.28 2284.04 2114.28 2283 2114.99 2282.16 2115.48 2281.26 2115.88 2280.32 2116.16 2279.78 2116.35 2279.18 2116.35 2278.64 2116.16 2278.43 2116.16 2278.43 2115.47 2278.29 2115.02L2275.58 2114.13C2275.13 2113.34 2274.65 2112.58 2274.27 2111.79 2273.82 2111.16 2273.96 2110.28 2274.59 2109.83 2274.62 2109.81 2274.65 2109.78 2274.68 2109.77 2274.71 2109.3 2274.8 2108.83 2274.96 2108.39 2275.31 2107.7 2275.75 2107.05 2276.27 2106.47 2276.84 2105.99 2277.47 2105.56 2278.12 2105.19 2276.13 2103.75 2276.09 2103.65 2276.68 2101.76 2276.77 2101.46 2276.87 2101.18 2276.99 2100.9 2277.2 2100.43 2276.99 2099.88 2276.53 2099.67 2276.52 2099.67 2276.51 2099.66 2276.51 2099.66 2276.05 2099.57 2275.57 2099.69 2275.2 2099.97 2274.55 2100.58 2273.94 2101.23 2273.38 2101.93 2272.55 2101.88 2271.73 2101.88 2270.9 2101.93 2270.66 2101.93 2270.52 2102.48 2270.32 2102.79L2271.25 2103.17C2271.69 2104.54 2270.08 2104.09 2269.63 2104.95 2270.04 2106.4 2269.12 2108.39 2270.83 2109.59 2270.97 2109.74 2271.04 2109.94 2271.04 2110.14 2271.5 2112.23 2271.82 2114.34 2272 2116.47 2271.59 2116.74 2271.18 2116.95 2270.8 2117.26L2269.7 2118.36C2268.29 2117.36 2266.95 2117.12 2265.71 2118.36 2265.51 2118.6 2264.99 2118.53 2264.61 2118.6 2263.62 2118.66 2262.63 2118.78 2261.66 2118.94 2260.62 2119.15 2260.45 2119.7 2260.76 2120.97 2260.82 2121.36 2260.82 2121.75 2260.76 2122.14L2258.22 2121.18C2257.78 2122.25 2257.21 2123.27 2256.53 2124.2 2255.64 2125.17 2256.77 2126.4 2255.81 2127.37 2253 2127.77 2250.28 2128.66 2247.77 2129.98 2247.67 2130.49 2247.6 2131.01 2247.56 2131.52 2247.6 2132.68 2246.78 2133.69 2245.64 2133.9 2244.13 2134.22 2242.86 2135.23 2242.2 2136.61 2240.48 2136.91 2238.71 2136.42 2237.39 2135.27 2237.39 2135.27 2236.73 2135.27 2236.32 2135.27 2236.84 2136.68 2237.63 2137.78 2236.91 2139.29 2235.32 2139.29 2233.67 2140.05 2232.09 2138.92 2231.82 2138.79 2231.51 2138.79 2231.23 2138.92L2227.49 2139.74 2228.07 2142.25C2229.55 2142.73 2230.96 2143.25 2232.4 2143.59 2233.7 2143.85 2234.78 2144.76 2235.26 2146 2235.89 2147.56 2237.03 2148.86 2238.49 2149.71 2238.84 2152.98 2238.59 2156.29 2237.73 2159.47 2237.57 2160.81 2236.36 2161.77 2235.02 2161.61 2234.89 2161.6 2234.76 2161.57 2234.64 2161.53 2232.28 2161.26 2229.9 2161.12 2227.52 2161.12 2224.46 2160.95 2221.44 2160.47 2218.34 2160.43 2217.86 2160.43 2217.42 2160.09 2216.93 2160.02 2216.55 2159.92 2216.15 2159.92 2215.77 2160.02 2214.53 2160.74 2213.29 2161.53 2211.95 2162.39 2212.19 2162.91 2212.43 2163.43 2212.64 2163.98 2212.91 2164.5 2213.06 2165.07 2213.08 2165.66 2212.97 2166.96 2213.09 2168.26 2213.46 2169.51 2213.62 2170.28 2213.62 2171.08 2213.46 2171.85 2213.2 2173.73 2212.57 2175.54 2211.61 2177.18 2211.35 2177.77 2211.2 2178.41 2211.16 2179.07L2213.15 2180.51 2213.15 2185.56C2214.51 2185.95 2215.95 2185.95 2217.31 2185.56 2219.03 2185.05 2219.99 2185.56 2221.02 2187.28 2221.23 2187.62 2221.4 2187.97 2221.57 2188.31 2221.99 2189.07 2222.78 2189.54 2223.64 2189.55 2225.66 2187.74 2228.37 2186.91 2231.06 2187.28 2232.53 2187.26 2233.99 2187.09 2235.43 2186.77 2236.01 2185.42 2237.16 2184.41 2238.56 2183.98 2238.91 2183.8 2239.21 2183.53 2239.42 2183.19L2242.06 2179.55C2241.97 2179.32 2241.85 2179.1 2241.72 2178.89 2240.92 2177.68 2241.04 2176.08 2242.03 2175.01 2242.85 2173.91 2243.78 2172.84 2244.54 2171.57 2245 2170.79 2245.78 2170.25 2246.67 2170.09 2248.29 2169.61 2249.85 2168.91 2251.27 2168 2252.22 2167.57 2252.75 2166.54 2252.55 2165.52 2252.55 2165.25 2252.55 2164.97 2252.34 2164.66 2252 2162.63 2252.17 2162.26 2253.89 2161.23L2255.4 2160.47C2256.41 2160.64 2257.43 2160.74 2258.46 2160.78 2259.56 2160.78 2260.21 2161.64 2261.17 2161.88 2262.21 2162.27 2263.38 2162.05 2264.2 2161.29 2265.09 2160.5 2266.11 2159.87 2267.22 2159.44 2268.25 2159.07 2269.17 2158.49 2269.94 2157.72 2270.32 2157.31 2271.01 2156.79 2271.42 2156.89 2272.76 2157.25 2274.07 2157.71 2275.34 2158.27 2276.06 2158.58 2276.23 2159.27 2276.47 2159.95 2276.91 2161.59 2277.82 2163.06 2279.08 2164.18 2280.67 2165.38 2282.07 2166.79 2283.59 2168.07 2284.07 2168.55 2284.68 2168.91 2285.34 2169.1 2286.99 2169.47 2288.52 2170.24 2289.81 2171.33 2290.7 2171.92 2291.77 2172.26 2292.25 2173.39 2292.46 2173.73 2292.77 2173.98 2293.14 2174.12 2295.48 2174.98 2295.34 2177.18 2295.93 2178.96L2294.62 2181.13C2294.31 2181.13 2294.24 2181.37 2294.14 2181.37 2291.56 2182.34 2288.77 2182.6 2286.06 2182.12 2285.51 2181.92 2284.72 2182.33 2284.1 2182.57 2283.48 2182.81 2283.93 2183.09 2283.83 2183.4L2290.7 2187.04C2291.25 2187.34 2291.94 2187.15 2292.25 2186.6 2292.35 2186.42 2292.39 2186.22 2292.39 2186.01 2292.39 2185.6 2292.22 2185.22 2292.22 2184.84 2292.19 2183.82 2292.65 2182.86 2293.45 2182.23L2295.14 2182.23 2296.24 2181.09C2296.99 2180.23 2297.03 2178.89 2298.37 2178.34 2298.88 2178.14 2298.71 2177.24 2298.37 2176.76 2297.93 2176.3 2297.46 2175.88 2296.96 2175.49 2296.99 2174.28 2297.7 2173.2 2298.78 2172.67 2299.63 2172.88 2300.45 2173.16 2301.26 2173.5 2301.9 2173.97 2302.48 2174.51 2303.01 2175.11 2303.01 2174.32 2303.22 2173.84 2303.01 2173.67 2302.34 2172.94 2301.58 2172.3 2300.74 2171.78 2298.88 2170.68 2296.92 2169.75 2295.07 2168.79L2295.07 2167.17C2291.64 2167.5 2288.49 2165.24 2287.71 2161.88 2287.45 2161.01 2286.86 2160.28 2286.06 2159.85L2284.31 2158.72C2283.32 2158.17 2282.74 2157.09 2282.83 2155.97 2282.91 2154.82 2282.91 2153.67 2282.83 2152.53 2284.45 2152.08 2285.79 2150.84 2287.61 2151.43 2287.85 2152.53 2286.92 2153.8 2288.43 2154.45L2290.05 2153.11C2290.91 2153.26 2291.59 2153.94 2291.73 2154.8 2292.33 2157.69 2294.54 2159.98 2297.41 2160.68 2298.15 2160.94 2298.85 2161.3 2299.5 2161.74 2300.64 2162.5 2301.7 2163.43 2302.94 2164.08 2304.61 2164.98 2306.07 2166.22 2307.24 2167.72 2307.24 2168.82 2307.24 2169.92 2306.89 2171.16 2306.67 2172.15 2306.95 2173.18 2307.65 2173.91 2308.06 2174.33 2308.42 2174.81 2308.72 2175.32 2309.34 2176.56 2310.32 2177.59 2311.53 2178.27 2311.74 2178.27 2312.02 2178.69 2311.98 2178.89 2311.77 2180.23 2312.7 2180.54 2313.67 2180.92 2313.67 2180.92 2313.87 2181.23 2313.97 2181.4L2312.77 2182.92C2313.81 2183.76 2314.44 2185.01 2314.49 2186.35 2315.93 2185.63 2316.9 2187.8 2318.44 2186.59L2317.96 2184.43C2319.23 2183.98 2318.92 2183.26 2318.55 2182.54L2321.71 2182.54 2322.33 2181.23 2322.33 2181.23C2322.12 2180.03 2321.71 2179.55 2320.75 2179.89 2319.86 2180.22 2318.87 2180.01 2318.2 2179.34 2318.2 2178.45 2318.41 2177.48 2318.55 2176.56 2317.96 2175.35 2316.62 2174.32 2317.79 2172.64 2318.27 2172.92 2318.78 2173.16 2319.3 2173.36 2319.77 2173.5 2320.28 2173.5 2320.75 2173.36 2321.02 2173.36 2321.19 2172.74 2321.26 2172.4 2321.33 2172.05 2321.85 2171.68 2322.33 2171.54 2324.54 2170.56 2327.08 2170.68 2329.2 2171.85 2330.29 2172.56 2331.7 2172.54 2332.78 2171.81 2334.23 2170.65 2336.2 2170.35 2337.93 2171.02 2338.27 2170.69 2338.65 2170.41 2339.07 2170.2 2338.14 2169.96 2337.23 2169.65 2336.35 2169.27 2335.85 2168.96 2335.43 2168.52 2335.15 2168 2334.63 2167.07 2334.19 2166.07 2333.71 2165.07 2335.25 2161.64 2335.25 2161.64 2336.73 2160.78 2336.4 2158.3 2337.82 2155.91 2340.17 2155.04L2340.58 2152.6 2344.71 2148.4C2345.99 2147.97 2347.38 2147.97 2348.66 2148.4 2348.87 2150.05 2349.14 2150.36 2350.52 2150.29 2351.89 2150.23 2352.68 2149.88 2353.68 2150.88 2353.37 2152.22 2351.62 2151.91 2351 2153.22L2353.44 2154.66 2353.85 2157.1C2354.43 2157.1 2355.05 2157.1 2355.33 2157.1 2356.41 2156.39 2357.56 2155.79 2358.77 2155.31 2359.63 2154.85 2360.62 2154.68 2361.58 2154.83 2362.27 2154.83 2362.72 2154.56 2362.51 2153.59L2361.45 2153.59C2359.9 2154.05 2358.28 2153.16 2357.82 2151.61 2357.78 2151.47 2357.75 2151.33 2357.73 2151.19 2357.57 2150.59 2357.82 2149.96 2358.35 2149.64 2358.61 2149.49 2358.87 2149.35 2359.14 2149.23 2363.12 2147.44 2367.36 2146.28 2371.69 2145.79 2371.69 2145.79 2371.97 2146 2372.14 2146.1 2371.11 2147.28 2369.81 2148.19 2368.36 2148.75L2369.01 2150.19C2367.74 2151.53 2367.19 2153.63 2365.02 2154.14 2366.12 2155.69 2366.12 2155.69 2367.26 2156.27 2368.39 2156.86 2369.87 2157.58 2371.11 2158.34 2373.51 2158.34 2375.88 2158.34 2378.29 2158.65 2383.17 2158.89 2387.97 2160.06 2392.42 2162.08 2394.1 2163.05 2395.88 2163.86 2397.71 2164.49 2398.66 2164.75 2399.65 2164.84 2400.63 2164.77L2400.63 2164.77C2400.1 2164.05 2399.77 2163.21 2399.67 2162.32 2399.92 2160.26 2398.85 2158.27 2396.99 2157.34L2400.12 2152.39C2402.17 2151.68 2404.07 2150.6 2405.72 2149.19 2407.49 2148.09 2409.38 2147.2 2411.36 2146.55 2411.93 2146.34 2412.55 2146.34 2413.11 2146.55L2413.77 2146.82C2413.94 2143.15 2414.76 2139.53 2416.17 2136.13 2417.17 2132.8 2419.23 2129.89 2422.05 2127.85 2425.06 2126.59 2428.32 2126.06 2431.57 2126.3 2432.9 2126.42 2434.23 2126.42 2435.56 2126.3 2436.59 2126.09 2436.59 2125.1 2436.59 2124.2 2436.56 2122.38 2436.34 2120.55 2435.94 2118.77 2435.47 2116.96 2435.54 2115.05 2436.14 2113.27 2433.83 2112.52 2432.32 2110.3 2432.47 2107.88 2433.05 2105.24 2434.23 2102.77 2435.9 2100.66 2436.62 2099.56 2437.35 2098.46 2438.03 2097.22 2438.72 2095.98 2439.58 2094.33 2440.34 2092.89 2442.06 2089.66 2443.77 2086.39 2445.25 2083.06 2446.81 2079.77 2447.96 2076.31 2448.69 2072.74 2448.96 2071.01 2449.11 2069.27 2449.14 2067.52 2449.08 2065.71 2448.85 2063.92 2448.45 2062.16 2447.72 2059.53 2448.33 2056.72 2450.07 2054.63 2450.89 2053.91 2451.76 2053.24 2452.68 2052.63 2453.89 2051.62 2454.97 2050.47 2455.91 2049.2 2458.09 2046.07 2459.39 2042.41 2459.66 2038.61L2459.66 2038.61C2458.06 2038.02 2456.54 2037.24 2455.12 2036.31ZM2275.2 2070.1C2275.08 2069.78 2274.94 2069.47 2274.79 2069.17L2278.22 2068.69C2277.74 2069.99 2276.54 2070.03 2275.2 2070.1ZM2278.64 2068.52C2278.58 2068.12 2278.58 2067.71 2278.64 2067.31 2278.64 2067.31 2279.08 2067.11 2279.32 2067.04 2279.57 2066.97 2279.6 2067.66 2279.5 2067.76 2279.22 2068.11 2278.89 2068.42 2278.53 2068.69ZM2300.43 2089.76C2300.75 2089.95 2300.97 2090.26 2301.05 2090.62 2301.05 2090.96 2300.29 2091.31 2299.85 2091.07 2299.4 2090.82 2298.51 2090.27 2297.65 2089.79 2298.5 2089.42 2299.47 2089.41 2300.33 2089.76ZM2273.27 2101.69 2273.27 2101.69C2273.69 2101.62 2273.48 2101.65 2273.27 2101.69ZM2318.41 2182.12C2318.41 2182.12 2318.41 2182.61 2318.41 2182.88 2317.45 2182.73 2316.55 2182.3 2315.83 2181.64 2317.17 2180.99 2317.79 2181.09 2318.41 2182.12ZM2350.14 2086.6C2349.38 2086.51 2348.62 2086.51 2347.87 2086.6 2347.23 2086.93 2346.63 2087.33 2346.08 2087.8 2345.73 2087.47 2345.41 2087.11 2345.12 2086.73L2341.68 2081.23C2341.88 2080.85 2342.14 2080.49 2342.44 2080.17 2343.16 2079.59 2343.92 2079.05 2344.71 2078.55 2346.49 2079.58 2348.14 2080.55 2349.97 2081.72 2350.65 2082.2 2350.96 2083.12 2351.55 2083.95Z" stroke="#00FFC2" stroke-width="3.42559" fill="#00FFC2"/><path d="M2192.67 2059.72C2191.63 2059.41 2192.39 2057.79 2191.12 2057.79 2190.88 2056.59 2189.74 2057.41 2189.16 2056.93 2188.7 2056.44 2188.15 2056.04 2187.54 2055.76 2186.58 2055.52 2186.68 2056.66 2186.2 2057.07 2185.72 2057.48 2185.89 2057.38 2185.72 2057.38 2184.67 2057.52 2183.65 2057.78 2182.66 2058.17 2182.18 2058.17 2181.6 2057.82 2181.08 2057.62L2180.15 2058.38C2177.88 2057.1 2177.85 2057.1 2176.17 2059.41L2174.07 2057.96C2174.07 2058.34 2173.76 2058.51 2173.76 2058.68 2173.76 2060.09 2173.76 2060.06 2172.35 2060.54 2171.87 2060.75 2171.42 2061.01 2171.01 2061.33 2169.6 2060.68 2169.74 2059.58 2170.01 2058.48 2169.26 2057.86 2168.53 2057.34 2167.88 2056.73 2167.67 2056.43 2167.51 2056.11 2167.4 2055.76L2167.4 2055.76 2165.75 2058.38C2164.89 2058.65 2163.38 2056.69 2162.86 2059.03 2162.86 2059.48 2163.89 2059.34 2163.52 2060.06 2163.14 2060.78 2161.87 2059.68 2161.56 2061.09 2162.32 2061.09 2163.08 2061 2163.82 2060.82 2165.16 2060.39 2166.61 2060.48 2167.88 2061.09 2167.88 2061.09 2168.09 2061.37 2168.19 2061.54L2167.54 2062.5C2167.54 2063.05 2168.47 2062.81 2168.19 2063.39L2163.03 2064.39 2163.03 2064.6 2166.23 2064.84C2167.09 2065.66 2167.81 2066.21 2168.4 2066.83 2168.89 2067.25 2168.95 2067.99 2168.53 2068.48 2168.39 2068.64 2168.22 2068.76 2168.02 2068.82 2167.5 2069.13 2166.92 2069.34 2166.09 2069.72 2166.4 2069.74 2166.71 2069.74 2167.02 2069.72 2169.37 2069.09 2171.89 2069.51 2173.9 2070.89 2176.59 2072.26 2179.81 2072.1 2182.35 2070.48 2182.75 2070.17 2183.21 2069.96 2183.69 2069.86 2185.47 2069.31 2187.21 2068.67 2188.92 2067.93 2190.82 2067.47 2192.55 2066.48 2193.9 2065.08 2194.56 2064.39 2195.14 2063.63 2195.69 2062.98L2195.21 2060.78C2194.39 2060.36 2193.54 2060.01 2192.67 2059.72Z" stroke="#00FFC2" stroke-width="3.42559" fill="#00FFC2"/></g></g></g></g></svg>