<?xml version="1.0" encoding="utf-8" ?><svg xmlns="http://www.w3.org/2000/svg" xmlns:xlink="http://www.w3.org/1999/xlink" width="1024" height="1024" viewBox="0 0 1024 1024"><path d="M230.499 160.255C242.119 160.79 258.973 160.197 271.013 160.215L360.37 160.258L542.698 160.226C589.018 159.87 635.34 159.852 681.659 160.174C708.54 160.534 735.47 160.206 762.356 160.164C774.527 160.145 787.679 159.079 799.744 160.409C808.638 161.389 818.07 164.111 824.575 170.516C828.938 174.812 832.816 180.757 834.356 186.721C835.133 189.727 835.64 192.891 835.875 195.986C836.581 205.323 837.652 257.633 834.966 263.695C831.243 272.1 817.835 287.696 811.707 295.569L772.982 345.401L652.229 503.141C645.718 511.557 639.375 520.017 632.865 528.547C628.257 535.893 613.631 550.327 611.077 558.117C607.821 568.046 609.027 595.508 609.03 606.128L609.069 674.875L609.03 733.84C609.025 743.682 609.311 753.459 608.615 763.212C607.777 776.643 599.613 780.24 589.488 786.268C571.594 796.923 553.384 807.11 535.542 817.807C518.645 828.16 501.659 838.368 484.587 848.43C476.104 853.485 467.604 858.732 458.937 863.463C450.488 868.074 440.591 868.298 431.889 864.054C423.398 860.163 417.595 850.408 416.399 841.226C415.376 833.366 415.855 823.597 415.893 815.502L415.954 771.712L415.88 610.654C415.868 594.54 417.032 576.094 414.011 560.508C413.726 559.036 402.784 545.037 401.281 543.041C389.578 527.418 377.723 511.909 365.717 496.517L239.4 330.61L204.819 285.482C197.865 276.282 186.237 264.026 186.98 252.763C189.568 213.543 174.376 161.055 230.499 160.255ZM589.79 762.553L589.854 631.75L589.898 586.433C589.908 579.685 589.569 569.079 590.154 562.793C590.505 559.024 591.331 555.314 592.613 551.751C595.897 542.752 614.278 520.276 620.737 511.985L645.429 479.848L732.419 365.924C756.096 335.281 782.999 301.8 805.488 270.557L418.301 270.608L284.149 270.613L241.251 270.517C234.307 270.5 225.496 270.739 218.797 270.414L357.411 452.712L401.314 510.082C408.338 519.179 415.412 528.256 422.307 537.418C428.299 545.38 434.216 553.863 435.112 564.09C435.885 572.909 435.582 582.172 435.581 591.051L435.572 638.256L435.793 783.419C435.734 795.162 435.465 807.691 435.515 819.083C435.571 831.884 433.164 855.857 453.66 843.231C460.015 839.316 466.664 835.465 472.989 831.737C486.429 823.967 499.795 816.07 513.084 808.045L561.912 778.95C570.921 773.633 580.97 768.027 589.79 762.553ZM207.467 251.015L799.875 250.99C805.15 251 811.145 250.824 816.322 251.478C816.243 239.94 816.256 228.402 816.361 216.864C816.393 209.08 816.817 200.748 815.518 193.108C814.197 185.34 806.478 180.341 798.959 180.125C789.263 179.846 779.578 179.942 769.885 179.943L716.853 179.965L554.389 179.988L339.141 179.952L267.239 179.909C254.521 179.898 240.796 179.576 228.157 180.008L225.005 180.127C216.002 181.571 208.074 186.804 207.775 196.348C207.222 214.035 206.85 233.392 207.467 251.015Z"/><path d="M320.512 322.026C325.06 321.766 327.101 321.801 330.056 325.513C344.74 343.964 358.568 362.972 372.609 381.9L431.998 461.507C442.86 476.042 454.286 490.144 465.094 504.721C469.566 510.752 474.821 517.032 478.348 523.667C480.118 526.996 480.196 536.022 480.317 540.009C480.88 558.493 481.283 746.694 479.915 750.023C478.713 752.949 475.454 754.7 472.697 755.837C469.102 755.954 461.975 753.998 461.548 749.857C460.053 735.337 460.77 719.854 460.81 705.17L460.74 591.375L460.731 557.244C460.784 531.391 462.528 534.649 447.07 513.992L428.56 489.253L352.232 388.124C339.593 371.289 327.169 354.089 315.046 336.889C310.528 330.479 314.567 325.1 320.512 322.026Z"/><path d="M711.989 309.786C718.97 310.383 722.97 318.033 719.247 323.66C708.92 339.266 697.055 353.911 685.892 368.955C679.366 377.722 672.885 386.521 666.449 395.354C662.582 400.679 658.59 406.411 654.43 411.497C651.504 415.073 649.09 415.539 644.814 415.74C642.216 414.715 639.589 413.58 637.85 411.286C636.19 409.097 635.921 406.422 636.392 403.78C636.932 400.748 694.945 323.28 701.303 315.452C702.862 313.533 704.368 311.867 706.383 310.408C707.881 310.03 710.381 309.915 711.989 309.786Z"/><path d="M614.848 436.108C618.027 435.693 622.204 435.781 624.833 437.639C635.297 445.033 616.246 466.339 610.537 470.414C601.547 471.225 595.671 467.511 598.134 457.978C599.596 452.32 610.099 438.937 614.848 436.108Z"/></svg>