<svg width="146" height="146" xmlns="http://www.w3.org/2000/svg" xmlns:xlink="http://www.w3.org/1999/xlink" xml:space="preserve" overflow="hidden"><g transform="translate(-996 -380)"><path d="M1028.86 402.849C1030.52 402.925 1032.92 402.841 1034.64 402.843L1047.38 402.849 1073.38 402.845C1079.98 402.794 1086.59 402.791 1093.19 402.837 1097.02 402.889 1100.86 402.842 1104.7 402.836 1106.43 402.833 1108.31 402.681 1110.03 402.871 1111.29 403.011 1112.64 403.399 1113.57 404.312 1114.19 404.924 1114.74 405.772 1114.96 406.622 1115.07 407.051 1115.14 407.502 1115.18 407.943 1115.28 409.275 1115.43 416.733 1115.05 417.597 1114.52 418.796 1112.61 421.019 1111.73 422.142L1106.21 429.247 1088.99 451.737C1088.07 452.937 1087.16 454.143 1086.23 455.359 1085.58 456.407 1083.49 458.465 1083.13 459.575 1082.66 460.991 1082.83 464.906 1082.83 466.421L1082.84 476.222 1082.83 484.63C1082.83 486.033 1082.87 487.427 1082.78 488.817 1082.66 490.732 1081.49 491.245 1080.05 492.105 1077.5 493.624 1074.9 495.076 1072.36 496.601 1069.95 498.078 1067.53 499.533 1065.09 500.968 1063.88 501.688 1062.67 502.436 1061.43 503.111 1060.23 503.768 1058.82 503.8 1057.58 503.195 1056.37 502.64 1055.54 501.25 1055.37 499.94 1055.22 498.82 1055.29 497.427 1055.3 496.273L1055.31 490.029 1055.3 467.066C1055.29 464.768 1055.46 462.138 1055.03 459.916 1054.99 459.706 1053.43 457.71 1053.21 457.426 1051.55 455.198 1049.85 452.987 1048.14 450.792L1030.13 427.138 1025.2 420.703C1024.21 419.392 1022.55 417.644 1022.66 416.038 1023.03 410.447 1020.86 402.963 1028.86 402.849ZM1080.09 488.723 1080.1 470.074 1080.11 463.613C1080.11 462.65 1080.06 461.138 1080.14 460.242 1080.19 459.705 1080.31 459.176 1080.49 458.668 1080.96 457.385 1083.58 454.18 1084.5 452.998L1088.02 448.416 1100.43 432.173C1103.8 427.804 1107.64 423.03 1110.84 418.576L1055.64 418.583 1036.51 418.583 1030.4 418.57C1029.41 418.567 1028.15 418.601 1027.2 418.555L1046.96 444.547 1053.22 452.727C1054.22 454.024 1055.23 455.318 1056.21 456.624 1057.07 457.759 1057.91 458.969 1058.04 460.427 1058.15 461.684 1058.1 463.005 1058.1 464.271L1058.1 471.001 1058.13 491.698C1058.13 493.373 1058.09 495.159 1058.09 496.783 1058.1 498.608 1057.76 502.026 1060.68 500.226 1061.59 499.668 1062.54 499.119 1063.44 498.587 1065.35 497.48 1067.26 496.354 1069.15 495.21L1076.12 491.061C1077.4 490.303 1078.83 489.504 1080.09 488.723ZM1025.58 415.789 1110.04 415.786C1110.8 415.787 1111.65 415.762 1112.39 415.855 1112.38 414.21 1112.38 412.565 1112.4 410.92 1112.4 409.81 1112.46 408.622 1112.28 407.533 1112.09 406.425 1110.99 405.713 1109.91 405.682 1108.53 405.642 1107.15 405.656 1105.77 405.656L1098.21 405.659 1075.04 405.662 1044.35 405.657 1034.1 405.651C1032.29 405.65 1030.33 405.604 1028.53 405.665L1028.08 405.682C1026.8 405.888 1025.67 406.634 1025.62 407.995 1025.55 410.517 1025.49 413.277 1025.58 415.789Z" stroke="#00FFC2" stroke-width="2.01379" fill="#00FFC2"/><path d="M1041.7 425.914C1042.35 425.877 1042.64 425.882 1043.06 426.411 1045.15 429.042 1047.12 431.752 1049.13 434.451L1057.59 445.801C1059.14 447.873 1060.77 449.884 1062.31 451.962 1062.95 452.822 1063.7 453.717 1064.2 454.663 1064.45 455.138 1064.47 456.425 1064.48 456.993 1064.56 459.629 1064.62 486.462 1064.43 486.937 1064.25 487.354 1063.79 487.604 1063.4 487.766 1062.88 487.783 1061.87 487.504 1061.81 486.913 1061.59 484.843 1061.7 482.635 1061.7 480.542L1061.69 464.317 1061.69 459.451C1061.7 455.765 1061.95 456.229 1059.74 453.284L1057.1 449.757 1046.22 435.338C1044.42 432.938 1042.65 430.485 1040.92 428.033 1040.27 427.119 1040.85 426.352 1041.7 425.914Z" stroke="#00FFC2" stroke-width="2.01379" fill="#00FFC2"/><path d="M1097.51 424.169C1098.51 424.254 1099.08 425.345 1098.55 426.147 1097.08 428.372 1095.38 430.46 1093.79 432.605 1092.86 433.855 1091.94 435.109 1091.02 436.369 1090.47 437.128 1089.9 437.945 1089.31 438.67 1088.89 439.18 1088.55 439.247 1087.94 439.275 1087.57 439.129 1087.19 438.967 1086.94 438.64 1086.71 438.328 1086.67 437.947 1086.74 437.57 1086.81 437.138 1095.08 426.093 1095.99 424.977 1096.21 424.703 1096.43 424.465 1096.71 424.257 1096.93 424.203 1097.28 424.187 1097.51 424.169Z" stroke="#00FFC2" stroke-width="2.01379" fill="#00FFC2"/><path d="M1083.66 442.179C1084.12 442.12 1084.71 442.133 1085.09 442.398 1086.58 443.452 1083.86 446.49 1083.05 447.071 1081.77 447.186 1080.93 446.657 1081.28 445.298 1081.49 444.491 1082.99 442.583 1083.66 442.179Z" stroke="#00FFC2" stroke-width="2.01379" fill="#00FFC2"/></g></svg>