<svg width="145" height="145" xmlns="http://www.w3.org/2000/svg" xmlns:xlink="http://www.w3.org/1999/xlink" xml:space="preserve" overflow="hidden"><g transform="translate(-566 -121)"><path d="M598.639 143.692C600.284 143.768 602.671 143.684 604.376 143.687L617.029 143.693 642.847 143.688C649.406 143.638 655.965 143.635 662.524 143.681 666.33 143.732 670.144 143.685 673.951 143.679 675.674 143.677 677.537 143.526 679.245 143.714 680.504 143.853 681.84 144.238 682.761 145.145 683.379 145.754 683.928 146.595 684.146 147.44 684.256 147.866 684.328 148.314 684.361 148.752 684.461 150.074 684.613 157.481 684.232 158.34 683.705 159.53 681.807 161.738 680.939 162.853L675.455 169.909 658.357 192.246C657.435 193.437 656.536 194.635 655.615 195.843 654.962 196.883 652.891 198.927 652.529 200.03 652.068 201.436 652.239 205.325 652.24 206.829L652.245 216.563 652.24 224.913C652.239 226.307 652.279 227.691 652.181 229.072 652.062 230.974 650.906 231.483 649.472 232.337 646.939 233.846 644.36 235.288 641.834 236.803 639.441 238.269 637.036 239.714 634.618 241.139 633.417 241.855 632.213 242.598 630.986 243.268 629.79 243.921 628.388 243.952 627.156 243.351 625.954 242.8 625.132 241.419 624.963 240.119 624.818 239.006 624.886 237.623 624.891 236.476L624.9 230.276 624.889 207.47C624.888 205.188 625.052 202.576 624.625 200.369 624.584 200.16 623.035 198.178 622.822 197.895 621.165 195.683 619.486 193.487 617.786 191.308L599.899 167.815 595.003 161.425C594.018 160.122 592.371 158.386 592.477 156.792 592.843 151.238 590.692 143.806 598.639 143.692ZM649.515 228.979 649.524 210.457 649.53 204.04C649.532 203.084 649.484 201.582 649.567 200.692 649.616 200.159 649.733 199.633 649.915 199.129 650.38 197.855 652.983 194.672 653.897 193.498L657.394 188.947 669.712 172.815C673.064 168.476 676.874 163.735 680.058 159.311L625.232 159.319 606.236 159.319 600.161 159.306C599.178 159.303 597.931 159.337 596.982 159.291L616.61 185.105 622.827 193.228C623.821 194.517 624.823 195.802 625.799 197.099 626.648 198.227 627.486 199.428 627.613 200.876 627.722 202.125 627.679 203.436 627.679 204.694L627.678 211.378 627.709 231.933C627.701 233.596 627.663 235.37 627.67 236.983 627.678 238.796 627.337 242.191 630.239 240.403 631.139 239.848 632.08 239.303 632.976 238.775 634.879 237.675 636.772 236.557 638.654 235.42L645.568 231.301C646.843 230.548 648.266 229.754 649.515 228.979ZM595.378 156.544 679.264 156.541C680.01 156.542 680.859 156.517 681.592 156.61 681.581 154.976 681.583 153.342 681.598 151.708 681.603 150.606 681.663 149.426 681.479 148.344 681.292 147.244 680.199 146.537 679.134 146.506 677.761 146.466 676.389 146.48 675.017 146.48L667.508 146.483 644.502 146.487 614.023 146.481 603.841 146.475C602.041 146.474 600.097 146.428 598.307 146.489L597.861 146.506C596.586 146.711 595.464 147.452 595.421 148.803 595.343 151.308 595.29 154.049 595.378 156.544Z" stroke="#00D2A0" stroke-width="1.99999" fill="#00D2A0"/><path d="M611.385 166.599C612.029 166.563 612.318 166.568 612.736 167.093 614.816 169.706 616.774 172.397 618.762 175.078L627.172 186.35C628.71 188.408 630.328 190.405 631.858 192.469 632.491 193.323 633.235 194.213 633.735 195.152 633.985 195.623 633.997 196.902 634.014 197.466 634.093 200.083 634.15 226.733 633.957 227.204 633.786 227.619 633.325 227.867 632.935 228.028 632.426 228.044 631.416 227.767 631.356 227.181 631.144 225.125 631.246 222.932 631.251 220.853L631.242 204.74 631.24 199.907C631.248 196.246 631.495 196.707 629.306 193.782L626.685 190.279 615.877 175.959C614.087 173.575 612.328 171.14 610.611 168.704 609.971 167.796 610.543 167.035 611.385 166.599Z" stroke="#00D2A0" stroke-width="1.99999" fill="#00D2A0"/><path d="M666.819 164.866C667.807 164.951 668.374 166.034 667.846 166.831 666.384 169.041 664.704 171.114 663.123 173.245 662.199 174.486 661.282 175.732 660.37 176.983 659.823 177.737 659.257 178.548 658.668 179.269 658.254 179.775 657.912 179.841 657.307 179.869 656.939 179.724 656.567 179.564 656.321 179.239 656.086 178.929 656.047 178.55 656.114 178.176 656.191 177.747 664.405 166.777 665.306 165.668 665.526 165.397 665.74 165.161 666.025 164.954 666.237 164.901 666.591 164.884 666.819 164.866Z" stroke="#00D2A0" stroke-width="1.99999" fill="#00D2A0"/><path d="M653.063 182.754C653.514 182.695 654.105 182.707 654.477 182.97 655.959 184.017 653.261 187.034 652.453 187.611 651.18 187.726 650.348 187.2 650.697 185.85 650.904 185.049 652.391 183.154 653.063 182.754Z" stroke="#00D2A0" stroke-width="1.99999" fill="#00D2A0"/></g></svg>