<svg width="145" height="146" xmlns="http://www.w3.org/2000/svg" xmlns:xlink="http://www.w3.org/1999/xlink" xml:space="preserve" overflow="hidden"><g transform="translate(-224 -307)"><path d="M32.639 22.6924C34.2844 22.7681 36.671 22.6841 38.3759 22.6867L51.029 22.6928 76.8469 22.6883C83.4059 22.6378 89.9651 22.6353 96.524 22.6809 100.33 22.7319 104.144 22.6854 107.951 22.6795 109.674 22.6768 111.537 22.5258 113.245 22.7142 114.504 22.8529 115.84 23.2384 116.761 24.1453 117.379 24.7537 117.928 25.5955 118.146 26.44 118.256 26.8656 118.328 27.3137 118.361 27.7519 118.461 29.0741 118.613 36.4812 118.232 37.3396 117.705 38.5298 115.807 40.7382 114.939 41.853L109.455 48.9093 92.3566 71.2456C91.4347 72.4373 90.5365 73.6352 89.6147 74.8431 88.9622 75.8833 86.8911 77.9272 86.5295 79.0302 86.0684 80.4362 86.2392 84.3249 86.2396 85.8287L86.2451 95.5634 86.2396 103.913C86.2389 105.307 86.2794 106.691 86.1808 108.072 86.0622 109.974 84.9061 110.483 83.4724 111.337 80.9386 112.846 78.36 114.288 75.8336 115.803 73.4409 117.269 71.0357 118.714 68.6183 120.139 67.4171 120.855 66.2135 121.598 64.9862 122.268 63.7898 122.921 62.3884 122.952 61.1562 122.351 59.9538 121.8 59.1321 120.419 58.9627 119.119 58.8179 118.006 58.8857 116.623 58.8911 115.476L58.8997 109.276 58.8893 86.4696C58.8876 84.1878 59.0524 81.5758 58.6246 79.3688 58.5843 79.1604 57.0348 77.1781 56.822 76.8955 55.1649 74.6832 53.4862 72.4871 51.7861 70.3076L33.8994 46.8149 29.0027 40.4247C28.018 39.122 26.3715 37.3865 26.4767 35.7916 26.8431 30.238 24.6919 22.8056 32.639 22.6924ZM83.5152 107.979 83.5242 89.4568 83.5305 83.0398C83.5319 82.0843 83.4839 80.5825 83.5667 79.6924 83.6164 79.1587 83.7334 78.6333 83.9149 78.1288 84.3799 76.8545 86.9827 73.6719 87.8973 72.4979L91.3938 67.9472 103.712 51.8154C107.064 47.4763 110.874 42.7354 114.058 38.3113L59.2321 38.3185 40.2359 38.3192 34.1615 38.3056C33.1782 38.3032 31.9306 38.3371 30.982 38.291L50.61 64.1047 56.8267 72.2284C57.8213 73.5166 58.823 74.8019 59.7993 76.0992 60.6478 77.2267 61.4857 78.4279 61.6125 79.876 61.722 81.1248 61.6791 82.4365 61.6789 83.6937L61.6777 90.378 61.709 110.933C61.7006 112.596 61.6625 114.37 61.6696 115.983 61.6775 117.796 61.3367 121.191 64.239 119.403 65.1388 118.848 66.0804 118.303 66.976 117.775 68.8791 116.675 70.7718 115.557 72.6535 114.42L79.5676 110.301C80.8433 109.548 82.2663 108.754 83.5152 107.979ZM29.3777 35.5441 113.264 35.5406C114.01 35.542 114.859 35.5171 115.592 35.6097 115.581 33.9759 115.583 32.3421 115.598 30.7083 115.603 29.6061 115.663 28.4262 115.479 27.3444 115.292 26.2444 114.199 25.5366 113.134 25.506 111.761 25.4665 110.389 25.4801 109.017 25.4802L101.508 25.4833 78.5023 25.4866 48.0229 25.4815 37.8415 25.4754C36.0406 25.4738 34.0971 25.4282 32.3074 25.4894L31.8611 25.5063C30.5862 25.7107 29.4636 26.4517 29.4213 27.8032 29.343 30.3077 29.2903 33.0487 29.3777 35.5441Z" stroke="#999999" stroke-width="1.99999" fill="#999999" transform="matrix(1 0 0 1.0069 224 307)"/><path d="M45.385 45.5994C46.029 45.5626 46.318 45.5675 46.7364 46.0932 48.8157 48.7058 50.7738 51.3974 52.762 54.0776L61.1716 65.3501C62.7097 67.4083 64.3276 69.4052 65.858 71.4693 66.4913 72.3233 67.2354 73.2125 67.7348 74.1521 67.9855 74.6235 67.9965 75.9016 68.0136 76.4661 68.0934 79.0835 68.1504 105.733 67.9567 106.204 67.7865 106.619 67.325 106.867 66.9346 107.028 66.4256 107.044 65.4164 106.767 65.3559 106.181 65.1442 104.125 65.2458 101.932 65.2514 99.8532L65.2415 83.7396 65.2402 78.9066C65.2477 75.2458 65.4947 75.7071 63.3058 72.7821L60.6848 69.279 49.8766 54.959C48.0869 52.5751 46.3276 50.1396 44.611 47.704 43.9713 46.7963 44.5432 46.0347 45.385 45.5994Z" stroke="#999999" stroke-width="1.99999" fill="#999999" transform="matrix(1 0 0 1.0069 224 307)"/><path d="M100.819 43.8662C101.807 43.9507 102.374 45.034 101.846 45.8308 100.384 48.0406 98.7041 50.1144 97.1234 52.2446 96.1993 53.486 95.2816 54.732 94.3702 55.9827 93.8226 56.7368 93.2574 57.5484 92.6683 58.2686 92.254 58.775 91.9122 58.841 91.3067 58.8694 90.9388 58.7243 90.5668 58.5636 90.3206 58.2387 90.0855 57.9288 90.0474 57.55 90.1141 57.1759 90.1906 56.7465 98.4053 45.777 99.3056 44.6685 99.5264 44.3968 99.7396 44.1609 100.025 43.9543 100.237 43.9007 100.591 43.8844 100.819 43.8662Z" stroke="#999999" stroke-width="1.99999" fill="#999999" transform="matrix(1 0 0 1.0069 224 307)"/><path d="M87.0634 61.7536C87.5136 61.6948 88.1051 61.7073 88.4773 61.9704 89.959 63.0174 87.2614 66.0343 86.453 66.6114 85.18 66.7262 84.3479 66.2003 84.6967 64.8504 84.9037 64.0492 86.391 62.1542 87.0634 61.7536Z" stroke="#999999" stroke-width="1.99999" fill="#999999" transform="matrix(1 0 0 1.0069 224 307)"/></g></svg>