<svg width="349" height="344" xmlns="http://www.w3.org/2000/svg" xmlns:xlink="http://www.w3.org/1999/xlink" xml:space="preserve" overflow="hidden"><defs><clipPath id="clip0"><rect x="2625" y="1512" width="349" height="344"/></clipPath></defs><g clip-path="url(#clip0)" transform="translate(-2625 -1512)"><path d="M2625 1684C2625 1589.01 2703.13 1512 2799.5 1512 2895.87 1512 2974 1589.01 2974 1684 2974 1778.99 2895.87 1856 2799.5 1856 2703.13 1856 2625 1778.99 2625 1684Z" fill="#999999" fill-rule="evenodd"/><g><g><g><path d="M77.8993 163.497C42.5868 200.622 18.2212 201.163 17.1854 201.163L17.1854 189.393C17.3973 189.393 38.3729 188.427 69.4949 155.445L69.4949 155.445 69.6127 155.445 141.956 82.796C144.218 80.4613 147.944 80.402 150.278 82.6637 152.613 84.9251 152.672 88.651 150.411 90.9856 150.363 91.0346 150.315 91.0826 150.266 91.1297Z" stroke="#00FFC2" stroke-width="7.06249" fill="none" transform="matrix(1.0177 0 0 1 2684 1566)"/><path d="M188.569 69.4949C200.504 57.5358 199.374 33.6881 199.374 33.6881 199.374 33.6881 175.55 32.5581 163.591 44.5173 151.632 56.4764 154.433 78.6291 154.433 78.6291 154.433 78.6291 176.562 81.4306 188.569 69.4949Z" stroke="#00FFC2" stroke-width="7.06249" fill="none" transform="matrix(1.0177 0 0 1 2684 1566)"/><path d="M142.851 123.358C125.948 123.029 109.563 140.355 109.563 140.355 109.563 140.355 125.265 158.341 142.168 158.671 159.071 159 173.102 141.627 173.102 141.627 173.102 141.627 159.754 123.688 142.851 123.358Z" stroke="#00FFC2" stroke-width="7.06249" fill="none" transform="matrix(1.0177 0 0 1 2684 1566)"/><path d="M109.563 156.646C92.6599 156.317 76.2514 173.667 76.2514 173.667 76.2514 173.667 91.9772 191.629 108.857 191.959 125.736 192.288 139.814 174.914 139.814 174.914 139.814 174.914 126.466 156.976 109.563 156.646Z" stroke="#00FFC2" stroke-width="7.06249" fill="none" transform="matrix(1.0177 0 0 1 2684 1566)"/><path d="M176.139 90.0703C159.259 89.7408 142.851 107.067 142.851 107.067 142.851 107.067 158.553 125.03 175.456 125.383 192.359 125.736 206.39 108.292 206.39 108.292 206.39 108.292 193.042 90.3999 176.139 90.0703Z" stroke="#00FFC2" stroke-width="7.06249" fill="none" transform="matrix(1.0177 0 0 1 2684 1566)"/><path d="M92.6599 123.476C92.6599 123.476 110.01 106.997 109.657 90.1645 109.304 73.3322 91.4122 59.9135 91.4122 59.9135 91.4122 59.9135 74.0149 74.0385 74.3681 90.8708 74.7212 107.703 92.6599 123.476 92.6599 123.476Z" stroke="#00FFC2" stroke-width="7.06249" fill="none" transform="matrix(1.0177 0 0 1 2684 1566)"/><path d="M59.372 156.764C59.372 156.764 76.6987 140.285 76.3691 123.476 76.0395 106.667 58.1243 93.2249 58.1243 93.2249 58.1243 93.2249 40.7271 107.35 41.0566 124.159 41.3862 140.967 59.372 156.764 59.372 156.764Z" stroke="#00FFC2" stroke-width="7.06249" fill="none" transform="matrix(1.0177 0 0 1 2684 1566)"/><path d="M125.948 90.1881C125.948 90.1881 143.298 73.7089 142.968 56.8766 142.639 40.0443 124.771 26.6256 124.771 26.6256 124.771 26.6256 107.397 40.7506 107.727 57.5829 108.056 74.4152 125.948 90.1881 125.948 90.1881Z" stroke="#00FFC2" stroke-width="7.06249" fill="none" transform="matrix(1.0177 0 0 1 2684 1566)"/></g></g></g></g></svg>