<svg width="27" height="29" xmlns="http://www.w3.org/2000/svg" xmlns:xlink="http://www.w3.org/1999/xlink" xml:space="preserve" overflow="hidden"><g transform="translate(-629 -328)"><path d="M9.30656 19.5328C5.08781 23.9681 2.17687 24.0328 2.05313 24.0328L2.05313 22.6266C2.07844 22.6266 4.58437 22.5112 8.3025 18.5709L8.3025 18.5709 8.31656 18.5709 16.9594 9.89156C17.2296 9.61265 17.6747 9.60556 17.9536 9.87576 18.2325 10.1459 18.2396 10.5911 17.9694 10.87 17.9638 10.8758 17.958 10.8816 17.9522 10.8872Z" stroke="#04D0A0" stroke-width="0.843781" fill="none" transform="matrix(1 0 0 1.07407 629 328)"/><path d="M22.5281 8.3025C23.9541 6.87375 23.8191 4.02469 23.8191 4.02469 23.8191 4.02469 20.9728 3.88969 19.5441 5.31844 18.1153 6.74719 18.45 9.39375 18.45 9.39375 18.45 9.39375 21.0938 9.72844 22.5281 8.3025Z" stroke="#04D0A0" stroke-width="0.843781" fill="none" transform="matrix(1 0 0 1.07407 629 328)"/><path d="M17.0662 14.7375C15.0469 14.6981 13.0894 16.7681 13.0894 16.7681 13.0894 16.7681 14.9653 18.9169 16.9847 18.9563 19.0041 18.9956 20.6803 16.92 20.6803 16.92 20.6803 16.92 19.0856 14.7769 17.0662 14.7375Z" stroke="#04D0A0" stroke-width="0.843781" fill="none" transform="matrix(1 0 0 1.07407 629 328)"/><path d="M13.0894 18.7144C11.07 18.675 9.10969 20.7478 9.10969 20.7478 9.10969 20.7478 10.9884 22.8938 13.005 22.9331 15.0216 22.9725 16.7034 20.8969 16.7034 20.8969 16.7034 20.8969 15.1088 18.7537 13.0894 18.7144Z" stroke="#04D0A0" stroke-width="0.843781" fill="none" transform="matrix(1 0 0 1.07407 629 328)"/><path d="M21.0431 10.7606C19.0266 10.7212 17.0662 12.7913 17.0662 12.7913 17.0662 12.7913 18.9422 14.9372 20.9616 14.9794 22.9809 15.0216 24.6572 12.9375 24.6572 12.9375 24.6572 12.9375 23.0625 10.8 21.0431 10.7606Z" stroke="#04D0A0" stroke-width="0.843781" fill="none" transform="matrix(1 0 0 1.07407 629 328)"/><path d="M11.07 14.7516C11.07 14.7516 13.1428 12.7828 13.1006 10.7719 13.0584 8.76094 10.9209 7.15781 10.9209 7.15781 10.9209 7.15781 8.8425 8.84531 8.88469 10.8562 8.92688 12.8672 11.07 14.7516 11.07 14.7516Z" stroke="#04D0A0" stroke-width="0.843781" fill="none" transform="matrix(1 0 0 1.07407 629 328)"/><path d="M7.09312 18.7284C7.09312 18.7284 9.16313 16.7597 9.12375 14.7516 9.08437 12.7434 6.94406 11.1375 6.94406 11.1375 6.94406 11.1375 4.86562 12.825 4.905 14.8331 4.94438 16.8412 7.09312 18.7284 7.09312 18.7284Z" stroke="#04D0A0" stroke-width="0.843781" fill="none" transform="matrix(1 0 0 1.07407 629 328)"/><path d="M15.0469 10.7747C15.0469 10.7747 17.1197 8.80594 17.0803 6.795 17.0409 4.78406 14.9062 3.18094 14.9062 3.18094 14.9062 3.18094 12.8306 4.86844 12.87 6.87937 12.9094 8.89031 15.0469 10.7747 15.0469 10.7747Z" stroke="#04D0A0" stroke-width="0.843781" fill="none" transform="matrix(1 0 0 1.07407 629 328)"/></g></svg>