<svg width="120" height="120" xmlns="http://www.w3.org/2000/svg" xmlns:xlink="http://www.w3.org/1999/xlink" xml:space="preserve" overflow="hidden"><g transform="translate(-249 -173)"><path d="M308.974 185.5C282.755 185.5 261.5 206.755 261.5 232.974 261.5 259.193 282.755 280.448 308.974 280.448 335.193 280.448 356.448 259.193 356.448 232.974 356.459 206.767 335.224 185.512 309.016 185.5 309.002 185.5 308.988 185.5 308.974 185.5ZM308.974 277.948C284.135 277.948 264 257.812 264 232.974 264 208.135 284.135 188 308.974 188 333.812 188 353.948 208.135 353.948 232.974 353.919 257.8 333.8 277.919 308.974 277.948Z" stroke="#999999" stroke-width="2.5" fill="#999999"/><path d="M310.25 216.75 300.25 216.75 300.25 219.25 307.75 219.25 307.75 256.75 299 256.75 299 259.25 319 259.25 319 256.75 310.25 256.75 310.25 216.75Z" stroke="#999999" stroke-width="2.5" fill="#999999"/><path d="M310.33 206.125C310.33 207.678 309.071 208.938 307.517 208.938 305.964 208.938 304.705 207.678 304.705 206.125 304.705 204.572 305.964 203.312 307.517 203.312 309.071 203.312 310.33 204.572 310.33 206.125Z" stroke="#999999" stroke-width="2.5" fill="#999999"/></g></svg>