<svg width="96" height="96" xmlns="http://www.w3.org/2000/svg" xmlns:xlink="http://www.w3.org/1999/xlink" xml:space="preserve" overflow="hidden"><g transform="translate(-781 -267)"><path d="M828.979 277C808.004 277 791 294.004 791 314.979 791 335.954 808.004 352.958 828.979 352.958 849.954 352.958 866.958 335.954 866.958 314.979 866.967 294.013 849.979 277.009 829.013 277 829.002 277 828.99 277 828.979 277ZM828.979 350.958C809.108 350.958 793 334.85 793 314.979 793 295.108 809.108 279 828.979 279 848.85 279 864.958 295.108 864.958 314.979 864.935 334.84 848.84 350.935 828.979 350.958Z" stroke="#00D2A0" stroke-width="2" fill="#00D2A0"/><path d="M830 302 822 302 822 304 828 304 828 334 821 334 821 336 837 336 837 334 830 334 830 302Z" stroke="#00D2A0" stroke-width="2" fill="#00D2A0"/><path d="M830.064 293.5C830.064 294.743 829.057 295.75 827.814 295.75 826.571 295.75 825.564 294.743 825.564 293.5 825.564 292.257 826.571 291.25 827.814 291.25 829.057 291.25 830.064 292.257 830.064 293.5Z" stroke="#00D2A0" stroke-width="2" fill="#00D2A0"/></g></svg>