<svg width="96" height="96" xmlns="http://www.w3.org/2000/svg" xmlns:xlink="http://www.w3.org/1999/xlink" xml:space="preserve" overflow="hidden"><g transform="translate(-1010 -281)"><path d="M1057.98 291C1037 291 1020 308.004 1020 328.979 1020 349.954 1037 366.958 1057.98 366.958 1078.95 366.958 1095.96 349.954 1095.96 328.979 1095.97 308.013 1078.98 291.009 1058.01 291 1058 291 1057.99 291 1057.98 291ZM1057.98 364.958C1038.11 364.958 1022 348.85 1022 328.979 1022 309.108 1038.11 293 1057.98 293 1077.85 293 1093.96 309.108 1093.96 328.979 1093.94 348.84 1077.84 364.935 1057.98 364.958Z" stroke="#00FFC2" stroke-width="2" fill="#00FFC2"/><path d="M1059 316 1051 316 1051 318 1057 318 1057 348 1050 348 1050 350 1066 350 1066 348 1059 348 1059 316Z" stroke="#00FFC2" stroke-width="2" fill="#00FFC2"/><path d="M1059.06 307.5C1059.06 308.743 1058.06 309.75 1056.81 309.75 1055.57 309.75 1054.56 308.743 1054.56 307.5 1054.56 306.257 1055.57 305.25 1056.81 305.25 1058.06 305.25 1059.06 306.257 1059.06 307.5Z" stroke="#00FFC2" stroke-width="2" fill="#00FFC2"/></g></svg>