<svg width="27" height="24" xmlns="http://www.w3.org/2000/svg" xmlns:xlink="http://www.w3.org/1999/xlink" xml:space="preserve" overflow="hidden"><g transform="translate(-634 -293)"><path d="M20.5975 3.4025C18.3934 1.20015 14.8216 1.20015 12.6175 3.4025 11.3025 4.7175 10.775 8.4025 10.0075 9.79 8.6975 12.1725 7.445 12.595 7.7575 13.54L6.14 15.16C6.095 15.1075 6.0475 15.055 6 15.0075 4.97965 13.9834 3.32235 13.9804 2.2983 15.0008 1.27426 16.0212 1.27126 17.6785 2.29161 18.7025 2.78378 19.1964 3.4527 19.4736 4.15 19.4725 4.2864 19.4726 4.4226 19.4626 4.5575 19.4425 4.5374 19.5774 4.52738 19.7136 4.5275 19.85 4.52303 21.2942 5.69015 22.4686 7.13438 22.4731 8.5786 22.4776 9.753 21.3104 9.75747 19.8662 9.75965 19.1654 9.48045 18.4931 8.9825 18 8.9325 17.9525 8.8825 17.905 8.83 17.8625L10.45 16.25C11.4175 16.555 11.825 15.27 14.24 14.0175 15.66 13.28 19.2825 12.6925 20.5975 11.38 22.7982 9.17615 22.7982 5.60635 20.5975 3.4025ZM7.685 17.6025C7.48955 17.7976 7.48922 18.1141 7.68428 18.3096 7.72445 18.3498 7.7712 18.383 7.8225 18.4075 7.98982 18.4844 8.14285 18.5892 8.275 18.7175 8.9054 19.3485 8.90495 20.371 8.27395 21.0014 7.64297 21.6318 6.6204 21.6314 5.99 21.0004 5.36 20.3698 5.36 19.3481 5.99 18.7175 6.18813 18.5221 6.19037 18.2031 5.995 18.005 5.79962 17.8069 5.48063 17.8046 5.2825 18 4.61167 18.5878 3.59133 18.5205 3.0035 17.8497 2.47104 17.242 2.46954 16.3344 3 15.725 3.63195 15.0963 4.65305 15.0963 5.285 15.725 5.41295 15.8569 5.517 16.01 5.5925 16.1775 5.70975 16.4275 6.00747 16.5352 6.2575 16.4179 6.3105 16.393 6.35875 16.3591 6.4 16.3175L8.3 14.4175C8.4675 14.6125 8.6725 14.8325 8.925 15.0825 9.1775 15.3325 9.3925 15.5375 9.5875 15.705Z" stroke="#04D0A0" stroke-width="0.750027" fill="none" transform="matrix(1.125 0 0 1 634 293)"/></g></svg>