<svg width="349" height="352" xmlns="http://www.w3.org/2000/svg" xmlns:xlink="http://www.w3.org/1999/xlink" xml:space="preserve" overflow="hidden"><defs><clipPath id="clip0"><rect x="2625" y="1114" width="349" height="352"/></clipPath></defs><g clip-path="url(#clip0)" transform="translate(-2625 -1114)"><path d="M2625 1290C2625 1192.8 2703.13 1114 2799.5 1114 2895.87 1114 2974 1192.8 2974 1290 2974 1387.2 2895.87 1466 2799.5 1466 2703.13 1466 2625 1387.2 2625 1290Z" fill="#999999" fill-rule="evenodd"/><g><g><g><path d="M198.251 32.7491C177.036 11.5514 142.658 11.5514 121.443 32.7491 108.787 45.4059 103.709 80.8741 96.3222 94.2288 83.7134 117.16 71.6581 121.227 74.6659 130.322L59.0975 145.915C58.6644 145.41 58.2072 144.904 57.75 144.447 47.9291 134.591 31.9776 134.562 22.1212 144.383 12.2647 154.204 12.2359 170.155 22.0567 180.012 26.7938 184.766 33.2322 187.434 39.9438 187.423 41.2566 187.424 42.5675 187.328 43.8659 187.134 43.6725 188.432 43.576 189.743 43.5772 191.056 43.5341 204.957 54.7677 216.261 68.6684 216.304 82.569 216.347 93.8726 205.113 93.9157 191.212 93.9366 184.467 91.2493 177.996 86.4566 173.25 85.9753 172.793 85.4941 172.336 84.9887 171.927L100.581 156.406C109.893 159.342 113.816 146.974 137.06 134.918 150.727 127.82 185.594 122.165 198.251 109.533 219.433 88.3204 219.433 53.9611 198.251 32.7491ZM73.9681 169.424C72.0869 171.302 72.0838 174.349 73.9612 176.23 74.3478 176.617 74.7978 176.936 75.2916 177.172 76.9021 177.912 78.3749 178.921 79.6469 180.156 85.7145 186.229 85.7101 196.071 79.6368 202.139 73.5636 208.207 63.7213 208.202 57.6537 202.129 51.59 196.06 51.59 186.225 57.6537 180.156 59.5607 178.275 59.5824 175.205 57.7019 173.298 55.8214 171.391 52.751 171.37 50.8441 173.25 44.3874 178.908 34.5665 178.26 28.9087 171.803 23.7837 165.954 23.7693 157.219 28.875 151.353 34.9575 145.302 44.7856 145.302 50.8681 151.353 52.0996 152.622 53.1011 154.096 53.8278 155.708 54.9563 158.115 57.8219 159.151 60.2284 158.022 60.7386 157.783 61.203 157.456 61.6 157.056L79.8875 138.768C81.4997 140.645 83.4728 142.763 85.9031 145.169 88.3334 147.575 90.4028 149.548 92.2797 151.161Z" stroke="#00FFC2" stroke-width="7.21875" fill="none" transform="matrix(1 0 0 1.00433 2684 1176)"/></g></g></g></g></svg>