<svg width="137" height="137" xmlns="http://www.w3.org/2000/svg" xmlns:xlink="http://www.w3.org/1999/xlink" xml:space="preserve" overflow="hidden"><g transform="translate(-570 -389)"><path d="M635.559 392.908C670.762 391.285 700.619 418.501 702.254 453.704 703.888 488.906 676.68 518.771 641.478 520.416 606.261 522.061 576.381 494.84 574.746 459.622 573.111 424.405 600.341 394.533 635.559 392.908ZM639.982 470.653C642.642 470.645 642.72 471.949 642.674 474.228 642.666 474.641 642.71 475.141 642.761 475.551 644.163 476.047 645.556 476.475 646.809 477.291 647.708 476.387 649.1 474.828 650.434 474.778 651.479 474.738 652.299 475.71 652.984 476.401 653.721 477.142 654.504 477.884 655.222 478.643 657.768 478.77 659.781 478.675 662.243 478.709L662.309 468.443C662.308 465.827 662.223 462.636 662.323 460.069 662.922 459.434 663.872 458.66 664.554 458.079L668.495 454.757 672.252 451.589C672.921 451.024 673.589 450.442 674.283 449.909 674.797 449.514 675.178 449.51 675.668 449.924 679.14 452.861 682.636 455.773 686.151 458.659 686.713 459.12 687.334 459.513 687.896 459.962L687.89 460.048C687.836 460.903 687.863 462.01 687.863 462.88L687.863 467.747 687.872 474.626C687.874 475.358 687.816 478.047 687.999 478.632L688.095 478.692C688.748 478.337 690.45 473.19 690.727 472.237 691.323 470.188 691.945 467.855 692.309 465.74 694.284 453.626 692.107 441.2 686.132 430.48 679.111 417.654 667.265 408.159 653.218 404.099 649.207 402.93 644.857 402.251 640.693 402.053 639.917 402.016 638.047 401.915 637.31 402.005 634.332 402.186 631.738 402.386 628.801 402.92 616.712 405.091 605.719 411.303 597.621 420.538 588.396 430.957 583.223 445.318 584.099 459.243 584.436 465.158 585.651 470.99 587.704 476.547 587.899 477.087 588.341 478.798 588.928 478.874 589.462 478.495 589.267 476.805 589.263 476.167L589.262 472.267C589.263 468.308 589.198 464.208 589.321 460.266 589.341 459.63 594.594 455.498 595.377 454.83L598.775 451.913C599.466 451.324 600.778 450.112 601.58 449.826 602.383 449.973 603.712 451.221 604.401 451.778 605.343 452.529 606.291 453.273 607.243 454.012 608.875 455.281 610.5 456.561 612.116 457.851 612.851 458.439 614.142 459.408 614.727 460.077 614.906 462.22 614.766 464.636 614.758 466.809L614.757 478.77 619.067 478.752C619.976 478.743 620.964 478.684 621.861 478.724 622.423 478.24 622.958 477.726 623.465 477.184 624.291 476.314 625.588 474.611 626.894 474.777 627.967 474.914 629.349 476.606 630.146 477.315 631.459 476.57 632.716 475.938 634.219 475.636 634.233 475.331 634.284 474.777 634.268 474.491 633.999 469.677 636.203 470.763 639.982 470.653ZM640.366 400.169C643.246 400.337 645.461 400.513 648.336 401.042 660.86 403.423 672.233 409.909 680.659 419.477 690.56 430.712 695.612 445.41 694.71 460.358 694.33 466.889 692.78 472.698 690.348 478.763 692.358 478.785 694.368 478.787 696.377 478.769 702.101 465.041 701.726 447.501 696.102 433.794 689.785 418.079 677.372 405.595 661.694 399.188 655.098 396.489 648.083 394.954 640.963 394.653 639.659 394.6 637.84 394.557 636.539 394.657 620.246 395.202 604.825 402.148 593.621 413.99 590.989 416.755 588.609 419.749 586.51 422.937 579.595 433.575 576.126 446.085 576.574 458.764 576.752 464.283 577.677 469.752 579.324 475.022 579.687 476.186 580.143 477.658 580.639 478.773 582.603 478.781 584.567 478.778 586.531 478.764 585.739 476.522 584.796 474.007 584.196 471.718 580.614 458.517 581.884 444.469 587.776 432.125 594.156 418.776 605.557 408.492 619.492 403.519 624.502 401.761 629.725 400.683 635.021 400.314 636.78 400.194 638.751 400.308 640.366 400.169ZM636.101 477.026C633.259 477.758 632.485 478.057 629.956 479.615 629.031 478.693 627.673 477.268 626.633 476.586 625.846 477.15 623.739 479.364 623.132 480.152 624.178 481.383 625.212 482.232 626.271 483.371 625.031 484.937 624.022 487.091 623.813 489.093 622.465 489.08 620.997 489.059 619.65 489.098 619.64 490.332 619.563 493.096 619.709 494.158 620.994 494.096 622.451 494.15 623.75 494.17 624.269 496.449 624.866 498.102 626.207 500.061 625.06 501.203 624.012 502.201 623.06 503.531 623.988 504.757 625.269 506.11 626.36 507.206 627.759 506.229 628.764 505.127 630.007 504.018 632.497 505.613 633.254 505.778 636.004 506.595 635.969 507.802 635.593 510.545 637.341 510.399 638.364 510.314 639.43 510.355 640.456 510.288 640.62 510.272 640.814 510.288 640.882 510.13 641.238 509.306 641.065 507.436 641.094 506.575 643.713 505.914 644.837 505.469 647.134 504 648.152 505.002 649.309 506.211 650.534 506.932 651.032 506.615 653.606 504.038 653.982 503.537 653.032 502.367 651.803 501.305 650.822 500.138 652.254 497.696 652.737 496.904 653.337 494.099 654.463 494.173 656.164 494.187 657.295 494.079 657.219 493.465 657.314 492.484 657.314 491.841 657.313 490.981 657.282 490.137 657.265 489.279 656.042 489.173 654.449 489.205 653.204 489.206 652.591 486.654 652.053 485.649 650.823 483.429 651.489 482.398 652.997 481.466 653.773 480.064 653.56 479.485 650.842 476.404 650.247 476.727 649.218 477.286 647.819 478.707 646.979 479.578 645.002 478.385 643.294 477.393 640.919 477.149 640.901 475.594 640.896 474.039 640.905 472.484 639.326 472.477 637.703 472.451 636.128 472.487 636.075 473.98 636.098 475.528 636.101 477.026ZM653.072 483.699C653.642 484.899 654.232 486.141 654.65 487.402 656.969 487.311 658.518 486.986 659.094 489.748L679.372 489.744C683.138 489.746 687.186 489.822 690.93 489.713 691.163 489.343 691.526 488.806 691.729 488.438 693.278 485.927 694.629 483.3 695.771 480.58 694.877 480.503 693.812 480.525 692.905 480.52L688.261 480.512 674.176 480.515 661.42 480.521C659.979 480.523 656.918 480.414 655.604 480.544 655.415 480.741 655.16 481.396 654.901 481.728 654.363 482.421 653.607 483.053 653.072 483.699ZM587.151 491.384C588.455 493.758 590.788 496.369 592.603 498.367 600.213 506.75 609.858 512.792 620.761 515.973 636.675 520.737 653.834 518.94 668.416 510.982 676.194 506.71 681.984 501.515 687.563 494.68 688.228 493.818 689.324 492.449 689.791 491.525 687.745 491.455 684.947 491.467 682.921 491.565 680.627 494.245 678.709 496.406 676.059 498.784 667.345 506.604 655.199 511.947 643.477 512.858 628.152 514.124 612.959 509.192 601.3 499.166 598.552 496.807 596.13 494.072 593.716 491.377 591.528 491.352 589.339 491.354 587.151 491.384ZM664.119 471.851 686.111 471.888C686.152 470.19 686.115 468.427 686.118 466.722L671.294 466.727C669.122 466.727 666.243 466.635 664.132 466.724 664.007 468.015 664.025 470.562 664.119 471.851ZM646.887 506.316C645.554 507.087 644.385 507.504 642.949 508.017 642.926 509.418 643.011 509.87 642.454 511.179 647.605 510.524 651.309 509.989 656.324 508.209 665.892 504.715 674.023 499.325 680.655 491.55 679.807 491.471 678.782 491.496 677.913 491.496L673.77 491.494C668.88 491.494 663.921 491.548 659.041 491.496 659.083 495.627 658.774 495.922 654.652 495.894 654.187 497.601 653.869 498.392 653.127 499.992 657.172 503.969 655.987 504.184 652.315 507.91 650.367 509.887 648.339 507.777 646.887 506.316ZM591.026 471.796 606.558 471.806C608.555 471.806 610.889 471.714 612.827 471.757L612.941 471.711C613.006 471.335 612.987 470.463 612.99 470.026L613.002 466.913C612.099 466.819 610.454 466.855 609.506 466.856L603.676 466.862 595.671 466.871C594.299 466.872 592.598 466.826 591.256 466.896L591.104 466.952C590.939 467.422 591.005 471.092 591.026 471.796ZM664.114 464.989 686.076 464.996 686.08 461.123C678.813 461.101 671.328 461.047 664.064 461.128 664.057 462.089 664 464.124 664.114 464.989ZM622.304 495.942C617.871 495.849 617.799 496.023 617.84 491.427 612.935 491.356 608.028 491.333 603.121 491.358L598.554 491.365C598.021 491.369 596.722 491.419 596.254 491.378 597.422 493.004 600.088 495.653 601.572 497.004 609.676 504.387 619.835 508.801 630.593 510.579 632.033 510.817 633.38 510.965 634.804 511.168 634.15 509.971 634.2 509.398 634.297 508.061L633.256 507.722C632.26 507.37 631.127 506.898 630.23 506.332 626.536 509.855 625.945 509.663 622.508 505.814 620.024 503.032 621.847 502.061 623.824 499.884 623.224 498.511 622.691 497.405 622.304 495.942ZM601.565 451.929C599.675 453.576 597.769 455.204 595.845 456.811 595.01 457.519 593.654 458.743 592.809 459.369L602.344 459.378C605.158 459.378 608.26 459.435 611.051 459.36 609.928 458.443 602.256 452.178 601.565 451.929ZM686.09 478.719C686.148 477.113 686.146 475.263 686.121 473.649 683.823 473.577 681.402 473.593 679.098 473.623 674.103 473.689 669.049 473.52 664.063 473.611 664.065 475.297 664.047 477.026 664.072 478.708L679.027 478.761 683.568 478.757C684.354 478.749 685.321 478.7 686.09 478.719ZM674.89 451.801C672.172 453.841 669.623 456.215 666.998 458.377 666.623 458.686 666.202 459.057 665.851 459.393L675.192 459.424C678.027 459.409 681.298 459.471 684.097 459.366 683.011 458.415 675.626 452.068 674.89 451.801ZM591.015 461.181 591.008 465.107 612.957 465.058C612.953 463.804 612.966 462.502 612.944 461.253 611.81 461.116 608.682 461.203 607.428 461.201L595.475 461.204C594.873 461.202 591.428 461.249 591.015 461.181ZM613.008 473.517 611.133 473.522C604.506 473.56 597.644 473.434 591.05 473.591 591.002 475.11 590.947 477.265 591.059 478.749 591.615 478.764 592.171 478.765 592.727 478.751 597.126 478.779 601.524 478.782 605.922 478.76 608.243 478.758 610.78 478.81 613.079 478.752 613.08 477.327 613.15 474.875 613.008 473.517ZM622.314 487.331C622.852 485.401 623.009 485.313 623.958 483.588 623.104 482.762 621.811 481.63 621.337 480.547 618.23 480.475 614.962 480.518 611.845 480.526L598.381 480.53 587.455 480.519C585.593 480.517 583.265 480.455 581.431 480.548 581.218 481.237 585.181 488.454 585.863 489.576 589.647 489.683 593.799 489.598 597.608 489.598L617.816 489.616C617.86 487.428 619.171 487.178 621.042 487.3 621.159 487.307 621.277 487.316 621.394 487.326L622.314 487.331Z" stroke="#00D2A0" stroke-width="2.0147" fill="#00D2A0"/><path d="M635.66 404.056C637.076 403.998 638.575 404.202 640.006 404.089 640.683 404.039 641.83 404.087 642.294 404.653 643.051 405.578 642.77 408.192 642.764 409.343 644.854 410.054 645.717 410.458 647.667 411.487 647.787 411.344 647.913 411.206 648.044 411.074 648.858 410.241 651.414 407.082 652.595 408.021 653.902 408.93 654.954 410.467 656.197 411.434 658.718 413.396 655.359 415.707 653.648 417.24 654.938 419.531 655.324 420.324 656.189 422.856 657.453 422.836 659.972 422.602 660.939 423.447 662.182 424.532 662.174 429.579 661.045 430.745 660.309 431.505 657.195 431.32 656.077 431.337 655.592 433.637 654.828 434.666 653.839 436.683 654.629 437.54 657.063 439.693 657.185 440.749 657.172 441.298 656.706 441.952 656.348 442.288 651.598 446.737 652.324 447.592 647.772 442.551 645.776 443.644 644.793 443.869 642.708 444.529 642.687 445.976 643.338 449.619 641.393 449.955 639.556 449.999 637.513 450.011 635.684 449.887 633.837 449.762 634.354 445.957 634.351 444.656 632.482 444.192 630.939 443.497 629.218 442.674 628.402 443.564 626.308 445.941 625.267 446.17 624.121 446.422 619.707 441.86 619.658 440.819 619.618 439.971 622.492 437.288 623.176 436.597 622.032 434.954 621.351 433.053 620.736 431.165 619.712 431.172 616.784 431.315 615.881 430.745 615.506 430.508 615.258 429.412 615.265 428.91 615.281 427.784 614.95 424.485 615.71 423.671 616.404 422.928 619.678 423.146 620.683 423.167 621.387 420.789 622.122 419.338 623.357 417.226 622.496 416.363 618.712 413.587 620.171 412.21 621.458 410.995 623.51 408.236 625.231 407.873 625.884 407.736 628.683 410.794 629.342 411.423 630.938 410.65 632.478 409.903 634.213 409.488 634.259 408.593 634.221 407.662 634.227 406.765 634.236 405.506 634.285 404.482 635.66 404.056ZM636.024 405.869C636.032 406.786 636.285 410.165 635.78 410.842 635.564 411.129 633.292 411.711 632.689 411.929 632.013 412.18 631.348 412.46 630.695 412.767 630.277 412.967 629.705 413.46 629.243 413.472 628.501 413.492 625.827 410.45 625.157 409.81L621.773 413.168C622.329 413.725 625.489 416.63 625.507 417.197 625.519 417.591 624.557 418.765 624.31 419.157 623.773 420.004 623.328 420.906 622.982 421.846 622.776 422.418 622.314 424.647 621.993 424.727 620.571 425.079 618.497 424.909 617.016 424.984 616.942 426.202 616.928 428.171 617.012 429.398 618.582 429.401 620.498 429.354 622.034 429.504 622.938 431.27 623.144 433.678 624.531 435.332 624.758 435.604 625.402 436.576 625.242 436.955 624.506 438.277 622.682 439.828 621.611 440.887 622.722 442.091 623.922 443.173 625.085 444.317 625.721 443.679 628.501 440.693 629.222 440.715 629.761 440.731 632.021 441.932 632.775 442.253 633.524 442.572 635.605 442.932 636.032 443.306 636.298 444.063 636.189 447.26 636.167 448.252L637.714 448.259C638.764 448.244 639.872 448.195 640.912 448.204 640.969 447.76 640.984 447.411 641.002 446.959 641.031 446.215 640.62 443.687 641.262 443.228 642.078 442.646 643.666 442.498 644.618 442.113 645.446 441.808 647.322 440.448 647.943 440.59 648.79 440.783 651.162 443.559 651.798 444.251 652.95 443.086 654.222 441.954 655.333 440.809 654.815 440.216 654.284 439.647 653.721 439.096 653.178 438.563 652.544 438.03 652.099 437.411 651.994 437.265 651.857 437.005 651.854 436.823 651.844 436.263 652.886 434.937 653.153 434.353 653.381 433.854 654.762 429.918 654.861 429.837 655.765 429.091 659.586 430.393 660.017 428.976 660.153 428.529 660.139 425.297 659.933 424.953 659.767 424.675 659.184 424.629 658.898 424.612 658.191 424.569 655.201 424.814 654.819 424.348 654.308 423.722 654.172 422.416 653.899 421.636 653.552 420.64 653.118 419.64 652.547 418.751 652.294 418.356 651.568 417.505 651.647 417.044 651.762 416.372 654.628 413.793 655.253 413.109 654.214 411.939 653.105 410.832 651.933 409.794 651.353 410.351 648.704 413.022 648.246 413.305 648.092 413.4 647.914 413.449 647.733 413.445 647.004 413.432 646.065 412.587 645.417 412.266 644.718 411.92 643.927 411.642 643.178 411.431 642.714 411.3 642.208 411.211 641.765 411.024 641.574 410.943 641.326 410.816 641.199 410.647 640.897 410.246 641.015 406.708 640.963 405.862L639.493 405.825 636.024 405.869Z" stroke="#00D2A0" stroke-width="2.0147" fill="#00D2A0"/><path d="M637.146 414.451C644.097 413.734 650.313 418.788 651.028 425.739 651.744 432.69 646.688 438.904 639.737 439.618 632.789 440.332 626.577 435.278 625.862 428.33 625.146 421.382 630.198 415.169 637.146 414.451ZM639.218 437.924C645.245 437.499 649.782 432.263 649.344 426.238 648.906 420.212 643.66 415.687 637.635 416.138 631.63 416.588 627.122 421.814 627.558 427.821 627.995 433.827 633.211 438.347 639.218 437.924Z" stroke="#00D2A0" stroke-width="2.0147" fill="#00D2A0"/><path d="M637.582 419.12C641.905 418.677 645.769 421.82 646.217 426.143 646.664 430.465 643.525 434.333 639.203 434.785 634.875 435.237 631 432.093 630.552 427.764 630.104 423.435 633.252 419.564 637.582 419.12ZM633.513 430.652C634.368 431.554 634.776 431.865 635.88 432.445 636.412 432.635 636.949 432.814 637.49 432.981 637.519 432.078 637.5 431.222 637.482 430.319 637.133 430.161 635.793 429.26 635.79 429.259 635.04 429.737 634.28 430.202 633.513 430.652ZM641.187 432.344C641.852 431.918 642.547 431.482 643.069 430.881 642.733 430.666 640.97 429.443 640.796 429.393 640.255 429.78 639.951 430.008 639.327 430.255 639.296 431.189 639.304 432.078 639.313 433.013 640.091 432.815 640.494 432.74 641.187 432.344ZM633.654 423.184 634.583 423.748C634.984 423.997 635.393 424.258 635.803 424.488 636.505 424.083 636.839 423.849 637.627 423.646 637.649 423.117 637.771 421.362 637.576 421.01L637.514 420.983C635.758 421.518 634.962 421.809 633.654 423.184ZM632.738 429.06C633.139 428.8 633.573 428.507 633.98 428.264 634.314 428.079 634.652 427.886 634.993 427.716L635.017 426.138C634.344 425.731 633.278 425.027 632.621 424.686 632.155 426.249 632.009 427.518 632.738 429.06ZM641.838 426.125C641.838 426.718 641.814 427.305 641.731 427.893 642.164 428.111 642.506 428.289 642.919 428.539 643.284 428.803 643.641 429.077 643.991 429.36 644.278 428.403 645.002 425.787 644.108 424.979 643.392 425.43 642.642 425.848 641.838 426.125ZM638.083 425.36C637.225 425.557 636.68 426.403 636.857 427.266 637.033 428.13 637.866 428.694 638.733 428.539 639.313 428.435 639.791 428.025 639.982 427.467 640.173 426.91 640.047 426.293 639.653 425.855 639.258 425.417 638.657 425.228 638.083 425.36ZM639.42 421.037C639.341 421.552 639.31 423.177 639.337 423.709 640.153 423.88 640.391 423.988 641.015 424.588 641.455 424.349 642.023 424.063 642.443 423.812L643.36 423.334C642.097 421.983 641.277 421.43 639.42 421.037Z" stroke="#00D2A0" stroke-width="2.0147" fill="#00D2A0"/><path d="M663.517 440.076C664.054 440.064 664.613 440.063 665.151 440.076 668.319 440.151 671.501 439.997 674.664 440.157 674.994 440.174 675.232 440.31 675.506 440.478 676.124 441.706 675.853 446.115 675.813 447.664 673.979 449.146 674.077 446.686 674.089 445.589 674.103 444.362 674.087 443.11 674.084 441.881 669.568 441.591 664.841 442.023 660.307 441.8 658.992 441.736 659.185 440.188 660.012 440.127 661.096 440.048 662.407 440.089 663.517 440.076Z" stroke="#00D2A0" stroke-width="2.0147" fill="#00D2A0"/><path d="M601.529 440.055C605.845 440.006 610.168 440.097 614.487 440.049 615.335 440.039 616.857 439.958 617.649 440.297 617.924 440.415 618.008 441.625 617.315 441.716 616.49 441.825 615.705 441.797 614.862 441.792L610.992 441.76C608.545 441.692 605.132 441.644 602.71 441.78 602.694 443.009 602.693 444.238 602.708 445.467 602.71 446.04 602.866 447.376 602.372 447.733 601.828 448.127 601.011 447.735 601.013 447.042 601.019 444.921 600.929 442.784 600.999 440.667 601.007 440.424 601.347 440.171 601.529 440.055Z" stroke="#00D2A0" stroke-width="2.0147" fill="#00D2A0"/><path d="M635.771 452.409C636.678 452.302 636.901 452.717 636.906 453.541 636.913 454.679 636.901 455.816 636.9 456.953L636.904 463.935C636.901 464.854 636.907 465.773 636.922 466.691 636.934 467.31 636.969 468.043 636.916 468.658 636.886 469.001 636.633 469.184 636.373 469.364 635.935 469.453 635.297 469.261 635.263 468.74 635.187 467.584 635.192 466.417 635.177 465.258 635.141 462.861 635.137 460.464 635.165 458.067L635.195 454.83C635.202 454.277 635.193 453.654 635.248 453.108 635.284 452.752 635.507 452.601 635.771 452.409Z" stroke="#00D2A0" stroke-width="2.0147" fill="#00D2A0"/><path d="M640.869 452.281C641.167 452.289 641.52 452.316 641.706 452.586 641.793 452.711 641.842 452.848 641.845 453.001 641.86 454.088 641.859 455.174 641.862 456.261L641.857 463.922C641.863 465.421 641.948 467.171 641.891 468.681 641.881 468.933 641.486 469.196 641.285 469.324 641.139 469.329 640.987 469.337 640.843 469.315 640.629 469.282 640.376 469.16 640.272 468.96 640.073 468.575 640.054 453.328 640.258 452.783 640.36 452.51 640.628 452.408 640.869 452.281Z" stroke="#00D2A0" stroke-width="2.0147" fill="#00D2A0"/><path d="M637.184 480.753C643.292 480.031 648.83 484.395 649.557 490.503 650.283 496.611 645.922 502.152 639.815 502.882 633.702 503.613 628.154 499.248 627.427 493.134 626.701 487.021 631.07 481.476 637.184 480.753ZM638.801 501.124C643.926 500.94 647.935 496.642 647.764 491.517 647.592 486.391 643.305 482.372 638.179 482.53 633.035 482.69 628.998 486.996 629.17 492.139 629.342 497.283 633.658 501.309 638.801 501.124Z" stroke="#00D2A0" stroke-width="2.0147" fill="#00D2A0"/></g></svg>