<svg width="136" height="136" xmlns="http://www.w3.org/2000/svg" xmlns:xlink="http://www.w3.org/1999/xlink" xml:space="preserve" overflow="hidden"><g transform="translate(-65 -442)"><path d="M130.081 445.88C165.027 444.268 194.666 471.285 196.288 506.231 197.911 541.177 170.902 570.824 135.956 572.457 100.996 574.09 71.3341 547.067 69.7112 512.107 68.0884 477.146 95.1195 447.492 130.081 445.88ZM134.471 523.057C137.112 523.049 137.19 524.343 137.144 526.606 137.136 527.016 137.179 527.512 137.23 527.92 138.621 528.411 140.005 528.837 141.248 529.646 142.141 528.749 143.523 527.202 144.847 527.152 145.884 527.112 146.698 528.077 147.378 528.763 148.109 529.499 148.887 530.236 149.6 530.988 152.128 531.115 154.126 531.02 156.57 531.054L156.636 520.863C156.634 518.266 156.55 515.098 156.649 512.551 157.244 511.92 158.187 511.151 158.863 510.575L162.776 507.277 166.505 504.132C167.17 503.572 167.833 502.993 168.522 502.464 169.033 502.072 169.41 502.068 169.897 502.48 173.343 505.395 176.814 508.286 180.303 511.151 180.861 511.608 181.477 511.998 182.035 512.444L182.029 512.529C181.976 513.378 182.003 514.477 182.003 515.34L182.003 520.172 182.012 527.001C182.013 527.728 181.956 530.397 182.138 530.978L182.233 531.037C182.881 530.685 184.571 525.576 184.846 524.63 185.437 522.595 186.055 520.279 186.417 518.18 188.377 506.154 186.216 493.819 180.284 483.177 173.315 470.445 161.555 461.019 147.611 456.989 143.629 455.829 139.31 455.155 135.177 454.958 134.406 454.921 132.551 454.82 131.819 454.91 128.862 455.09 126.287 455.288 123.371 455.818 111.371 457.973 100.458 464.14 92.4197 473.308 83.2616 483.651 78.1264 497.907 78.9966 511.731 79.3306 517.602 80.5365 523.391 82.5748 528.908 82.7686 529.444 83.207 531.142 83.7898 531.218 84.3196 530.841 84.1263 529.164 84.1225 528.531L84.1211 524.659C84.1223 520.729 84.0581 516.659 84.1799 512.746 84.1994 512.115 89.4148 508.012 90.1919 507.349L93.565 504.454C94.2513 503.869 95.5536 502.666 96.3493 502.382 97.1467 502.528 98.4658 503.767 99.1494 504.32 100.085 505.065 101.026 505.804 101.971 506.537 103.591 507.798 105.204 509.068 106.808 510.349 107.538 510.932 108.82 511.894 109.401 512.558 109.579 514.685 109.439 517.084 109.431 519.241L109.43 531.115 113.709 531.097C114.611 531.088 115.592 531.029 116.483 531.069 117.04 530.588 117.572 530.078 118.074 529.541 118.895 528.677 120.182 526.987 121.479 527.151 122.544 527.287 123.916 528.966 124.707 529.671 126.011 528.931 127.258 528.304 128.75 528.004 128.764 527.7 128.814 527.151 128.799 526.867 128.531 522.089 130.72 523.166 134.471 523.057ZM134.853 453.088C137.712 453.255 139.911 453.429 142.764 453.954 155.196 456.318 166.487 462.757 174.851 472.254 184.68 483.407 189.695 497.998 188.799 512.837 188.423 519.321 186.883 525.087 184.47 531.108 186.465 531.13 188.46 531.132 190.455 531.114 196.136 517.486 195.764 500.074 190.181 486.467 183.911 470.867 171.588 458.474 156.025 452.114 149.477 449.434 142.513 447.911 135.445 447.612 134.151 447.559 132.344 447.516 131.054 447.616 114.88 448.156 99.571 455.052 88.4484 466.808 85.8356 469.552 83.4732 472.524 81.3891 475.689 74.5248 486.249 71.0811 498.668 71.5265 511.255 71.7024 516.733 72.6206 522.163 74.256 527.394 74.6161 528.55 75.0693 530.01 75.5618 531.118 77.5112 531.126 79.4606 531.123 81.4099 531.109 80.6242 528.883 79.6877 526.387 79.0929 524.114 75.537 511.01 76.7975 497.065 82.6457 484.81 88.9793 471.558 100.298 461.35 114.131 456.413 119.104 454.668 124.289 453.598 129.546 453.231 131.293 453.112 133.249 453.226 134.853 453.088ZM130.619 529.383C127.798 530.11 127.029 530.407 124.518 531.954 123.6 531.038 122.252 529.623 121.219 528.947 120.438 529.507 118.347 531.704 117.744 532.487 118.783 533.709 119.809 534.551 120.86 535.682 119.629 537.237 118.627 539.375 118.42 541.362 117.082 541.349 115.624 541.328 114.288 541.367 114.278 542.592 114.201 545.337 114.346 546.391 115.622 546.329 117.068 546.382 118.357 546.402 118.873 548.665 119.466 550.306 120.797 552.25 119.658 553.384 118.618 554.375 117.673 555.695 118.594 556.912 119.866 558.255 120.948 559.343 122.338 558.374 123.335 557.28 124.569 556.178 127.041 557.762 127.792 557.925 130.522 558.736 130.487 559.935 130.114 562.658 131.849 562.513 132.865 562.428 133.923 562.47 134.942 562.402 135.104 562.387 135.297 562.403 135.365 562.246 135.718 561.428 135.546 559.572 135.575 558.717 138.174 558.061 139.291 557.619 141.571 556.161 142.581 557.156 143.73 558.355 144.946 559.071 145.44 558.756 147.996 556.198 148.369 555.701 147.426 554.54 146.206 553.485 145.232 552.326 146.654 549.903 147.133 549.116 147.729 546.332 148.847 546.405 150.535 546.419 151.657 546.312 151.582 545.703 151.677 544.728 151.676 544.091 151.676 543.237 151.645 542.399 151.628 541.547 150.414 541.442 148.833 541.474 147.596 541.474 146.988 538.941 146.454 537.943 145.233 535.739 145.895 534.716 147.391 533.791 148.162 532.399 147.951 531.825 145.252 528.766 144.662 529.086 143.64 529.641 142.251 531.052 141.417 531.917 139.455 530.733 137.759 529.748 135.402 529.506 135.383 527.962 135.378 526.418 135.388 524.874 133.82 524.868 132.209 524.842 130.645 524.878 130.592 526.36 130.616 527.896 130.619 529.383ZM147.466 536.007C148.032 537.199 148.617 538.432 149.032 539.684 151.335 539.594 152.872 539.271 153.444 542.013L173.574 542.009C177.312 542.01 181.331 542.086 185.047 541.978 185.278 541.611 185.639 541.077 185.84 540.712 187.378 538.22 188.719 535.612 189.853 532.912 188.965 532.835 187.908 532.857 187.008 532.852L182.398 532.844 168.416 532.847 155.753 532.853C154.323 532.855 151.284 532.747 149.979 532.876 149.792 533.071 149.538 533.722 149.282 534.051 148.747 534.739 147.996 535.366 147.466 536.007ZM82.0262 543.636C83.3207 545.994 85.6364 548.585 87.4377 550.569 94.9925 558.89 104.568 564.888 115.391 568.046 131.189 572.776 148.222 570.992 162.697 563.092 170.419 558.85 176.167 553.694 181.705 546.908 182.365 546.053 183.453 544.694 183.917 543.776 181.885 543.707 179.108 543.719 177.096 543.816 174.82 546.476 172.916 548.622 170.284 550.983 161.634 558.745 149.577 564.049 137.941 564.954 122.727 566.211 107.645 561.315 96.0714 551.362 93.344 549.02 90.9393 546.305 88.5427 543.629 86.3706 543.605 84.1983 543.607 82.0262 543.636ZM158.432 524.246 180.263 524.283C180.304 522.597 180.267 520.848 180.271 519.155L165.554 519.159C163.399 519.16 160.54 519.068 158.445 519.157 158.321 520.439 158.339 522.967 158.432 524.246ZM141.326 558.46C140.003 559.225 138.842 559.639 137.416 560.148 137.393 561.539 137.478 561.988 136.926 563.287 142.039 562.637 145.715 562.106 150.694 560.339 160.192 556.871 168.264 551.52 174.847 543.801 174.005 543.723 172.988 543.748 172.125 543.748L168.013 543.746C163.158 543.746 158.235 543.8 153.391 543.747 153.433 547.849 153.126 548.142 149.034 548.114 148.573 549.809 148.257 550.594 147.521 552.182 151.536 556.13 150.359 556.344 146.714 560.042 144.781 562.005 142.767 559.91 141.326 558.46ZM85.8723 524.191 101.291 524.202C103.274 524.202 105.59 524.111 107.514 524.153L107.627 524.108C107.692 523.734 107.674 522.869 107.676 522.434L107.688 519.344C106.792 519.251 105.159 519.287 104.218 519.288L98.4306 519.294 90.4838 519.303C89.1213 519.303 87.4326 519.257 86.1011 519.327L85.9497 519.383C85.7866 519.849 85.8517 523.492 85.8723 524.191ZM158.427 517.434 180.228 517.441 180.233 513.596C173.019 513.575 165.588 513.521 158.377 513.602 158.371 514.556 158.314 516.576 158.427 517.434ZM116.922 548.161C112.522 548.069 112.45 548.242 112.491 543.68 107.621 543.609 102.75 543.586 97.8797 543.611L93.3455 543.618C92.8161 543.622 91.5265 543.671 91.0626 543.631 92.2218 545.245 94.8687 547.874 96.3412 549.216 104.387 556.545 114.471 560.926 125.15 562.691 126.58 562.927 127.917 563.075 129.331 563.277 128.681 562.088 128.731 561.519 128.828 560.192L127.794 559.856C126.806 559.506 125.68 559.038 124.791 558.476 121.123 561.973 120.536 561.783 117.125 557.961 114.659 555.199 116.469 554.235 118.431 552.075 117.835 550.712 117.307 549.613 116.922 548.161ZM96.3342 504.469C94.4587 506.105 92.5659 507.721 90.6562 509.316 89.827 510.019 88.4814 511.234 87.6424 511.855L97.1074 511.864C99.9013 511.864 102.98 511.921 105.751 511.846 104.637 510.937 97.0206 504.717 96.3342 504.469ZM180.242 531.064C180.301 529.469 180.299 527.634 180.274 526.031 177.992 525.959 175.589 525.976 173.302 526.006 168.343 526.071 163.326 525.903 158.376 525.993 158.378 527.667 158.36 529.383 158.386 531.053L173.231 531.106 177.739 531.102C178.519 531.094 179.479 531.045 180.242 531.064ZM169.125 504.343C166.427 506.367 163.896 508.725 161.29 510.87 160.918 511.177 160.5 511.545 160.152 511.879L169.424 511.91C172.239 511.895 175.486 511.957 178.265 511.852 177.186 510.909 169.855 504.608 169.125 504.343ZM85.8617 513.654 85.8545 517.551 107.643 517.503C107.639 516.258 107.653 514.966 107.631 513.725 106.505 513.59 103.4 513.676 102.155 513.674L90.2888 513.677C89.691 513.675 86.2714 513.722 85.8617 513.654ZM107.694 525.9 105.833 525.905C99.2545 525.943 92.4422 525.818 85.8969 525.974 85.8486 527.481 85.7941 529.621 85.9048 531.094 86.4569 531.109 87.0093 531.109 87.5615 531.096 91.9276 531.124 96.2938 531.127 100.66 531.105 102.963 531.103 105.482 531.154 107.765 531.096 107.765 529.682 107.835 527.248 107.694 525.9ZM116.933 539.614C117.466 537.697 117.622 537.61 118.564 535.897 117.716 535.077 116.433 533.954 115.962 532.879 112.878 532.807 109.634 532.85 106.54 532.857L93.1736 532.862 82.3279 532.851C80.4792 532.849 78.1681 532.788 76.3472 532.88 76.1357 533.564 80.0702 540.728 80.747 541.842 84.5036 541.948 88.6257 541.864 92.4067 541.864L112.467 541.882C112.51 539.709 113.812 539.462 115.67 539.582 115.786 539.59 115.902 539.598 116.019 539.608L116.933 539.614Z" stroke="#999999" stroke-width="1.87586" fill="#999999"/><path d="M130.181 456.946C131.587 456.889 133.075 457.091 134.495 456.979 135.167 456.929 136.305 456.976 136.766 457.539 137.518 458.457 137.239 461.052 137.232 462.195 139.307 462.9 140.164 463.301 142.1 464.323 142.22 464.181 142.345 464.044 142.475 463.912 143.283 463.086 145.82 459.95 146.992 460.882 148.289 461.785 149.334 463.31 150.568 464.27 153.071 466.218 149.736 468.512 148.038 470.034 149.318 472.308 149.701 473.095 150.56 475.609 151.815 475.589 154.315 475.356 155.275 476.195 156.509 477.273 156.501 482.283 155.381 483.44 154.65 484.195 151.559 484.012 150.449 484.028 149.967 486.311 149.208 487.333 148.227 489.335 149.011 490.186 151.427 492.323 151.549 493.371 151.536 493.916 151.073 494.566 150.717 494.899 146.002 499.316 146.723 500.165 142.204 495.16 140.223 496.245 139.247 496.469 137.177 497.123 137.157 498.56 137.802 502.177 135.872 502.51 134.048 502.554 132.02 502.566 130.205 502.443 128.371 502.318 128.885 498.541 128.881 497.25 127.026 496.789 125.494 496.099 123.785 495.282 122.976 496.166 120.897 498.525 119.864 498.752 118.726 499.003 114.345 494.474 114.296 493.441 114.256 492.599 117.108 489.935 117.788 489.25 116.653 487.619 115.976 485.731 115.366 483.858 114.349 483.864 111.443 484.006 110.546 483.44 110.174 483.205 109.927 482.117 109.934 481.619 109.951 480.501 109.622 477.226 110.376 476.418 111.065 475.681 114.315 475.897 115.313 475.917 116.012 473.557 116.742 472.117 117.968 470.02 117.113 469.164 113.357 466.407 114.804 465.041 116.082 463.835 118.119 461.095 119.828 460.736 120.476 460.599 123.254 463.635 123.909 464.259 125.494 463.492 127.022 462.75 128.744 462.338 128.79 461.45 128.752 460.526 128.758 459.635 128.767 458.385 128.816 457.369 130.181 456.946ZM130.542 458.746C130.55 459.656 130.801 463.011 130.299 463.682 130.086 463.968 127.83 464.545 127.232 464.761 126.56 465.011 125.9 465.289 125.252 465.594 124.837 465.792 124.269 466.281 123.81 466.293 123.074 466.313 120.419 463.294 119.755 462.658L116.395 465.992C116.947 466.544 120.084 469.428 120.102 469.991 120.114 470.383 119.159 471.548 118.913 471.937 118.381 472.778 117.939 473.673 117.595 474.607 117.39 475.174 116.932 477.387 116.614 477.466 115.202 477.816 113.143 477.647 111.673 477.722 111.599 478.931 111.585 480.885 111.669 482.103 113.227 482.106 115.129 482.059 116.654 482.208 117.551 483.961 117.756 486.352 119.133 487.994 119.358 488.263 119.998 489.229 119.839 489.605 119.108 490.918 117.298 492.457 116.235 493.508 117.337 494.704 118.529 495.778 119.683 496.913 120.314 496.28 123.074 493.316 123.79 493.337 124.325 493.354 126.568 494.545 127.317 494.864 128.06 495.181 130.126 495.538 130.55 495.909 130.814 496.661 130.705 499.834 130.684 500.82L132.22 500.826C133.262 500.811 134.362 500.762 135.395 500.772 135.451 500.332 135.466 499.985 135.484 499.536 135.512 498.798 135.105 496.288 135.742 495.833 136.552 495.254 138.128 495.107 139.074 494.725 139.896 494.423 141.758 493.073 142.374 493.213 143.214 493.405 145.569 496.161 146.201 496.848 147.345 495.691 148.607 494.567 149.711 493.431 149.196 492.842 148.669 492.278 148.11 491.73 147.571 491.201 146.941 490.672 146.5 490.058 146.396 489.913 146.26 489.655 146.257 489.474 146.247 488.918 147.281 487.601 147.546 487.022 147.773 486.526 149.144 482.62 149.242 482.539 150.139 481.798 153.932 483.091 154.36 481.685 154.495 481.24 154.481 478.032 154.277 477.69 154.111 477.415 153.533 477.369 153.249 477.352 152.548 477.31 149.579 477.552 149.2 477.09 148.692 476.468 148.557 475.172 148.287 474.398 147.942 473.409 147.512 472.417 146.945 471.534 146.693 471.142 145.972 470.297 146.051 469.84 146.165 469.172 149.01 466.612 149.631 465.933 148.599 464.771 147.498 463.672 146.335 462.642 145.759 463.195 143.13 465.846 142.675 466.127 142.522 466.222 142.345 466.271 142.165 466.267 141.442 466.254 140.509 465.415 139.866 465.096 139.173 464.753 138.387 464.477 137.644 464.267 137.183 464.137 136.681 464.049 136.241 463.863 136.052 463.783 135.806 463.657 135.679 463.489 135.379 463.091 135.497 459.578 135.445 458.739L133.986 458.702 130.542 458.746Z" stroke="#999999" stroke-width="1.87586" fill="#999999"/><path d="M131.656 467.266C138.556 466.553 144.726 471.571 145.437 478.471 146.147 485.371 141.128 491.54 134.228 492.249 127.33 492.957 121.164 487.94 120.454 481.043 119.744 474.145 124.759 467.978 131.656 467.266ZM133.713 490.567C139.696 490.145 144.2 484.947 143.765 478.966 143.33 472.984 138.122 468.492 132.142 468.94 126.18 469.386 121.705 474.575 122.138 480.537 122.571 486.5 127.75 490.987 133.713 490.567Z" stroke="#999999" stroke-width="1.87586" fill="#999999"/><path d="M132.088 471.9C136.38 471.461 140.216 474.581 140.66 478.872 141.104 483.162 137.988 487.002 133.698 487.451 129.401 487.9 125.555 484.778 125.11 480.481 124.665 476.184 127.791 472.341 132.088 471.9ZM128.049 483.348C128.898 484.244 129.304 484.552 130.399 485.128 130.928 485.317 131.461 485.494 131.997 485.66 132.026 484.763 132.007 483.914 131.99 483.017 131.643 482.86 130.313 481.966 130.31 481.965 129.565 482.44 128.811 482.901 128.049 483.348ZM135.667 485.027C136.327 484.605 137.018 484.172 137.535 483.576 137.202 483.362 135.452 482.147 135.279 482.098 134.742 482.483 134.44 482.709 133.821 482.954 133.79 483.881 133.798 484.764 133.807 485.692 134.58 485.495 134.98 485.421 135.667 485.027ZM128.189 475.935 129.111 476.495C129.509 476.741 129.915 477.001 130.323 477.229 131.019 476.827 131.351 476.594 132.134 476.393 132.155 475.868 132.276 474.126 132.083 473.776L132.022 473.749C130.278 474.281 129.488 474.57 128.189 475.935ZM127.28 481.767C127.678 481.509 128.109 481.219 128.513 480.977 128.845 480.794 129.18 480.602 129.519 480.433L129.542 478.867C128.874 478.463 127.816 477.764 127.164 477.425 126.702 478.977 126.556 480.237 127.28 481.767ZM136.314 478.854C136.314 479.443 136.29 480.026 136.208 480.61 136.637 480.826 136.977 481.002 137.387 481.251 137.749 481.513 138.103 481.785 138.451 482.065 138.736 481.116 139.454 478.518 138.567 477.717 137.856 478.165 137.111 478.579 136.314 478.854ZM132.586 478.094C131.734 478.29 131.194 479.13 131.369 479.987 131.544 480.844 132.371 481.405 133.232 481.25 133.807 481.147 134.282 480.74 134.472 480.187 134.661 479.633 134.536 479.02 134.144 478.586 133.753 478.151 133.156 477.963 132.586 478.094ZM133.913 473.803C133.835 474.314 133.804 475.928 133.831 476.456 134.641 476.626 134.877 476.732 135.497 477.328 135.934 477.091 136.497 476.807 136.914 476.558L137.825 476.084C136.571 474.742 135.757 474.193 133.913 473.803Z" stroke="#999999" stroke-width="1.87586" fill="#999999"/><path d="M157.835 492.703C158.368 492.691 158.923 492.69 159.457 492.703 162.602 492.777 165.76 492.625 168.9 492.784 169.228 492.8 169.464 492.936 169.736 493.102 170.349 494.321 170.08 498.698 170.04 500.236 168.22 501.707 168.317 499.265 168.33 498.176 168.343 496.957 168.327 495.715 168.324 494.495 163.841 494.207 159.149 494.636 154.648 494.415 153.342 494.351 153.534 492.814 154.355 492.754 155.432 492.675 156.732 492.716 157.835 492.703Z" stroke="#999999" stroke-width="1.87586" fill="#999999"/><path d="M96.2985 492.682C100.583 492.634 104.874 492.724 109.162 492.676 110.004 492.667 111.515 492.586 112.301 492.923 112.575 493.04 112.658 494.241 111.969 494.332 111.151 494.44 110.371 494.411 109.535 494.407L105.693 494.375C103.264 494.307 99.8752 494.26 97.4708 494.395 97.4551 495.615 97.4546 496.835 97.4693 498.055 97.4708 498.624 97.6257 499.95 97.1358 500.305 96.5957 500.695 95.7847 500.307 95.7867 499.618 95.7927 497.512 95.7031 495.391 95.7725 493.29 95.7806 493.049 96.1186 492.797 96.2985 492.682Z" stroke="#999999" stroke-width="1.87586" fill="#999999"/><path d="M130.291 504.946C131.192 504.84 131.413 505.252 131.418 506.07 131.425 507.199 131.412 508.328 131.412 509.457L131.415 516.388C131.413 517.3 131.419 518.212 131.434 519.124 131.445 519.738 131.48 520.466 131.428 521.077 131.398 521.417 131.147 521.599 130.888 521.777 130.453 521.866 129.82 521.675 129.786 521.158 129.711 520.011 129.716 518.852 129.701 517.701 129.665 515.322 129.661 512.942 129.69 510.563L129.719 507.349C129.726 506.801 129.717 506.182 129.772 505.64 129.807 505.286 130.029 505.136 130.291 504.946Z" stroke="#999999" stroke-width="1.87586" fill="#999999"/><path d="M135.351 504.819C135.648 504.827 135.998 504.853 136.183 505.121 136.269 505.246 136.318 505.382 136.32 505.534 136.335 506.613 136.334 507.691 136.337 508.77L136.332 516.375C136.338 517.863 136.423 519.601 136.366 521.1 136.357 521.35 135.965 521.611 135.764 521.738 135.62 521.742 135.469 521.751 135.326 521.729 135.113 521.696 134.862 521.574 134.759 521.376 134.561 520.994 134.542 505.858 134.745 505.317 134.847 505.047 135.113 504.945 135.351 504.819Z" stroke="#999999" stroke-width="1.87586" fill="#999999"/><path d="M131.694 533.083C137.757 532.367 143.255 536.699 143.976 542.762 144.697 548.826 140.368 554.326 134.305 555.051 128.237 555.777 122.73 551.443 122.008 545.374 121.287 539.305 125.624 533.801 131.694 533.083ZM133.299 553.306C138.387 553.123 142.367 548.857 142.196 543.768 142.026 538.68 137.77 534.69 132.681 534.848 127.575 535.006 123.567 539.28 123.738 544.386 123.909 549.492 128.193 553.489 133.299 553.306Z" stroke="#999999" stroke-width="1.87586" fill="#999999"/></g></svg>