<?xml version="1.0" encoding="utf-8" ?><svg xmlns="http://www.w3.org/2000/svg" xmlns:xlink="http://www.w3.org/1999/xlink" width="1024" height="1024" viewBox="0 0 1024 1024"><path d="M490.018 29.2121C753.144 17.0756 976.309 220.501 988.523 483.624C1000.74 746.746 797.377 969.971 534.258 982.262C271.029 994.559 47.6919 791.096 35.4728 527.864C23.2537 264.631 226.782 41.3537 490.018 29.2121ZM523.074 610.314C542.959 610.252 543.545 619.996 543.201 637.034C543.139 640.121 543.465 643.858 543.846 646.924C554.326 650.626 564.741 653.83 574.102 659.925C580.827 653.169 591.23 641.521 601.2 641.142C609.009 640.845 615.138 648.111 620.261 653.271C625.765 658.815 631.623 664.362 636.989 670.03C656.02 670.983 671.067 670.268 689.465 670.523L689.962 593.793C689.951 574.241 689.317 550.388 690.066 531.205C694.54 526.458 701.645 520.667 706.736 516.326L736.199 491.495L764.276 467.818C769.281 463.599 774.27 459.245 779.459 455.261C783.304 452.308 786.145 452.278 789.81 455.377C815.761 477.326 841.895 499.094 868.166 520.663C872.366 524.111 877.004 527.047 881.208 530.399L881.163 531.045C880.761 537.438 880.961 545.708 880.96 552.21L880.961 588.59L881.031 640.004C881.041 645.481 880.613 665.576 881.977 669.952L882.697 670.396C887.574 667.748 900.3 629.276 902.369 622.153C906.821 606.834 911.476 589.396 914.196 573.588C928.954 483.044 912.682 390.17 868.021 310.037C815.545 214.174 726.999 143.202 622.011 112.855C592.031 104.122 559.512 99.0458 528.388 97.5657C522.589 97.29 508.617 96.5294 503.105 97.2066C480.844 98.5612 461.456 100.053 439.503 104.042C349.146 120.27 266.977 166.7 206.454 235.728C137.499 313.604 98.8338 420.948 105.386 525.03C107.901 569.239 116.981 612.828 132.328 654.364C133.787 658.402 137.088 671.19 141.476 671.76C145.465 668.924 144.01 656.293 143.981 651.526L143.971 622.372C143.98 592.786 143.496 562.137 144.413 532.675C144.56 527.922 183.829 497.033 189.68 492.041L215.078 470.239C220.245 465.84 230.051 456.78 236.042 454.638C242.046 455.739 251.978 465.069 257.125 469.234C264.17 474.844 271.252 480.408 278.37 485.926C290.571 495.417 302.712 504.984 314.793 514.626C320.289 519.018 329.936 526.261 334.31 531.263C335.65 547.277 334.601 565.34 334.538 581.578L334.533 670.982L366.751 670.849C373.541 670.782 380.928 670.336 387.634 670.638C391.833 667.019 395.833 663.178 399.619 659.13C405.794 652.626 415.491 639.899 425.251 641.139C433.274 642.158 443.604 654.804 449.562 660.11C459.375 654.539 468.767 649.815 480 647.559C480.107 645.274 480.485 641.138 480.366 638.996C478.354 603.02 494.832 611.133 523.074 610.314ZM525.95 83.4834C547.475 84.7398 564.033 86.0503 585.515 90.0098C679.126 107.803 764.137 156.287 827.112 227.798C901.123 311.773 938.883 421.632 932.137 533.364C929.3 582.18 917.711 625.593 899.536 670.933C914.558 671.095 929.58 671.109 944.602 670.976C987.379 568.362 984.578 437.264 942.542 334.807C895.328 217.353 802.545 124.037 685.364 76.1499C636.061 55.9726 583.631 44.5034 530.406 42.2527C520.664 41.8556 507.064 41.535 497.346 42.2821C375.564 46.3543 260.299 98.2771 176.553 186.787C156.88 207.451 139.092 229.831 123.4 253.659C71.7163 333.171 45.7869 426.676 49.1406 521.449C50.4648 562.699 57.3785 603.578 69.6925 642.969C72.4032 651.67 75.8158 662.667 79.5243 671.003C94.202 671.067 108.88 671.045 123.557 670.935C117.641 654.179 110.59 635.384 106.111 618.273C79.3371 519.603 88.8285 414.604 132.862 322.335C180.55 222.556 265.77 145.692 369.924 108.518C407.37 95.3819 446.409 87.3262 485.996 84.5658C499.144 83.6664 513.874 84.5226 525.95 83.4834ZM494.069 657.943C472.829 663.417 467.043 665.654 448.135 677.301C441.226 670.407 431.071 659.753 423.299 654.661C417.419 658.876 401.668 675.422 397.129 681.315C404.952 690.516 412.683 696.858 420.596 705.37C411.323 717.076 403.783 733.173 402.224 748.139C392.144 748.043 381.171 747.883 371.107 748.177C371.035 757.399 370.456 778.064 371.55 786.002C381.151 785.537 392.044 785.935 401.748 786.086C405.629 803.122 410.096 815.479 420.118 830.12C411.544 838.656 403.712 846.119 396.596 856.058C403.528 865.22 413.109 875.333 421.259 883.526C431.72 876.226 439.227 867.988 448.522 859.696C467.129 871.622 472.787 872.85 493.345 878.955C493.079 887.98 490.272 908.485 503.335 907.394C510.986 906.754 518.953 907.065 526.623 906.56C527.844 906.443 529.295 906.563 529.804 905.384C532.465 899.224 531.173 885.245 531.389 878.807C550.961 873.87 559.369 870.542 576.537 859.562C584.142 867.054 592.788 876.086 601.947 881.479C605.669 879.107 624.911 859.843 627.721 856.104C620.62 847.36 611.436 839.419 604.1 830.693C614.805 812.445 618.411 806.524 622.897 785.555C631.316 786.111 644.025 786.214 652.479 785.408C651.914 780.819 652.627 773.483 652.623 768.683C652.617 762.252 652.387 755.945 652.255 749.528C643.12 748.739 631.21 748.977 621.902 748.982C617.324 729.908 613.302 722.396 604.107 705.802C609.089 698.097 620.355 691.133 626.16 680.65C624.569 676.328 604.247 653.299 599.806 655.71C592.113 659.886 581.657 670.512 575.373 677.019C560.6 668.107 547.83 660.689 530.083 658.866C529.943 647.243 529.908 635.618 529.979 623.994C518.177 623.946 506.044 623.753 494.269 624.02C493.872 635.178 494.048 646.75 494.069 657.943ZM620.917 707.821C625.181 716.789 629.59 726.078 632.715 735.5C650.049 734.824 661.624 732.393 665.929 753.037L817.498 753.008C845.641 753.019 875.903 753.588 903.886 752.773C905.625 750.011 908.342 745.994 909.855 743.244C921.433 724.479 931.533 704.843 940.066 684.512C933.386 683.932 925.426 684.097 918.647 684.063L883.938 684.003L778.658 684.022L683.313 684.066C672.546 684.086 649.665 683.269 639.841 684.245C638.431 685.71 636.522 690.61 634.592 693.092C630.566 698.269 624.913 702.991 620.917 707.821ZM128.197 765.261C137.944 783.011 155.38 802.522 168.943 817.461C225.826 880.115 297.92 925.276 379.414 949.052C498.362 984.664 626.612 971.234 735.602 911.752C793.744 879.815 837.019 840.989 878.721 789.897C883.691 783.456 891.881 773.223 895.375 766.315C880.078 765.793 859.166 765.885 844.02 766.616C826.877 786.646 812.542 802.798 792.73 820.577C727.6 879.024 636.818 918.96 549.2 925.772C434.653 935.236 321.095 898.37 233.949 823.428C213.414 805.8 195.308 785.352 177.263 765.209C160.908 765.026 144.552 765.043 128.197 765.261ZM703.491 619.263L867.864 619.539C868.171 606.849 867.896 593.677 867.92 580.931L757.115 580.965C740.885 580.967 719.361 580.279 703.584 580.947C702.65 590.596 702.787 609.633 703.491 619.263ZM574.691 876.875C564.726 882.634 555.989 885.753 545.252 889.585C545.079 900.06 545.716 903.439 541.557 913.219C580.058 908.328 607.737 904.324 645.228 891.02C716.739 864.909 777.517 824.619 827.087 766.503C820.745 765.915 813.086 766.105 806.59 766.101L775.625 766.09C739.073 766.084 702.008 766.493 665.533 766.099C665.849 796.978 663.537 799.187 632.729 798.975C629.254 811.736 626.876 817.648 621.331 829.604C651.566 859.331 642.706 860.94 615.262 888.79C600.703 903.565 585.539 887.792 574.691 876.875ZM157.156 618.852L273.25 618.929C288.179 618.93 305.62 618.244 320.109 618.565L320.957 618.222C321.445 615.408 321.307 608.894 321.327 605.624L321.419 582.354C314.666 581.655 302.372 581.927 295.285 581.931L251.713 581.978L191.878 582.044C181.619 582.048 168.904 581.703 158.879 582.228L157.739 582.651C156.511 586.158 157.001 613.59 157.156 618.852ZM703.454 567.973L867.601 568.026L867.637 539.077C813.318 538.915 757.371 538.513 703.074 539.119C703.028 546.302 702.601 561.51 703.454 567.973ZM390.943 799.331C357.809 798.639 357.271 799.938 357.581 765.589C320.912 765.057 284.238 764.884 247.565 765.072L213.425 765.126C209.439 765.154 199.729 765.525 196.236 765.219C204.964 777.371 224.894 797.171 235.981 807.271C296.558 862.457 372.487 895.444 452.896 908.734C463.66 910.513 473.727 911.622 484.377 913.141C479.484 904.193 479.86 899.91 480.584 889.916L472.802 887.384C465.362 884.749 456.888 881.224 450.188 876.995C422.572 903.328 418.157 901.892 392.467 873.118C373.901 852.325 387.531 845.067 402.304 828.798C397.818 818.536 393.839 810.265 390.943 799.331ZM235.928 470.357C221.807 482.673 207.555 494.839 193.176 506.852C186.933 512.142 176.801 521.294 170.484 525.968L241.75 526.038C262.786 526.036 285.97 526.461 306.834 525.902C298.443 519.052 241.096 472.22 235.928 470.357ZM867.707 670.598C868.146 658.593 868.13 644.771 867.944 632.707C850.762 632.163 832.669 632.289 815.451 632.514C778.114 633.002 740.338 631.742 703.066 632.42C703.082 645.022 702.949 657.945 703.14 670.519L814.914 670.915L848.855 670.885C854.731 670.826 861.958 670.459 867.707 670.598ZM783.998 469.404C763.683 484.649 744.628 502.397 725.008 518.553C722.205 520.861 719.058 523.635 716.435 526.146L786.25 526.384C807.446 526.266 831.894 526.732 852.816 525.946C844.695 518.842 789.493 471.402 783.998 469.404ZM157.076 539.511L157.022 568.858L321.079 568.49C321.049 559.118 321.151 549.39 320.983 540.048C312.507 539.03 289.126 539.679 279.757 539.666L190.41 539.684C185.909 539.67 160.161 540.022 157.076 539.511ZM321.458 631.718L307.446 631.757C257.916 632.043 206.624 631.099 157.341 632.273C156.978 643.625 156.567 659.732 157.401 670.822C161.558 670.936 165.717 670.942 169.875 670.841C202.749 671.049 235.624 671.071 268.498 670.906C285.842 670.894 304.805 671.278 321.992 670.844C321.996 660.195 322.523 641.869 321.458 631.718ZM391.022 734.974C395.041 720.542 396.214 719.886 403.303 706.991C396.92 700.817 387.261 692.361 383.716 684.266C360.493 683.727 336.07 684.044 312.768 684.103L212.131 684.14L130.469 684.055C116.549 684.043 99.1482 683.577 85.4374 684.274C83.8454 689.42 113.47 743.363 118.566 751.75C146.851 752.551 177.888 751.915 206.356 751.916L357.397 752.053C357.726 735.694 367.526 733.829 381.513 734.736C382.389 734.794 383.265 734.859 384.14 734.933L391.022 734.974Z"/><path d="M490.775 112.535C501.36 112.104 512.562 113.627 523.256 112.781C528.314 112.408 536.888 112.764 540.358 116.999C546.016 123.908 543.914 143.453 543.868 152.055C559.491 157.368 565.943 160.385 580.521 168.078C581.419 167.011 582.359 165.98 583.338 164.988C589.424 158.767 608.524 135.154 617.354 142.168C627.118 148.969 634.986 160.451 644.276 167.682C663.121 182.349 638.012 199.622 625.226 211.076C634.864 228.204 637.748 234.127 644.213 253.056C653.664 252.902 672.49 251.154 679.721 257.471C689.01 265.585 688.951 303.305 680.513 312.019C675.011 317.701 651.736 316.322 643.382 316.444C639.751 333.636 634.039 341.328 626.652 356.404C632.556 362.811 650.747 378.902 651.663 386.793C651.562 390.897 648.081 395.79 645.401 398.301C609.901 431.555 615.326 437.945 581.301 400.261C566.383 408.433 559.037 410.117 543.451 415.047C543.297 425.864 548.159 453.097 533.625 455.604C519.893 455.934 504.62 456.025 490.955 455.097C477.146 454.159 481.013 425.72 480.989 416C467.022 412.527 455.483 407.334 442.619 401.184C436.524 407.838 420.871 425.6 413.091 427.312C404.525 429.196 371.536 395.102 371.168 387.318C370.868 380.983 392.346 360.924 397.459 355.763C388.914 343.483 383.822 329.272 379.223 315.164C371.572 315.211 349.687 316.283 342.934 312.02C340.136 310.253 338.275 302.057 338.329 298.307C338.451 289.889 335.976 265.228 341.658 259.147C346.845 253.595 371.314 255.222 378.829 255.376C384.092 237.604 389.584 226.761 398.818 210.974C392.379 204.526 364.099 183.772 374.998 173.485C384.62 164.403 399.956 143.777 412.82 141.068C417.7 140.04 438.621 162.9 443.55 167.599C455.481 161.823 466.986 156.239 479.955 153.134C480.301 146.448 480.014 139.49 480.061 132.781C480.128 123.372 480.498 115.721 490.775 112.535ZM493.493 126.09C493.551 132.942 495.444 158.2 491.666 163.254C490.058 165.405 473.073 169.751 468.568 171.379C463.512 173.257 458.539 175.349 453.661 177.648C450.538 179.138 446.264 182.824 442.808 182.915C437.264 183.062 417.275 160.33 412.272 155.542L386.977 180.646C391.129 184.805 414.751 206.52 414.884 210.758C414.976 213.705 407.782 222.48 405.934 225.41C401.925 231.74 398.598 238.477 396.009 245.508C394.468 249.782 391.015 266.444 388.621 267.037C377.988 269.672 362.489 268.4 351.421 268.964C350.864 278.068 350.758 292.779 351.389 301.951C363.121 301.978 377.442 301.621 388.923 302.742C395.679 315.942 397.222 333.944 407.589 346.31C409.287 348.336 414.1 355.605 412.902 358.439C407.403 368.322 393.773 379.911 385.767 387.826C394.066 396.828 403.04 404.914 411.729 413.464C416.485 408.697 437.26 386.376 442.654 386.54C446.682 386.663 463.571 395.634 469.211 398.036C474.804 400.418 490.358 403.11 493.554 405.904C495.539 411.564 494.723 435.459 494.562 442.878L506.125 442.928C513.973 442.815 522.257 442.447 530.03 442.519C530.457 439.202 530.568 436.594 530.7 433.209C530.917 427.652 527.847 408.756 532.645 405.328C538.743 400.971 550.612 399.865 557.731 396.988C563.92 394.714 577.941 384.547 582.58 385.607C588.909 387.053 606.64 407.801 611.396 412.972C620.009 404.265 629.512 395.799 637.821 387.242C633.944 382.814 629.975 378.561 625.769 374.439C621.708 370.458 616.968 366.474 613.648 361.849C612.862 360.753 611.84 358.814 611.815 357.451C611.739 353.266 619.524 343.352 621.523 338.988C623.231 335.258 633.552 305.841 634.289 305.233C641.045 299.657 669.603 309.39 672.829 298.801C673.847 295.456 673.743 271.297 672.201 268.726C670.957 266.652 666.602 266.305 664.461 266.177C659.182 265.86 636.828 267.688 633.979 264.204C630.154 259.526 629.136 249.765 627.102 243.935C624.505 236.493 621.264 229.02 616.996 222.372C615.102 219.421 609.675 213.06 610.265 209.617C611.127 204.591 632.548 185.315 637.222 180.205C629.453 171.456 621.165 163.181 612.405 155.425C608.068 159.586 588.273 179.549 584.846 181.664C583.697 182.379 582.364 182.745 581.01 182.716C575.561 182.616 568.542 176.302 563.7 173.901C558.478 171.313 552.562 169.238 546.966 167.66C543.498 166.681 539.714 166.016 536.401 164.614C534.977 164.011 533.126 163.064 532.174 161.799C529.916 158.802 530.799 132.354 530.407 126.037L519.422 125.758L493.493 126.09Z"/><path d="M501.88 190.235C553.833 184.872 600.293 222.649 605.642 274.603C610.991 326.557 573.202 373.007 521.247 378.342C469.311 383.675 422.882 345.904 417.535 293.97C412.188 242.035 449.947 195.596 501.88 190.235ZM517.369 365.679C562.414 362.506 596.326 323.368 593.053 278.33C589.78 233.293 550.566 199.468 505.537 202.841C460.648 206.203 426.953 245.267 430.215 290.163C433.477 335.059 472.467 368.841 517.369 365.679Z"/><path d="M505.135 225.132C537.447 221.821 566.333 245.312 569.677 277.621C573.021 309.929 549.56 338.839 517.255 342.216C484.903 345.598 455.943 322.095 452.593 289.74C449.244 257.385 472.777 228.449 505.135 225.132ZM474.722 311.326C481.116 318.07 484.168 320.391 492.415 324.731C496.397 326.15 500.409 327.484 504.449 328.732C504.669 321.981 504.526 315.587 504.392 308.834C501.786 307.655 491.766 300.918 491.744 300.912C486.135 304.488 480.459 307.96 474.722 311.326ZM532.082 323.971C537.053 320.791 542.252 317.528 546.149 313.039C543.637 311.429 530.463 302.286 529.163 301.916C525.119 304.81 522.842 306.515 518.179 308.361C517.947 315.341 518.006 321.987 518.079 328.974C523.895 327.49 526.905 326.935 532.082 323.971ZM475.778 255.507L482.721 259.725C485.717 261.582 488.775 263.535 491.841 265.254C497.085 262.229 499.586 260.475 505.477 258.962C505.636 255.006 506.551 241.891 505.097 239.255L504.633 239.053C491.505 243.055 485.556 245.232 475.778 255.507ZM468.929 299.425C471.932 297.482 475.172 295.295 478.216 293.474C480.714 292.095 483.24 290.653 485.789 289.381L485.965 277.586C480.933 274.545 472.965 269.285 468.058 266.731C464.577 278.417 463.483 287.901 468.929 299.425ZM536.95 277.488C536.951 281.92 536.77 286.311 536.151 290.707C539.387 292.335 541.942 293.661 545.03 295.536C547.754 297.509 550.425 299.554 553.04 301.669C555.188 294.519 560.596 274.961 553.916 268.925C548.563 272.298 542.957 275.42 536.95 277.488ZM508.885 271.769C502.468 273.245 498.4 279.57 499.719 286.021C501.038 292.472 507.262 296.693 513.744 295.532C518.079 294.755 521.653 291.689 523.08 287.522C524.508 283.355 523.564 278.742 520.616 275.47C517.667 272.198 513.177 270.781 508.885 271.769ZM518.875 239.456C518.284 243.307 518.052 255.457 518.257 259.432C524.355 260.71 526.134 261.513 530.801 265.998C534.09 264.214 538.334 262.075 541.472 260.199L548.326 256.63C538.886 246.53 532.758 242.396 518.875 239.456Z"/><path d="M698.991 381.764C703.005 381.673 707.182 381.669 711.203 381.764C734.883 382.322 758.663 381.174 782.308 382.37C784.772 382.495 786.549 383.517 788.602 384.769C793.219 393.947 791.192 426.9 790.893 438.483C777.186 449.56 777.918 431.172 778.012 422.971C778.113 413.797 777.994 404.446 777.969 395.258C744.218 393.089 708.888 396.316 674.993 394.653C665.167 394.171 666.609 382.599 672.789 382.148C680.896 381.555 690.69 381.859 698.991 381.764Z"/><path d="M235.659 381.609C267.922 381.245 300.231 381.923 332.516 381.561C338.854 381.49 350.229 380.881 356.152 383.419C358.208 384.3 358.837 393.344 353.652 394.027C347.489 394.839 341.618 394.625 335.319 394.595L306.396 394.354C288.104 393.842 262.59 393.488 244.486 394.503C244.368 403.689 244.364 412.876 244.475 422.061C244.486 426.346 245.652 436.332 241.964 439C237.897 441.94 231.791 439.015 231.806 433.83C231.851 417.976 231.176 402.006 231.699 386.18C231.76 384.366 234.305 382.475 235.659 381.609Z"/><path d="M491.603 473.945C498.385 473.149 500.051 476.25 500.088 482.406C500.14 490.912 500.047 499.41 500.041 507.914L500.068 560.101C500.049 566.968 500.096 573.835 500.209 580.701C500.293 585.323 500.556 590.805 500.161 595.403C499.94 597.964 498.046 599.332 496.101 600.676C492.825 601.343 488.057 599.909 487.802 596.012C487.239 587.376 487.272 578.647 487.162 569.987C486.892 552.072 486.863 534.155 487.074 516.24L487.297 492.043C487.347 487.91 487.282 483.256 487.693 479.174C487.962 476.509 489.631 475.38 491.603 473.945Z"/><path d="M529.704 472.992C531.935 473.049 534.572 473.249 535.963 475.267C536.611 476.207 536.983 477.226 536.999 478.375C537.111 486.495 537.103 494.617 537.128 502.738L537.091 560.002C537.134 571.206 537.772 584.288 537.346 595.573C537.274 597.457 534.321 599.424 532.814 600.381C531.728 600.412 530.589 600.476 529.511 600.309C527.911 600.062 526.019 599.149 525.248 597.658C523.757 594.776 523.612 480.814 525.139 476.743C525.904 474.705 527.907 473.942 529.704 472.992Z"/><path d="M502.163 685.805C547.82 680.408 589.214 713.027 594.642 758.681C600.07 804.334 567.478 845.751 521.829 851.209C476.135 856.673 434.671 824.044 429.238 778.347C423.805 732.65 456.462 691.208 502.163 685.805ZM514.251 838.067C552.559 836.69 582.525 804.568 581.242 766.257C579.96 727.947 547.913 697.901 509.6 699.088C471.151 700.279 440.976 732.463 442.262 770.909C443.549 809.355 475.809 839.45 514.251 838.067Z"/></svg>