<svg width="136" height="136" xmlns="http://www.w3.org/2000/svg" xmlns:xlink="http://www.w3.org/1999/xlink" xml:space="preserve" overflow="hidden"><g transform="translate(-1120 -286)"><path d="M1185.08 289.88C1220.03 288.268 1249.67 315.285 1251.29 350.231 1252.91 385.177 1225.9 414.824 1190.96 416.457 1156 418.09 1126.33 391.067 1124.71 356.107 1123.09 321.146 1150.12 291.492 1185.08 289.88ZM1189.47 367.057C1192.11 367.049 1192.19 368.343 1192.14 370.606 1192.14 371.016 1192.18 371.512 1192.23 371.92 1193.62 372.411 1195 372.837 1196.25 373.646 1197.14 372.749 1198.52 371.202 1199.85 371.152 1200.88 371.112 1201.7 372.077 1202.38 372.763 1203.11 373.499 1203.89 374.236 1204.6 374.988 1207.13 375.115 1209.13 375.02 1211.57 375.054L1211.64 364.863C1211.63 362.266 1211.55 359.098 1211.65 356.551 1212.24 355.92 1213.19 355.151 1213.86 354.575L1217.78 351.277 1221.51 348.132C1222.17 347.572 1222.83 346.993 1223.52 346.464 1224.03 346.072 1224.41 346.068 1224.9 346.48 1228.34 349.395 1231.81 352.286 1235.3 355.151 1235.86 355.608 1236.48 355.998 1237.04 356.444L1237.03 356.529C1236.98 357.378 1237 358.477 1237 359.34L1237 364.172 1237.01 371.001C1237.01 371.728 1236.96 374.397 1237.14 374.978L1237.23 375.037C1237.88 374.685 1239.57 369.576 1239.85 368.63 1240.44 366.595 1241.06 364.279 1241.42 362.18 1243.38 350.154 1241.22 337.819 1235.28 327.177 1228.31 314.445 1216.55 305.019 1202.61 300.989 1198.63 299.829 1194.31 299.155 1190.18 298.958 1189.41 298.921 1187.55 298.82 1186.82 298.91 1183.86 299.09 1181.29 299.288 1178.37 299.818 1166.37 301.973 1155.46 308.14 1147.42 317.308 1138.26 327.651 1133.13 341.907 1134 355.731 1134.33 361.602 1135.54 367.391 1137.57 372.908 1137.77 373.444 1138.21 375.142 1138.79 375.218 1139.32 374.841 1139.13 373.164 1139.12 372.531L1139.12 368.659C1139.12 364.729 1139.06 360.659 1139.18 356.746 1139.2 356.115 1144.41 352.012 1145.19 351.349L1148.57 348.454C1149.25 347.869 1150.55 346.666 1151.35 346.382 1152.15 346.528 1153.47 347.767 1154.15 348.32 1155.09 349.065 1156.03 349.804 1156.97 350.537 1158.59 351.798 1160.2 353.068 1161.81 354.349 1162.54 354.932 1163.82 355.894 1164.4 356.558 1164.58 358.685 1164.44 361.084 1164.43 363.241L1164.43 375.115 1168.71 375.097C1169.61 375.088 1170.59 375.029 1171.48 375.069 1172.04 374.588 1172.57 374.078 1173.07 373.541 1173.89 372.677 1175.18 370.987 1176.48 371.151 1177.54 371.287 1178.92 372.966 1179.71 373.671 1181.01 372.931 1182.26 372.304 1183.75 372.004 1183.76 371.7 1183.81 371.151 1183.8 370.867 1183.53 366.089 1185.72 367.166 1189.47 367.057ZM1189.85 297.088C1192.71 297.255 1194.91 297.429 1197.76 297.954 1210.2 300.318 1221.49 306.757 1229.85 316.254 1239.68 327.407 1244.7 341.998 1243.8 356.837 1243.42 363.321 1241.88 369.087 1239.47 375.108 1241.46 375.13 1243.46 375.132 1245.45 375.114 1251.14 361.486 1250.76 344.074 1245.18 330.467 1238.91 314.867 1226.59 302.474 1211.02 296.114 1204.48 293.434 1197.51 291.911 1190.44 291.612 1189.15 291.559 1187.34 291.516 1186.05 291.616 1169.88 292.156 1154.57 299.052 1143.45 310.808 1140.84 313.552 1138.47 316.524 1136.39 319.689 1129.52 330.249 1126.08 342.668 1126.53 355.255 1126.7 360.733 1127.62 366.163 1129.26 371.394 1129.62 372.55 1130.07 374.01 1130.56 375.118 1132.51 375.126 1134.46 375.123 1136.41 375.109 1135.62 372.883 1134.69 370.387 1134.09 368.114 1130.54 355.01 1131.8 341.065 1137.65 328.81 1143.98 315.558 1155.3 305.35 1169.13 300.413 1174.1 298.668 1179.29 297.598 1184.55 297.231 1186.29 297.112 1188.25 297.226 1189.85 297.088ZM1185.62 373.383C1182.8 374.11 1182.03 374.407 1179.52 375.954 1178.6 375.038 1177.25 373.623 1176.22 372.947 1175.44 373.507 1173.35 375.704 1172.74 376.487 1173.78 377.709 1174.81 378.551 1175.86 379.682 1174.63 381.237 1173.63 383.375 1173.42 385.362 1172.08 385.349 1170.62 385.328 1169.29 385.367 1169.28 386.592 1169.2 389.337 1169.35 390.391 1170.62 390.329 1172.07 390.382 1173.36 390.402 1173.87 392.665 1174.47 394.306 1175.8 396.25 1174.66 397.384 1173.62 398.375 1172.67 399.695 1173.59 400.912 1174.87 402.255 1175.95 403.343 1177.34 402.374 1178.33 401.28 1179.57 400.178 1182.04 401.762 1182.79 401.925 1185.52 402.736 1185.49 403.935 1185.11 406.658 1186.85 406.513 1187.87 406.428 1188.92 406.47 1189.94 406.402 1190.1 406.387 1190.3 406.403 1190.36 406.246 1190.72 405.428 1190.55 403.572 1190.58 402.717 1193.17 402.061 1194.29 401.619 1196.57 400.161 1197.58 401.156 1198.73 402.355 1199.95 403.071 1200.44 402.756 1203 400.198 1203.37 399.701 1202.43 398.54 1201.21 397.485 1200.23 396.326 1201.65 393.903 1202.13 393.116 1202.73 390.332 1203.85 390.405 1205.53 390.419 1206.66 390.312 1206.58 389.703 1206.68 388.728 1206.68 388.091 1206.68 387.237 1206.65 386.399 1206.63 385.547 1205.41 385.442 1203.83 385.474 1202.6 385.474 1201.99 382.941 1201.45 381.943 1200.23 379.739 1200.89 378.716 1202.39 377.791 1203.16 376.399 1202.95 375.825 1200.25 372.766 1199.66 373.086 1198.64 373.641 1197.25 375.052 1196.42 375.917 1194.45 374.733 1192.76 373.748 1190.4 373.506 1190.38 371.962 1190.38 370.418 1190.39 368.874 1188.82 368.868 1187.21 368.842 1185.65 368.878 1185.59 370.36 1185.62 371.896 1185.62 373.383ZM1202.47 380.007C1203.03 381.199 1203.62 382.432 1204.03 383.684 1206.33 383.594 1207.87 383.271 1208.44 386.013L1228.57 386.009C1232.31 386.01 1236.33 386.086 1240.05 385.978 1240.28 385.611 1240.64 385.077 1240.84 384.712 1242.38 382.22 1243.72 379.612 1244.85 376.912 1243.97 376.835 1242.91 376.857 1242.01 376.852L1237.4 376.844 1223.42 376.847 1210.75 376.853C1209.32 376.855 1206.28 376.747 1204.98 376.876 1204.79 377.071 1204.54 377.722 1204.28 378.051 1203.75 378.739 1203 379.366 1202.47 380.007ZM1137.03 387.636C1138.32 389.994 1140.64 392.585 1142.44 394.569 1149.99 402.89 1159.57 408.888 1170.39 412.046 1186.19 416.776 1203.22 414.992 1217.7 407.092 1225.42 402.85 1231.17 397.694 1236.71 390.908 1237.37 390.053 1238.45 388.694 1238.92 387.776 1236.89 387.707 1234.11 387.719 1232.1 387.816 1229.82 390.476 1227.92 392.622 1225.28 394.983 1216.63 402.745 1204.58 408.049 1192.94 408.954 1177.73 410.211 1162.65 405.315 1151.07 395.362 1148.34 393.02 1145.94 390.305 1143.54 387.629 1141.37 387.605 1139.2 387.607 1137.03 387.636ZM1213.43 368.246 1235.26 368.283C1235.3 366.597 1235.27 364.848 1235.27 363.155L1220.55 363.159C1218.4 363.16 1215.54 363.068 1213.44 363.157 1213.32 364.439 1213.34 366.967 1213.43 368.246ZM1196.33 402.46C1195 403.225 1193.84 403.639 1192.42 404.148 1192.39 405.539 1192.48 405.988 1191.93 407.287 1197.04 406.637 1200.72 406.106 1205.69 404.339 1215.19 400.871 1223.26 395.52 1229.85 387.801 1229.01 387.723 1227.99 387.748 1227.13 387.748L1223.01 387.746C1218.16 387.746 1213.24 387.8 1208.39 387.748 1208.43 391.849 1208.13 392.142 1204.03 392.114 1203.57 393.809 1203.26 394.594 1202.52 396.182 1206.54 400.13 1205.36 400.344 1201.71 404.042 1199.78 406.005 1197.77 403.91 1196.33 402.46ZM1140.87 368.191 1156.29 368.202C1158.27 368.202 1160.59 368.111 1162.51 368.153L1162.63 368.108C1162.69 367.734 1162.67 366.869 1162.68 366.434L1162.69 363.344C1161.79 363.251 1160.16 363.287 1159.22 363.288L1153.43 363.294 1145.48 363.303C1144.12 363.303 1142.43 363.257 1141.1 363.327L1140.95 363.383C1140.79 363.849 1140.85 367.492 1140.87 368.191ZM1213.43 361.434 1235.23 361.441 1235.23 357.596C1228.02 357.575 1220.59 357.521 1213.38 357.602 1213.37 358.556 1213.31 360.576 1213.43 361.434ZM1171.92 392.161C1167.52 392.069 1167.45 392.242 1167.49 387.68 1162.62 387.609 1157.75 387.586 1152.88 387.611L1148.35 387.618C1147.82 387.622 1146.53 387.671 1146.06 387.631 1147.22 389.245 1149.87 391.874 1151.34 393.216 1159.39 400.545 1169.47 404.926 1180.15 406.691 1181.58 406.927 1182.92 407.075 1184.33 407.277 1183.68 406.088 1183.73 405.519 1183.83 404.192L1182.79 403.856C1181.81 403.506 1180.68 403.038 1179.79 402.476 1176.12 405.973 1175.54 405.783 1172.12 401.961 1169.66 399.199 1171.47 398.235 1173.43 396.075 1172.84 394.712 1172.31 393.613 1171.92 392.161ZM1151.33 348.469C1149.46 350.105 1147.57 351.721 1145.66 353.316 1144.83 354.019 1143.48 355.234 1142.64 355.855L1152.11 355.864C1154.9 355.864 1157.98 355.921 1160.75 355.846 1159.64 354.937 1152.02 348.717 1151.33 348.469ZM1235.24 375.064C1235.3 373.469 1235.3 371.634 1235.27 370.031 1232.99 369.959 1230.59 369.976 1228.3 370.006 1223.34 370.071 1218.33 369.903 1213.38 369.993 1213.38 371.667 1213.36 373.383 1213.39 375.053L1228.23 375.106 1232.74 375.102C1233.52 375.094 1234.48 375.045 1235.24 375.064ZM1224.12 348.343C1221.43 350.367 1218.9 352.725 1216.29 354.87 1215.92 355.177 1215.5 355.545 1215.15 355.879L1224.42 355.91C1227.24 355.895 1230.49 355.957 1233.26 355.852 1232.19 354.909 1224.85 348.608 1224.12 348.343ZM1140.86 357.654 1140.85 361.551 1162.64 361.503C1162.64 360.258 1162.65 358.966 1162.63 357.725 1161.5 357.59 1158.4 357.676 1157.16 357.674L1145.29 357.677C1144.69 357.675 1141.27 357.722 1140.86 357.654ZM1162.69 369.9 1160.83 369.905C1154.25 369.943 1147.44 369.818 1140.9 369.974 1140.85 371.481 1140.79 373.621 1140.9 375.094 1141.46 375.109 1142.01 375.109 1142.56 375.096 1146.93 375.124 1151.29 375.127 1155.66 375.105 1157.96 375.103 1160.48 375.154 1162.76 375.096 1162.77 373.682 1162.84 371.248 1162.69 369.9ZM1171.93 383.614C1172.47 381.697 1172.62 381.61 1173.56 379.897 1172.72 379.077 1171.43 377.954 1170.96 376.879 1167.88 376.807 1164.63 376.85 1161.54 376.857L1148.17 376.862 1137.33 376.851C1135.48 376.849 1133.17 376.788 1131.35 376.88 1131.14 377.564 1135.07 384.728 1135.75 385.842 1139.5 385.948 1143.63 385.864 1147.41 385.864L1167.47 385.882C1167.51 383.709 1168.81 383.462 1170.67 383.582 1170.79 383.59 1170.9 383.598 1171.02 383.608L1171.93 383.614Z" stroke="#00FFC2" stroke-width="1.87586" fill="#00FFC2"/><path d="M1185.18 300.946C1186.59 300.889 1188.07 301.091 1189.49 300.979 1190.17 300.929 1191.31 300.976 1191.77 301.539 1192.52 302.457 1192.24 305.052 1192.23 306.195 1194.31 306.9 1195.16 307.301 1197.1 308.323 1197.22 308.181 1197.34 308.044 1197.47 307.912 1198.28 307.086 1200.82 303.95 1201.99 304.882 1203.29 305.785 1204.33 307.31 1205.57 308.27 1208.07 310.218 1204.74 312.512 1203.04 314.034 1204.32 316.308 1204.7 317.095 1205.56 319.609 1206.81 319.589 1209.32 319.356 1210.28 320.195 1211.51 321.273 1211.5 326.283 1210.38 327.44 1209.65 328.195 1206.56 328.012 1205.45 328.028 1204.97 330.311 1204.21 331.333 1203.23 333.335 1204.01 334.186 1206.43 336.323 1206.55 337.371 1206.54 337.916 1206.07 338.566 1205.72 338.899 1201 343.316 1201.72 344.165 1197.2 339.16 1195.22 340.245 1194.25 340.469 1192.18 341.123 1192.16 342.56 1192.8 346.177 1190.87 346.51 1189.05 346.554 1187.02 346.566 1185.2 346.443 1183.37 346.318 1183.88 342.541 1183.88 341.25 1182.03 340.789 1180.49 340.099 1178.79 339.282 1177.98 340.166 1175.9 342.525 1174.86 342.752 1173.73 343.003 1169.34 338.474 1169.3 337.441 1169.26 336.599 1172.11 333.935 1172.79 333.25 1171.65 331.619 1170.98 329.731 1170.37 327.858 1169.35 327.864 1166.44 328.006 1165.55 327.44 1165.17 327.205 1164.93 326.117 1164.93 325.619 1164.95 324.501 1164.62 321.226 1165.38 320.418 1166.07 319.681 1169.32 319.897 1170.31 319.917 1171.01 317.557 1171.74 316.117 1172.97 314.02 1172.11 313.164 1168.36 310.407 1169.8 309.041 1171.08 307.835 1173.12 305.095 1174.83 304.736 1175.48 304.599 1178.25 307.635 1178.91 308.259 1180.49 307.492 1182.02 306.75 1183.74 306.338 1183.79 305.45 1183.75 304.526 1183.76 303.635 1183.77 302.385 1183.82 301.369 1185.18 300.946ZM1185.54 302.746C1185.55 303.656 1185.8 307.011 1185.3 307.682 1185.09 307.968 1182.83 308.545 1182.23 308.761 1181.56 309.011 1180.9 309.289 1180.25 309.594 1179.84 309.792 1179.27 310.281 1178.81 310.293 1178.07 310.313 1175.42 307.294 1174.75 306.658L1171.4 309.992C1171.95 310.544 1175.08 313.428 1175.1 313.991 1175.11 314.383 1174.16 315.548 1173.91 315.937 1173.38 316.778 1172.94 317.673 1172.59 318.607 1172.39 319.174 1171.93 321.387 1171.61 321.466 1170.2 321.816 1168.14 321.647 1166.67 321.722 1166.6 322.931 1166.59 324.885 1166.67 326.103 1168.23 326.106 1170.13 326.059 1171.65 326.208 1172.55 327.961 1172.76 330.352 1174.13 331.994 1174.36 332.263 1175 333.229 1174.84 333.605 1174.11 334.918 1172.3 336.457 1171.23 337.508 1172.34 338.704 1173.53 339.778 1174.68 340.913 1175.31 340.28 1178.07 337.316 1178.79 337.337 1179.32 337.354 1181.57 338.545 1182.32 338.864 1183.06 339.181 1185.13 339.538 1185.55 339.909 1185.81 340.661 1185.71 343.834 1185.68 344.82L1187.22 344.826C1188.26 344.811 1189.36 344.762 1190.39 344.772 1190.45 344.332 1190.47 343.985 1190.48 343.536 1190.51 342.798 1190.1 340.288 1190.74 339.833 1191.55 339.254 1193.13 339.107 1194.07 338.725 1194.9 338.423 1196.76 337.073 1197.37 337.213 1198.21 337.405 1200.57 340.161 1201.2 340.848 1202.34 339.691 1203.61 338.567 1204.71 337.431 1204.2 336.842 1203.67 336.278 1203.11 335.73 1202.57 335.201 1201.94 334.672 1201.5 334.058 1201.4 333.913 1201.26 333.655 1201.26 333.474 1201.25 332.918 1202.28 331.601 1202.55 331.022 1202.77 330.526 1204.14 326.62 1204.24 326.539 1205.14 325.798 1208.93 327.091 1209.36 325.685 1209.5 325.24 1209.48 322.032 1209.28 321.69 1209.11 321.415 1208.53 321.369 1208.25 321.352 1207.55 321.31 1204.58 321.552 1204.2 321.09 1203.69 320.468 1203.56 319.172 1203.29 318.398 1202.94 317.409 1202.51 316.417 1201.94 315.534 1201.69 315.142 1200.97 314.297 1201.05 313.84 1201.17 313.172 1204.01 310.612 1204.63 309.933 1203.6 308.771 1202.5 307.672 1201.34 306.642 1200.76 307.195 1198.13 309.846 1197.67 310.127 1197.52 310.222 1197.35 310.271 1197.17 310.267 1196.44 310.254 1195.51 309.415 1194.87 309.096 1194.17 308.753 1193.39 308.477 1192.64 308.267 1192.18 308.137 1191.68 308.049 1191.24 307.863 1191.05 307.783 1190.81 307.657 1190.68 307.489 1190.38 307.091 1190.5 303.578 1190.44 302.739L1188.99 302.702 1185.54 302.746Z" stroke="#00FFC2" stroke-width="1.87586" fill="#00FFC2"/><path d="M1186.66 311.266C1193.56 310.553 1199.73 315.571 1200.44 322.471 1201.15 329.371 1196.13 335.54 1189.23 336.249 1182.33 336.957 1176.16 331.94 1175.45 325.043 1174.74 318.145 1179.76 311.978 1186.66 311.266ZM1188.71 334.567C1194.7 334.145 1199.2 328.947 1198.76 322.966 1198.33 316.984 1193.12 312.492 1187.14 312.94 1181.18 313.386 1176.7 318.575 1177.14 324.537 1177.57 330.5 1182.75 334.987 1188.71 334.567Z" stroke="#00FFC2" stroke-width="1.87586" fill="#00FFC2"/><path d="M1187.09 315.9C1191.38 315.461 1195.22 318.581 1195.66 322.872 1196.1 327.162 1192.99 331.002 1188.7 331.451 1184.4 331.9 1180.55 328.778 1180.11 324.481 1179.67 320.184 1182.79 316.341 1187.09 315.9ZM1183.05 327.348C1183.9 328.244 1184.3 328.552 1185.4 329.128 1185.93 329.317 1186.46 329.494 1187 329.66 1187.03 328.763 1187.01 327.914 1186.99 327.017 1186.64 326.86 1185.31 325.966 1185.31 325.965 1184.56 326.44 1183.81 326.901 1183.05 327.348ZM1190.67 329.027C1191.33 328.605 1192.02 328.172 1192.54 327.576 1192.2 327.362 1190.45 326.147 1190.28 326.098 1189.74 326.483 1189.44 326.709 1188.82 326.954 1188.79 327.881 1188.8 328.764 1188.81 329.692 1189.58 329.495 1189.98 329.421 1190.67 329.027ZM1183.19 319.935 1184.11 320.495C1184.51 320.741 1184.92 321.001 1185.32 321.229 1186.02 320.827 1186.35 320.594 1187.13 320.393 1187.15 319.868 1187.28 318.126 1187.08 317.776L1187.02 317.749C1185.28 318.281 1184.49 318.57 1183.19 319.935ZM1182.28 325.767C1182.68 325.509 1183.11 325.219 1183.51 324.977 1183.84 324.794 1184.18 324.602 1184.52 324.433L1184.54 322.867C1183.87 322.463 1182.82 321.764 1182.16 321.425 1181.7 322.977 1181.56 324.237 1182.28 325.767ZM1191.31 322.854C1191.31 323.443 1191.29 324.026 1191.21 324.61 1191.64 324.826 1191.98 325.002 1192.39 325.251 1192.75 325.513 1193.1 325.785 1193.45 326.065 1193.74 325.116 1194.45 322.518 1193.57 321.717 1192.86 322.165 1192.11 322.579 1191.31 322.854ZM1187.59 322.094C1186.73 322.29 1186.19 323.13 1186.37 323.987 1186.54 324.844 1187.37 325.405 1188.23 325.25 1188.81 325.147 1189.28 324.74 1189.47 324.187 1189.66 323.633 1189.54 323.02 1189.14 322.586 1188.75 322.151 1188.16 321.963 1187.59 322.094ZM1188.91 317.803C1188.83 318.314 1188.8 319.928 1188.83 320.456 1189.64 320.626 1189.88 320.732 1190.5 321.328 1190.93 321.091 1191.5 320.807 1191.91 320.558L1192.82 320.084C1191.57 318.742 1190.76 318.193 1188.91 317.803Z" stroke="#00FFC2" stroke-width="1.87586" fill="#00FFC2"/><path d="M1212.83 336.703C1213.37 336.691 1213.92 336.69 1214.46 336.703 1217.6 336.777 1220.76 336.625 1223.9 336.784 1224.23 336.8 1224.46 336.936 1224.74 337.102 1225.35 338.321 1225.08 342.698 1225.04 344.236 1223.22 345.707 1223.32 343.265 1223.33 342.176 1223.34 340.957 1223.33 339.715 1223.32 338.495 1218.84 338.207 1214.15 338.636 1209.65 338.415 1208.34 338.351 1208.53 336.814 1209.35 336.754 1210.43 336.675 1211.73 336.716 1212.83 336.703Z" stroke="#00FFC2" stroke-width="1.87586" fill="#00FFC2"/><path d="M1151.3 336.682C1155.58 336.634 1159.87 336.724 1164.16 336.676 1165 336.667 1166.51 336.586 1167.3 336.923 1167.57 337.04 1167.66 338.241 1166.97 338.332 1166.15 338.44 1165.37 338.411 1164.53 338.407L1160.69 338.375C1158.26 338.307 1154.88 338.26 1152.47 338.395 1152.46 339.615 1152.45 340.835 1152.47 342.055 1152.47 342.624 1152.63 343.95 1152.14 344.305 1151.6 344.695 1150.78 344.307 1150.79 343.618 1150.79 341.512 1150.7 339.391 1150.77 337.29 1150.78 337.049 1151.12 336.797 1151.3 336.682Z" stroke="#00FFC2" stroke-width="1.87586" fill="#00FFC2"/><path d="M1185.29 348.946C1186.19 348.84 1186.41 349.252 1186.42 350.07 1186.42 351.199 1186.41 352.328 1186.41 353.457L1186.42 360.388C1186.41 361.3 1186.42 362.212 1186.43 363.124 1186.45 363.738 1186.48 364.466 1186.43 365.077 1186.4 365.417 1186.15 365.599 1185.89 365.777 1185.45 365.866 1184.82 365.675 1184.79 365.158 1184.71 364.011 1184.72 362.852 1184.7 361.701 1184.67 359.322 1184.66 356.942 1184.69 354.563L1184.72 351.349C1184.73 350.801 1184.72 350.182 1184.77 349.64 1184.81 349.286 1185.03 349.136 1185.29 348.946Z" stroke="#00FFC2" stroke-width="1.87586" fill="#00FFC2"/><path d="M1190.35 348.819C1190.65 348.827 1191 348.853 1191.18 349.121 1191.27 349.246 1191.32 349.382 1191.32 349.534 1191.34 350.613 1191.33 351.691 1191.34 352.77L1191.33 360.375C1191.34 361.863 1191.42 363.601 1191.37 365.1 1191.36 365.35 1190.96 365.611 1190.76 365.738 1190.62 365.742 1190.47 365.751 1190.33 365.729 1190.11 365.696 1189.86 365.574 1189.76 365.376 1189.56 364.994 1189.54 349.858 1189.74 349.317 1189.85 349.047 1190.11 348.945 1190.35 348.819Z" stroke="#00FFC2" stroke-width="1.87586" fill="#00FFC2"/><path d="M1186.69 377.083C1192.76 376.367 1198.26 380.699 1198.98 386.762 1199.7 392.826 1195.37 398.326 1189.31 399.051 1183.24 399.777 1177.73 395.443 1177.01 389.374 1176.29 383.305 1180.62 377.801 1186.69 377.083ZM1188.3 397.306C1193.39 397.123 1197.37 392.857 1197.2 387.768 1197.03 382.68 1192.77 378.69 1187.68 378.848 1182.57 379.006 1178.57 383.28 1178.74 388.386 1178.91 393.492 1183.19 397.489 1188.3 397.306Z" stroke="#00FFC2" stroke-width="1.87586" fill="#00FFC2"/></g></svg>