<svg width="29" height="27" xmlns="http://www.w3.org/2000/svg" xmlns:xlink="http://www.w3.org/1999/xlink" xml:space="preserve" overflow="hidden"><g transform="translate(-637 -259)"><path d="M17.3689 5.71191C17.1548 5.92883 16.8628 6.05109 16.558 6.05138 15.6414 6.03478 14.2237 5.47144 13.457 4.92131 13.0792 4.64839 12.5517 4.73338 12.2788 5.11116 12.0059 5.48893 12.0909 6.01639 12.4687 6.28931 12.9188 6.60755 13.3929 6.8904 13.8867 7.13531 10.8262 7.77881 8.02403 9.31213 5.832 11.5428 2.53125 14.8438 0.941063 19.0991 1.18519 22.9517 5.03831 23.1958 9.29278 21.6056 12.5938 18.3046 14.8245 16.1126 16.3579 13.3106 17.0016 10.2502 17.2464 10.7439 17.5292 11.2179 17.8473 11.6679 18.1204 12.0455 18.6478 12.1302 19.0254 11.8571 19.0353 11.85 19.0451 11.8426 19.0547 11.835 19.4065 11.5358 19.4657 11.0149 19.19 10.6445 18.6181 9.81796 18.2232 8.88216 18.0301 7.89581 17.9744 7.47118 18.1124 7.04399 18.4061 6.73228 18.763 6.34922 19.1636 6.00941 19.5998 5.71978 20.229 5.35033 20.9788 5.24438 21.6858 5.42503 21.8247 5.4569 21.9612 5.49872 22.0942 5.55019 21.4887 5.95606 21.007 6.52112 20.702 7.18313 20.1676 8.35369 20.2658 9.70256 20.9481 10.5396 21.3006 10.9908 21.8411 11.2548 22.4137 11.2553 22.5694 11.2551 22.7246 11.2371 22.8763 11.2019 23.7248 10.9999 24.4214 10.3964 24.7421 9.58528 25.1884 8.45052 25.1471 7.18197 24.6279 6.07866 24.8532 6.04783 25.0799 6.02904 25.3072 6.02241 25.6451 6.01672 25.9345 5.77882 26.0055 5.44837 26.0771 5.06672 25.8258 4.69927 25.4441 4.62763 25.3946 4.61835 25.3443 4.61441 25.2939 4.61588 24.7439 4.62876 24.1972 4.70576 23.6649 4.84538 23.1778 4.45916 22.6092 4.18888 22.0022 4.05506 20.9195 3.78669 19.7745 3.96433 18.8241 4.54809 18.3045 4.89088 17.8175 5.28044 17.3689 5.71191ZM6.74241 19.5818C6.13834 20.1858 5.15891 20.1859 4.55479 19.5818 3.95069 18.9777 3.95066 17.9983 4.55473 17.3942 5.15883 16.7901 6.13825 16.7901 6.74235 17.3941 6.74238 17.3942 6.74238 17.3942 6.74241 17.3942 7.34555 17.9986 7.34555 18.9773 6.74241 19.5818ZM10.1346 16.5876C9.42067 17.3015 8.26315 17.3016 7.5492 16.5877 6.83525 15.8738 6.83519 14.7163 7.54909 14.0023 8.26298 13.2884 9.4205 13.2883 10.1344 14.0022 10.1345 14.0022 10.1345 14.0023 10.1346 14.0023 10.847 14.7168 10.847 15.8731 10.1346 16.5876ZM13.1175 13.2067C12.5134 13.8108 11.534 13.8108 10.9299 13.2067 10.3258 12.6026 10.3258 11.6232 10.9298 11.0191 11.5339 10.415 12.5133 10.415 13.1174 11.019 13.1175 11.0191 13.1175 11.0191 13.1175 11.0191 13.7206 11.6236 13.7206 12.6022 13.1175 13.2067ZM23.4506 9.02812C23.3069 9.42739 22.9732 9.72847 22.5613 9.83053 22.3662 9.88889 22.1557 9.81638 22.0379 9.65025 21.7454 9.29194 21.6321 8.52975 21.9817 7.76728 22.2475 7.20695 22.6978 6.75498 23.2571 6.48703 23.6957 7.26331 23.7666 8.19439 23.4506 9.02812Z" stroke="#04D0A0" stroke-width="0.843747" fill="none" transform="matrix(1.07407 0 0 1 637 259)"/></g></svg>