<svg width="335" height="330" xmlns="http://www.w3.org/2000/svg" xmlns:xlink="http://www.w3.org/1999/xlink" xml:space="preserve" overflow="hidden"><defs><clipPath id="clip0"><rect x="2619" y="743" width="335" height="330"/></clipPath></defs><g clip-path="url(#clip0)" transform="translate(-2619 -743)"><path d="M2619 908C2619 816.873 2693.99 743 2786.5 743 2879.01 743 2954 816.873 2954 908 2954 999.127 2879.01 1073 2786.5 1073 2693.99 1073 2619 999.127 2619 908Z" fill="#999999" fill-rule="evenodd"/><g><g><g><path d="M140.238 46.1183C138.509 47.8698 136.152 48.857 133.691 48.8592 126.29 48.7253 114.843 44.1768 108.653 39.735 105.602 37.5314 101.344 38.2177 99.14 41.2678 96.9364 44.318 97.6226 48.5767 100.673 50.7804 104.307 53.3498 108.135 55.6336 112.122 57.611 87.4116 62.8067 64.7866 75.1868 47.088 93.1972 20.4375 119.85 7.59821 154.208 9.56929 185.314 40.6797 187.285 75.0306 174.445 101.683 147.793 119.694 130.095 132.075 107.471 137.272 82.7605 139.249 86.7469 141.532 90.5742 144.1 94.2078 146.305 97.2563 150.564 97.9403 153.613 95.7353 153.693 95.6777 153.771 95.6179 153.849 95.5566 156.69 93.1412 157.168 88.9353 154.941 85.9442 150.324 79.2709 147.135 71.7152 145.576 63.7514 145.126 60.3228 146.241 56.8737 148.612 54.3569 151.494 51.264 154.728 48.5204 158.25 46.1819 163.331 43.199 169.384 42.3435 175.093 43.8021 176.215 44.0594 177.316 44.397 178.39 44.8126 173.501 48.0896 169.612 52.652 167.149 57.9971 162.835 67.4483 163.627 78.3392 169.136 85.0972 171.982 88.7405 176.346 90.8719 180.969 90.8764 182.227 90.8744 183.48 90.7295 184.705 90.445 191.556 88.8139 197.18 83.9413 199.77 77.3923 203.373 68.2301 203.04 57.9878 198.848 49.0795 200.666 48.8306 202.497 48.6789 204.332 48.6253 207.06 48.5795 209.397 46.6586 209.97 43.9906 210.548 40.909 208.519 37.9422 205.437 37.3638 205.038 37.2889 204.632 37.2571 204.225 37.2689 199.784 37.3729 195.37 37.9947 191.072 39.1219 187.14 36.0036 182.549 33.8213 177.647 32.7409 168.906 30.574 159.661 32.0083 151.987 36.7216 147.792 39.4893 143.86 42.6347 140.238 46.1183ZM54.4387 158.104C49.5614 162.982 41.6534 162.982 36.7757 158.105 31.8982 153.227 31.8979 145.319 36.7752 140.442 41.6527 135.564 49.5607 135.564 54.4382 140.441 54.4384 140.442 54.4384 140.442 54.4387 140.442 59.3085 145.322 59.3085 153.224 54.4387 158.104ZM81.8272 133.929C76.0631 139.694 66.7173 139.694 60.9528 133.93 55.1883 128.166 55.1878 118.82 60.9519 113.056 66.7159 107.291 76.0618 107.291 81.8263 113.055 81.8265 113.055 81.827 113.055 81.8272 113.056 87.5797 118.824 87.5797 128.16 81.8272 133.929ZM105.912 106.631C101.034 111.509 93.1264 111.509 88.2486 106.632 83.3711 101.754 83.3709 93.8465 88.2482 88.9689 93.1257 84.0914 101.034 84.0912 105.911 88.9685 105.911 88.9687 105.911 88.9687 105.912 88.9689 110.781 93.8494 110.781 101.751 105.912 106.631ZM189.342 72.8937C188.181 76.1174 185.487 78.5483 182.162 79.3724 180.587 79.8436 178.886 79.2582 177.936 77.9168 175.574 75.0238 174.659 68.8698 177.481 62.7136 179.628 58.1894 183.264 54.5402 187.78 52.3768 191.321 58.6445 191.893 66.1621 189.342 72.8937Z" stroke="#00FFC2" stroke-width="6.8125" fill="none" transform="matrix(1.01835 0 0 1 2681 803)"/></g></g></g></g></svg>