<svg width="349" height="351" xmlns="http://www.w3.org/2000/svg" xmlns:xlink="http://www.w3.org/1999/xlink" xml:space="preserve" overflow="hidden"><defs><clipPath id="clip0"><rect x="2625" y="1895" width="349" height="351"/></clipPath></defs><g clip-path="url(#clip0)" transform="translate(-2625 -1895)"><path d="M2625 2070.5C2625 1973.57 2703.13 1895 2799.5 1895 2895.87 1895 2974 1973.57 2974 2070.5 2974 2167.43 2895.87 2246 2799.5 2246 2703.13 2246 2625 2167.43 2625 2070.5Z" fill="#999999" fill-rule="evenodd"/><g><g><g><path d="M2865.43 2073.76C2864.47 2072.79 2863.27 2072.31 2862.06 2072.31L2850.27 2072.31 2849.31 2062.93 2870.48 2041.75C2882.27 2037.42 2890.94 2023.71 2890.94 2007.34 2890.94 1987.37 2877.94 1971.25 2862.06 1971.25L2862.06 2024.19 2834.39 1996.52C2833.67 1999.88 2833.19 2003.49 2833.19 2007.34 2833.19 2024.67 2843.05 2039.11 2856.05 2042.72L2845.7 2053.06C2843.05 2049.21 2838.96 2046.33 2834.15 2045.36L2818.99 2041.99C2821.64 2040.31 2823.56 2037.42 2823.56 2033.81 2823.56 2028.52 2819.23 2024.19 2813.94 2024.19 2808.64 2024.19 2804.31 2028.52 2804.31 2033.81 2804.31 2035.74 2804.79 2037.42 2805.76 2038.87L2805.27 2038.87C2804.55 2038.63 2804.07 2038.63 2803.35 2038.63L2799.5 2038.63 2795.65 2038.63C2794.93 2038.63 2794.21 2038.63 2793.48 2038.87L2793 2038.87C2793.97 2037.42 2794.45 2035.5 2794.45 2033.81 2794.45 2028.52 2790.12 2024.19 2784.82 2024.19 2779.53 2024.19 2775.2 2028.52 2775.2 2033.81 2775.2 2037.18 2776.88 2040.31 2779.77 2041.99L2764.61 2045.36C2759.8 2046.33 2755.71 2049.21 2753.06 2053.06L2742.71 2042.72C2755.95 2039.11 2765.81 2024.67 2765.81 2007.34 2765.81 2003.49 2765.33 1999.88 2764.61 1996.52L2736.94 2024.19 2736.94 1971.25C2721.06 1971.25 2708.06 1987.37 2708.06 2007.34 2708.06 2023.71 2716.73 2037.42 2728.52 2041.99L2749.69 2063.17 2748.73 2072.31 2736.94 2072.31C2735.73 2072.31 2734.53 2072.79 2733.57 2073.76L2719.13 2088.19C2717.21 2090.12 2717.21 2093.01 2719.13 2094.93 2720.09 2095.89 2721.3 2096.38 2722.5 2096.38 2723.7 2096.38 2724.91 2095.89 2725.87 2094.93L2738.86 2081.94 2747.52 2081.94 2746.08 2093.97 2741.75 2093.97C2740.55 2093.97 2739.34 2094.45 2738.38 2095.41L2723.94 2109.85C2722.02 2111.78 2722.02 2114.66 2723.94 2116.59 2724.91 2117.55 2726.11 2118.03 2727.31 2118.03 2728.52 2118.03 2729.72 2117.55 2730.68 2116.59L2743.68 2103.59 2745.6 2103.59C2746.08 2107.68 2748.25 2111.29 2751.38 2113.7L2738.38 2126.69C2737.42 2127.66 2736.94 2128.86 2736.94 2130.06L2736.94 2149.31C2736.94 2151.96 2739.1 2154.12 2741.75 2154.12 2744.4 2154.12 2746.56 2151.96 2746.56 2149.31L2746.56 2131.99 2761.24 2117.31 2773.51 2120.2 2767.02 2126.69C2766.29 2127.66 2765.81 2128.86 2765.81 2130.06L2765.81 2158.94C2765.81 2161.58 2767.98 2163.75 2770.62 2163.75 2773.27 2163.75 2775.44 2161.58 2775.44 2158.94L2775.44 2131.99 2784.58 2122.84 2793.48 2125.01C2794.21 2125.25 2794.93 2125.25 2795.65 2125.25L2799.5 2125.25 2803.11 2125.25C2803.83 2125.25 2804.55 2125.25 2805.27 2125.01L2814.18 2122.84 2823.32 2131.99 2823.32 2158.94C2823.32 2161.58 2825.49 2163.75 2828.13 2163.75 2830.78 2163.75 2832.95 2161.58 2832.95 2158.94L2832.95 2130.06C2832.95 2128.86 2832.47 2127.66 2831.5 2126.69L2825.01 2120.2 2837.28 2117.31 2851.96 2131.99 2851.96 2149.31C2851.96 2151.96 2854.12 2154.12 2856.77 2154.12 2859.42 2154.12 2861.58 2151.96 2861.58 2149.31L2861.58 2130.06C2861.58 2128.86 2861.1 2127.66 2860.14 2126.69L2847.62 2113.7C2850.75 2111.29 2852.92 2107.68 2853.4 2103.59L2855.32 2103.59 2868.32 2116.59C2869.28 2117.55 2870.48 2118.03 2871.69 2118.03 2872.89 2118.03 2874.09 2117.55 2875.06 2116.59 2876.98 2114.66 2876.98 2111.78 2875.06 2109.85L2860.62 2095.41C2859.66 2094.45 2858.45 2093.97 2857.25 2093.97L2852.68 2093.97 2851.23 2081.94 2859.9 2081.94 2872.89 2094.93C2874.09 2095.89 2875.3 2096.38 2876.5 2096.38 2877.7 2096.38 2878.91 2095.89 2879.87 2094.93 2881.79 2093.01 2881.79 2090.12 2879.87 2088.19L2865.43 2073.76Z" stroke="#00FFC2" stroke-width="7.21875" fill="none"/></g></g></g></g></svg>