<svg width="27" height="26" xmlns="http://www.w3.org/2000/svg" xmlns:xlink="http://www.w3.org/1999/xlink" xml:space="preserve" overflow="hidden"><g transform="translate(-626 -375)"><path d="M20.4208 13.7042C20.3125 13.5958 20.1771 13.5417 20.0417 13.5417L18.7146 13.5417 18.6063 12.4854 20.9896 10.1021C22.3167 9.61458 23.2917 8.07083 23.2917 6.22917 23.2917 3.98125 21.8292 2.16667 20.0417 2.16667L20.0417 8.125 16.9271 5.01042C16.8458 5.38958 16.7917 5.79583 16.7917 6.22917 16.7917 8.17917 17.9021 9.80417 19.3646 10.2104L18.2 11.375C17.9021 10.9417 17.4417 10.6167 16.9 10.5083L15.1938 10.1292C15.4917 9.93958 15.7083 9.61458 15.7083 9.20833 15.7083 8.6125 15.2208 8.125 14.625 8.125 14.0292 8.125 13.5417 8.6125 13.5417 9.20833 13.5417 9.425 13.5958 9.61458 13.7042 9.77708L13.65 9.77708C13.5688 9.75 13.5146 9.75 13.4333 9.75L13 9.75 12.5667 9.75C12.4854 9.75 12.4042 9.75 12.3229 9.77708L12.2688 9.77708C12.3771 9.61458 12.4313 9.39792 12.4313 9.20833 12.4313 8.6125 11.9438 8.125 11.3479 8.125 10.7521 8.125 10.2646 8.6125 10.2646 9.20833 10.2646 9.5875 10.4542 9.93958 10.7792 10.1292L9.07292 10.5083C8.53125 10.6167 8.07083 10.9417 7.77292 11.375L6.60833 10.2104C8.09792 9.80417 9.20833 8.17917 9.20833 6.22917 9.20833 5.79583 9.15417 5.38958 9.07292 5.01042L5.95833 8.125 5.95833 2.16667C4.17083 2.16667 2.70833 3.98125 2.70833 6.22917 2.70833 8.07083 3.68333 9.61458 5.01042 10.1292L7.39375 12.5125 7.28542 13.5417 5.95833 13.5417C5.82292 13.5417 5.6875 13.5958 5.57917 13.7042L3.95417 15.3292C3.7375 15.5458 3.7375 15.8708 3.95417 16.0875 4.0625 16.1958 4.19792 16.25 4.33333 16.25 4.46875 16.25 4.60417 16.1958 4.7125 16.0875L6.175 14.625 7.15 14.625 6.9875 15.9792 6.5 15.9792C6.36458 15.9792 6.22917 16.0333 6.12083 16.1417L4.49583 17.7667C4.27917 17.9833 4.27917 18.3083 4.49583 18.525 4.60417 18.6333 4.73958 18.6875 4.875 18.6875 5.01042 18.6875 5.14583 18.6333 5.25417 18.525L6.71667 17.0625 6.93333 17.0625C6.9875 17.5229 7.23125 17.9292 7.58333 18.2L6.12083 19.6625C6.0125 19.7708 5.95833 19.9062 5.95833 20.0417L5.95833 22.2083C5.95833 22.5063 6.20208 22.75 6.5 22.75 6.79792 22.75 7.04167 22.5063 7.04167 22.2083L7.04167 20.2583 8.69375 18.6063 10.075 18.9313 9.34375 19.6625C9.2625 19.7708 9.20833 19.9062 9.20833 20.0417L9.20833 23.2917C9.20833 23.5896 9.45208 23.8333 9.75 23.8333 10.0479 23.8333 10.2917 23.5896 10.2917 23.2917L10.2917 20.2583 11.3208 19.2292 12.3229 19.4729C12.4042 19.5 12.4854 19.5 12.5667 19.5L13 19.5 13.4063 19.5C13.4875 19.5 13.5688 19.5 13.65 19.4729L14.6521 19.2292 15.6813 20.2583 15.6813 23.2917C15.6813 23.5896 15.925 23.8333 16.2229 23.8333 16.5208 23.8333 16.7646 23.5896 16.7646 23.2917L16.7646 20.0417C16.7646 19.9062 16.7104 19.7708 16.6021 19.6625L15.8708 18.9313 17.2521 18.6063 18.9042 20.2583 18.9042 22.2083C18.9042 22.5063 19.1479 22.75 19.4458 22.75 19.7438 22.75 19.9875 22.5063 19.9875 22.2083L19.9875 20.0417C19.9875 19.9062 19.9333 19.7708 19.825 19.6625L18.4167 18.2C18.7688 17.9292 19.0125 17.5229 19.0667 17.0625L19.2833 17.0625 20.7458 18.525C20.8542 18.6333 20.9896 18.6875 21.125 18.6875 21.2604 18.6875 21.3958 18.6333 21.5042 18.525 21.7208 18.3083 21.7208 17.9833 21.5042 17.7667L19.8792 16.1417C19.7708 16.0333 19.6354 15.9792 19.5 15.9792L18.9854 15.9792 18.8229 14.625 19.7979 14.625 21.2604 16.0875C21.3958 16.1958 21.5312 16.25 21.6667 16.25 21.8021 16.25 21.9375 16.1958 22.0458 16.0875 22.2625 15.8708 22.2625 15.5458 22.0458 15.3292L20.4208 13.7042Z" stroke="#04D0A0" stroke-width="0.81253" fill="none" transform="matrix(1.03846 0 0 1 626 375)"/></g></svg>