<svg width="500" height="500" xmlns="http://www.w3.org/2000/svg" xmlns:xlink="http://www.w3.org/1999/xlink" xml:space="preserve" overflow="hidden"><defs><clipPath id="clip0"><rect x="2604" y="1382" width="500" height="500"/></clipPath></defs><g clip-path="url(#clip0)" transform="translate(-2604 -1382)"><path d="M2604 1632C2604 1493.93 2715.93 1382 2854 1382 2992.07 1382 3104 1493.93 3104 1632 3104 1770.07 2992.07 1882 2854 1882 2715.93 1882 2604 1770.07 2604 1632Z" fill="#999999" fill-rule="evenodd"/><g><g><g><path d="M2944.99 1561.02C2944.72 1559.98 2944.48 1558.95 2944.17 1557.96 2943.38 1555.52 2943.03 1555.14 2940.38 1555.17 2938.37 1555.17 2936.43 1554.47 2934.88 1553.18 2933.96 1552.48 2933.07 1551.72 2932.24 1550.91 2930.59 1549.39 2928.74 1548.1 2926.74 1547.09 2925.44 1546.26 2923.86 1546 2922.37 1546.37 2920.05 1546.87 2917.63 1546.58 2915.5 1545.55 2913.78 1544.82 2911.86 1544.76 2910.1 1545.38L2907.38 1546.41C2907.34 1546.13 2907.34 1545.85 2907.38 1545.58 2907.73 1544.58 2907.66 1543.47 2907.18 1542.52 2906.61 1541.62 2905.6 1541.08 2904.53 1541.11 2904.22 1541.11 2903.98 1540.67 2903.67 1540.53 2901.71 1539.74 2899.75 1538.91 2897.76 1538.23 2895.91 1537.23 2893.59 1537.9 2892.57 1539.74 2892.13 1540.26 2891.66 1540.75 2891.16 1541.22 2890.97 1540.46 2891.08 1539.66 2891.47 1538.98 2891.74 1538.26 2891.88 1537.47 2892.09 1536.71 2890.97 1536.03 2889.68 1535.7 2888.38 1535.75 2887.58 1535.75 2886.73 1535.92 2886.14 1535.17 2884.63 1535.8 2883 1536.13 2881.36 1536.13 2881.9 1534.95 2882.87 1534.03 2884.08 1533.55 2884.28 1533.55 2884.66 1533.76 2884.97 1533.86 2884.57 1533.11 2884.71 1532.19 2885.32 1531.59 2886.15 1530.8 2886.49 1529.61 2886.21 1528.5 2883.89 1527.32 2882.4 1524.98 2882.33 1522.38 2882.14 1520.38 2881.05 1518.58 2879.37 1517.5 2878.39 1516.85 2877.47 1516.13 2876.62 1515.33 2875.47 1514.33 2874.14 1513.57 2872.7 1513.1 2869.89 1511.91 2866.82 1511.5 2863.8 1511.93 2861.1 1512.38 2858.36 1511.57 2856.34 1509.73 2855.36 1508.93 2854.33 1508.21 2853.24 1507.56 2852.76 1505.63 2851.52 1503.97 2849.81 1502.96 2847.84 1501.89 2845.7 1501.17 2843.48 1500.83 2843.48 1499.73 2843.48 1498.73 2843.28 1497.39 2842 1496.82 2840.68 1496.36 2839.32 1496.01 2837.84 1495.74 2836.71 1494.52 2836.54 1493.02 2834.23 1492.54 2831.82 1493.08 2829.94 1494.5 2827.96 1495.95 2825.25 1495.84 2823.41 1494.23 2822.5 1493.49 2821.31 1493.22 2820.18 1493.5 2818.46 1493.86 2816.7 1493.86 2814.98 1493.5 2814.74 1493.23 2814.54 1492.92 2814.4 1492.58 2814.03 1490.99 2812.59 1489.88 2810.96 1489.93 2807.87 1489.77 2804.84 1490.76 2802.44 1492.71 2802.44 1492.71 2802.44 1492.92 2802.23 1493.3 2802.68 1494.12 2803.23 1495.15 2803.71 1496.18 2804.14 1496.92 2804.14 1497.82 2803.71 1498.56 2803.23 1499.38 2802.18 1499.65 2801.36 1499.17 2801.34 1499.16 2801.32 1499.15 2801.3 1499.14L2799.83 1496.43 2801.54 1493.23C2801.17 1491.96 2800.82 1490.89 2800.48 1489.79 2801.16 1489.33 2801.82 1488.82 2802.44 1488.28 2802.73 1487.95 2802.86 1487.51 2802.78 1487.08 2802.61 1486.55 2802.04 1486.27 2801.52 1486.44 2801.46 1486.46 2801.4 1486.49 2801.34 1486.53 2800.65 1486.9 2800.03 1487.49 2799.34 1487.9 2797.7 1489 2795.98 1489.96 2794.19 1490.79 2792.64 1491.26 2791.05 1491.59 2789.44 1491.78 2787.88 1492.04 2786.66 1493.25 2786.38 1494.81 2786.21 1495.74 2786.08 1496.67 2785.9 1497.63 2785.22 1498.07 2784.57 1498.55 2783.94 1499.07 2783.26 1499.73 2782.74 1500.52 2782.02 1501.1 2781.3 1501.68 2782.02 1502.85 2780.82 1503.03 2780.2 1502.44 2779.48 1501.93 2778.86 1501.34 2778.6 1503.19 2778.08 1505 2777.31 1506.7 2778.63 1508.14 2779.37 1510.01 2779.41 1511.96 2779.56 1513.59 2779.56 1515.22 2779.41 1516.84 2779.13 1518.03 2779.35 1519.27 2780.03 1520.28 2779.32 1521.56 2778.53 1522.79 2777.65 1523.96 2777.07 1524.65 2776.04 1524.89 2775.32 1525.47 2774.94 1525.89 2774.66 1526.38 2774.49 1526.92 2773.08 1530.15 2773.12 1530.15 2769.85 1531.49 2769.55 1531.68 2769.28 1531.9 2769.03 1532.14 2768.93 1533.55 2768.44 1534.91 2767.62 1536.06 2766.16 1537.9 2765.57 1540.28 2766 1542.59 2766.09 1542.89 2766.09 1543.22 2766 1543.52 2766.83 1545.51 2768.44 1544.41 2769.44 1544.96 2769.86 1546.29 2769.28 1547.73 2768.06 1548.4 2767.03 1549.19 2766.03 1549.98 2765.07 1550.81 2764.08 1551.53 2763.72 1552.84 2764.21 1553.97 2764.45 1554.62 2764.49 1555.48 2764.93 1555.93 2765.93 1556.93 2764.93 1557.92 2765.11 1558.99 2765.52 1559.26 2766 1559.61 2766.52 1559.88 2767.72 1560.39 2768.76 1561.21 2769.54 1562.25 2770.98 1564.63 2772.53 1566.96 2773.84 1569.44 2775.14 1571.91 2776.18 1574.59 2777.48 1577.07 2779.17 1580.23 2781.09 1583.33 2782.84 1586.49 2783.32 1587.14 2783.59 1587.92 2783.63 1588.72 2783.34 1590.35 2783.96 1592.01 2785.25 1593.05 2786.79 1594.84 2788.66 1596.31 2790.75 1597.38 2792.88 1598.35 2794.94 1599.45 2797.01 1600.58 2798.82 1601.39 2800.51 1602.44 2802.03 1603.71 2803.04 1604.81 2804.12 1605.86 2805.26 1606.84 2806.11 1607.48 2806.65 1608.45 2806.73 1609.52 2806.91 1612.2 2807.25 1614.85 2807.35 1617.53 2807.6 1620.91 2807.11 1624.3 2805.91 1627.46 2805.91 1627.67 2805.67 1627.94 2805.91 1628.12 2806.6 1629.87 2805.63 1631.55 2805.91 1633.31 2806.16 1635.87 2805.95 1638.45 2805.29 1640.94 2804.69 1644.26 2803.81 1647.53 2802.64 1650.7 2802.36 1651.47 2802.36 1652.31 2802.64 1653.07 2803.26 1654.14 2803.26 1655.45 2802.64 1656.51 2801.58 1658.34 2801.34 1660.54 2801.99 1662.56 2802.47 1664.97 2802.47 1667.44 2801.99 1669.85 2801.44 1672.36 2800.31 1674.66 2799.96 1677.2 2799.84 1677.67 2799.67 1678.12 2799.45 1678.54 2798.73 1680.26 2798.07 1681.98 2797.32 1683.7 2796.56 1685.42 2796.01 1687.69 2793.88 1688.86 2794.36 1691.47 2794.77 1694.01 2795.32 1696.52 2795.56 1697.56 2795.37 1698.65 2794.81 1699.55 2793.06 1702.3 2792.65 1705.7 2793.67 1708.79 2791.13 1710.55 2792.23 1713.4 2791.37 1715.67 2793.16 1716.01 2793.88 1715.67 2793.88 1714.19 2793.88 1713.4 2793.4 1712.68 2793.88 1711.78 2794.23 1710.9 2794.47 1709.98 2794.6 1709.03L2795.63 1708.35 2797.14 1707.45 2798.38 1710.89C2797.31 1713.11 2796.6 1715.49 2796.28 1717.94 2796.07 1720.45 2795.6 1722.94 2794.88 1725.36 2794.56 1727.01 2793.87 1728.57 2792.85 1729.9L2791.03 1727.98 2787.11 1731.41C2788.28 1732 2789.03 1732.86 2790.37 1732.75 2791.71 1732.65 2792.02 1733.51 2791.68 1734.61 2791.33 1735.71 2790.48 1736.5 2790.78 1738.05L2793.78 1738.05 2793.78 1739.59 2790.89 1739.08C2790.89 1740.21 2790.89 1741.14 2790.89 1742.03 2790.89 1742.93 2790.89 1743 2790.13 1743 2789.62 1742.07 2789.13 1741.14 2788.62 1740.25 2788.62 1740.25 2788.24 1740.25 2788.07 1740.01L2786.59 1741.86 2788.21 1743.62 2787.83 1746.85C2788.52 1747.12 2789.07 1747.47 2788.48 1748.36L2788.48 1748.36C2789 1748.7 2789.55 1749.12 2789.96 1748.36 2790.37 1747.6 2790.23 1747.23 2790.48 1746.71 2790.98 1746.23 2791.54 1745.81 2792.13 1745.44L2790.75 1750.01C2791.27 1751.1 2791.63 1752.25 2791.82 1753.45 2791.82 1754.79 2792.95 1755.44 2793.16 1756.61 2793.53 1758.43 2794.12 1758.88 2796.18 1759.63 2796.18 1760.94 2794.43 1760.49 2794.02 1761.66 2794.26 1762.49 2794.26 1763.83 2794.91 1764.34 2795.56 1764.86 2796.46 1766.65 2797.66 1767.4 2798.55 1764.96 2800.65 1764.41 2803.3 1763.97 2802.92 1764.76 2802.82 1765.27 2802.54 1765.44 2801.75 1765.87 2800.92 1766.24 2800.07 1766.54 2799.45 1766.82 2798.69 1766.82 2798.45 1767.61 2799.55 1768.16 2800.62 1768.74 2801.89 1769.23 2803.16 1769.71 2803.95 1769.23 2804.02 1767.88 2804.06 1766.38 2804.44 1764.9 2805.12 1763.55 2806.61 1762.74 2808.3 1762.35 2810 1762.42 2809.79 1761.46 2810 1760.87 2811.17 1760.84 2811.94 1760.86 2812.71 1760.96 2813.47 1761.11 2813.36 1760.43 2813.11 1759.78 2812.75 1759.19 2811.87 1757.79 2811.32 1756.22 2811.13 1754.58 2810.6 1752.81 2811.45 1750.92 2813.13 1750.15 2813.63 1749.84 2814.16 1749.58 2814.71 1749.36 2815.99 1748.98 2816.84 1747.77 2816.77 1746.43 2816.99 1744.41 2818.15 1742.61 2819.9 1741.59 2820.38 1741.24 2820.93 1741 2821.45 1740.69 2822.95 1739.75 2823.98 1738.21 2824.27 1736.47 2824.53 1735.63 2824.08 1734.74 2823.25 1734.47 2823.13 1734.44 2823.01 1734.41 2822.89 1734.4 2821.12 1734.31 2819.47 1733.47 2818.35 1732.1 2816.94 1730.73 2816.91 1729.9 2817.77 1728.01 2818.34 1726.41 2819.6 1725.14 2821.21 1724.57L2824.44 1723.58C2824.64 1723.16 2824.75 1722.61 2825.06 1722.34 2826.09 1721.52 2826.5 1720.15 2826.09 1718.9 2825.87 1717.97 2826.15 1716.99 2826.84 1716.32 2827.33 1715.77 2827.91 1715.36 2828.39 1714.88 2828.87 1714.4 2828.39 1714.47 2828.39 1714.26L2827.33 1713.09 2828.56 1711.44C2827.95 1710.85 2827.44 1710.17 2827.05 1709.41 2826.75 1708.16 2826.59 1706.88 2826.57 1705.6 2826.72 1704.92 2826.98 1704.28 2827.36 1703.71L2831.48 1705.22C2833.73 1705.97 2836.2 1705.37 2837.84 1703.67 2837.15 1702.56 2837.15 1701.14 2837.84 1700.03 2838.46 1698.96 2838.46 1697.65 2837.84 1696.59 2837.84 1696.18 2837.84 1695.56 2837.84 1694.77 2839.55 1695.53 2841.46 1695.71 2843.28 1695.28 2846.67 1695 2850.01 1694.27 2853.21 1693.12 2854.2 1692.77 2855.1 1692.21 2855.86 1691.47 2856.98 1690.12 2858 1688.69 2858.88 1687.17 2859.81 1685.66 2859.67 1684.94 2858.19 1683.73 2857.27 1682.88 2856.51 1682.02 2857.16 1680.68 2857.82 1679.33 2857.16 1678.65 2856.17 1678.03 2855.17 1677.41 2854.28 1677.03 2853.45 1676.41 2853.02 1676.05 2852.73 1675.53 2852.66 1674.97 2852.66 1674.56 2853.18 1674.11 2853.55 1673.56 2854.53 1674.7 2855.94 1675.39 2857.44 1675.45 2858.13 1675.56 2858.78 1675.82 2859.36 1676.21 2860.51 1676.82 2861.82 1677.05 2863.11 1676.86 2863.68 1676.71 2864.29 1676.71 2864.86 1676.86 2867.06 1677.55 2869.46 1676.71 2870.74 1674.8 2872.22 1673.15 2873.42 1671.36 2875.04 1669.71 2875.37 1669.38 2875.61 1668.96 2875.73 1668.51 2876.21 1666.96 2877.34 1665.69 2877.31 1663.9 2877.37 1663.07 2877.78 1662.31 2878.44 1661.8 2879.49 1660.87 2880.29 1659.69 2880.78 1658.37 2881.5 1656.85 2882.46 1656.85 2884.22 1658.37 2884.63 1657.47 2885.04 1656.68 2885.42 1655.86 2886.18 1653.86 2887.46 1652.1 2889.13 1650.77 2890.74 1649.73 2891.74 1647.97 2891.81 1646.06 2891.81 1645.03 2891.64 1643.96 2891.64 1642.9 2891.64 1638.5 2891.19 1637.81 2895.25 1634.44 2897.34 1632.38 2899.86 1630.82 2902.64 1629.87 2904.02 1629.57 2905.31 1628.93 2906.39 1628.01 2907.69 1626.84 2909.43 1626.27 2911.17 1626.47 2913.28 1626.44 2915.39 1626.31 2917.49 1626.05 2917.8 1623.96 2919.73 1623.51 2920.93 1622.62 2921.26 1621.15 2921.79 1619.74 2922.51 1618.42 2923.71 1616.81 2924.5 1614.98 2925.64 1613.37 2926.25 1612.51 2926.56 1611.47 2926.5 1610.41 2926.39 1608.88 2926.8 1607.35 2927.67 1606.08 2928.08 1605.39 2928.36 1604.64 2928.49 1603.85 2928.77 1602.71 2928.8 1601.51 2929.11 1600.41 2929.52 1598.59 2929.6 1596.72 2929.35 1594.88 2928.84 1591.64 2929.27 1588.32 2930.59 1585.32 2932.86 1585.11 2932.89 1585.32 2933.82 1583.67 2934.35 1582.9 2934.79 1582.08 2935.16 1581.23 2935.97 1579.5 2937.14 1577.96 2938.6 1576.73 2939.94 1575.42 2941.24 1574.04 2942.52 1572.67 2945.39 1569.52 2946.34 1565.06 2944.99 1561.02ZM2797.18 1763.11C2798.9 1762.08 2798.9 1762.08 2801.44 1762.69 2800.12 1763.31 2798.63 1763.46 2797.21 1763.11Z" stroke="#00FFC2" stroke-width="3.42559" fill="#00FFC2"/><path d="M2809.97 1762.25C2810.69 1762.57 2811.44 1762.84 2812.2 1763.07 2813.18 1763.14 2813.94 1763.95 2813.95 1764.93 2813.95 1765.38 2814.07 1765.81 2814.3 1766.2 2817.06 1770.03 2821.07 1772.78 2825.64 1773.97 2825.64 1773.97 2825.64 1773.97 2825.64 1774.21 2823.66 1775.05 2821.5 1775.4 2819.35 1775.21L2818.49 1776.58 2815.78 1776.38 2815.29 1774.66C2813.92 1773.83 2813.54 1776.17 2812.3 1775.52L2809.97 1777.13C2808.38 1776.65 2808.8 1775.65 2808.9 1774.48L2805.46 1774.76 2802.68 1772.77C2804.09 1771.94 2805.33 1772.77 2806.53 1772.56L2809.97 1772.18C2809.97 1771.29 2809.07 1771.32 2808.63 1770.98 2807.11 1769.84 2807.11 1769.36 2808.8 1768.19 2809.21 1767.92 2809.55 1767.54 2810.38 1766.82 2809.41 1766.88 2808.43 1766.88 2807.46 1766.82 2807.02 1766.8 2806.62 1766.59 2806.36 1766.23 2806.32 1765.8 2806.46 1765.37 2806.73 1765.03 2807.14 1764.63 2807.58 1764.26 2808.04 1763.93L2809.79 1762.28Z" stroke="#00FFC2" stroke-width="3.42559" fill="#00FFC2"/><path d="M2849.05 1759.84C2849.46 1758.26 2851.11 1757.68 2851.46 1756.13L2853.28 1756.54C2853.79 1756.54 2854.34 1756.54 2854.93 1756.54 2854.93 1756.95 2854.93 1757.47 2854.93 1757.61 2853.16 1758.77 2851.15 1759.53 2849.05 1759.84Z" stroke="#00FFC2" stroke-width="3.42559" fill="#00FFC2"/><path d="M2798.42 1767.27C2798.42 1768.13 2799.14 1769.09 2797.93 1769.98 2796.9 1769.4 2795.25 1769.98 2794.7 1768.13 2795.46 1766.72 2796.97 1768.13 2797.87 1767.3L2798.48 1767.3Z" stroke="#00FFC2" stroke-width="3.42559" fill="#00FFC2"/><path d="M2848.6 1757.19C2848.05 1759.02 2846.4 1759.39 2844.62 1760.18 2845.17 1759.29 2845.61 1758.67 2845.96 1758.02 2846.71 1756.61 2846.71 1756.58 2848.6 1757.19Z" stroke="#00FFC2" stroke-width="3.42559" fill="#00FFC2"/><path d="M2832.79 1711.78C2832.79 1712.27 2832.79 1712.61 2832.55 1712.92 2832.31 1713.23 2831.45 1713.74 2831.14 1713.4 2830.89 1713.06 2830.75 1712.65 2830.73 1712.23 2830.75 1712 2830.86 1711.8 2831.04 1711.65 2831.35 1711.34 2831.73 1710.89 2832.03 1710.93 2832.34 1710.96 2832.58 1711.51 2832.79 1711.78Z" stroke="#00FFC2" stroke-width="3.42559" fill="#00FFC2"/><path d="M2806.05 1769.5 2805.46 1770.98C2804.74 1770.77 2804.88 1770.29 2805.02 1769.91 2805.15 1769.53 2805.43 1769.47 2805.63 1769.23Z" stroke="#00FFC2" stroke-width="3.42559" fill="#00FFC2"/><path d="M2802.44 1771.12 2800.41 1770.63C2800.41 1769.6 2801.06 1769.88 2801.51 1770.19 2801.85 1770.46 2802.14 1770.78 2802.37 1771.15Z" stroke="#00FFC2" stroke-width="3.42559" fill="#00FFC2"/><path d="M2813.4 1776.1C2813.64 1776.68 2813.88 1776.96 2813.88 1777.23 2813.88 1777.51 2813.44 1777.61 2813.16 1777.65 2812.89 1777.68 2812.75 1777.41 2812.75 1777.34 2812.94 1776.91 2813.15 1776.5 2813.4 1776.1Z" stroke="#00FFC2" stroke-width="3.42559" fill="#00FFC2"/></g></g></g></g></svg>