<svg width="146" height="146" xmlns="http://www.w3.org/2000/svg" xmlns:xlink="http://www.w3.org/1999/xlink" xml:space="preserve" overflow="hidden"><g transform="translate(-1114 -437)"><path d="M1183.26 449.933C1184.03 449.867 1185.02 449.902 1185.8 449.884 1190.35 449.777 1194.7 450.135 1199.18 450.947 1212 453.33 1223.83 459.446 1233.18 468.528 1246.07 481.135 1253.33 498.414 1253.3 516.446 1253.37 531.764 1247.96 548.108 1237.51 559.584 1234.84 562.516 1230.83 562.242 1227.19 562.254L1219.47 562.267 1190.89 562.276 1157.71 562.276 1148.09 562.275C1144.54 562.273 1139.86 562.679 1137.1 560.154 1135.19 558.411 1133.25 555.835 1131.82 553.693 1125.37 544.053 1121.58 532.89 1120.8 521.321 1119.58 503.671 1125.3 486.242 1136.76 472.761 1145.95 462.14 1158.28 454.711 1171.96 451.543 1175.92 450.635 1179.25 450.237 1183.26 449.933ZM1188.34 560.19 1218.55 560.193 1226.74 560.198C1229.97 560.203 1233.63 560.665 1236.05 558.102 1238.17 555.85 1239.97 553.34 1241.6 550.715 1248.11 540.212 1251.48 528.068 1251.31 515.715 1251.07 498.56 1244.07 482.192 1231.85 470.156 1219.64 458.331 1203.29 451.758 1186.29 451.844 1186.1 451.847 1185.86 451.844 1185.66 451.857 1181.92 452.068 1178.88 452.328 1175.14 453.037 1161.23 455.642 1148.57 462.764 1139.12 473.297 1127.69 486.172 1121.81 503.052 1122.78 520.247 1123.55 533.627 1128.52 547.107 1137.22 557.37 1140.13 560.814 1143.63 560.199 1147.74 560.198L1157.05 560.193 1188.34 560.19Z" stroke="#00FFC2" stroke-width="2.01379" fill="#00FFC2"/><path d="M1184.07 458.561C1188.64 458.337 1193.22 458.639 1197.72 459.462 1212.86 462.3 1226.21 471.096 1234.8 483.874 1243.42 496.668 1246.63 512.35 1243.74 527.502 1242.19 535.498 1238.97 543.078 1234.3 549.75 1233.62 550.737 1232.07 552.91 1231.13 553.547 1229.47 553.675 1227.42 553.626 1225.72 553.627L1217.17 553.631 1190.03 553.627 1158.86 553.631 1149.01 553.628C1147.26 553.628 1145.46 553.656 1143.71 553.584 1143.16 553.562 1142.79 553.495 1142.4 553.093 1141.08 551.731 1139.76 549.876 1138.72 548.311 1133.17 539.977 1129.93 530.324 1129.31 520.332 1128.3 504.692 1133.61 489.301 1144.04 477.605 1154.38 465.971 1168.61 459.469 1184.07 458.561ZM1131.38 512.41 1140.62 512.398C1142.13 512.397 1143.84 512.355 1145.33 512.4 1145.39 508.864 1146.82 503.119 1148.15 499.868 1149.11 499.982 1149.3 499.987 1150.17 500.391 1148.4 505.323 1147.93 507.187 1147.34 512.396L1177.89 512.364C1178.1 510.494 1178.54 509.12 1179.65 507.567 1182.25 503.935 1187.36 502.8 1191.31 504.899 1193.99 501.194 1196.93 497.445 1199.67 493.75L1203.58 488.454C1204.26 487.538 1204.93 486.616 1205.64 485.722 1206.06 485.193 1206.24 485.155 1206.9 485.19 1207.51 485.493 1207.83 486.017 1207.42 486.662 1206.92 487.434 1206.33 488.188 1205.78 488.929L1202.84 492.925 1193.04 506.109C1194.85 507.767 1195.96 509.936 1196.08 512.407L1217.06 512.399C1220.16 512.399 1223.61 512.478 1226.67 512.382 1226.08 507.243 1225.08 502.809 1222.78 498.151 1222.45 497.482 1224.17 497.401 1224.59 497.366 1225.03 498.045 1225.5 499.167 1225.82 499.933 1227.42 503.919 1228.4 508.131 1228.72 512.418 1233.29 512.344 1238.1 512.517 1242.63 512.389 1242.38 509.987 1242.12 507.849 1241.63 505.477 1239.09 492.701 1232.18 481.211 1222.07 472.987 1211.45 464.36 1198.02 459.939 1184.35 460.565 1169.44 461.289 1155.44 467.978 1145.52 479.126 1137.22 488.333 1132.25 500.049 1131.38 512.41ZM1186.96 505.91C1183.02 505.933 1179.84 509.156 1179.89 513.098 1179.93 517.04 1183.17 520.196 1187.11 520.136 1191.02 520.077 1194.15 516.865 1194.11 512.95 1194.07 509.034 1190.87 505.888 1186.96 505.91ZM1196.04 514.378C1195.75 515.89 1195.47 516.79 1194.59 518.1 1191.03 523.434 1183.01 523.512 1179.38 518.118 1178.64 517.006 1178.16 515.743 1177.97 514.422 1166.02 514.289 1153.99 514.495 1142.03 514.414 1138.45 514.389 1134.83 514.457 1131.26 514.411 1131.25 516.647 1131.22 518.688 1131.4 520.923 1132.08 529.351 1134.66 537.513 1138.96 544.793 1140.26 546.981 1142.06 549.706 1143.81 551.583L1170.28 551.619 1230.26 551.624C1238.54 541.718 1243.45 527.34 1242.72 514.42 1234.43 514.3 1225.99 514.419 1217.69 514.397L1203.38 514.374C1201.01 514.372 1198.41 514.318 1196.04 514.378Z" stroke="#00FFC2" stroke-width="2.01379" fill="#00FFC2"/><path d="M1154.44 481.421C1155.73 481.319 1155.52 482.151 1155.49 483.136 1155.59 483.186 1155.68 483.239 1155.77 483.294 1156.41 483.673 1157.12 484.394 1157.69 484.886 1158.21 485.329 1159.36 486.086 1159.5 486.731 1159.62 487.32 1159.5 487.933 1159.16 488.43 1158.35 489.611 1157.28 489.459 1156.26 488.715 1156 488.75 1155.69 488.823 1155.42 488.876 1157.16 490.636 1158.43 490.967 1157.89 493.8 1158.59 494.497 1158.62 494.588 1158.84 495.532 1159.21 495.811 1159.26 495.869 1159.54 496.235 1159.56 496.424 1159.57 496.612 1159.59 496.801 1159.74 498.989 1157.75 498.475 1156.17 498.464L1152.02 498.484C1151.19 498.491 1150.36 498.509 1149.54 498.478 1148.26 498.429 1148.3 497.677 1148.36 496.638 1148.39 496.037 1148.7 495.854 1149.13 495.503 1149.22 494.712 1149.82 493.795 1150.31 493.167 1149.89 493.162 1149.52 493.196 1149.15 493.023 1148.75 492.576 1148.48 490.548 1148.36 489.893 1147.64 486.09 1149.32 482.046 1153.6 481.753 1153.96 481.728 1154.14 481.607 1154.44 481.421ZM1153.43 484.401C1148.89 486.932 1152.37 490.546 1151.61 493.288 1152.94 493.283 1155.53 493.228 1156.77 493.318 1156.8 492.413 1156.81 492.025 1156.14 491.305 1156.06 491.217 1155.97 491.13 1155.89 491.045 1155.15 490.386 1152.68 488.243 1153.48 487.177 1153.96 486.983 1154.34 487.408 1154.73 487.693 1155.37 487.637 1156.12 487.554 1156.75 487.552 1157.1 487.792 1157.45 488.039 1157.79 488.293 1158.12 487.77 1158.23 487.578 1158.34 486.947 1157.89 486.647 1157.43 486.34 1157.02 485.985 1156 485.102 1155.59 484.468 1154.29 483.956 1154.32 483.699 1154.37 483.408 1154.3 483.169L1154.23 483.1C1153.84 483.557 1153.69 483.858 1153.43 484.401ZM1152.31 483.323C1148.79 485.011 1149.11 488.519 1150.02 491.79 1150.07 491.977 1150.26 491.995 1150.43 492.008 1149.93 489.027 1148.88 485.665 1152.17 483.617 1152.28 483.551 1152.5 483.454 1152.5 483.342L1152.31 483.323ZM1150.34 495.492C1152.56 495.51 1154.77 495.515 1156.99 495.508 1157.31 495.501 1157.33 495.558 1157.51 495.399 1157.52 495.147 1157.47 495.074 1157.28 494.863 1157.17 494.75 1157.06 494.641 1156.95 494.535L1150.97 494.528C1150.7 494.898 1150.56 495.085 1150.34 495.492ZM1156.85 496.705 1152 496.723C1151.52 496.725 1149.79 496.613 1149.51 496.879L1149.51 497.163C1149.69 497.335 1150.87 497.263 1151.23 497.261 1152.11 497.262 1158.13 497.389 1158.43 497.121 1158.43 496.857 1158.47 496.971 1158.29 496.768 1157.94 496.634 1157.26 496.707 1156.85 496.705Z" stroke="#00FFC2" stroke-width="2.01379" fill="#00FFC2"/><path d="M1217.76 479.452C1219.15 479.378 1218.53 480.204 1218.91 480.574 1219.12 480.36 1219.33 479.432 1219.69 479.448 1220.5 479.485 1222.16 479.12 1222.02 480.432 1222.01 480.561 1222.02 480.537 1222.11 480.636L1222.25 480.62C1222.47 480.35 1222.3 479.602 1222.67 479.529 1223.09 479.449 1224.57 479.365 1224.9 479.555 1225.23 480.224 1225.15 480.929 1225.16 481.65 1225.18 482.99 1225.22 484.042 1223.65 484.308 1223.68 484.61 1223.7 484.914 1223.71 485.219 1223.77 486.711 1223.98 488.178 1224.19 489.656 1224.96 490.082 1224.83 490.341 1224.78 491.153 1224.88 491.287 1224.97 491.424 1225.06 491.564 1225.77 492.641 1227.25 494.865 1225.74 495.807 1225.33 495.846 1224.92 495.862 1224.5 495.862 1221.61 495.865 1218.7 495.886 1215.8 495.842 1215.07 495.831 1214.79 495.289 1214.66 494.654 1214.5 493.836 1215.03 493.52 1215.31 492.925 1215.67 492.166 1215.83 491.864 1216.32 491.214 1216.25 490.373 1216.04 490.126 1216.92 489.746 1217.27 488.028 1217.37 486.138 1217.37 484.392 1216.67 484.109 1216.38 483.873 1216.02 483.221 1216.02 482.46 1215.92 480.176 1216.15 479.63 1216.49 479.4 1217.32 479.452 1217.76 479.452ZM1218.13 489.818C1219.7 489.913 1221.11 489.83 1222.66 489.821L1222.93 489.82 1223 489.749C1222.69 487.963 1222.49 486.064 1222.5 484.249 1221.21 484.162 1219.88 484.25 1218.58 484.201 1218.53 485.867 1218.49 488.208 1218.13 489.818ZM1216 494.056C1215.89 494.302 1215.9 494.31 1215.89 494.568L1215.96 494.669C1218.46 494.761 1221.07 494.596 1223.58 494.676 1224.05 494.691 1224.59 494.686 1225.07 494.669L1225.18 494.595C1225.23 494.276 1225.26 494.361 1225.15 494.097 1224.75 494.005 1221.61 494.044 1221.04 494.059 1219.44 494.101 1217.57 494.003 1216 494.056ZM1217.38 480.603C1217.11 480.992 1217.23 482.45 1217.23 483.024 1219.31 483.007 1221.92 483.1 1223.93 482.995L1223.93 481.181C1223.91 480.829 1223.97 480.933 1223.76 480.728L1223.63 480.725C1223.44 481.159 1223.71 481.566 1223.3 481.712 1222.76 481.904 1221.56 481.914 1221.04 481.756 1220.62 481.345 1220.94 481.037 1220.65 480.769L1220.48 480.775C1220.11 481.228 1220.55 481.727 1219.81 481.771 1219.19 481.807 1218.39 481.852 1217.79 481.708 1217.32 481.261 1217.71 480.913 1217.38 480.603ZM1223.59 492.874 1224.46 492.868C1224.07 492.215 1223.78 491.816 1223.55 491.09 1221.71 490.991 1219.41 491.036 1217.54 491.048 1217.42 491.952 1216.96 492.097 1216.6 492.871 1218.89 492.833 1221.28 492.878 1223.59 492.874Z" stroke="#00FFC2" stroke-width="2.01379" fill="#00FFC2"/><path d="M1186.71 463.311C1187.9 463.278 1188.5 463.824 1188.35 465.03 1188.86 465.408 1188.96 465.547 1189.37 466.036 1191.6 466.686 1190.23 467.854 1189.59 469.265L1189.79 470.135C1190.26 470.451 1190.62 471.01 1190.18 471.55 1189.89 471.893 1189.58 471.862 1189.17 471.875 1189.27 472.676 1189.68 475.591 1190.62 476.036 1191.23 476.325 1191.06 476.777 1191.04 477.305 1191.59 478.039 1193.35 480.67 1192.29 481.498 1191.4 482.193 1188.63 481.893 1187.41 481.876 1185.83 481.851 1184.2 481.967 1182.65 481.871 1181.2 481.751 1181.16 479.806 1182.14 479.059 1182.01 479.156 1182.97 477.395 1183.05 477.286 1182.99 476.411 1182.93 476.179 1183.81 475.929 1184.34 474.873 1184.84 473.376 1184.9 472.172 1184.93 471.642 1184.3 471.897 1183.87 471.502 1183.51 470.878 1184.2 470.217 1184.42 469.352L1184.45 469.232C1183.83 467.681 1182.34 466.391 1184.98 465.984 1185.27 465.521 1185.46 465.366 1185.86 465.019 1185.8 464.058 1185.83 463.764 1186.71 463.311ZM1185.21 476.072 1188.23 476.073 1189.02 476.066C1188.31 474.556 1188.12 473.515 1188.02 471.867 1187.4 471.856 1186.79 471.854 1186.17 471.859 1186 473.33 1185.82 474.692 1185.21 476.072ZM1185.49 470.377 1185.24 470.623 1185.27 470.704C1186.14 470.764 1187.67 470.653 1188.66 470.654L1188.83 470.627 1188.81 470.531C1188.39 470.386 1186.15 470.403 1185.49 470.377ZM1191.32 480.795C1191.44 480.571 1191.42 480.558 1191.41 480.311 1191.32 480.174 1191.35 480.157 1191.19 480.139 1190.14 480.025 1188.78 480.078 1187.72 480.086L1183 480.09C1182.7 480.187 1182.81 480.098 1182.66 480.375 1182.67 480.614 1182.63 480.517 1182.8 480.679 1183.21 480.736 1184.14 480.708 1184.58 480.707L1188.64 480.699C1189.37 480.7 1190.65 480.664 1191.32 480.795ZM1186.06 467.167C1185.59 467.357 1185.37 467.345 1184.87 467.337 1185.26 468.022 1185.53 468.515 1185.75 469.277 1186.57 469.275 1187.6 469.243 1188.4 469.275 1188.64 468.641 1188.88 468.011 1189.13 467.384 1188.9 467.259 1188.56 467.28 1188.28 467.271 1186.99 467.93 1187.27 467.702 1186.06 467.167ZM1184.25 477.209C1184.22 478.034 1183.73 478.146 1183.56 478.812 1183.92 479 1189.29 478.904 1190.15 478.91L1190.55 478.888 1190.6 478.796C1190.29 478.1 1190.03 478.373 1189.85 477.374 1189.63 477.238 1185 477.281 1184.25 477.209Z" stroke="#00FFC2" stroke-width="2.01379" fill="#00FFC2"/><path d="M1192.58 474.733C1193.04 474.777 1193.5 474.838 1193.96 474.914 1200.87 476.037 1207.38 478.887 1212.9 483.201 1213.66 483.799 1215.22 485.017 1215.76 485.753 1215.52 486.054 1215.25 486.363 1215 486.659 1214.86 486.816 1214.65 487.02 1214.5 487.174 1214.02 486.872 1213.11 486.057 1212.65 485.667 1211.76 484.925 1210.84 484.223 1209.9 483.562 1206.08 480.917 1201.84 478.955 1197.35 477.765 1195.75 477.332 1194.11 477.009 1192.49 476.659 1192.58 476.109 1192.47 474.91 1192.58 474.733Z" stroke="#00FFC2" stroke-width="2.01379" fill="#00FFC2"/><path d="M1181.51 474.754 1181.56 474.803C1181.47 475.503 1181.5 476.052 1181.53 476.756 1175.63 477.556 1169.99 479.689 1165.04 482.994 1164.36 483.454 1161.3 485.855 1160.96 485.95 1160.68 485.831 1160.53 485.603 1160.32 485.366 1160.13 485.146 1159.75 484.777 1159.54 484.559 1160.04 484.033 1161.37 483.038 1161.97 482.573 1166.88 478.736 1175.24 475.17 1181.51 474.754Z" stroke="#00FFC2" stroke-width="2.01379" fill="#00FFC2"/><path d="M1186.73 525.185C1186.8 525.183 1186.87 525.181 1186.93 525.181 1188.27 525.179 1188.02 526.623 1188.01 527.577 1189.38 527.656 1191.08 528.361 1192.18 529.175 1194.45 530.868 1195.35 532.703 1195.8 535.395 1196.75 535.375 1198.37 535.087 1198.16 536.55 1198.02 537.505 1196.51 537.266 1195.8 537.244 1195.51 541.291 1191.99 544.841 1187.92 545.043 1187.94 546.088 1188.28 546.974 1187.2 547.506 1185.72 547.454 1186.16 546.162 1186.08 545.04 1181.76 544.615 1178.82 541.483 1178.25 537.246 1177.74 537.264 1174.99 537.556 1176.14 535.657 1176.36 535.301 1177.75 535.381 1178.27 535.391 1178.93 531.143 1181.77 528.08 1186.12 527.59 1186.13 526.587 1185.78 525.787 1186.73 525.185ZM1180.15 535.381C1180.78 535.369 1181.53 535.317 1182.1 535.434 1182.92 535.602 1182.95 536.624 1182.42 537.072 1182.08 537.357 1180.6 537.241 1180.19 537.23 1180.39 538.966 1181.26 540.554 1182.62 541.658 1183.75 542.575 1184.69 542.841 1186.07 543.154L1186.08 543.061C1186.14 542.506 1186 541.043 1186.4 540.83 1188.51 539.723 1187.73 542.936 1188.14 543.139L1188.3 543.103C1191.27 542.389 1193.48 540.343 1193.91 537.235 1193.27 537.244 1190.33 537.6 1191.57 535.637 1191.81 535.253 1193.42 535.399 1193.95 535.371 1193.11 532.01 1191.31 530.264 1187.94 529.483 1187.95 529.869 1187.96 530.258 1187.95 530.644 1187.95 531.065 1188 531.496 1187.68 531.818 1187.33 532.163 1186.62 532.17 1186.31 531.76 1185.92 531.176 1186.22 530.239 1186.07 529.575 1186.03 529.564 1185.99 529.553 1185.95 529.542 1182.75 530.385 1180.82 532.019 1180.15 535.381Z" stroke="#00FFC2" stroke-width="2.01379" fill="#00FFC2"/><path d="M1186.68 534.62C1187.64 534.42 1188.57 535.034 1188.77 535.989 1188.97 536.945 1188.35 537.878 1187.39 538.071 1186.44 538.263 1185.51 537.65 1185.32 536.699 1185.12 535.748 1185.73 534.818 1186.68 534.62Z" stroke="#00FFC2" stroke-width="2.01379" fill="#00FFC2"/><path d="M1162.04 528.762C1164.03 528.61 1165.51 529.719 1165.21 531.881 1165.2 531.998 1164.86 532.789 1164.91 532.844 1165.83 533.774 1166.1 534.647 1164.48 534.869 1164.62 535.971 1164.86 537.097 1165.33 538.103 1165.7 538.892 1166.66 539.104 1166.69 540.008 1166.7 540.049 1166.9 540.39 1166.95 540.493 1167.34 541.215 1167.81 542.612 1167.16 543.302 1166.51 543.831 1164.19 543.626 1163.36 543.616 1162.06 543.624 1160.76 543.635 1159.46 543.629 1158.97 543.627 1158.18 543.625 1157.8 543.221 1157.48 542.879 1157.65 541.462 1157.78 541.037 1157.85 540.79 1158.55 540.208 1158.48 539.829 1158.46 539.709 1158.5 539.52 1158.53 539.402 1158.71 539.168 1159.1 539.018 1159.38 538.881 1160.23 537.444 1160.34 536.515 1160.65 534.909 1159.26 534.637 1159.29 533.629 1160.27 532.812 1159.3 531.135 1160.14 529.23 1162.04 528.762ZM1165.56 542.37 1166.24 542.367C1166.06 541.396 1166.03 541.311 1165.43 540.517L1159.64 540.525C1159.29 540.931 1158.71 541.748 1158.91 542.304 1159.14 542.413 1164.82 542.367 1165.56 542.37ZM1160.58 539.24 1163.35 539.242 1164.59 539.253C1163.63 537.742 1163.42 536.603 1163.28 534.82L1161.92 534.809C1161.75 536.488 1161.52 537.807 1160.58 539.24ZM1162.66 532.735C1163.42 532.711 1164.03 532.081 1164.02 531.316 1164.02 530.535 1163.38 529.908 1162.6 529.916 1162.09 529.922 1161.62 530.199 1161.38 530.642 1161.13 531.086 1161.14 531.627 1161.41 532.06 1161.67 532.493 1162.15 532.75 1162.66 532.735Z" stroke="#00FFC2" stroke-width="2.01379" fill="#00FFC2"/><path d="M1217.81 523.474C1218.01 523.466 1218.44 523.468 1218.57 523.637 1219.42 524.813 1220.27 526.056 1221.01 527.308 1221.43 528.017 1221.22 529.057 1220.2 528.87 1219.65 528.769 1219.26 528.105 1218.95 527.678 1218.93 529.187 1219.1 530.984 1218.63 532.387 1217.94 534.477 1216.13 535.262 1214.12 535.658 1213.41 535.798 1212.56 536 1211.9 536.328 1209.8 537.373 1210.32 540.06 1210.29 541.98 1210.27 542.841 1210.53 543.684 1209.61 544.112 1207.79 544.1 1208.57 542.131 1208.44 540.891 1208.13 537.992 1209.08 534.682 1212.35 534.11 1217.39 533.228 1217.12 532.083 1217.07 527.68 1216.62 528.289 1215.64 529.631 1214.89 528.48 1214.75 528.26 1214.7 527.989 1214.77 527.733 1214.92 527.158 1216.87 524.48 1217.38 523.802 1217.44 523.715 1217.7 523.541 1217.81 523.474Z" stroke="#00FFC2" stroke-width="2.01379" fill="#00FFC2"/><path d="M1227.86 523.476C1228.03 523.469 1228.22 523.453 1228.38 523.5 1228.85 523.631 1231.16 527.246 1231.5 527.821 1231.4 528.352 1231.17 529.051 1230.44 528.91 1229.81 528.789 1229.47 528.212 1229.13 527.721 1228.87 531.73 1230.26 536.62 1224.69 537.371 1220.39 537.95 1221.78 540.569 1221.33 543.559 1221.29 543.828 1220.98 544.002 1220.75 544.114 1219.5 544.158 1219.54 543.418 1219.52 542.439 1219.47 539.6 1219.64 536.831 1222.79 535.811 1224.39 535.298 1226.81 535.51 1227.1 533.292 1227.33 531.533 1227.22 529.448 1227.21 527.653 1226.87 528.162 1226.5 528.915 1225.8 528.886 1225.53 528.874 1225.28 528.754 1225.09 528.552 1224.95 528.39 1224.78 527.945 1224.88 527.778 1225.35 526.936 1227.16 523.921 1227.86 523.476Z" stroke="#00FFC2" stroke-width="2.01379" fill="#00FFC2"/><path d="M1142.42 536.028C1143.95 535.921 1147.16 536.016 1148.61 536.107 1149.64 536.171 1149.15 542.253 1149.11 543.19 1149.1 543.406 1148.78 543.555 1148.6 543.634L1144.56 543.657C1143.87 543.659 1143 543.685 1142.32 543.59 1141.62 543.491 1141.78 541.554 1141.78 540.986 1141.8 539.54 1141.72 538.046 1141.84 536.607 1141.86 536.347 1142.23 536.142 1142.42 536.028ZM1143.64 541.78C1144.84 541.782 1146.07 541.771 1147.27 541.787 1147.42 541.543 1147.36 538.51 1147.36 537.95 1146.12 537.937 1144.87 537.936 1143.63 537.946 1143.63 539.102 1143.58 540.653 1143.64 541.78Z" stroke="#00FFC2" stroke-width="2.01379" fill="#00FFC2"/><path d="M1145.34 523.448C1147.59 523.335 1149.5 525.064 1149.62 527.311 1149.73 529.558 1148.01 531.474 1145.76 531.592 1143.51 531.711 1141.59 529.981 1141.47 527.73 1141.36 525.479 1143.09 523.561 1145.34 523.448ZM1145.69 529.687C1146.45 529.635 1147.13 529.176 1147.46 528.485 1147.8 527.793 1147.73 526.977 1147.29 526.347 1146.85 525.718 1146.11 525.372 1145.35 525.444 1144.19 525.553 1143.33 526.573 1143.42 527.734 1143.52 528.895 1144.53 529.765 1145.69 529.687Z" stroke="#00FFC2" stroke-width="2.01379" fill="#00FFC2"/><path d="M1156.02 535.498C1156.87 535.491 1158.37 535.434 1159.19 535.495 1158.81 536.982 1158.83 537.474 1157.57 538.419 1157.25 538.848 1157.16 539.133 1157.02 539.653L1156.05 539.649C1156.02 541.013 1156.09 542.459 1155.99 543.793 1155.37 543.708 1152.61 543.757 1151.88 543.78 1151.93 542.703 1151.96 540.681 1151.91 539.605 1152.93 539.736 1154.88 539.582 1156.04 539.647 1156.06 538.264 1156.05 536.881 1156.02 535.498Z" stroke="#00FFC2" stroke-width="2.01379" fill="#00FFC2"/><path d="M1151.93 531.314C1152.63 531.403 1153.95 531.37 1154.69 531.357L1156 531.321C1156.01 532.431 1155.95 534.465 1156.04 535.491 1154.65 535.484 1153.27 535.489 1151.88 535.506 1151.91 536.842 1151.86 538.295 1151.91 539.605 1151.48 539.599 1151.05 539.588 1150.63 539.587 1150.65 538.361 1150.79 536.56 1150.21 535.488L1151.92 535.498C1151.92 534.103 1151.92 532.709 1151.93 531.314Z" stroke="#00FFC2" stroke-width="2.01379" fill="#00FFC2"/><path d="M1160.2 522.976 1164.4 522.978C1164.28 523.857 1164.34 526.131 1164.35 527.125 1163.55 527.126 1160.86 527.071 1160.2 527.163L1160.2 522.976Z" stroke="#00FFC2" stroke-width="2.01379" fill="#00FFC2"/><path d="M1151.87 522.97C1153.26 522.993 1154.65 522.997 1156.04 522.98 1156.05 524.122 1156 525.993 1156.09 527.079 1155.22 527.199 1152.98 527.089 1151.92 527.136 1151.9 526.002 1151.99 524.015 1151.87 522.97Z" stroke="#00FFC2" stroke-width="2.01379" fill="#00FFC2"/><path d="M1156.05 527.163 1160.2 527.163C1160.22 527.453 1160.21 527.794 1160.21 528.089 1159 529.103 1158.72 529.709 1158.53 531.262 1157.67 531.245 1156.92 531.257 1156.06 531.285L1156.05 527.163Z" stroke="#00FFC2" stroke-width="2.01379" fill="#00FFC2"/><path d="M1150.94 527.188 1151.89 527.186C1151.83 528.377 1151.85 530.098 1151.89 531.287L1151.3 531.274C1150.94 531.276 1150.42 531.314 1150.12 531.156 1150 530.66 1150.72 529.401 1150.83 528.722 1150.95 527.986 1150.95 527.967 1150.94 527.188Z" stroke="#00FFC2" stroke-width="2.01379" fill="#00FFC2"/></g></svg>