<svg width="146" height="145" xmlns="http://www.w3.org/2000/svg" xmlns:xlink="http://www.w3.org/1999/xlink" xml:space="preserve" overflow="hidden"><g transform="translate(-60 -575)"><path d="M68.79 12.844C69.555 12.7791 70.5286 12.8139 71.3089 12.7956 75.8265 12.6896 80.1445 13.0453 84.5996 13.8517 97.3293 16.2181 109.076 22.2923 118.365 31.3118 131.169 43.833 138.375 60.9935 138.349 78.9019 138.416 94.1146 133.044 110.347 122.667 121.744 120.015 124.656 116.03 124.384 112.416 124.396L104.748 124.409 76.3586 124.418 43.4077 124.418 33.8555 124.417C30.3291 124.415 25.6855 124.818 22.9412 122.31 21.0477 120.58 19.1226 118.022 17.6934 115.894 11.2955 106.32 7.52451 95.2331 6.75781 83.7439 5.53862 66.2147 11.2275 48.9047 22.6075 35.5162 31.7336 24.9682 43.9724 17.5895 57.5609 14.4432 61.4995 13.5415 64.8065 13.1468 68.79 12.844ZM73.8275 122.346 103.836 122.349 111.966 122.355C115.175 122.359 118.815 122.818 121.215 120.272 123.323 118.036 125.109 115.544 126.729 112.936 133.19 102.505 136.535 90.4443 136.37 78.1754 136.127 61.1382 129.182 44.8825 117.04 32.929 104.918 21.1853 88.6776 14.6569 71.7998 14.7424 71.6018 14.7448 71.3659 14.7423 71.1716 14.7547 67.4523 14.9646 64.4347 15.2227 60.7178 15.9272 46.9058 18.5145 34.3336 25.5871 24.951 36.0481 13.5918 48.8357 7.75495 65.5992 8.71562 82.6765 9.48477 95.9655 14.4233 109.352 23.0584 119.546 25.9557 122.966 29.4247 122.355 33.5062 122.354L42.7591 122.349 73.8275 122.346Z" stroke="#A6A6A6" stroke-width="1.99999" fill="#999999" transform="matrix(1.0069 0 0 1 60 575)"/><path d="M69.5851 21.4128C74.1264 21.1907 78.6784 21.491 83.1511 22.3079 98.1785 25.1271 111.445 33.862 119.972 46.5526 128.532 59.2588 131.723 74.8336 128.85 89.8826 127.31 97.8236 124.117 105.352 119.477 111.978 118.796 112.958 117.264 115.117 116.327 115.749 114.678 115.876 112.643 115.827 110.957 115.829L102.466 115.832 75.509 115.828 44.5551 115.832 34.7694 115.83C33.0303 115.829 31.2428 115.857 29.5082 115.786 28.965 115.763 28.5946 115.698 28.2069 115.298 26.8944 113.946 25.5788 112.103 24.5482 110.549 19.0397 102.271 15.8162 92.685 15.2039 82.7609 14.2053 67.228 19.4755 51.9431 29.8352 40.3264 40.1062 28.7729 54.2311 22.3156 69.5851 21.4128ZM17.2635 74.8931 26.4362 74.8813C27.9332 74.8805 29.6328 74.839 31.1162 74.8833 31.171 71.3719 32.5954 65.6659 33.9207 62.4371 34.8722 62.5502 35.0545 62.556 35.9191 62.9572 34.1679 67.8552 33.693 69.7062 33.1127 74.88L63.4478 74.8473C63.6643 72.9904 64.1003 71.6262 65.2033 70.084 67.7835 66.4764 72.8617 65.3497 76.7789 67.4341 79.4385 63.754 82.366 60.0308 85.0838 56.3612L88.97 51.1012C89.6436 50.1922 90.3098 49.2761 91.0113 48.3887 91.4267 47.8632 91.6111 47.8249 92.2601 47.8599 92.8673 48.1612 93.1896 48.6815 92.7778 49.3221 92.285 50.0886 91.6952 50.8377 91.1518 51.573L88.2315 55.5418 78.4948 68.6356C80.296 70.2822 81.3975 72.4368 81.5216 74.8909L102.358 74.8827C105.428 74.8827 108.859 74.9613 111.895 74.866 111.316 69.7623 110.317 65.3585 108.034 60.7326 107.705 60.0672 109.419 59.9872 109.83 59.9527 110.266 60.6266 110.739 61.7417 111.05 62.5024 112.648 66.4607 113.62 70.6437 113.93 74.9011 118.474 74.8279 123.247 74.9994 127.746 74.8728 127.502 72.4873 127.243 70.3638 126.759 68.0081 124.236 55.3195 117.366 43.9081 107.334 35.7401 96.7803 27.1725 83.4461 22.782 69.8668 23.4038 55.0578 24.1228 41.1598 30.7656 31.2992 41.8376 23.0626 50.981 18.1219 62.6169 17.2635 74.8931ZM72.4588 68.4383C68.5439 68.4605 65.3936 71.662 65.4344 75.5767 65.4752 79.4914 68.6916 82.6265 72.6062 82.567 76.4944 82.508 79.6039 79.3178 79.5634 75.4295 79.5227 71.5409 76.3475 68.4164 72.4588 68.4383ZM81.4826 76.8477C81.1908 78.3496 80.91 79.2431 80.0409 80.5447 76.5035 85.8424 68.5364 85.9199 64.9281 80.5628 64.1969 79.4577 63.721 78.2038 63.5349 76.8919 51.6638 76.7601 39.7164 76.9647 27.8373 76.8833 24.2833 76.8589 20.6881 76.926 17.1397 76.8803 17.1288 79.1019 17.1063 81.1282 17.2791 83.3481 17.9514 91.718 20.52 99.825 24.7906 107.055 26.0817 109.228 27.8689 111.934 29.6073 113.798L55.8972 113.834 115.459 113.839C123.686 104 128.562 89.7212 127.835 76.8902 119.603 76.7708 111.227 76.8884 102.984 76.8673L88.7687 76.8443C86.4091 76.8424 83.8273 76.7883 81.4826 76.8477Z" stroke="#A6A6A6" stroke-width="1.99999" fill="#999999" transform="matrix(1.0069 0 0 1 60 575)"/><path d="M40.1589 44.1167C41.4393 44.0153 41.2341 44.8422 41.2093 45.82 41.3039 45.8696 41.3971 45.9218 41.4887 45.9766 42.1175 46.3534 42.8243 47.0696 43.3949 47.5583 43.9082 47.998 45.0481 48.7496 45.187 49.3903 45.3098 49.9749 45.1886 50.5842 44.8516 51.0772 44.0508 52.251 42.9864 52.0993 41.9754 51.3612 41.715 51.396 41.4023 51.4682 41.1402 51.521 42.8665 53.2687 44.1226 53.5973 43.5844 56.4105 44.2818 57.1032 44.3182 57.1933 44.5378 58.1307 44.8992 58.408 44.9521 58.4657 45.2275 58.8296 45.2462 59.0166 45.2625 59.2038 45.2762 59.3911 45.4309 61.5648 43.4513 61.0538 41.8787 61.0429L37.7556 61.0627C36.9355 61.0696 36.1141 61.0879 35.2989 61.0569 34.0273 61.0086 34.0692 60.2614 34.1254 59.23 34.158 58.633 34.4638 58.4509 34.8902 58.1025 34.9783 57.3172 35.576 56.406 36.0584 55.7821 35.641 55.7777 35.2754 55.8114 34.9044 55.6398 34.5145 55.1953 34.2483 53.1813 34.1246 52.5308 33.4059 48.7533 35.0777 44.7376 39.3315 44.446 39.685 44.4218 39.8649 44.3013 40.1589 44.1167ZM39.1565 47.076C34.6489 49.5899 38.1088 53.1795 37.3549 55.9022 38.6755 55.8979 41.2422 55.8424 42.4796 55.9326 42.505 55.0339 42.5159 54.6484 41.8518 53.9329 41.7699 53.8454 41.6865 53.7595 41.6014 53.6751 40.8659 53.02 38.4151 50.8922 39.2089 49.8333 39.6821 49.6403 40.0612 50.0622 40.4544 50.3454 41.0829 50.2898 41.8353 50.2075 42.4561 50.2054 42.8057 50.4443 43.1505 50.6897 43.4907 50.9417 43.8134 50.4225 43.9286 50.2312 44.0341 49.6049 43.5855 49.3067 43.1327 49.0016 42.7269 48.6493 41.7164 47.7723 41.3049 47.1431 40.0184 46.6343 40.0427 46.3796 40.0939 46.0906 40.0248 45.8529L39.9543 45.784C39.567 46.2383 39.4152 46.5366 39.1565 47.076ZM38.0466 46.0059C34.5495 47.6818 34.8714 51.1657 35.7722 54.4144 35.8238 54.6003 36.0155 54.6186 36.1775 54.6312 35.6871 51.671 34.6435 48.3322 37.911 46.2975 38.0163 46.2319 38.2409 46.1356 38.2399 46.0246L38.0466 46.0059ZM36.0883 58.0911C38.2919 58.1092 40.4955 58.1144 42.6992 58.107 43.0164 58.1001 43.031 58.1572 43.2124 57.9989 43.2227 57.7488 43.173 57.6759 42.9786 57.4664 42.8731 57.3544 42.7641 57.2457 42.6518 57.1405L36.7163 57.1337C36.4454 57.501 36.3061 57.6875 36.0883 58.0911ZM42.5586 59.2957 37.7409 59.3143C37.2623 59.3159 35.5498 59.2043 35.266 59.4693L35.266 59.751C35.4467 59.9212 36.6221 59.8504 36.9757 59.8483 37.8446 59.8496 43.8274 59.9753 44.1209 59.709 44.1219 59.4466 44.1628 59.5604 43.9865 59.3584 43.6426 59.226 42.9599 59.2983 42.5586 59.2957Z" stroke="#A6A6A6" stroke-width="1.99999" fill="#999999" transform="matrix(1.0069 0 0 1 60 575)"/><path d="M103.053 42.161C104.431 42.0872 103.817 42.9078 104.188 43.2753 104.4 43.0633 104.606 42.1409 104.964 42.1572 105.769 42.1939 107.42 41.8312 107.28 43.1348 107.266 43.2624 107.284 43.2392 107.373 43.3374L107.506 43.3213C107.728 43.0534 107.554 42.3098 107.929 42.2378 108.344 42.1579 109.816 42.0744 110.139 42.264 110.464 42.9281 110.393 43.6283 110.403 44.3445 110.421 45.6746 110.46 46.7196 108.898 46.9835 108.932 47.2843 108.949 47.5862 108.961 47.8887 109.018 49.3705 109.229 50.8272 109.431 52.2956 110.201 52.7181 110.075 52.9761 110.019 53.7817 110.117 53.9152 110.212 54.0513 110.304 54.1899 111.006 55.2597 112.476 57.4687 110.972 58.404 110.565 58.4429 110.156 58.4586 109.748 58.4589 106.869 58.4613 103.983 58.4824 101.105 58.4387 100.377 58.4276 100.096 57.89 99.9738 57.2593 99.8161 56.4469 100.335 56.1326 100.616 55.5424 100.974 54.7882 101.128 54.4881 101.622 53.8423 101.548 53.0074 101.345 52.7619 102.215 52.3848 102.568 50.6789 102.657 48.8014 102.666 47.0669 101.963 46.7864 101.681 46.5521 101.316 45.9041 101.32 45.1488 101.224 42.8805 101.451 42.3377 101.785 42.1095 102.612 42.1617 103.053 42.161ZM103.417 52.4563C104.974 52.5506 106.377 52.4683 107.918 52.4588L108.186 52.4584 108.252 52.388C107.948 50.6136 107.742 48.7275 107.758 46.9258 106.477 46.8391 105.159 46.9262 103.866 46.8772 103.815 48.5327 103.778 50.8573 103.417 52.4563ZM101.297 56.6654C101.191 56.9098 101.203 56.917 101.194 57.1735L101.264 57.2744C103.745 57.3655 106.332 57.2018 108.826 57.2809 109.299 57.2961 109.836 57.2907 110.308 57.2743L110.423 57.2004C110.465 56.8836 110.497 56.9679 110.389 56.7063 109.988 56.6146 106.877 56.6528 106.304 56.6681 104.719 56.7102 102.858 56.6129 101.297 56.6654ZM102.669 43.3044C102.4 43.691 102.52 45.1385 102.52 45.7086 104.585 45.6917 107.185 45.7847 109.177 45.6801L109.181 43.8788C109.157 43.5283 109.216 43.6317 109.006 43.4281L108.884 43.4255C108.694 43.8568 108.959 44.2607 108.55 44.406 108.015 44.596 106.827 44.606 106.307 44.4492 105.893 44.0411 106.207 43.7351 105.92 43.4691L105.75 43.4748C105.381 43.9248 105.822 44.4206 105.085 44.4642 104.471 44.5006 103.677 44.5443 103.083 44.4023 102.609 43.9575 103.002 43.6119 102.669 43.3044ZM108.839 55.4908 109.701 55.4852C109.319 54.8363 109.027 54.4408 108.798 53.7198 106.973 53.6217 104.687 53.6656 102.832 53.6775 102.713 54.5754 102.258 54.7199 101.894 55.4886 104.174 55.451 106.547 55.4949 108.839 55.4908Z" stroke="#A6A6A6" stroke-width="1.99999" fill="#999999" transform="matrix(1.0069 0 0 1 60 575)"/><path d="M72.2116 26.1306C73.3972 26.0979 73.9939 26.6404 73.8364 27.8382 74.3507 28.2135 74.449 28.351 74.8499 28.8372 77.0688 29.4826 75.7112 30.6431 75.0757 32.0444L75.2755 32.9083C75.7398 33.2223 76.0958 33.7766 75.655 34.3129 75.3748 34.6539 75.0672 34.6236 74.6538 34.6359 74.7537 35.4314 75.1625 38.3266 76.0954 38.7685 76.7017 39.0558 76.5348 39.5049 76.5116 40.0292 77.0593 40.7577 78.8099 43.3707 77.7582 44.1929 76.8745 44.8839 74.1188 44.5858 72.9053 44.5691 71.335 44.5437 69.7144 44.6591 68.1817 44.5633 66.7415 44.4449 66.6967 42.5128 67.6687 41.7712 67.5431 41.8669 68.5023 40.1187 68.5755 40.0101 68.5193 39.1411 68.4597 38.9108 69.3368 38.6628 69.8614 37.6132 70.3516 36.1272 70.417 34.9313 70.4458 34.4049 69.8152 34.6584 69.3885 34.2655 69.0368 33.6457 69.7215 32.9895 69.9407 32.13L69.9703 32.0112C69.3504 30.4705 67.8733 29.1899 70.4902 28.7852 70.7841 28.3257 70.9673 28.1718 71.3641 27.8275 71.311 26.8724 71.335 26.5809 72.2116 26.1306ZM70.7271 38.8041 73.7213 38.8052 74.5021 38.7987C73.7973 37.2991 73.6141 36.2646 73.51 34.6278 72.8996 34.6175 72.289 34.6148 71.6784 34.6199 71.5021 36.0816 71.3312 37.4336 70.7271 38.8041ZM71.0017 33.1479 70.7484 33.393 70.7808 33.4733C71.6413 33.5327 73.1682 33.4225 74.1461 33.4236L74.3135 33.3969 74.2966 33.3011C73.8771 33.1577 71.6551 33.1738 71.0017 33.1479ZM76.7932 43.4949C76.9109 43.273 76.8912 43.2596 76.8769 43.014 76.7894 42.8787 76.8187 42.8611 76.6607 42.8438 75.6135 42.7298 74.272 42.7829 73.22 42.7907L68.5234 42.7948C68.2331 42.8914 68.3413 42.8023 68.1935 43.0782 68.203 43.3155 68.1584 43.2185 68.3284 43.3802 68.733 43.436 69.6549 43.4085 70.095 43.4073L74.131 43.4C74.8581 43.4003 76.1239 43.3651 76.7932 43.4949ZM71.5659 29.9608C71.1044 30.1491 70.8857 30.1368 70.3876 30.1288 70.7764 30.8092 71.0358 31.299 71.257 32.0559 72.0729 32.0541 73.092 32.0226 73.891 32.0539 74.1239 31.4245 74.3663 30.7985 74.6181 30.1761 74.3856 30.0522 74.045 30.0731 73.7704 30.0634 72.4925 30.7182 72.7707 30.4922 71.5659 29.9608ZM69.7677 39.9339C69.7412 40.7526 69.2553 40.8641 69.0795 41.5252 69.4441 41.7127 74.7697 41.617 75.6329 41.6229L76.026 41.6015 76.0797 41.5099C75.7663 40.8188 75.5116 41.0898 75.3265 40.0976 75.1125 39.9621 70.5105 40.0051 69.7677 39.9339Z" stroke="#A6A6A6" stroke-width="1.99999" fill="#999999" transform="matrix(1.0069 0 0 1 60 575)"/><path d="M78.0378 37.4747C78.4968 37.5185 78.9542 37.5784 79.4092 37.6543 86.2732 38.7697 92.7443 41.6006 98.2222 45.8847 98.9799 46.4784 100.532 47.6883 101.062 48.4194 100.822 48.7176 100.556 49.0246 100.308 49.3193 100.172 49.475 99.9604 49.6777 99.8107 49.8307 99.3382 49.5305 98.436 48.7211 97.9699 48.3337 97.0911 47.5967 96.1802 46.8991 95.2395 46.243 91.4511 43.6158 87.2345 41.6675 82.7784 40.4853 81.1919 40.0561 79.5566 39.7351 77.9487 39.3872 78.038 38.841 77.9284 37.6502 78.0378 37.4747Z" stroke="#A6A6A6" stroke-width="1.99999" fill="#999999" transform="matrix(1.0069 0 0 1 60 575)"/><path d="M67.0482 37.4955 67.0928 37.5438C67.0108 38.2391 67.0383 38.7848 67.067 39.4838 61.2085 40.2784 55.6079 42.3971 50.6904 45.679 50.0158 46.1355 46.9791 48.5203 46.6409 48.6149 46.3601 48.4963 46.208 48.27 46.0014 48.0344 45.8148 47.8167 45.4382 47.4501 45.2282 47.2328 45.7227 46.7111 47.046 45.7226 47.6377 45.2605 52.5175 41.4502 60.8217 37.909 67.0482 37.4955Z" stroke="#A6A6A6" stroke-width="1.99999" fill="#999999" transform="matrix(1.0069 0 0 1 60 575)"/><path d="M72.229 87.5814C72.2977 87.5789 72.3663 87.5775 72.435 87.577 73.7654 87.5749 73.5144 89.0096 73.5015 89.9565 74.8667 90.0354 76.5529 90.7349 77.6401 91.5433 79.9019 93.2251 80.7882 95.0472 81.2419 97.7212 82.183 97.701 83.7939 97.4152 83.5815 98.8686 83.443 99.8168 81.9416 99.5797 81.2355 99.5577 80.9545 103.577 77.4597 107.102 73.4142 107.303 73.4351 108.341 73.775 109.221 72.7028 109.749 71.2318 109.697 71.6665 108.414 71.5848 107.3 67.2963 106.878 64.3755 103.767 63.8103 99.5589 63.3075 99.5775 60.5749 99.8671 61.7173 97.9815 61.9316 97.6279 63.3164 97.7076 63.8255 97.7173 64.4835 93.4985 67.308 90.4562 71.6263 89.9697 71.6371 88.9732 71.2855 88.1787 72.229 87.5814ZM65.7009 97.7071C66.326 97.6947 67.0699 97.6436 67.6324 97.7593 68.4468 97.927 68.4775 98.942 67.9499 99.3869 67.6146 99.6695 66.1427 99.5548 65.7347 99.5438 65.9366 101.268 66.8021 102.845 68.1475 103.942 69.2756 104.852 70.2028 105.117 71.5748 105.427L71.585 105.335C71.6423 104.784 71.5055 103.33 71.9088 103.119 74.0039 102.019 73.2295 105.21 73.631 105.412L73.7918 105.376C76.7395 104.667 78.9345 102.635 79.3629 99.5487 78.7224 99.5575 75.808 99.9112 77.0372 97.9612 77.2776 97.58 78.874 97.7246 79.4032 97.6977 78.5655 94.3592 76.7825 92.6257 73.4315 91.85 73.4385 92.2332 73.449 92.6192 73.4475 93.0031 73.4459 93.4202 73.4972 93.8486 73.1723 94.1682 72.8233 94.5117 72.1198 94.5186 71.8131 94.1107 71.4227 93.5308 71.7257 92.6002 71.5797 91.9413 71.5374 91.9303 71.4951 91.9194 71.4527 91.9083 68.2772 92.7452 66.3576 94.3681 65.7009 97.7071Z" stroke="#A6A6A6" stroke-width="1.99999" fill="#999999" transform="matrix(1.0069 0 0 1 60 575)"/><path d="M72.1861 96.951C73.1341 96.7528 74.0629 97.3625 74.258 98.3113 74.4531 99.26 73.8404 100.187 72.891 100.379 71.9461 100.57 71.0245 99.9605 70.8304 99.0162 70.6362 98.0718 71.2424 97.1483 72.1861 96.951Z" stroke="#A6A6A6" stroke-width="1.99999" fill="#999999" transform="matrix(1.0069 0 0 1 60 575)"/><path d="M47.7095 91.1336C49.689 90.9828 51.1587 92.0838 50.8604 94.2316 50.8444 94.3471 50.5081 95.1332 50.5622 95.1877 51.4775 96.1111 51.7445 96.9787 50.1367 97.1984 50.278 98.2929 50.5155 99.4111 50.9781 100.41 51.341 101.194 52.3035 101.405 52.3332 102.302 52.3345 102.343 52.5342 102.682 52.5888 102.784 52.9751 103.501 53.4376 104.889 52.7963 105.574 52.1497 106.099 49.8505 105.895 49.0205 105.886 47.7312 105.894 46.4445 105.905 45.1501 105.899 44.6664 105.896 43.8785 105.895 43.5008 105.493 43.1813 105.153 43.3488 103.747 43.4772 103.324 43.5518 103.079 44.2485 102.501 44.1763 102.125 44.1535 102.006 44.2001 101.818 44.2292 101.701 44.4046 101.468 44.7914 101.319 45.0675 101.184 45.9089 99.7565 46.0236 98.8336 46.333 97.2388 44.9507 96.968 44.9817 95.9673 45.9559 95.156 44.9925 93.4903 45.8251 91.5985 47.7095 91.1336ZM51.2067 104.648 51.8844 104.646C51.7017 103.681 51.6737 103.597 51.0748 102.808L45.3291 102.816C44.984 103.219 44.4084 104.03 44.6062 104.583 44.8337 104.691 50.4761 104.645 51.2067 104.648ZM46.2604 101.54 49.0118 101.542 50.2401 101.553C49.2895 100.052 49.0863 98.9212 48.9376 97.1501L47.5943 97.1394C47.4252 98.8062 47.1908 100.117 46.2604 101.54ZM48.3218 95.0789C49.0817 95.0554 49.6839 94.4298 49.6784 93.6696 49.6727 92.8947 49.0387 92.272 48.264 92.28 47.7605 92.2851 47.2986 92.5604 47.0543 93.0008 46.8101 93.4412 46.8211 93.9788 47.0834 94.4087 47.3456 94.8386 47.8184 95.0945 48.3218 95.0789Z" stroke="#A6A6A6" stroke-width="1.99999" fill="#999999" transform="matrix(1.0069 0 0 1 60 575)"/><path d="M103.102 85.8816C103.301 85.8737 103.727 85.8758 103.851 86.0439 104.703 87.2115 105.538 88.4456 106.276 89.6894 106.693 90.3935 106.487 91.4266 105.474 91.241 104.927 91.1407 104.537 90.481 104.234 90.0565 104.215 91.556 104.376 93.3398 103.914 94.7341 103.227 96.8097 101.43 97.589 99.4347 97.9822 98.7308 98.121 97.8858 98.3217 97.2269 98.6473 95.1408 99.6855 95.6633 102.355 95.6289 104.261 95.6135 105.116 95.8737 105.953 94.956 106.379 93.1512 106.366 93.9221 104.411 93.7906 103.179 93.4838 100.301 94.4271 97.0134 97.6751 96.4451 102.683 95.569 102.414 94.4314 102.362 90.0586 101.922 90.6634 100.944 91.9968 100.202 90.8537 100.058 90.6346 100.014 90.3653 100.08 90.112 100.231 89.5403 102.166 86.8812 102.668 86.207 102.732 86.1214 102.994 85.9486 103.102 85.8816Z" stroke="#A6A6A6" stroke-width="1.99999" fill="#999999" transform="matrix(1.0069 0 0 1 60 575)"/><path d="M113.077 85.8838C113.246 85.8771 113.434 85.8611 113.599 85.9074 114.063 86.0375 116.36 89.6274 116.691 90.1991 116.594 90.7267 116.367 91.4205 115.642 91.2805 115.017 91.1598 114.679 90.5871 114.338 90.0994 114.079 94.0815 115.465 98.938 109.932 99.6831 105.661 100.258 107.046 102.86 106.596 105.829 106.555 106.096 106.247 106.269 106.018 106.38 104.78 106.424 104.819 105.689 104.8 104.717 104.75 101.897 104.916 99.1469 108.049 98.1346 109.637 97.6251 112.034 97.8356 112.325 95.632 112.555 93.8858 112.446 91.8145 112.438 90.032 112.099 90.5373 111.727 91.2854 111.038 91.2563 110.768 91.2451 110.513 91.1257 110.332 90.9251 110.188 90.7638 110.023 90.3225 110.118 90.156 110.59 89.3197 112.387 86.3253 113.077 85.8838Z" stroke="#A6A6A6" stroke-width="1.99999" fill="#999999" transform="matrix(1.0069 0 0 1 60 575)"/><path d="M28.2249 98.3501C29.7474 98.2439 32.9313 98.3378 34.3729 98.4279 35.3957 98.4921 34.91 104.532 34.8715 105.462 34.8626 105.677 34.5402 105.825 34.366 105.904L30.3523 105.926C29.663 105.929 28.803 105.954 28.129 105.86 27.4265 105.762 27.5867 103.838 27.5943 103.274 27.6136 101.838 27.5272 100.354 27.647 98.925 27.6682 98.6663 28.0344 98.4632 28.2249 98.3501ZM29.4351 104.063C30.6311 104.064 31.8493 104.053 33.0431 104.069 33.1867 103.827 33.129 100.815 33.1335 100.258 31.8982 100.246 30.6628 100.244 29.4276 100.254 29.4251 101.403 29.3764 102.943 29.4351 104.063Z" stroke="#A6A6A6" stroke-width="1.99999" fill="#999999" transform="matrix(1.0069 0 0 1 60 575)"/><path d="M31.1269 85.856C33.3586 85.7441 35.2592 87.4611 35.3739 89.6926 35.4886 91.9241 33.7742 93.8269 31.5429 93.9444 29.3074 94.0622 27.4005 92.344 27.2855 90.1084 27.1705 87.873 28.8913 85.9681 31.1269 85.856ZM31.4719 92.0519C32.2321 92.0008 32.9058 91.5447 33.2356 90.8579 33.5654 90.1713 33.5002 89.3602 33.065 88.735 32.6295 88.1099 31.8915 87.7672 31.1331 87.8383 29.9814 87.946 29.1303 88.9593 29.223 90.1124 29.3158 91.2653 30.3179 92.1297 31.4719 92.0519Z" stroke="#A6A6A6" stroke-width="1.99999" fill="#999999" transform="matrix(1.0069 0 0 1 60 575)"/><path d="M41.7283 97.8233C42.5729 97.8161 44.0678 97.7593 44.8765 97.8206 44.5035 99.2975 44.5219 99.7855 43.2696 100.725 42.9503 101.15 42.8629 101.433 42.7293 101.95L41.7577 101.946C41.7304 103.301 41.8021 104.737 41.7018 106.062 41.0873 105.977 38.3481 106.026 37.6248 106.049 37.6731 104.979 37.7017 102.971 37.649 101.903 38.6657 102.032 40.5969 101.879 41.7557 101.944 41.7678 100.57 41.7587 99.1967 41.7283 97.8233Z" stroke="#A6A6A6" stroke-width="1.99999" fill="#999999" transform="matrix(1.0069 0 0 1 60 575)"/><path d="M37.6671 93.6677C38.3688 93.7568 39.6735 93.7241 40.411 93.7109L41.7171 93.6752C41.7246 94.7775 41.667 96.7978 41.7485 97.8165 40.3737 97.8097 38.9989 97.8147 37.6242 97.8315 37.6472 99.1582 37.604 100.602 37.649 101.903 37.2279 101.896 36.8004 101.886 36.38 101.884 36.3951 100.667 36.5372 98.878 35.9664 97.813L37.6633 97.8235C37.6577 96.4383 37.6589 95.053 37.6671 93.6677Z" stroke="#A6A6A6" stroke-width="1.99999" fill="#999999" transform="matrix(1.0069 0 0 1 60 575)"/><path d="M45.8866 85.387 50.059 85.3893C49.9327 86.2621 49.9934 88.5209 50.0012 89.508 49.2084 89.5085 46.5432 89.4542 45.8861 89.5452L45.8866 85.387Z" stroke="#A6A6A6" stroke-width="1.99999" fill="#999999" transform="matrix(1.0069 0 0 1 60 575)"/><path d="M37.6112 85.3809C38.9904 85.4043 40.3699 85.4078 41.7492 85.3914 41.7573 86.5253 41.7148 88.3833 41.8032 89.462 40.9406 89.5815 38.7122 89.4722 37.6635 89.5188 37.639 88.3924 37.7307 86.4193 37.6112 85.3809Z" stroke="#A6A6A6" stroke-width="1.99999" fill="#999999" transform="matrix(1.0069 0 0 1 60 575)"/><path d="M41.7634 89.545 45.8861 89.5452C45.9051 89.8334 45.8941 90.1717 45.8921 90.4647 44.6953 91.4726 44.4142 92.0743 44.2251 93.6166 43.3726 93.5999 42.6215 93.6112 41.7688 93.6393L41.7634 89.545Z" stroke="#A6A6A6" stroke-width="1.99999" fill="#999999" transform="matrix(1.0069 0 0 1 60 575)"/><path d="M36.6897 89.5701 37.6265 89.5681C37.5738 90.7509 37.5941 92.4604 37.6326 93.6413L37.0465 93.6284C36.6907 93.6298 36.1717 93.6679 35.8733 93.5107 35.7535 93.0181 36.47 91.768 36.5802 91.0938 36.6996 90.3628 36.6994 90.3436 36.6897 89.5701Z" stroke="#A6A6A6" stroke-width="1.99999" fill="#999999" transform="matrix(1.0069 0 0 1 60 575)"/></g></svg>