<?xml version="1.0" encoding="utf-8" ?><svg xmlns="http://www.w3.org/2000/svg" xmlns:xlink="http://www.w3.org/1999/xlink" width="1024" height="1024" viewBox="0 0 1024 1024"><path d="M485.8 90.7055C491.202 90.2467 498.078 90.4926 503.588 90.3633C535.492 89.6147 565.986 92.1271 597.448 97.8216C687.346 114.533 770.303 157.43 835.905 221.126C926.325 309.552 977.211 430.74 977.028 557.211C977.503 664.644 939.566 779.279 866.281 859.764C847.553 880.332 819.414 878.409 793.892 878.494L739.736 878.582L539.25 878.649L306.548 878.645L239.09 878.638C214.186 878.627 181.393 881.475 162.012 863.763C148.64 851.543 135.045 833.476 124.952 818.449C79.7697 750.837 53.1386 672.543 47.7241 591.405C39.1141 467.613 79.2896 345.368 159.656 250.818C224.105 176.327 310.536 124.218 406.499 101.999C434.314 95.6309 457.668 92.8436 485.8 90.7055ZM521.375 864.016L733.3 864.039L790.712 864.076C813.374 864.109 839.082 867.346 856.028 849.371C870.918 833.579 883.529 815.977 894.972 797.563C940.6 723.897 964.221 638.724 963.052 552.08C961.339 431.762 912.295 316.963 826.544 232.547C740.935 149.612 626.247 103.508 507.055 104.112C505.657 104.129 503.991 104.111 502.619 104.199C476.353 105.681 455.042 107.504 428.793 112.479C331.252 130.751 242.466 180.698 176.206 254.574C95.9859 344.881 54.766 463.266 61.5503 583.867C66.9821 677.715 101.858 772.254 162.84 844.241C183.301 868.396 207.799 864.082 236.623 864.07L301.968 864.036L521.375 864.016Z"/><path d="M491.415 151.219C523.486 149.65 555.632 151.771 587.219 157.54C693.343 177.449 787.029 239.136 847.25 328.758C907.704 418.49 930.239 528.48 909.945 634.757C899.073 690.837 876.52 744.001 843.752 790.794C838.949 797.714 828.124 812.961 821.512 817.425C809.867 818.326 795.49 817.979 783.587 817.989L723.625 818.016L533.25 817.988L314.651 818.012L245.544 817.997C233.262 817.994 220.639 818.192 208.389 817.687C204.553 817.529 201.937 817.064 199.199 814.242C189.93 804.691 180.639 791.679 173.361 780.703C134.46 722.246 111.695 654.548 107.371 584.463C100.319 474.769 137.537 366.826 210.698 284.788C283.233 203.196 382.984 157.594 491.415 151.219ZM121.916 528.9L186.694 528.817C197.266 528.811 209.269 528.518 219.745 528.831C220.132 504.033 230.191 463.737 239.55 440.935C246.27 441.734 247.557 441.775 253.663 444.608C241.296 479.198 237.942 492.27 233.844 528.808L448.073 528.577C449.602 515.463 452.681 505.829 460.47 494.938C478.692 469.461 514.554 461.504 542.218 476.224C561 450.235 581.674 423.942 600.868 398.027L628.312 360.88C633.069 354.461 637.774 347.991 642.728 341.724C645.662 338.013 646.964 337.743 651.547 337.99C655.835 340.118 658.111 343.792 655.203 348.316C651.723 353.729 647.558 359.019 643.72 364.212L623.097 392.24L554.336 484.709C567.056 496.338 574.835 511.554 575.711 528.885L722.86 528.827C744.539 528.827 768.769 529.382 790.207 528.709C786.12 492.666 779.068 461.566 762.941 428.898C760.621 424.199 772.727 423.634 775.625 423.39C778.708 428.149 782.049 436.024 784.241 441.396C795.528 469.35 802.391 498.891 804.583 528.957C836.675 528.44 870.378 529.651 902.152 528.757C900.43 511.91 898.599 496.914 895.18 480.278C877.363 390.67 828.85 310.082 757.999 252.399C683.469 191.894 589.302 160.888 493.404 165.279C388.822 170.357 290.673 217.269 221.037 295.46C162.87 360.031 127.978 442.205 121.916 528.9ZM511.709 483.316C484.062 483.473 461.814 506.082 462.102 533.728C462.39 561.374 485.105 583.514 512.75 583.094C540.209 582.677 562.168 560.148 561.882 532.688C561.595 505.227 539.171 483.161 511.709 483.316ZM575.436 542.704C573.375 553.31 571.392 559.62 565.254 568.812C540.273 606.225 484.009 606.772 458.527 568.94C453.363 561.136 450.002 552.281 448.688 543.016C364.853 542.085 280.48 543.53 196.589 542.955C171.49 542.783 146.101 543.257 121.042 542.934C120.965 558.623 120.806 572.933 122.026 588.61C126.774 647.719 144.914 704.971 175.073 756.028C184.191 771.374 196.812 790.487 209.089 803.649L394.75 803.902L815.38 803.939C873.478 734.458 907.917 633.617 902.779 543.004C844.646 542.161 785.495 542.991 727.283 542.842L626.891 542.68C610.227 542.666 591.994 542.284 575.436 542.704Z"/><path d="M283.605 311.555C292.647 310.839 291.198 316.679 291.023 323.584C291.691 323.934 292.349 324.303 292.996 324.69C297.437 327.351 302.428 332.409 306.458 335.86C310.083 338.965 318.133 344.273 319.114 348.798C319.981 352.926 319.125 357.229 316.745 360.711C311.09 369 303.573 367.929 296.433 362.716C294.594 362.962 292.386 363.472 290.535 363.845C302.726 376.187 311.597 378.508 307.796 398.375C312.721 403.267 312.978 403.903 314.529 410.523C317.081 412.481 317.455 412.889 319.4 415.459C319.532 416.779 319.647 418.101 319.744 419.424C320.836 434.775 306.856 431.166 295.75 431.089L266.633 431.229C260.841 431.278 255.04 431.407 249.283 431.188C240.303 430.847 240.599 425.57 240.996 418.286C241.226 414.07 243.386 412.784 246.397 410.324C247.019 404.778 251.24 398.343 254.647 393.937C251.699 393.906 249.117 394.144 246.497 392.932C243.744 389.793 241.864 375.57 240.99 370.976C235.915 344.299 247.721 315.94 277.762 313.881C280.258 313.71 281.529 312.859 283.605 311.555ZM276.526 332.454C244.693 350.207 269.127 375.557 263.803 394.785C273.129 394.755 291.255 394.363 299.994 395C300.173 388.653 300.25 385.931 295.56 380.878C294.982 380.26 294.393 379.653 293.792 379.057C288.598 374.431 271.29 359.404 276.896 351.926C280.238 350.563 282.915 353.543 285.692 355.543C290.13 355.15 295.444 354.569 299.828 354.554C302.297 356.241 304.732 357.974 307.134 359.754C309.413 356.087 310.227 354.736 310.972 350.313C307.804 348.207 304.606 346.053 301.74 343.565C294.604 337.371 291.698 332.928 282.613 329.335C282.784 327.536 283.146 325.495 282.658 323.816L282.16 323.33C279.425 326.538 278.353 328.645 276.526 332.454ZM268.688 324.897C243.991 336.732 246.264 361.336 252.626 384.278C252.99 385.591 254.344 385.72 255.488 385.809C252.025 364.904 244.655 341.325 267.73 326.956C268.474 326.493 270.06 325.813 270.053 325.029L268.688 324.897ZM254.858 410.243C270.42 410.371 285.982 410.408 301.545 410.356C303.785 410.307 303.888 410.71 305.169 409.592C305.242 407.826 304.891 407.311 303.518 405.832C302.773 405.041 302.003 404.273 301.21 403.53L259.293 403.482C257.38 406.076 256.396 407.393 254.858 410.243ZM300.552 418.75L266.529 418.882C263.149 418.893 251.055 418.105 249.051 419.976L249.051 421.966C250.327 423.168 258.628 422.668 261.125 422.653C267.261 422.662 309.512 423.55 311.585 421.669C311.592 419.816 311.881 420.62 310.636 419.193C308.207 418.258 303.386 418.769 300.552 418.75Z"/><path d="M727.768 297.744C737.501 297.223 733.166 303.018 735.783 305.613C737.283 304.116 738.733 297.602 741.262 297.717C746.945 297.976 758.608 295.415 757.616 304.621C757.519 305.522 757.648 305.358 758.278 306.052L759.215 305.938C760.784 304.046 759.553 298.795 762.2 298.286C765.135 297.722 775.531 297.132 777.811 298.471C780.105 303.161 779.606 308.106 779.674 313.164C779.801 322.557 780.078 329.937 769.045 331.801C769.285 333.925 769.404 336.057 769.487 338.193C769.894 348.658 771.382 358.945 772.806 369.315C778.245 372.299 777.36 374.121 776.962 379.81C777.657 380.753 778.327 381.714 778.972 382.693C783.932 390.248 794.315 405.848 783.689 412.453C780.816 412.728 777.932 412.839 775.045 412.841C754.719 412.858 734.332 413.007 714.014 412.698C708.87 412.62 706.887 408.823 706.022 404.369C704.908 398.632 708.571 396.412 710.554 392.244C713.087 386.918 714.17 384.799 717.663 380.238C717.142 374.342 715.703 372.608 721.851 369.945C724.339 357.898 724.972 344.639 725.031 332.39C720.068 330.409 718.075 328.754 715.504 324.178C715.527 318.844 714.85 302.825 716.457 298.992C718.81 297.38 724.656 297.749 727.768 297.744ZM730.34 370.45C741.335 371.116 751.242 370.535 762.125 370.468L764.017 370.465L764.484 369.968C762.337 357.437 760.884 344.117 760.997 331.393C751.947 330.781 742.641 331.396 733.51 331.05C733.151 342.741 732.89 359.158 730.34 370.45ZM715.367 400.175C714.616 401.901 714.703 401.952 714.637 403.763L715.132 404.476C732.657 405.119 750.924 403.963 768.534 404.522C771.875 404.629 775.67 404.591 779.002 404.475L779.814 403.953C780.109 401.716 780.34 402.311 779.572 400.464C776.74 399.816 754.77 400.086 750.728 400.194C739.532 400.491 726.393 399.804 715.367 400.175ZM725.054 305.819C723.159 308.549 724.006 318.771 724.004 322.797C738.588 322.678 756.949 323.335 771.012 322.596L771.042 309.875C770.875 307.4 771.291 308.13 769.806 306.692L768.944 306.674C767.601 309.72 769.477 312.572 766.586 313.598C762.806 314.94 754.423 315.011 750.746 313.903C747.827 311.021 750.044 308.86 748.011 306.982L746.817 307.022C744.206 310.2 747.32 313.701 742.12 314.009C737.779 314.266 732.173 314.575 727.979 313.572C724.632 310.431 727.405 307.99 725.054 305.819ZM768.625 391.88L774.714 391.84C772.016 387.258 769.954 384.465 768.338 379.373C755.448 378.68 739.309 378.99 726.207 379.074C725.367 385.415 722.154 386.436 719.582 391.864C735.681 391.599 752.442 391.909 768.625 391.88Z"/><path d="M509.963 184.536C518.336 184.305 522.55 188.136 521.438 196.595C525.07 199.246 525.764 200.217 528.595 203.65C544.265 208.208 534.678 216.404 530.19 226.3L531.601 232.401C534.88 234.618 537.394 238.533 534.281 242.32C532.302 244.728 530.13 244.514 527.21 244.601C527.916 250.219 530.803 270.665 537.391 273.786C541.673 275.815 540.494 278.986 540.33 282.689C544.198 287.834 556.561 306.287 549.134 312.093C542.893 316.973 523.432 314.868 514.862 314.75C503.773 314.571 492.328 315.386 481.504 314.709C471.333 313.873 471.017 300.228 477.881 294.991C476.994 295.667 483.768 283.321 484.285 282.554C483.888 276.417 483.467 274.791 489.661 273.039C493.366 265.627 496.828 255.133 497.29 246.687C497.493 242.97 493.04 244.76 490.026 241.985C487.543 237.608 492.378 232.974 493.926 226.904L494.135 226.065C489.757 215.185 479.326 206.141 497.807 203.283C499.882 200.038 501.176 198.951 503.978 196.52C503.603 189.775 503.773 187.716 509.963 184.536ZM499.48 274.037L520.625 274.045L526.139 273.999C521.162 263.409 519.868 256.103 519.133 244.544C514.822 244.471 510.51 244.452 506.198 244.488C504.953 254.811 503.746 264.359 499.48 274.037ZM501.419 234.093L499.63 235.824L499.859 236.391C505.936 236.81 516.719 236.032 523.625 236.04L524.807 235.851L524.688 235.175C521.725 234.162 506.033 234.276 501.419 234.093ZM542.319 307.164C543.15 305.597 543.011 305.502 542.91 303.768C542.292 302.812 542.499 302.688 541.383 302.566C533.988 301.761 524.514 302.136 517.085 302.191L483.917 302.22C481.867 302.902 482.631 302.273 481.587 304.221C481.654 305.897 481.339 305.212 482.54 306.354C485.397 306.748 491.908 306.554 495.016 306.545L523.518 306.494C528.653 306.496 537.592 306.247 542.319 307.164ZM505.403 211.585C502.144 212.915 500.6 212.828 497.082 212.772C499.828 217.577 501.66 221.036 503.222 226.381C508.984 226.368 516.181 226.146 521.823 226.367C523.468 221.922 525.18 217.501 526.958 213.106C525.316 212.231 522.911 212.378 520.972 212.31C511.947 216.934 513.912 215.338 505.403 211.585ZM492.704 282.016C492.517 287.798 489.086 288.585 487.844 293.254C490.419 294.578 528.029 293.902 534.125 293.944L536.901 293.793L537.28 293.146C535.067 288.265 533.268 290.179 531.961 283.172C530.45 282.215 497.95 282.519 492.704 282.016Z"/><path d="M551.108 264.649C554.35 264.958 557.58 265.381 560.793 265.917C609.267 273.794 654.967 293.786 693.652 324.041C699.003 328.234 709.961 336.778 713.706 341.941C712.01 344.047 710.13 346.215 708.381 348.296C707.419 349.396 705.927 350.827 704.87 351.908C701.533 349.788 695.162 344.072 691.87 341.336C685.664 336.131 679.231 331.205 672.588 326.571C645.834 308.018 616.056 294.259 584.587 285.91C573.383 282.879 561.834 280.612 550.479 278.155C551.11 274.298 550.336 265.888 551.108 264.649Z"/><path d="M473.499 264.796L473.814 265.137C473.235 270.047 473.429 273.901 473.632 278.837C432.259 284.449 392.707 299.411 357.979 322.588C353.215 325.812 331.77 342.654 329.381 343.322C327.398 342.484 326.324 340.886 324.865 339.222C323.547 337.685 320.888 335.096 319.405 333.561C322.897 329.877 332.242 322.896 336.421 319.633C370.882 292.724 429.527 267.716 473.499 264.796Z"/><path d="M510.086 618.506C510.571 618.488 511.056 618.478 511.541 618.475C520.936 618.46 519.164 628.592 519.073 635.279C528.714 635.836 540.622 640.776 548.3 646.485C564.273 658.362 570.532 671.23 573.736 690.114C580.382 689.971 591.758 687.953 590.258 698.217C589.28 704.913 578.677 703.239 573.691 703.083C571.706 731.466 547.026 756.365 518.456 757.783C518.604 765.111 521.004 771.325 513.432 775.054C503.044 774.691 506.114 765.627 505.537 757.763C475.251 754.78 454.624 732.811 450.633 703.092C447.082 703.223 427.784 705.268 435.852 691.952C437.365 689.455 447.145 690.018 450.74 690.086C455.387 660.293 475.334 638.808 505.83 635.372C505.906 628.335 503.423 622.724 510.086 618.506ZM463.984 690.014C468.399 689.927 473.652 689.566 477.625 690.383C483.376 691.567 483.593 698.735 479.867 701.877C477.499 703.873 467.104 703.063 464.223 702.985C465.649 715.159 471.761 726.299 481.262 734.043C489.229 740.469 495.777 742.34 505.466 744.53L505.538 743.883C505.943 739.989 504.977 729.726 507.825 728.232C522.621 720.468 517.152 743.001 519.987 744.424L521.123 744.173C541.94 739.169 557.441 724.818 560.466 703.02C555.943 703.082 535.361 705.58 544.042 691.809C545.74 689.117 557.014 690.138 560.751 689.948C554.835 666.371 542.243 654.129 518.578 648.651C518.628 651.357 518.702 654.083 518.691 656.794C518.68 659.74 519.042 662.765 516.748 665.022C514.283 667.448 509.315 667.497 507.149 664.616C504.392 660.521 506.532 653.949 505.501 649.296C505.202 649.218 504.903 649.141 504.604 649.063C482.178 654.973 468.622 666.434 463.984 690.014Z"/><path d="M509.783 684.675C516.478 683.275 523.037 687.581 524.415 694.281C525.793 700.981 521.466 707.525 514.761 708.881C508.088 710.23 501.58 705.928 500.209 699.259C498.838 692.59 503.119 686.068 509.783 684.675Z"/><path d="M336.928 643.592C350.907 642.527 361.286 650.302 359.18 665.47C359.067 666.286 356.692 671.837 357.074 672.222C363.538 678.743 365.423 684.87 354.069 686.422C355.067 694.151 356.744 702.048 360.011 709.105C362.574 714.642 369.371 716.129 369.581 722.467C369.59 722.752 371 725.148 371.386 725.866C374.114 730.933 377.38 740.73 372.851 745.572C368.285 749.279 352.048 747.841 346.186 747.775C337.081 747.831 327.994 747.906 318.853 747.863C315.437 747.847 309.873 747.839 307.206 745.002C304.949 742.601 306.132 732.667 307.039 729.684C307.566 727.951 312.486 723.872 311.976 721.212C311.815 720.373 312.144 719.046 312.35 718.217C313.588 716.576 316.32 715.524 318.27 714.565C324.212 704.487 325.022 697.97 327.207 686.707C317.445 684.795 317.664 677.728 324.544 671.998C317.74 660.235 323.62 646.875 336.928 643.592ZM361.625 739.032L366.411 739.014C365.121 732.199 364.923 731.606 360.694 726.036L320.117 726.096C317.68 728.942 313.615 734.668 315.012 738.57C316.619 739.335 356.466 739.012 361.625 739.032ZM326.694 717.082L346.125 717.094L354.799 717.175C348.086 706.571 346.651 698.588 345.601 686.081L336.114 686.005C334.92 697.776 333.265 707.033 326.694 717.082ZM341.252 671.454C346.618 671.288 350.871 666.87 350.832 661.501C350.792 656.029 346.315 651.631 340.844 651.688C337.288 651.724 334.026 653.668 332.301 656.778C330.576 659.888 330.654 663.685 332.506 666.721C334.358 669.757 337.697 671.564 341.252 671.454Z"/><path d="M728.11 606.502C729.521 606.446 732.528 606.461 733.402 607.648C739.419 615.894 745.319 624.609 750.526 633.393C753.474 638.365 752.021 645.661 744.864 644.35C741.003 643.642 738.246 638.983 736.111 635.985C735.97 646.575 737.113 659.172 733.85 669.019C728.993 683.677 716.307 689.18 702.215 691.957C697.244 692.937 691.276 694.355 686.623 696.654C671.891 703.986 675.581 722.835 675.338 736.296C675.229 742.334 677.067 748.248 670.586 751.253C657.84 751.164 663.284 737.357 662.356 728.66C660.189 708.331 666.851 685.115 689.788 681.102C725.152 674.915 723.258 666.881 722.891 636C719.777 640.271 712.877 649.688 707.632 641.615C706.62 640.068 706.307 638.166 706.771 636.377C707.837 632.34 721.503 613.561 725.048 608.8C725.498 608.195 727.353 606.975 728.11 606.502Z"/><path d="M798.556 606.517C799.754 606.47 801.078 606.357 802.243 606.684C805.518 607.603 821.744 632.955 824.08 636.992C823.392 640.718 821.793 645.618 816.673 644.629C812.261 643.777 809.874 639.732 807.465 636.288C805.635 664.41 815.424 698.707 776.347 703.969C746.185 708.031 755.965 726.403 752.786 747.375C752.501 749.257 750.323 750.477 748.706 751.262C739.964 751.577 740.239 746.382 740.106 739.519C739.751 719.604 740.922 700.182 763.053 693.033C774.265 689.435 791.193 690.922 793.244 675.36C794.869 663.028 794.101 648.4 794.048 635.812C791.65 639.381 789.021 644.664 784.156 644.458C782.249 644.379 780.453 643.536 779.174 642.119C778.156 640.98 776.993 637.864 777.658 636.688C780.996 630.782 793.688 609.635 798.556 606.517Z"/><path d="M199.326 694.555C210.078 693.805 232.563 694.468 242.744 695.105C249.967 695.558 246.537 738.215 246.265 744.783C246.202 746.299 243.925 747.346 242.695 747.899L214.35 748.06C209.482 748.076 203.409 748.258 198.649 747.592C193.688 746.898 194.819 733.311 194.873 729.325C195.009 719.185 194.399 708.707 195.245 698.615C195.395 696.788 197.981 695.354 199.326 694.555ZM207.873 734.897C216.319 734.908 224.922 734.83 233.353 734.944C234.367 733.235 233.959 711.962 233.991 708.031C225.267 707.942 216.543 707.932 207.82 708.003C207.802 716.112 207.458 726.994 207.873 734.897Z"/><path d="M219.82 606.321C235.581 605.531 249.003 617.656 249.813 633.415C250.623 649.174 238.516 662.612 222.758 663.442C206.971 664.274 193.504 652.14 192.692 636.352C191.88 620.565 204.032 607.113 219.82 606.321ZM222.257 650.077C227.625 649.716 232.383 646.495 234.712 641.645C237.041 636.796 236.581 631.068 233.507 626.653C230.432 622.238 225.22 619.818 219.864 620.32C211.731 621.081 205.72 628.237 206.375 636.38C207.03 644.522 214.107 650.626 222.257 650.077Z"/><path d="M294.688 690.835C300.653 690.784 311.21 690.383 316.921 690.816C314.287 701.246 314.417 704.692 305.573 711.325C303.318 714.331 302.701 716.33 301.757 719.975L294.896 719.952C294.703 729.516 295.209 739.66 294.501 749.014C290.161 748.415 270.817 748.76 265.709 748.925C266.05 741.369 266.252 727.19 265.88 719.644C273.06 720.556 286.698 719.479 294.882 719.935C294.967 710.235 294.903 700.534 294.688 690.835Z"/><path d="M266.008 661.488C270.963 662.117 280.177 661.886 285.385 661.793L294.609 661.541C294.662 669.325 294.255 683.593 294.831 690.787C285.122 690.739 275.413 690.774 265.705 690.893C265.867 700.262 265.562 710.455 265.88 719.644C262.906 719.599 259.887 719.523 256.918 719.511C257.025 710.918 258.028 698.283 253.997 690.762L265.981 690.836C265.941 681.054 265.95 671.271 266.008 661.488Z"/><path d="M324.054 603.009L353.52 603.025C352.628 609.189 353.057 625.141 353.112 632.112C347.513 632.115 328.691 631.732 324.051 632.374L324.054 603.009Z"/><path d="M265.613 602.966C275.353 603.131 285.095 603.156 294.836 603.04C294.893 611.048 294.593 624.169 295.217 631.787C289.125 632.631 273.388 631.859 265.982 632.188C265.809 624.233 266.457 610.299 265.613 602.966Z"/><path d="M294.936 632.373L324.051 632.374C324.185 634.41 324.107 636.799 324.093 638.868C315.641 645.986 313.656 650.235 312.321 661.127C306.3 661.009 300.996 661.089 294.974 661.287L294.936 632.373Z"/><path d="M259.105 632.55L265.721 632.536C265.349 640.889 265.492 652.962 265.764 661.301L261.625 661.21C259.112 661.22 255.447 661.489 253.34 660.379C252.494 656.9 257.554 648.072 258.332 643.311C259.175 638.148 259.174 638.013 259.105 632.55Z"/></svg>