<svg width="27" height="27" xmlns="http://www.w3.org/2000/svg" xmlns:xlink="http://www.w3.org/1999/xlink" xml:space="preserve" overflow="hidden"><g transform="translate(-726 -232)"><path d="M752.008 239.329 751.964 239.289 749.679 238.528 748.891 236.137 746.473 235.322 745.709 233.002 745.661 232.954C745.464 232.757 745.183 232.669 744.908 232.718 744.628 232.769 744.392 232.954 744.275 233.213L741.822 239.073C740.744 238.982 739.679 239.367 738.907 240.126L734.126 244.907C733.358 245.689 732.974 246.768 733.076 247.859L727.249 250.272C726.818 250.445 726.609 250.934 726.781 251.365 726.828 251.481 726.9 251.586 726.992 251.671L727.036 251.711 729.349 252.473 730.137 254.863 732.527 255.651 733.291 257.97 733.339 258.018C733.499 258.178 733.716 258.267 733.942 258.267 734.281 258.267 734.588 258.068 734.726 257.758L737.147 251.908C737.271 251.921 737.395 251.928 737.52 251.929 738.481 251.931 739.4 251.54 740.064 250.845L744.846 246.064C745.624 245.281 746.009 244.19 745.895 243.091L751.717 240.675C751.987 240.595 752.193 240.377 752.258 240.103 752.323 239.819 752.227 239.522 752.008 239.329ZM734.21 257.532C734.143 257.68 733.969 257.746 733.821 257.679 733.807 257.672 733.793 257.665 733.78 257.656L732.973 255.205 730.582 254.418 729.795 252.027 727.336 251.218C727.247 251.091 727.277 250.915 727.404 250.826 727.421 250.814 727.439 250.804 727.458 250.796L733.176 248.428C733.273 248.79 733.425 249.135 733.626 249.452L732.04 250.418C731.906 250.498 731.863 250.67 731.943 250.804 732.022 250.937 732.195 250.981 732.328 250.901 732.33 250.9 732.331 250.899 732.333 250.898L733.971 249.9C734.021 249.955 734.072 250.009 734.125 250.06L734.913 250.847C734.949 250.884 734.988 250.917 735.025 250.952L734.027 252.672C733.956 252.81 734.011 252.98 734.149 253.05 734.278 253.116 734.435 253.074 734.513 252.953L735.473 251.302C735.812 251.53 736.186 251.7 736.581 251.804ZM744.448 245.667 739.663 250.451C738.981 251.164 737.988 251.492 737.015 251.326 736.369 251.219 735.773 250.912 735.311 250.448L734.518 249.655C734.053 249.2 733.747 248.607 733.647 247.965 733.509 246.99 733.833 246.007 734.523 245.305L739.304 240.524C740.005 239.836 740.985 239.512 741.958 239.647 742.614 239.745 743.221 240.053 743.688 240.524L744.475 241.311C744.936 241.768 745.234 242.364 745.324 243.006 745.467 243.982 745.142 244.967 744.448 245.667ZM751.545 240.139 745.8 242.522C745.701 242.145 745.539 241.787 745.322 241.462L746.953 240.52C747.088 240.443 747.135 240.271 747.059 240.136 746.982 240.001 746.81 239.954 746.675 240.031 746.674 240.032 746.673 240.032 746.672 240.033L744.968 241.017C744.937 240.983 744.907 240.948 744.874 240.915L744.086 240.127C744.048 240.089 744.007 240.054 743.968 240.017L744.952 238.33C745.03 238.195 744.984 238.023 744.85 237.945 744.716 237.867 744.544 237.913 744.465 238.047L743.522 239.665C743.177 239.434 742.796 239.265 742.394 239.165L744.79 233.44C744.83 233.351 744.911 233.288 745.007 233.271 745.082 233.257 745.158 233.273 745.221 233.315L746.028 235.765 748.446 236.58 749.234 238.971 751.664 239.781C751.709 239.835 751.726 239.906 751.71 239.974 751.691 240.056 751.626 240.119 751.545 240.139Z" stroke="#04D0A0" stroke-width="0.28125" fill="#04D0A0"/></g></svg>